<svg width="68" height="72" viewBox="0 0 68 72" fill="none" xmlns="http://www.w3.org/2000/svg">
<g clip-path="url(#clip0_1101_10000)">
<path d="M33.8954 0.0908203L0.225586 11.9847L5.54632 56.2637L33.931 71.9231L62.4623 56.0514L67.7809 11.7741L33.8954 0.0908203Z" fill="white"/>
<path d="M64.4225 14.3337L33.8167 3.85742V68.1823L59.4657 53.9336L64.4222 14.3337H64.4225Z" fill="#595959"/>
<path fill-rule="evenodd" clip-rule="evenodd" d="M8.56311 54.122L4.00366 14.5215L4.00393 14.5213L33.8161 3.85547V6.19365L12.9993 52.678L20.763 52.534L24.9371 42.0543H33.8161V68.1814L8.56311 54.122ZM33.8161 21.2318V35.8505H27.6759L33.8161 21.2318Z" fill="#999999"/>
<path d="M33.8164 6.19238L33.8722 21.0973L40.9033 35.8622H33.8323L33.8164 42.0449L43.5941 42.0542L48.1639 52.6798L55.5926 52.8179L33.8164 6.19238Z" fill="#B3B3B3"/>
</g>
<defs>
<clipPath id="clip0_1101_10000">
<rect width="68" height="72" fill="white"/>
</clipPath>
</defs>
</svg>
