<svg width="85" height="50" viewBox="0 0 85 50" fill="none" xmlns="http://www.w3.org/2000/svg">
<g clip-path="url(#clip0_1400_11803)">
<path d="M24.2285 18.1591C24.2285 19.188 24.3393 20.0222 24.5332 20.634C24.7548 21.2458 25.0319 21.9132 25.4197 22.6363C25.5582 22.8587 25.6136 23.0812 25.6136 23.2759C25.6136 23.554 25.4474 23.832 25.0873 24.1101L23.342 25.2781C23.0927 25.4449 22.8433 25.5284 22.6217 25.5284C22.3447 25.5284 22.0677 25.3893 21.7906 25.139C21.4028 24.7219 21.0703 24.277 20.7933 23.832C20.5163 23.3593 20.2393 22.8309 19.9345 22.1913C17.7737 24.7497 15.0588 26.0289 11.7898 26.0289C9.46279 26.0289 7.60669 25.3615 6.24924 24.0267C4.89179 22.6919 4.19922 20.9121 4.19922 18.6874C4.19922 16.3237 5.03031 14.4049 6.72019 12.9588C8.41008 11.5128 10.654 10.7898 13.5074 10.7898C14.4493 10.7898 15.4189 10.8732 16.4439 11.0122C17.469 11.1513 18.5217 11.3738 19.6298 11.624V9.59399C19.6298 7.48053 19.1865 6.00667 18.3278 5.14461C17.4413 4.28254 15.9453 3.86541 13.8122 3.86541C12.8426 3.86541 11.8452 3.97664 10.8202 4.22692C9.79523 4.4772 8.79792 4.78309 7.82831 5.17241C7.38506 5.36707 7.05263 5.47831 6.85871 5.53393C6.66479 5.58954 6.52627 5.61735 6.41546 5.61735C6.02762 5.61735 5.8337 5.33927 5.8337 4.75528V3.39266C5.8337 2.94772 5.8891 2.61402 6.02762 2.41935C6.16613 2.22469 6.41546 2.03003 6.8033 1.83537C7.77291 1.33482 8.93643 0.917686 10.2939 0.583982C11.6513 0.222469 13.0919 0.0556173 14.6155 0.0556173C17.9122 0.0556173 20.3224 0.806451 21.8737 2.30812C23.3974 3.80979 24.1731 6.0901 24.1731 9.14906V18.1591H24.2285ZM12.9811 22.386C13.8953 22.386 14.8372 22.2191 15.8345 21.8854C16.8318 21.5517 17.7183 20.9399 18.4663 20.1057C18.9095 19.5773 19.2419 18.9933 19.4082 18.3259C19.5744 17.6585 19.6852 16.8521 19.6852 15.9066V14.7386C18.8818 14.5439 18.023 14.3771 17.1365 14.2659C16.25 14.1546 15.3912 14.099 14.5324 14.099C12.6763 14.099 11.3189 14.4605 10.4047 15.2113C9.49049 15.9622 9.04724 17.0189 9.04724 18.4093C9.04724 19.7164 9.37968 20.6897 10.0723 21.3571C10.7371 22.0523 11.7067 22.386 12.9811 22.386ZM35.2266 25.3893C34.7279 25.3893 34.3955 25.3059 34.1739 25.1112C33.9522 24.9444 33.7583 24.5551 33.5921 24.0267L27.0819 2.53059C26.9157 1.97442 26.8326 1.6129 26.8326 1.41824C26.8326 0.973304 27.0542 0.723026 27.4974 0.723026H30.2123C30.7387 0.723026 31.0988 0.806452 31.2928 1.00111C31.5144 1.16796 31.6806 1.55729 31.8468 2.08565L36.5009 20.495L40.8226 2.08565C40.9611 1.52948 41.1273 1.16796 41.3489 1.00111C41.5706 0.83426 41.9584 0.723026 42.4571 0.723026H44.6733C45.1997 0.723026 45.5598 0.806452 45.7814 1.00111C46.003 1.16796 46.197 1.55729 46.3078 2.08565L50.6849 20.7175L55.4775 2.08565C55.6437 1.52948 55.8376 1.16796 56.0315 1.00111C56.2532 0.83426 56.6133 0.723026 57.112 0.723026H59.6883C60.1316 0.723026 60.3809 0.945495 60.3809 1.41824C60.3809 1.55729 60.3532 1.69633 60.3255 1.86318C60.2978 2.03003 60.2424 2.2525 60.1316 2.5584L53.4552 24.0545C53.2889 24.6107 53.095 24.9722 52.8734 25.139C52.6518 25.3059 52.2916 25.4171 51.8207 25.4171H49.4382C48.9119 25.4171 48.5517 25.3337 48.3301 25.139C48.1085 24.9444 47.9146 24.5829 47.8037 24.0267L43.5098 6.0901L39.2435 23.9989C39.105 24.5551 38.9388 24.9166 38.7172 25.1112C38.4955 25.3059 38.1077 25.3893 37.609 25.3893H35.2266ZM70.8249 26.1402C69.3844 26.1402 67.9438 25.9733 66.5587 25.6396C65.1735 25.3059 64.0931 24.9444 63.3728 24.5273C62.9296 24.277 62.6249 23.9989 62.514 23.7486C62.4032 23.4983 62.3478 23.2202 62.3478 22.97V21.5517C62.3478 20.9677 62.5694 20.6897 62.985 20.6897C63.1512 20.6897 63.3174 20.7175 63.4836 20.7731C63.6499 20.8287 63.8992 20.9399 64.1762 21.0512C65.1181 21.4683 66.1431 21.802 67.2235 22.0245C68.3317 22.2469 69.4121 22.3582 70.5202 22.3582C72.2655 22.3582 73.6229 22.0523 74.5648 21.4405C75.5067 20.8287 76.0054 19.9388 76.0054 18.7987C76.0054 18.02 75.7561 17.3804 75.2574 16.8521C74.7588 16.3237 73.8169 15.8509 72.4594 15.406L68.4425 14.1546C66.4202 13.515 64.9242 12.5695 64.01 11.3181C63.0958 10.0946 62.6248 8.73193 62.6248 7.28587C62.6248 6.11791 62.8742 5.08899 63.3728 4.19911C63.8715 3.30923 64.5364 2.53059 65.3674 1.9188C66.1985 1.2792 67.1404 0.806452 68.2486 0.472748C69.3567 0.139043 70.5202 0 71.7391 0C72.3486 0 72.9858 0.0278087 73.5952 0.111235C74.2324 0.194661 74.8142 0.305895 75.3959 0.41713C75.95 0.556174 76.4763 0.695217 76.975 0.862069C77.4737 1.02892 77.8615 1.19577 78.1385 1.36263C78.5264 1.58509 78.8034 1.80756 78.9696 2.05784C79.1358 2.28031 79.2189 2.58621 79.2189 2.97553V4.28254C79.2189 4.86652 78.9973 5.17241 78.5818 5.17241C78.3602 5.17241 78 5.06118 77.5291 4.83871C75.95 4.11568 74.177 3.75417 72.2101 3.75417C70.631 3.75417 69.3844 4.00445 68.5256 4.53281C67.6668 5.06118 67.2235 5.86763 67.2235 7.00779C67.2235 7.78643 67.5006 8.45384 68.0546 8.9822C68.6087 9.51057 69.6337 10.0389 71.102 10.5117L75.0358 11.7631C77.0304 12.4027 78.471 13.2925 79.3298 14.4327C80.1885 15.5729 80.6041 16.8799 80.6041 18.3259C80.6041 19.5217 80.3548 20.6062 79.8838 21.5517C79.3852 22.4972 78.7203 23.3315 77.8615 23.9989C77.0027 24.6941 75.9777 25.1947 74.7865 25.5562C73.5398 25.9455 72.2378 26.1402 70.8249 26.1402Z" fill="#121212"/>
<path fill-rule="evenodd" clip-rule="evenodd" d="M76.0634 39.6552C66.9492 46.4127 53.7071 50 42.3212 50C26.3643 50 11.9864 44.0767 1.12682 34.2325C0.268028 33.4538 1.04371 32.3971 2.06872 33.0089C13.8148 39.8498 28.3035 43.9933 43.2908 43.9933C53.4024 43.9933 64.5113 41.8799 74.7337 37.5417C76.2574 36.8465 77.5594 38.5428 76.0634 39.6552Z" fill="#121212"/>
<path fill-rule="evenodd" clip-rule="evenodd" d="M79.8588 35.3175C78.6952 33.8159 72.1573 34.5945 69.1931 34.956C68.3066 35.0672 68.1681 34.2886 68.9715 33.7046C74.1796 30.0339 82.7399 31.0906 83.7372 32.3142C84.7345 33.5656 83.4601 42.1585 78.5844 46.2741C77.8364 46.9137 77.1162 46.58 77.4486 45.7458C78.5567 42.9927 81.0223 36.7914 79.8588 35.3175Z" fill="#121212"/>
</g>
<defs>
<clipPath id="clip0_1400_11803">
<rect width="85" height="50" fill="white"/>
</clipPath>
</defs>
</svg>
