<svg width="85" height="50" viewBox="0 0 85 50" fill="none" xmlns="http://www.w3.org/2000/svg">
<g clip-path="url(#clip0_1101_9975)">
<path d="M24.23 18.1591C24.23 19.188 24.3408 20.0222 24.5347 20.634C24.7563 21.2458 25.0333 21.9132 25.4212 22.6363C25.5597 22.8587 25.6151 23.0812 25.6151 23.2759C25.6151 23.554 25.4489 23.832 25.0887 24.1101L23.3435 25.2781C23.0941 25.4449 22.8448 25.5284 22.6232 25.5284C22.3461 25.5284 22.0691 25.3893 21.7921 25.139C21.4042 24.7219 21.0718 24.277 20.7948 23.832C20.5178 23.3593 20.2407 22.8309 19.936 22.1913C17.7752 24.7497 15.0603 26.0289 11.7913 26.0289C9.46425 26.0289 7.60815 25.3615 6.25071 24.0267C4.89326 22.6919 4.20068 20.9121 4.20068 18.6874C4.20068 16.3237 5.03177 14.4049 6.72166 12.9588C8.41154 11.5128 10.6555 10.7898 13.5089 10.7898C14.4508 10.7898 15.4204 10.8732 16.4454 11.0122C17.4704 11.1513 18.5231 11.3738 19.6313 11.624V9.59399C19.6313 7.48053 19.188 6.00667 18.3292 5.14461C17.4427 4.28254 15.9468 3.86541 13.8136 3.86541C12.844 3.86541 11.8467 3.97664 10.8217 4.22692C9.79669 4.4772 8.79938 4.78309 7.82978 5.17241C7.38653 5.36707 7.05409 5.47831 6.86017 5.53393C6.66625 5.58954 6.52774 5.61735 6.41692 5.61735C6.02908 5.61735 5.83516 5.33927 5.83516 4.75528V3.39266C5.83516 2.94772 5.89057 2.61402 6.02908 2.41935C6.1676 2.22469 6.41692 2.03003 6.80477 1.83537C7.77437 1.33482 8.9379 0.917686 10.2953 0.583982C11.6528 0.222469 13.0933 0.0556173 14.617 0.0556173C17.9137 0.0556173 20.3238 0.806451 21.8752 2.30812C23.3989 3.80979 24.1745 6.0901 24.1745 9.14906V18.1591H24.23ZM12.9825 22.386C13.8967 22.386 14.8386 22.2191 15.8359 21.8854C16.8333 21.5517 17.7197 20.9399 18.4677 20.1057C18.911 19.5773 19.2434 18.9933 19.4096 18.3259C19.5759 17.6585 19.6867 16.8521 19.6867 15.9066V14.7386C18.8833 14.5439 18.0245 14.3771 17.138 14.2659C16.2515 14.1546 15.3927 14.099 14.5339 14.099C12.6778 14.099 11.3204 14.4605 10.4062 15.2113C9.49196 15.9622 9.04871 17.0189 9.04871 18.4093C9.04871 19.7164 9.38114 20.6897 10.0737 21.3571C10.7386 22.0523 11.7082 22.386 12.9825 22.386ZM35.228 25.3893C34.7294 25.3893 34.397 25.3059 34.1753 25.1112C33.9537 24.9444 33.7598 24.5551 33.5936 24.0267L27.0834 2.53059C26.9171 1.97442 26.834 1.6129 26.834 1.41824C26.834 0.973304 27.0557 0.723026 27.4989 0.723026H30.2138C30.7402 0.723026 31.1003 0.806452 31.2942 1.00111C31.5158 1.16796 31.6821 1.55729 31.8483 2.08565L36.5024 20.495L40.8241 2.08565C40.9626 1.52948 41.1288 1.16796 41.3504 1.00111C41.572 0.83426 41.9599 0.723026 42.4585 0.723026H44.6748C45.2011 0.723026 45.5613 0.806452 45.7829 1.00111C46.0045 1.16796 46.1984 1.55729 46.3092 2.08565L50.6863 20.7175L55.4789 2.08565C55.6452 1.52948 55.8391 1.16796 56.033 1.00111C56.2546 0.83426 56.6148 0.723026 57.1134 0.723026H59.6898C60.133 0.723026 60.3824 0.945495 60.3824 1.41824C60.3824 1.55729 60.3547 1.69633 60.327 1.86318C60.2993 2.03003 60.2439 2.2525 60.133 2.5584L53.4566 24.0545C53.2904 24.6107 53.0965 24.9722 52.8749 25.139C52.6532 25.3059 52.2931 25.4171 51.8221 25.4171H49.4397C48.9133 25.4171 48.5532 25.3337 48.3316 25.139C48.1099 24.9444 47.916 24.5829 47.8052 24.0267L43.5112 6.0901L39.245 23.9989C39.1065 24.5551 38.9402 24.9166 38.7186 25.1112C38.497 25.3059 38.1092 25.3893 37.6105 25.3893H35.228ZM70.8264 26.1402C69.3858 26.1402 67.9453 25.9733 66.5601 25.6396C65.175 25.3059 64.0946 24.9444 63.3743 24.5273C62.931 24.277 62.6263 23.9989 62.5155 23.7486C62.4047 23.4983 62.3493 23.2202 62.3493 22.97V21.5517C62.3493 20.9677 62.5709 20.6897 62.9865 20.6897C63.1527 20.6897 63.3189 20.7175 63.4851 20.7731C63.6513 20.8287 63.9007 20.9399 64.1777 21.0512C65.1196 21.4683 66.1446 21.802 67.225 22.0245C68.3331 22.2469 69.4136 22.3582 70.5217 22.3582C72.267 22.3582 73.6244 22.0523 74.5663 21.4405C75.5082 20.8287 76.0069 19.9388 76.0069 18.7987C76.0069 18.02 75.7575 17.3804 75.2589 16.8521C74.7602 16.3237 73.8183 15.8509 72.4609 15.406L68.4439 14.1546C66.4216 13.515 64.9257 12.5695 64.0115 11.3181C63.0973 10.0946 62.6263 8.73193 62.6263 7.28587C62.6263 6.11791 62.8756 5.08899 63.3743 4.19911C63.8729 3.30923 64.5378 2.53059 65.3689 1.9188C66.2 1.2792 67.1419 0.806452 68.25 0.472748C69.3581 0.139043 70.5217 0 71.7406 0C72.3501 0 72.9872 0.0278087 73.5967 0.111235C74.2339 0.194661 74.8156 0.305895 75.3974 0.41713C75.9515 0.556174 76.4778 0.695217 76.9765 0.862069C77.4751 1.02892 77.863 1.19577 78.14 1.36263C78.5278 1.58509 78.8049 1.80756 78.9711 2.05784C79.1373 2.28031 79.2204 2.58621 79.2204 2.97553V4.28254C79.2204 4.86652 78.9988 5.17241 78.5832 5.17241C78.3616 5.17241 78.0015 5.06118 77.5305 4.83871C75.9515 4.11568 74.1785 3.75417 72.2116 3.75417C70.6325 3.75417 69.3858 4.00445 68.5271 4.53281C67.6683 5.06118 67.225 5.86763 67.225 7.00779C67.225 7.78643 67.502 8.45384 68.0561 8.9822C68.6102 9.51057 69.6352 10.0389 71.1034 10.5117L75.0373 11.7631C77.0319 12.4027 78.4724 13.2925 79.3312 14.4327C80.19 15.5729 80.6056 16.8799 80.6056 18.3259C80.6056 19.5217 80.3562 20.6062 79.8853 21.5517C79.3866 22.4972 78.7218 23.3315 77.863 23.9989C77.0042 24.6941 75.9792 25.1947 74.7879 25.5562C73.5413 25.9455 72.2393 26.1402 70.8264 26.1402Z" fill="white"/>
<path fill-rule="evenodd" clip-rule="evenodd" d="M76.0622 39.6552C66.9479 46.4127 53.7059 50 42.32 50C26.363 50 11.9852 44.0767 1.1256 34.2325C0.266807 33.4538 1.04249 32.3971 2.0675 33.0089C13.8136 39.8498 28.3022 43.9933 43.2896 43.9933C53.4012 43.9933 64.5101 41.8799 74.7325 37.5417C76.2561 36.8465 77.5582 38.5428 76.0622 39.6552Z" fill="#636363"/>
<path fill-rule="evenodd" clip-rule="evenodd" d="M79.8575 35.3165C78.694 33.8149 72.1561 34.5935 69.1919 34.955C68.3054 35.0663 68.1669 34.2876 68.9702 33.7036C74.1784 30.0329 82.7386 31.0896 83.736 32.3132C84.7333 33.5646 83.4589 42.1575 78.5832 46.2732C77.8352 46.9128 77.1149 46.5791 77.4474 45.7448C78.5555 42.9917 81.0211 36.7904 79.8575 35.3165Z" fill="#636363"/>
</g>
<defs>
<clipPath id="clip0_1101_9975">
<rect width="85" height="50" fill="white"/>
</clipPath>
</defs>
</svg>
