<svg width="30" height="30" viewBox="0 0 30 30" fill="none" xmlns="http://www.w3.org/2000/svg">
<path d="M9.55023 12.9758C9.55023 13.2883 9.57523 13.5383 9.63773 13.7508C9.70023 13.9008 9.78773 14.1008 9.90023 14.3258C9.95023 14.3758 9.96273 14.4508 9.96273 14.5133C9.96273 14.6008 9.91273 14.6758 9.80023 14.7633L9.27523 15.1133C9.20023 15.1633 9.12523 15.1883 9.06273 15.1883C8.97523 15.1883 8.90023 15.1383 8.81273 15.0633C8.70023 14.9383 8.60023 14.8133 8.51273 14.6758C8.43773 14.5383 8.35023 14.3758 8.26273 14.1883C7.61273 14.9508 6.80023 15.3383 5.81273 15.3383C5.11273 15.3383 4.56273 15.1383 4.15023 14.7383C3.75023 14.3383 3.53773 13.8008 3.53773 13.1258C3.53773 12.4383 3.78773 11.8758 4.28773 11.4258C4.80023 11.0008 5.47523 10.7758 6.32523 10.7758C6.61273 10.7758 6.87523 10.8008 7.21273 10.8508C7.50023 10.8883 7.83773 10.9508 8.16273 11.0258V10.4258C8.16273 9.78828 8.03773 9.37578 7.77523 9.08828C7.50023 8.82578 7.06273 8.71328 6.42523 8.71328C6.12523 8.71328 5.82523 8.75078 5.52523 8.81328C5.21273 8.88828 4.91273 8.97578 4.62523 9.10078C4.48773 9.15078 4.37523 9.18828 4.33773 9.20078C4.27523 9.22578 4.23773 9.22578 4.20023 9.22578C4.08773 9.22578 4.02523 9.15078 4.02523 8.97578V8.56328C4.02523 8.43828 4.03773 8.33828 4.08773 8.27578C4.12523 8.21328 4.20023 8.16328 4.31273 8.12578C4.61273 7.95078 4.95023 7.82578 5.36273 7.72578C5.77523 7.61328 6.20023 7.56328 6.66273 7.56328C7.65023 7.56328 8.37523 7.78828 8.83773 8.23828C9.30023 8.68828 9.52523 9.37578 9.52523 10.2883V12.9758H9.55023ZM6.17523 14.2508C6.45023 14.2508 6.72523 14.2008 7.02523 14.1008C7.32523 14.0008 7.58773 13.8133 7.81273 13.5633C7.95023 13.4008 8.05023 13.2258 8.12523 13.0258C8.12523 12.8258 8.18773 12.5883 8.18773 12.3008V11.9633C7.93773 11.8758 7.68773 11.8758 7.41273 11.8133C7.15023 11.7883 6.87523 11.7633 6.63773 11.7633C6.07523 11.7633 5.67523 11.8758 5.40023 12.1008C5.12523 12.3258 5.00023 12.6383 5.00023 13.0508C5.00023 13.4508 5.08773 13.7508 5.30023 13.9383C5.50023 14.1508 5.78773 14.2508 6.17523 14.2508ZM12.8502 15.1383C12.7002 15.1383 12.6002 15.1133 12.5002 15.0633C12.4627 15.0008 12.4002 14.8883 12.3502 14.7383L10.4002 8.31328C10.3502 8.12578 10.3252 8.03828 10.3252 7.97578C10.3252 7.83828 10.3877 7.76328 10.5252 7.76328H11.3377C11.5002 7.76328 11.6127 7.78828 11.6627 7.85078C11.7377 7.90078 11.7877 8.01328 11.8377 8.17578L13.2252 13.6758L14.5252 8.17578C14.5627 8.01328 14.6127 7.90078 14.6877 7.85078C14.7502 7.80078 14.8627 7.76328 15.0002 7.76328H15.6877C15.8377 7.76328 15.9502 7.78828 16.0127 7.85078C16.0752 7.90078 16.1377 8.01328 16.1752 8.17578L17.5002 13.7508L18.9252 8.17578C18.9752 8.01328 19.0377 7.90078 19.0877 7.85078C19.1627 7.80078 19.2627 7.76328 19.4127 7.76328H20.1877C20.3252 7.76328 20.4002 7.83828 20.4002 7.97578C20.4002 8.01328 20.3877 8.06328 20.3752 8.12578C20.3752 8.12578 20.3502 8.22578 20.3252 8.31328L18.3127 14.7383C18.2627 14.9133 18.2127 15.0008 18.1252 15.0633C18.0752 15.1133 17.9627 15.1508 17.8252 15.1508H17.1127C16.9502 15.1508 16.8752 15.1258 16.7752 15.0633C16.7127 15.0008 16.6502 14.9008 16.6252 14.7383L15.3377 9.37578L14.0502 14.7258C14.0127 14.8883 13.9627 15.0008 13.9002 15.0633C13.8252 15.1133 13.7127 15.1383 13.5627 15.1383H12.8502ZM23.5377 15.3633C23.1252 15.3633 22.6627 15.3133 22.2502 15.2133C21.8377 15.1133 21.5127 15.0008 21.3002 14.8883C21.1627 14.8133 21.0752 14.7258 21.0377 14.6508C21.0002 14.5758 20.9877 14.5008 20.9877 14.4258V14.0008C20.9877 13.8258 21.0502 13.7508 21.1752 13.7508C21.2502 13.7508 21.2502 13.7508 21.3252 13.7508C21.3752 13.7508 21.4502 13.8133 21.5377 13.8508C21.8127 13.9758 22.1252 14.0758 22.4502 14.1383C22.7877 14.2008 23.1252 14.2383 23.4377 14.2383C23.9627 14.2383 24.3752 14.1508 24.6502 13.9633C24.9377 13.7508 25.0877 13.5133 25.0877 13.1758C25.0877 12.9383 25.0002 12.7508 24.8627 12.5883C24.7127 12.4383 24.4252 12.2883 24.0252 12.1633L22.8127 11.7883C22.2127 11.5883 21.7627 11.3133 21.4877 10.9383C21.2127 10.5758 21.0752 10.1633 21.0752 9.72578C21.0752 9.37578 21.1502 9.07578 21.3002 8.81328C21.4502 8.53828 21.6502 8.31328 21.8752 8.12578C22.1502 7.93828 22.4252 7.80078 22.7627 7.70078C23.0877 7.60078 23.4377 7.55078 23.8127 7.55078C23.9877 7.55078 24.1752 7.56328 24.3752 7.58828C24.5502 7.61328 24.7252 7.65078 24.9002 7.67578C25.0752 7.72578 25.2252 7.76328 25.3752 7.81328C25.5252 7.86328 25.6252 7.91328 25.7252 7.96328C25.8377 8.02578 25.9252 8.08828 25.9752 8.16328C26.0252 8.23828 26.0502 8.32578 26.0502 8.43828V8.83828C26.0502 9.01328 25.9877 9.10078 25.8627 9.10078C25.8002 9.10078 25.6877 9.06328 25.5377 9.00078C25.0752 8.78828 24.5377 8.67578 23.9502 8.67578C23.4752 8.67578 23.1252 8.75078 22.8377 8.91328C22.5877 9.06328 22.4502 9.31328 22.4502 9.65078C22.4502 9.88828 22.5377 10.0883 22.7002 10.2383C22.8627 10.4008 23.1752 10.5508 23.6127 10.7008L24.8002 11.0758C25.4002 11.2508 25.8252 11.5258 26.0877 11.8758C26.3377 12.2133 26.4627 12.6008 26.4627 13.0383C26.4627 13.3883 26.3877 13.7133 26.2502 14.0008C26.1002 14.2758 25.9002 14.5258 25.6252 14.7258C25.3877 14.9383 25.0752 15.0883 24.7252 15.2008C24.3752 15.3133 23.9502 15.3633 23.5377 15.3633ZM25.1002 19.4133C22.3627 21.4258 18.3877 22.5008 15.0002 22.5008C10.1877 22.5008 5.87523 20.7258 2.61273 17.7883C2.35023 17.5508 2.58773 17.2383 2.90023 17.4258C6.42523 19.4633 10.7627 20.7008 15.2627 20.7008C18.3002 20.7008 21.6377 20.0758 24.7002 18.7508C25.1627 18.5633 25.5502 19.0758 25.1002 19.4133ZM26.2502 18.1258C25.8877 17.6633 23.9252 17.9008 23.0377 18.0008C22.7752 18.0383 22.7377 17.8008 22.9752 17.6258C24.5377 16.5383 27.1127 16.8758 27.4002 17.2133C27.7002 17.5883 27.3252 20.1633 25.8627 21.3883C25.6252 21.5758 25.4127 21.4758 25.5127 21.2508C25.8502 20.4008 26.5877 18.5508 26.2502 18.1258Z" fill="black"/>
</svg>
