<svg width="120" height="120" viewBox="0 0 120 120" fill="none" xmlns="http://www.w3.org/2000/svg">
<path fill-rule="evenodd" clip-rule="evenodd" d="M15 18H97V34L15 34V18ZM15 38L15 91H97V38L15 38ZM11 18C11 15.7909 12.7909 14 15 14H97C99.2091 14 101 15.7909 101 18V91C101 93.2091 99.2091 95 97 95H15C12.7909 95 11 93.2091 11 91V18Z" fill="#121212"/>
<rect x="20" y="44" width="22" height="8" fill="#F4B400"/>
<rect x="47" y="44" width="45" height="8" fill="#F4B400"/>
<rect x="20" y="55" width="22" height="8" fill="#F4B400"/>
<rect x="47" y="55" width="45" height="8" fill="#F4B400"/>
<rect x="20" y="66" width="22" height="8" fill="#F4B400"/>
<rect x="47" y="66" width="45" height="8" fill="#F4B400"/>
<rect x="20" y="77" width="22" height="8" fill="#F4B400"/>
<rect x="47" y="77" width="45" height="8" fill="#F4B400"/>
<path d="M110 96.2153C110 103.119 101.046 108.715 90 108.715C78.9543 108.715 70 103.119 70 96.2153C70 72.7151 70 83.7153 90 83.7153C110 83.7153 110 74.2151 110 96.2153Z" fill="white"/>
<path fill-rule="evenodd" clip-rule="evenodd" d="M102.022 101.662C104.968 99.8213 106 97.7903 106 96.2153C106 90.8193 105.99 87.6983 105.763 85.8173C105.241 85.909 104.718 86.0167 104.086 86.1467C103.586 86.2497 103.017 86.3668 102.326 86.5011C99.3578 87.0783 95.3383 87.7153 90 87.7153C84.6084 87.7153 80.54 86.9701 77.5183 86.2567C76.7739 86.0809 76.0967 85.9079 75.5025 85.755C75.4434 85.7398 75.3855 85.7249 75.3286 85.7103C74.9073 85.6018 74.5436 85.5082 74.2119 85.4269C74.0086 87.4218 74 90.6973 74 96.2153C74 97.7903 75.0325 99.8213 77.9779 101.662C80.8669 103.468 85.1069 104.715 90 104.715C94.8931 104.715 99.1331 103.468 102.022 101.662ZM90 108.715C101.046 108.715 110 103.119 110 96.2153C110 86.6694 110 83.0541 108.366 82.02C106.235 80.6708 101.322 83.7153 90 83.7153C78.6442 83.7153 73.7361 80.169 71.6148 81.4051C70 82.3461 70 86.0582 70 96.2153C70 103.119 78.9543 108.715 90 108.715Z" fill="#121212"/>
<path d="M110 86.644C110 93.5476 101.046 99.144 90 99.144C78.9543 99.144 70 93.5476 70 86.644C70 63.1438 70 74.144 90 74.144C110 74.144 110 64.6438 110 86.644Z" fill="white"/>
<path fill-rule="evenodd" clip-rule="evenodd" d="M102.022 92.0909C104.968 90.25 106 88.219 106 86.644C106 81.248 105.99 78.127 105.763 76.246C105.241 76.3377 104.718 76.4454 104.086 76.5754C103.586 76.6784 103.017 76.7955 102.326 76.9298C99.3578 77.507 95.3383 78.144 90 78.144C84.6084 78.144 80.54 77.3989 77.5183 76.6854C76.7739 76.5096 76.0967 76.3366 75.5025 76.1837C75.4434 76.1686 75.3855 76.1536 75.3286 76.139C74.9073 76.0305 74.5436 75.9369 74.2119 75.8556C74.0086 77.8505 74 81.126 74 86.644C74 88.219 75.0325 90.25 77.9779 92.0909C80.8669 93.8965 85.1069 95.144 90 95.144C94.8931 95.144 99.1331 93.8965 102.022 92.0909ZM90 99.144C101.046 99.144 110 93.5476 110 86.644C110 77.0981 110 73.4828 108.366 72.4487C106.235 71.0995 101.322 74.144 90 74.144C78.6442 74.144 73.7361 70.5977 71.6148 71.8338C70 72.7748 70 76.487 70 86.644C70 93.5476 78.9543 99.144 90 99.144Z" fill="#121212"/>
<path d="M110 77.0718C110 83.9753 101.046 89.5718 90 89.5718C78.9543 89.5718 70 83.9753 70 77.0718C70 53.5715 70 64.5718 90 64.5718C110 64.5718 110 55.0716 110 77.0718Z" fill="white"/>
<path fill-rule="evenodd" clip-rule="evenodd" d="M102.022 82.5186C104.968 80.6777 106 78.6467 106 77.0718C106 71.6758 105.99 68.5548 105.763 66.6737C105.241 66.7655 104.718 66.8731 104.086 67.0031C103.586 67.1062 103.017 67.2232 102.326 67.3576C99.3578 67.9347 95.3383 68.5718 90 68.5718C84.6084 68.5718 80.54 67.8266 77.5183 67.1131C76.7739 66.9373 76.0967 66.7643 75.5025 66.6115C75.4434 66.5963 75.3855 66.5814 75.3286 66.5667C74.9073 66.4583 74.5436 66.3647 74.2119 66.2834C74.0086 68.2783 74 71.5538 74 77.0718C74 78.6467 75.0325 80.6777 77.9779 82.5186C80.8669 84.3242 85.1069 85.5718 90 85.5718C94.8931 85.5718 99.1331 84.3242 102.022 82.5186ZM90 89.5718C101.046 89.5718 110 83.9753 110 77.0718C110 67.5259 110 63.9105 108.366 62.8764C106.235 61.5272 101.322 64.5718 90 64.5718C78.6442 64.5718 73.7361 61.0255 71.6148 62.2616C70 63.2025 70 66.9147 70 77.0718C70 83.9753 78.9543 89.5718 90 89.5718Z" fill="#121212"/>
<path d="M110 67.5C110 74.4036 101.046 80 90 80C78.9543 80 70 74.4036 70 67.5C70 60.5964 78.9543 55 90 55C101.046 55 110 60.5964 110 67.5Z" fill="white"/>
<path fill-rule="evenodd" clip-rule="evenodd" d="M102.022 72.9468C104.968 71.106 106 69.075 106 67.5C106 65.925 104.968 63.894 102.022 62.0532C99.1331 60.2475 94.8931 59 90 59C85.1069 59 80.8669 60.2475 77.9779 62.0532C75.0325 63.894 74 65.925 74 67.5C74 69.075 75.0325 71.106 77.9779 72.9468C80.8669 74.7525 85.1069 76 90 76C94.8931 76 99.1331 74.7525 102.022 72.9468ZM90 80C101.046 80 110 74.4036 110 67.5C110 60.5964 101.046 55 90 55C78.9543 55 70 60.5964 70 67.5C70 74.4036 78.9543 80 90 80Z" fill="#121212"/>
</svg>
