<svg width="30" height="30" viewBox="0 0 30 30" fill="none" xmlns="http://www.w3.org/2000/svg">
<path d="M16.1 20.3625L13.75 22.7125V18.0125M13.75 7.2875L16.1 9.6375L13.75 11.975M19.6375 9.6375L12.5 2.5H11.25V11.975L5.5125 6.25L3.75 8.0125L10.7375 15L3.75 21.975L5.5125 23.75L11.25 18.0125V27.5H12.5L19.6375 20.3625L14.2625 15M24.4125 8.3875L22.825 10C23.6125 11.475 24.0625 13.1875 24.0625 15C24.0625 16.8125 23.6125 18.525 22.825 20L24.325 21.525C25.5375 19.6 26.25 17.3375 26.25 14.8875C26.25 12.5 25.575 10.2875 24.4125 8.3875ZM17.8 15L20.7 17.9125C21.05 17 21.25 16.025 21.25 15C21.25 13.975 21.05 13 20.7125 12.1L17.8 15Z" fill="#121212"/>
</svg>
