<svg width="120" height="120" viewBox="0 0 120 120" fill="none" xmlns="http://www.w3.org/2000/svg">
<path fill-rule="evenodd" clip-rule="evenodd" d="M98 41H16V92C16 93.1046 16.8954 94 18 94H96C97.1046 94 98 93.1046 98 92V41ZM12 37V92C12 95.3137 14.6863 98 18 98H96C99.3137 98 102 95.3137 102 92V37H12Z" fill="#121212"/>
<path fill-rule="evenodd" clip-rule="evenodd" d="M11 37L103 37L103 23C103 21.8954 102.105 21 101 21L13 21C11.8954 21 11 21.8954 11 23L11 37ZM107 41L107 23C107 19.6863 104.314 17 101 17L13 17C9.6863 17 7 19.6863 7 23L7 41L107 41Z" fill="#121212"/>
<path fill-rule="evenodd" clip-rule="evenodd" d="M75.5497 47C73.9703 47 72.6614 48.2245 72.5564 49.8004L72.1061 56.5543C68.6163 57.7833 65.4489 59.6964 62.7652 62.1327L56.5175 59.0604C55.1002 58.3634 53.3853 58.8847 52.5956 60.2525L47.4023 69.2476C46.6126 70.6154 47.0186 72.3612 48.3308 73.2401L54.2521 77.2062C53.9181 78.9193 53.7431 80.6892 53.7431 82.5C53.7431 84.3108 53.9181 86.0808 54.2521 87.7938L48.3308 91.7599C47.0186 92.6388 46.6126 94.3847 47.4023 95.7525L52.5956 104.748C53.3853 106.115 55.1002 106.637 56.5175 105.94L62.7652 102.867C65.449 105.304 68.6163 107.217 72.1061 108.446L72.5564 115.2C72.6614 116.775 73.9703 118 75.5497 118H85.9364C87.5158 118 88.8247 116.775 88.9298 115.2L89.3575 108.783C93.0965 107.63 96.4951 105.701 99.3654 103.185L104.968 105.94C106.385 106.637 108.1 106.115 108.89 104.748L114.083 95.7525C114.873 94.3847 114.467 92.6389 113.155 91.7599L108.112 88.3826C108.525 86.4873 108.743 84.5191 108.743 82.5C108.743 80.481 108.525 78.5127 108.112 76.6175L113.155 73.2401C114.467 72.3612 114.873 70.6154 114.083 69.2476L108.89 60.2525C108.1 58.8847 106.385 58.3634 104.968 59.0604L99.3655 61.8155C96.4952 59.2987 93.0965 57.3698 89.3575 56.2168L88.9298 49.8004C88.8247 48.2245 87.5158 47 85.9364 47H75.5497ZM81.5 94C87.8513 94 93 88.8513 93 82.5C93 76.1487 87.8513 71 81.5 71C75.1487 71 70 76.1487 70 82.5C70 88.8513 75.1487 94 81.5 94Z" fill="white"/>
<path fill-rule="evenodd" clip-rule="evenodd" d="M75.9219 59.4514L73.4347 60.3272C70.4568 61.3759 67.75 63.0099 65.4537 65.0944L63.4403 66.9221L55.5919 63.0627L51.3341 70.4374L58.687 75.3623L58.1782 77.9718C57.8931 79.4339 57.7431 80.9475 57.7431 82.5C57.7431 84.0525 57.8931 85.5661 58.1782 87.0283L58.687 89.6377L51.3341 94.5627L55.5919 101.937L63.4403 98.0779L65.4538 99.9057C67.75 101.99 70.4569 103.624 73.4347 104.673L75.9219 105.549L76.4853 114H85.0009L85.5494 105.772L88.1788 104.961C91.3687 103.977 94.2726 102.33 96.7283 100.177L98.7353 98.4172L105.894 101.937L110.152 94.5627L103.625 90.1909L104.204 87.5309C104.557 85.9136 104.743 84.2309 104.743 82.5C104.743 80.7691 104.557 79.0864 104.204 77.4692L103.625 74.8091L110.152 70.4374L105.894 63.0627L98.7353 66.5829L96.7283 64.8231C94.2726 62.6698 91.3687 61.0228 88.1788 60.0392L85.5494 59.2283L85.0009 51H76.4853L75.9219 59.4514ZM110.929 95.0833C110.928 95.083 110.928 95.0828 110.928 95.0825L110.929 95.0833ZM54.7524 102.35C54.753 102.35 54.7536 102.35 54.7541 102.349L54.7524 102.35ZM104.968 105.94C106.385 106.637 108.1 106.115 108.89 104.748L114.083 95.7525C114.873 94.3847 114.467 92.6389 113.155 91.7599L108.112 88.3826C108.525 86.4873 108.743 84.5191 108.743 82.5C108.743 80.481 108.525 78.5127 108.112 76.6175L113.155 73.2401C114.467 72.3612 114.873 70.6154 114.083 69.2476L108.89 60.2525C108.1 58.8847 106.385 58.3634 104.968 59.0604L99.3655 61.8155C96.4952 59.2987 93.0965 57.3698 89.3575 56.2168L88.9298 49.8004C88.8247 48.2245 87.5158 47 85.9364 47H75.5497C73.9703 47 72.6614 48.2245 72.5564 49.8004L72.1061 56.5543C68.6163 57.7833 65.4489 59.6964 62.7652 62.1327L56.5175 59.0604C55.1002 58.3634 53.3853 58.8847 52.5956 60.2525L47.4023 69.2476C46.6126 70.6154 47.0186 72.3612 48.3308 73.2401L54.2521 77.2062C53.9181 78.9193 53.7431 80.6892 53.7431 82.5C53.7431 84.3108 53.9181 86.0808 54.2521 87.7938L48.3308 91.7599C47.0186 92.6388 46.6126 94.3847 47.4023 95.7525L52.5956 104.748C53.3853 106.115 55.1002 106.637 56.5175 105.94L62.7652 102.867C65.449 105.304 68.6163 107.217 72.1061 108.446L72.5564 115.2C72.6614 116.775 73.9703 118 75.5497 118H85.9364C87.5158 118 88.8247 116.775 88.9298 115.2L89.3575 108.783C93.0965 107.63 96.4951 105.701 99.3654 103.185L104.968 105.94ZM97 82.5C97 91.0604 90.0604 98 81.5 98C72.9396 98 66 91.0604 66 82.5C66 73.9396 72.9396 67 81.5 67C90.0604 67 97 73.9396 97 82.5ZM93 82.5C93 88.8513 87.8513 94 81.5 94C75.1487 94 70 88.8513 70 82.5C70 76.1487 75.1487 71 81.5 71C87.8513 71 93 76.1487 93 82.5Z" fill="#121212"/>
<path d="M47 35C47 33.8954 47.8954 33 49 33H64C65.1046 33 66 33.8954 66 35V48C66 49.1046 65.1046 50 64 50H49C47.8954 50 47 49.1046 47 48V35Z" fill="#F4B400"/>
<path fill-rule="evenodd" clip-rule="evenodd" d="M51 37V46H62V37H51ZM49 33C47.8954 33 47 33.8954 47 35V48C47 49.1046 47.8954 50 49 50H64C65.1046 50 66 49.1046 66 48V35C66 33.8954 65.1046 33 64 33H49Z" fill="#121212"/>
<path fill-rule="evenodd" clip-rule="evenodd" d="M37 8C37 5.79086 38.7909 4 41 4H73C75.2091 4 77 5.79086 77 8V18H73V8H41V18H37V8Z" fill="#121212"/>
</svg>
