<svg width="120" height="120" viewBox="0 0 120 120" fill="none" xmlns="http://www.w3.org/2000/svg">
<path fill-rule="evenodd" clip-rule="evenodd" d="M67 55H13V81C13 82.1046 13.8954 83 15 83H65C66.1046 83 67 82.1046 67 81V55ZM9 51V81C9 84.3137 11.6863 87 15 87H65C68.3137 87 71 84.3137 71 81V51H9Z" fill="#121212"/>
<path fill-rule="evenodd" clip-rule="evenodd" d="M9 51L71 51L71 43C71 41.8954 70.1046 41 69 41L11 41C9.89543 41 9 41.8954 9 43L9 51ZM75 55L75 43C75 39.6863 72.3137 37 69 37L11 37C7.6863 37 5 39.6863 5 43L5 55L75 55Z" fill="#121212"/>
<path d="M31 47.7647C31 46.7901 31.8483 46 32.8947 46H47.1053C48.1517 46 49 46.7901 49 47.7647V59.2353C49 60.2099 48.1517 61 47.1053 61H32.8947C31.8483 61 31 60.2099 31 59.2353V47.7647Z" fill="#F4B400"/>
<path fill-rule="evenodd" clip-rule="evenodd" d="M35 50V57H45V50H35ZM32.8947 46C31.8483 46 31 46.7901 31 47.7647V59.2353C31 60.2099 31.8483 61 32.8947 61H47.1053C48.1517 61 49 60.2099 49 59.2353V47.7647C49 46.7901 48.1517 46 47.1053 46H32.8947Z" fill="#121212"/>
<path fill-rule="evenodd" clip-rule="evenodd" d="M24 30C24 27.7909 25.7909 26 28 26H52C54.2091 26 56 27.7909 56 30V40H52V30H28V40H24V30Z" fill="#121212"/>
<path fill-rule="evenodd" clip-rule="evenodd" d="M104 29C106.761 29 109 26.7614 109 24C109 21.2386 106.761 19 104 19C101.239 19 99 21.2386 99 24C99 26.7614 101.239 29 104 29ZM104 33C108.971 33 113 28.9706 113 24C113 19.0294 108.971 15 104 15C99.0294 15 95 19.0294 95 24C95 28.9706 99.0294 33 104 33Z" fill="#121212"/>
<path fill-rule="evenodd" clip-rule="evenodd" d="M104 65C106.761 65 109 62.7614 109 60C109 57.2386 106.761 55 104 55C101.239 55 99 57.2386 99 60C99 62.7614 101.239 65 104 65ZM104 69C108.971 69 113 64.9706 113 60C113 55.0294 108.971 51 104 51C99.0294 51 95 55.0294 95 60C95 64.9706 99.0294 69 104 69Z" fill="#121212"/>
<path fill-rule="evenodd" clip-rule="evenodd" d="M104 101C106.761 101 109 98.7614 109 96C109 93.2386 106.761 91 104 91C101.239 91 99 93.2386 99 96C99 98.7614 101.239 101 104 101ZM104 105C108.971 105 113 100.971 113 96C113 91.0294 108.971 87 104 87C99.0294 87 95 91.0294 95 96C95 100.971 99.0294 105 104 105Z" fill="#121212"/>
<path fill-rule="evenodd" clip-rule="evenodd" d="M68 58L96 58L96 62L68 62L68 58Z" fill="#121212"/>
<path fill-rule="evenodd" clip-rule="evenodd" d="M85.5 27.5C85.5 24.1863 88.1863 21.5 91.5 21.5H96.5V25.5H91.5C90.3954 25.5 89.5 26.3954 89.5 27.5V58H85.5V27.5Z" fill="#121212"/>
<path fill-rule="evenodd" clip-rule="evenodd" d="M85.5 92.5C85.5 95.8137 88.1863 98.5 91.5 98.5L96.5 98.5L96.5 94.5L91.5 94.5C90.3954 94.5 89.5 93.6046 89.5 92.5L89.5 62L85.5 62L85.5 92.5Z" fill="#121212"/>
</svg>
