<svg width="120" height="120" viewBox="0 0 120 120" fill="none" xmlns="http://www.w3.org/2000/svg">
<rect x="8" y="19" width="92" height="86" rx="4" stroke="#272727" stroke-width="4"/>
<line x1="24" y1="12" x2="24" y2="26" stroke="#272727" stroke-width="4" stroke-linecap="round"/>
<line x1="32" y1="12" x2="32" y2="26" stroke="#272727" stroke-width="4" stroke-linecap="round"/>
<line x1="100" y1="34" x2="8" y2="34" stroke="#272727" stroke-width="4"/>
<line x1="84" y1="12" x2="84" y2="26" stroke="#272727" stroke-width="4" stroke-linecap="round"/>
<line x1="76" y1="12" x2="76" y2="26" stroke="#272727" stroke-width="4" stroke-linecap="round"/>
<rect x="18" y="42" width="15" height="15" fill="#F4B400"/>
<rect x="18" y="61" width="15" height="15" fill="#F4B400"/>
<rect x="18" y="80" width="15" height="15" fill="#F4B400"/>
<rect x="37" y="42" width="15" height="15" fill="#F4B400"/>
<rect x="37" y="61" width="15" height="15" fill="#F4B400"/>
<rect x="37" y="80" width="15" height="15" fill="#F4B400"/>
<rect x="56" y="42" width="15" height="15" fill="#F4B400"/>
<rect x="56" y="61" width="15" height="15" fill="#F4B400"/>
<rect x="56" y="80" width="15" height="15" fill="#F4B400"/>
<rect x="75" y="42" width="15" height="15" fill="#F4B400"/>
<rect x="81" y="61" width="15" height="15" fill="#F4B400"/>
<rect x="75" y="80" width="15" height="15" fill="#F4B400"/>
<circle cx="89" cy="68" r="23" fill="white" stroke="#272727" stroke-width="4"/>
<path d="M101.5 68.5H91C89.8954 68.5 89 67.6046 89 66.5V56" stroke="#272727" stroke-width="4" stroke-linecap="round"/>
</svg>
