<svg width="120" height="120" viewBox="0 0 120 120" fill="none" xmlns="http://www.w3.org/2000/svg">
<path d="M101.509 40.6959C101.367 30.6192 93.1254 22.4663 83.0158 22.4663C80.735 22.4663 78.4725 22.8917 76.3562 23.7087C74.7275 18.7697 71.6771 14.3372 67.5983 11.0394C62.7811 7.14486 56.7104 5 50.5045 5C35.8954 5 23.9382 16.5742 23.3207 31.0341C18.6712 32.4115 14.4856 35.1948 11.4034 38.9886C7.91902 43.2775 6 48.6878 6 54.2234C6 67.5558 16.8463 78.4025 30.1787 78.4025H93.2416C104.136 78.4025 113 69.5388 113 58.6438C113 50.9281 108.44 43.896 101.509 40.6959ZM93.2416 74.2508H30.1787C19.1356 74.2508 10.1513 65.2665 10.1513 54.2234C10.1513 49.6384 11.7402 45.1578 14.6256 41.6067C17.4712 38.1044 21.449 35.6415 25.8259 34.6718C26.7893 34.4584 27.469 33.5966 27.4524 32.6105L27.4513 32.5421C27.4494 32.4314 27.4472 32.3205 27.4472 32.2092C27.4472 19.4953 37.7906 9.15161 50.5045 9.15161C55.8398 9.15161 60.8482 10.9209 64.9882 14.268C69.0114 17.5204 71.8534 22.0728 72.9903 27.0859C73.1353 27.7241 73.5726 28.2569 74.1707 28.5231C74.7693 28.7893 75.4573 28.7578 76.0285 28.4379C78.1557 27.2473 80.572 26.6179 83.0158 26.6179C90.9249 26.6179 97.3595 33.0525 97.3595 40.9616C97.3595 41.2489 97.3478 41.555 97.3232 41.9253C97.262 42.8416 97.8108 43.6896 98.6718 44.0092C104.759 46.2689 108.848 52.15 108.848 58.6441C108.848 67.2498 101.847 74.2508 93.2416 74.2508Z" fill="#121212"/>
<path fill-rule="evenodd" clip-rule="evenodd" d="M38 89.5V58.5H42V89.5C42 94.4706 37.9706 98.5 33 98.5H25V94.5H33C35.7614 94.5 38 92.2614 38 89.5Z" fill="#121212"/>
<path fill-rule="evenodd" clip-rule="evenodd" d="M48 53C48 57.4183 44.4183 61 40 61C35.5817 61 32 57.4183 32 53C32 48.5817 35.5817 45 40 45C44.4183 45 48 48.5817 48 53ZM40 57C42.2091 57 44 55.2091 44 53C44 50.7909 42.2091 49 40 49C37.7909 49 36 50.7909 36 53C36 55.2091 37.7909 57 40 57Z" fill="#121212"/>
<path d="M25 97C25 99.2091 23.2091 101 21 101C18.7909 101 17 99.2091 17 97C17 94.7909 18.7909 93 21 93C23.2091 93 25 94.7909 25 97Z" fill="#F4B400"/>
<path fill-rule="evenodd" clip-rule="evenodd" d="M29 97C29 101.418 25.4183 105 21 105C16.5817 105 13 101.418 13 97C13 92.5817 16.5817 89 21 89C25.4183 89 29 92.5817 29 97ZM21 101C23.2091 101 25 99.2091 25 97C25 94.7909 23.2091 93 21 93C18.7909 93 17 94.7909 17 97C17 99.2091 18.7909 101 21 101Z" fill="#121212"/>
<path d="M103 97C103 99.2091 101.209 101 99 101C96.7909 101 95 99.2091 95 97C95 94.7909 96.7909 93 99 93C101.209 93 103 94.7909 103 97Z" fill="#F4B400"/>
<path fill-rule="evenodd" clip-rule="evenodd" d="M107 97C107 101.418 103.418 105 99 105C94.5817 105 91 101.418 91 97C91 92.5817 94.5817 89 99 89C103.418 89 107 92.5817 107 97ZM99 101C101.209 101 103 99.2091 103 97C103 94.7909 101.209 93 99 93C96.7909 93 95 94.7909 95 97C95 99.2091 96.7909 101 99 101Z" fill="#121212"/>
<path d="M64 110C64 112.209 62.2091 114 60 114C57.7909 114 56 112.209 56 110C56 107.791 57.7909 106 60 106C62.2091 106 64 107.791 64 110Z" fill="#F4B400"/>
<path fill-rule="evenodd" clip-rule="evenodd" d="M68 110C68 114.418 64.4183 118 60 118C55.5817 118 52 114.418 52 110C52 105.582 55.5817 102 60 102C64.4183 102 68 105.582 68 110ZM60 114C62.2091 114 64 112.209 64 110C64 107.791 62.2091 106 60 106C57.7909 106 56 107.791 56 110C56 112.209 57.7909 114 60 114Z" fill="#121212"/>
<path fill-rule="evenodd" clip-rule="evenodd" d="M82 89.5V58.5H78V89.5C78 94.4706 82.0294 98.5 87 98.5H95V94.5H87C84.2386 94.5 82 92.2614 82 89.5Z" fill="#121212"/>
<path fill-rule="evenodd" clip-rule="evenodd" d="M72 53C72 57.4183 75.5817 61 80 61C84.4183 61 88 57.4183 88 53C88 48.5817 84.4183 45 80 45C75.5817 45 72 48.5817 72 53ZM80 57C77.7909 57 76 55.2091 76 53C76 50.7909 77.7909 49 80 49C82.2091 49 84 50.7909 84 53C84 55.2091 82.2091 57 80 57Z" fill="#121212"/>
<path fill-rule="evenodd" clip-rule="evenodd" d="M52 53C52 57.4183 55.5817 61 60 61C64.4183 61 68 57.4183 68 53C68 48.5817 64.4183 45 60 45C55.5817 45 52 48.5817 52 53ZM60 57C57.7909 57 56 55.2091 56 53C56 50.7909 57.7909 49 60 49C62.2091 49 64 50.7909 64 53C64 55.2091 62.2091 57 60 57Z" fill="#121212"/>
<path fill-rule="evenodd" clip-rule="evenodd" d="M58 105.5V60H62V105.5H58Z" fill="#121212"/>
</svg>
