<svg width="176" height="50" viewBox="0 0 176 50" fill="none" xmlns="http://www.w3.org/2000/svg">
<g clip-path="url(#clip0_1223_4696)">
<path d="M45.8152 0H53.8239V50H45.8152V0ZM81.8544 34.05C81.8544 41.702 75.4134 42.312 73.4973 42.312C68.7101 42.312 67.8391 37.836 67.8391 35.136V16H59.8304V35.096C59.8304 39.836 61.32 43.748 63.9309 46.356C66.2374 48.662 69.6931 49.922 73.4372 49.922C76.0921 49.922 79.8522 49.096 81.8544 47.27V50H89.8631V16H81.8544V34.05ZM105.88 4H97.8718V16H91.8652V24H97.8718V50H105.88V24H111.887V16H105.88V4ZM137.108 39.834C135.365 41.4 133.062 42.268 130.535 42.268C124.965 42.268 120.875 38.182 120.875 32.572C120.875 26.962 124.835 23.048 130.535 23.048C133.018 23.048 135.365 23.874 137.152 25.44L138.368 26.484L143.768 21.092L142.416 19.874C139.239 17.008 135.02 15.4 130.533 15.4C120.522 15.4 113.252 22.616 113.252 32.53C113.252 42.402 120.697 49.876 130.533 49.876C135.104 49.876 139.367 48.268 142.504 45.356L143.81 44.138L138.326 38.75L137.108 39.834ZM172.353 18.964C170.046 16.66 167.343 15.4 163.599 15.4C160.944 15.4 157.937 16.226 155.935 18.05V0H147.926V50H155.935V31.27C155.935 23.618 161.377 23.01 163.293 23.01C168.08 23.01 167.948 27.488 167.948 30.184V50H175.957V30.226C175.957 25.486 174.966 21.574 172.353 18.964Z" fill="#4E4E4E"/>
<path d="M130.271 26.877C131.807 26.877 133.279 27.4863 134.365 28.571C135.451 29.6558 136.061 31.1269 136.061 32.661C136.061 34.195 135.451 35.6661 134.365 36.7509C133.279 37.8356 131.807 38.445 130.271 38.445C128.735 38.445 127.263 37.8356 126.177 36.7509C125.091 35.6661 124.481 34.195 124.481 32.661C124.481 31.1269 125.091 29.6558 126.177 28.571C127.263 27.4863 128.735 26.877 130.271 26.877Z" fill="#FF3D2E"/>
<path d="M34.603 37.4424C31.5577 40.5724 27.4212 42.2684 23.0685 42.2684C14.1468 42.2684 7.65973 35.2684 7.65973 25.6604C7.65973 16.0084 14.1468 9.00839 23.0685 9.00839C27.3792 9.00839 31.4696 10.7024 34.561 13.7904L35.7783 15.0084L41.1321 9.66039L39.9568 8.44239C35.518 3.87639 29.5115 1.40039 23.0685 1.40039C9.92419 1.40039 0.043457 11.8344 0.043457 25.7024C0.043457 39.5284 9.96824 49.9204 23.0685 49.9204C29.5555 49.9204 35.562 47.4004 40.0009 42.8344L41.1761 41.6164L35.8664 36.1824L34.603 37.4424Z" fill="#4E4E4E"/>
</g>
<defs>
<clipPath id="clip0_1223_4696">
<rect width="176" height="50" fill="white"/>
</clipPath>
</defs>
</svg>
