<svg width="120" height="120" viewBox="0 0 120 120" fill="none" xmlns="http://www.w3.org/2000/svg">
<path fill-rule="evenodd" clip-rule="evenodd" d="M21.6658 65H82C83.1046 65 84 64.1046 84 63V15C84 13.8954 83.1046 13 82 13H14C12.8954 13 12 13.8954 12 15V76.2248L21.6658 65ZM23.5 69H82C85.3137 69 88 66.3137 88 63V15C88 11.6863 85.3137 9 82 9H14C10.6863 9 8 11.6863 8 15V81.6124C8 83.4669 10.3054 84.3228 11.5155 82.9174L23.5 69Z" fill="#121212"/>
<path d="M106 81C106 87.7386 103.731 94.2809 99.5595 99.5728C95.3877 104.865 89.5558 108.598 83.0034 110.171C76.451 111.744 69.5598 111.065 63.4402 108.244C57.3207 105.423 52.3291 100.624 49.2698 94.6197C46.2106 88.6156 45.2619 81.7564 46.5765 75.1473C47.8911 68.5382 51.3925 62.5642 56.5166 58.1878C61.6406 53.8115 68.0889 51.2877 74.8222 51.0231C81.5556 50.7586 88.182 52.7687 93.6336 56.7295L76 81H106Z" fill="white"/>
<path fill-rule="evenodd" clip-rule="evenodd" d="M76 81L93.6336 56.7295C92.5463 55.9396 91.4123 55.2272 90.2401 54.595C85.5346 52.0574 80.2127 50.8113 74.8222 51.0231C68.0889 51.2877 61.6406 53.8115 56.5166 58.1878C51.3925 62.5642 47.8911 68.5382 46.5765 75.1473C45.2619 81.7564 46.2106 88.6156 49.2698 94.6197C52.3291 100.624 57.3207 105.423 63.4402 108.244C69.5598 111.065 76.451 111.744 83.0034 110.171C89.5558 108.598 95.3877 104.865 99.5595 99.5728C102.899 95.3363 105.019 90.2984 105.732 85C105.91 83.6801 106 82.3439 106 81H76ZM101.691 85H68.1496L87.8645 57.8648C83.9054 55.8345 79.4698 54.8436 74.9793 55.0201C69.1437 55.2493 63.5552 57.4366 59.1144 61.2295C54.6735 65.0223 51.639 70.1998 50.4996 75.9277C49.3603 81.6555 50.1825 87.6002 52.8339 92.8038C55.4852 98.0073 59.8112 102.167 65.1149 104.612C70.4185 107.057 76.3909 107.645 82.0696 106.282C87.7483 104.918 92.8027 101.683 96.4183 97.0965C99.2005 93.5672 101.006 89.3963 101.691 85Z" fill="#121212"/>
<path d="M99.5633 53.6529C103.391 56.4388 106.505 60.0911 108.651 64.3111C110.797 68.5311 111.914 73.1991 111.91 77.9335L81.9102 77.9092L99.5633 53.6529Z" fill="white"/>
<path fill-rule="evenodd" clip-rule="evenodd" d="M105.086 66.1242C103.835 63.6643 102.205 61.4271 100.262 59.4911L89.7638 73.9155L107.604 73.93C107.184 71.2195 106.337 68.584 105.086 66.1242ZM111.646 73.9332C111.822 75.2524 111.911 76.5854 111.91 77.9238C111.91 77.927 111.91 77.9302 111.91 77.9335L81.9102 77.9092L99.5633 53.6529C100.648 54.4424 101.676 55.3015 102.64 56.2233C105.079 58.5544 107.114 61.2869 108.651 64.3111C110.189 67.3352 111.198 70.5894 111.646 73.9332Z" fill="#121212"/>
<path fill-rule="evenodd" clip-rule="evenodd" d="M56.3711 101.338L88.8711 55.8379L92.1261 58.1628L59.626 103.663L56.3711 101.338Z" fill="#121212"/>
<path d="M22 36H74V42H22V36Z" fill="#F4B400"/>
<path d="M22 46H48V52H22V46Z" fill="#F4B400"/>
<path d="M22 26H74V32H22V26Z" fill="#F4B400"/>
</svg>
