<svg width="104" height="88" viewBox="0 0 104 88" fill="none" xmlns="http://www.w3.org/2000/svg">
<g clip-path="url(#clip0_1101_9981)">
<path fill-rule="evenodd" clip-rule="evenodd" d="M15.6882 71.2066V64.5109C15.6882 63.631 16.2342 62.9243 17.1385 62.9243H17.3888C18.2927 62.9243 18.8363 63.6318 18.8363 64.5109V78.6075C18.8363 82.045 17.1503 84.7802 14.2123 86.5227C12.8665 87.3259 11.3302 87.748 9.76592 87.7443H9.14152C5.72821 87.7443 3.01649 86.0447 1.28383 83.0873C0.485346 81.7318 0.0664172 80.1836 0.0715804 78.6075V77.9793C0.0715804 74.5406 1.75833 71.8069 4.69389 70.0612C6.03949 69.2563 7.57659 68.8342 9.14152 68.8397H9.76592C12.0759 68.8397 14.0356 69.7416 15.6882 71.2066ZM3.21921 78.2928C3.21921 80.776 4.41399 82.6428 6.57402 83.8337C7.44745 84.3149 8.39564 84.5736 9.39217 84.5736C11.8118 84.5736 13.6066 83.4237 14.8445 81.3583C15.4201 80.3974 15.6882 79.3461 15.6882 78.2285C15.6882 76.076 14.6767 74.3961 12.9546 73.1484C11.9105 72.3921 10.7352 72.0128 9.45352 72.0128C6.81614 72.0128 4.91814 73.355 3.77902 75.7392C3.39471 76.5454 3.21921 77.4011 3.21921 78.2928ZM29.7571 68.8397H30.1934C33.8407 68.8397 36.6146 70.6218 38.3724 73.8289C39.0752 75.1119 39.4514 76.5122 39.4514 77.9793V78.6075C39.4514 82.045 37.7687 84.7839 34.8263 86.5231C33.4641 87.3281 31.9594 87.7443 30.3807 87.7443H29.7571C26.3438 87.7443 23.6312 86.0447 21.8994 83.0873C21.1005 81.7319 20.6812 80.1838 20.6859 78.6075V77.9793C20.6859 74.5402 22.3796 71.8155 25.3078 70.062C26.6692 69.2472 28.1751 68.8397 29.7571 68.8397ZM23.834 78.2928C23.834 80.7031 25.008 82.4763 27.0291 83.7232C27.9781 84.3084 29.0234 84.5736 30.132 84.5736C32.4964 84.5736 34.2441 83.366 35.4604 81.3558C36.0406 80.3974 36.303 79.3445 36.303 78.2285C36.303 75.9872 35.2313 74.275 33.3991 73.0342C32.3953 72.3537 31.2777 72.0128 30.0687 72.0128C27.4313 72.0128 25.5333 73.355 24.3946 75.7392C24.0095 76.5454 23.834 77.4011 23.834 78.2928ZM52.538 72.2661C52.0626 72.0418 51.173 71.9674 50.6595 71.9477C48.0294 71.8479 46.1265 73.3399 45.0101 75.677C44.6246 76.4832 44.4487 77.3364 44.4487 78.2285C44.4487 80.9446 45.8645 82.8462 48.2711 84.0056C49.1502 84.4287 50.2853 84.5089 51.2461 84.5089C52.0911 84.5089 53.2854 83.9876 54.0354 83.6287L54.1654 83.5665H54.7475L54.8117 83.5796C55.5275 83.7298 56.0679 84.1869 56.0679 84.9628V85.2766C56.0679 87.2074 52.5652 87.6493 51.2286 87.7434C46.5121 88.0721 42.9846 85.4628 41.6399 80.9311C41.4063 80.1441 41.3011 79.3625 41.3011 78.5424V77.9151C41.3011 74.4763 42.9951 71.7525 45.923 70.0006C47.2843 69.1863 48.7899 68.777 50.3714 68.777H50.9954C52.6732 68.777 54.2186 69.2571 55.6039 70.2101L55.7177 70.2895L55.7896 70.409C55.9391 70.6587 56.0679 70.9476 56.0679 71.2447V71.5585C56.0679 72.368 55.4666 72.8034 54.741 72.9442L54.6809 72.9548H54.4949C54.0252 72.9548 52.9572 72.465 52.538 72.2661ZM62.7486 74.4133C63.9715 73.1799 65.1983 71.949 66.4394 70.736C66.7851 70.3976 68.0945 68.9653 68.61 68.9653H69.1739L69.2381 68.9788C69.9563 69.129 70.4942 69.5869 70.4942 70.3644V70.6779C70.4942 71.2083 69.8775 71.8245 69.5375 72.1875C68.8144 72.9597 68.053 73.7066 67.3129 74.4628L63.5095 78.3521C65.1471 80.0054 66.7831 81.6599 68.4073 83.3258C68.8578 83.7857 69.3048 84.2489 69.7483 84.7156C69.9047 84.8813 70.1355 85.0876 70.2667 85.3171C70.4077 85.5324 70.4942 85.7751 70.4942 86.0341V86.3615L70.4759 86.4372C70.2992 87.1607 69.8434 87.7443 69.0475 87.7443H68.7969C68.2761 87.7443 67.6878 87.1509 67.3311 86.8116C66.5958 86.1135 65.8861 85.3793 65.1654 84.6661L62.7486 82.2762V86.0959C62.7486 86.9757 62.2018 87.6829 61.2987 87.6829H61.0509C60.1466 87.6829 59.6006 86.9757 59.6006 86.0959V64.5722C59.6006 63.6924 60.147 62.9885 61.0509 62.9885H61.2987C62.2018 62.9885 62.7486 63.6924 62.7486 64.5722V74.4133ZM101.983 68.9653H102.296C103.24 68.9653 103.87 69.6061 103.87 70.5519C103.87 71.8647 102.624 72.2006 101.546 72.2006C100.133 72.2006 98.7826 73.0629 97.808 74.0299C96.5929 75.2367 96.0611 76.7823 96.0611 78.4814V86.1581C96.0611 87.0379 95.5155 87.7443 94.6108 87.7443H94.3622C93.4575 87.7443 92.9123 87.0383 92.9123 86.1581V78.0407C92.9123 74.9236 94.4187 72.3791 96.9301 70.5944C98.4296 69.5284 100.147 68.9657 101.983 68.9657V68.9653ZM79.6092 84.1787C80.7549 84.5818 82.061 84.5241 83.2362 84.3178C83.8375 84.0604 85.3747 83.3848 85.9402 83.4838L86.0284 83.499L86.1096 83.5391C86.455 83.7077 86.7844 83.9462 86.9607 84.3002C87.3727 85.1297 87.1748 85.9637 86.3656 86.4347L86.0962 86.5915C83.1103 88.3274 79.9342 88.0868 76.9576 86.4654C75.5346 85.6904 74.4458 84.54 73.6426 83.1376L73.455 82.8098C71.5379 79.4656 71.7966 75.9479 73.9587 72.7678C74.705 71.6686 75.6804 70.8195 76.8207 70.1553L77.2522 69.9045C80.0642 68.2692 83.0782 68.3813 85.9662 69.8165C87.5193 70.5883 88.7775 71.7386 89.6444 73.2515L89.8004 73.5241C90.4301 74.6232 89.6144 75.5808 88.7722 76.2356C87.7948 76.9951 86.808 77.9093 85.8712 78.7237C83.7822 80.5402 81.6965 82.3609 79.6092 84.1787ZM76.9056 82.266C79.2416 80.2485 81.5783 78.2289 83.9082 76.2029C84.7044 75.5113 85.5775 74.7935 86.3672 74.0663C85.7335 73.2617 84.6748 72.6819 83.7753 72.3361C81.9594 71.6392 80.1691 71.8732 78.5038 72.8415C76.3243 74.1093 75.396 76.128 75.4773 78.6402C75.5098 79.6297 75.7738 80.5832 76.295 81.425C76.4787 81.7217 76.6838 82.0004 76.9056 82.266ZM59.9171 18.7225H69.2064V28.2882H73.903C76.0724 28.2882 78.3031 27.899 80.3571 27.198C81.3667 26.853 82.4993 26.3734 83.495 25.7698C82.1836 24.0453 81.5141 21.8679 81.3175 19.7215C81.0494 16.8016 81.6344 13.0016 83.5958 10.7164L84.5724 9.57879L85.7359 10.5212C88.6654 12.8919 91.1293 16.205 91.5635 19.9817C95.091 18.9366 99.2327 19.1837 102.342 20.9913L103.617 21.7328L102.946 23.053C100.317 28.2223 94.8188 29.824 89.4441 29.5404C81.4016 49.719 63.8918 59.2719 42.6616 59.2719C31.6929 59.2719 21.63 55.1416 15.8995 45.339L15.8056 45.1794L14.9708 43.468C13.0338 39.1532 12.3903 34.4262 12.8266 29.7029L12.9578 28.2882H20.9016V18.7225H30.1906V9.36518H48.7696V0.0078125H59.9171V18.7225Z" fill="white"/>
<path fill-rule="evenodd" clip-rule="evenodd" d="M90.0128 22.2612C90.6356 17.3849 87.0131 13.5549 84.7665 11.7363C82.1775 14.7515 81.7753 22.6537 85.837 25.9807C83.5701 28.0088 78.7938 29.847 73.903 29.847H14.3691C13.8938 34.9898 14.79 39.7258 16.8371 43.7791L17.5143 45.0273C17.9431 45.7599 18.4117 46.4681 18.9179 47.1487C21.3655 47.3071 23.6223 47.3615 25.6868 47.3157C29.744 47.2256 33.0554 46.7428 35.5644 45.867C35.7418 45.8114 35.9336 45.8275 36.0994 45.9119C36.2652 45.9963 36.392 46.1423 36.4528 46.3191C36.5137 46.4959 36.5039 46.6896 36.4255 46.8592C36.3471 47.0289 36.2063 47.1612 36.0328 47.2281C35.6989 47.3451 35.3511 47.454 34.992 47.5575H34.9908C33.0152 48.1259 30.8966 48.5082 28.1633 48.678C28.3258 48.6809 27.9935 48.7025 27.9935 48.7025C27.9005 48.7087 27.7835 48.7222 27.69 48.7271C26.6143 48.7881 25.4532 48.8008 24.2662 48.8008C22.9678 48.8008 21.6893 48.7762 20.2597 48.7025L20.2232 48.7271C25.1835 54.3433 32.9396 57.7117 42.662 57.7117C63.2377 57.7117 80.6902 48.5237 88.4187 27.8967C93.9015 28.4634 99.1709 27.0549 101.568 22.3414C97.7499 20.1222 92.8399 20.8297 90.0128 22.2612Z" fill="#969696"/>
<path fill-rule="evenodd" clip-rule="evenodd" d="M90.0128 22.2612C90.6356 17.3849 87.0131 13.5549 84.7665 11.7363C82.1775 14.7515 81.7753 22.6537 85.837 25.9807C83.5701 28.0088 78.7938 29.847 73.903 29.847H17.8945C17.6516 37.723 20.553 43.7014 25.6864 47.3157H25.6876C29.7448 47.2256 33.0553 46.7428 35.5643 45.867C35.7417 45.8114 35.9336 45.8275 36.0994 45.9119C36.2652 45.9963 36.3919 46.1423 36.4528 46.3191C36.5136 46.4959 36.5038 46.6896 36.4254 46.8592C36.347 47.0289 36.2062 47.1612 36.0328 47.2281C35.6988 47.3451 35.3511 47.454 34.9919 47.5575H34.9907C33.0151 48.1259 30.7145 48.5573 27.9813 48.7271C27.9805 48.7271 27.9151 48.6637 27.9143 48.6637C34.9168 52.282 45.0702 52.269 56.7113 47.7646C69.7641 42.7131 81.9106 33.0898 90.3853 22.0828C90.2578 22.1409 90.1335 22.2002 90.0128 22.2612Z" fill="#C2C2C2"/>
<path fill-rule="evenodd" clip-rule="evenodd" d="M14.4807 36.0957C14.8504 38.8506 15.6507 41.43 16.837 43.7793L17.5142 45.0275C17.9429 45.7601 18.4115 46.4683 18.9178 47.1489C21.3658 47.3073 23.6226 47.3617 25.6875 47.3159C29.7447 47.2258 33.0553 46.743 35.5643 45.8672C35.7417 45.8116 35.9335 45.8277 36.0993 45.9121C36.2651 45.9965 36.3919 46.1425 36.4527 46.3193C36.5135 46.4961 36.5037 46.6898 36.4254 46.8594C36.347 47.0291 36.2061 47.1614 36.0327 47.2283C35.6987 47.3453 35.351 47.4542 34.9919 47.5577H34.9906C33.0151 48.1261 30.7267 48.5329 27.9934 48.7031C27.8996 48.7089 27.7358 48.7101 27.6412 48.7154C26.5662 48.776 25.417 48.8132 24.2295 48.8132C22.9315 48.8132 21.6039 48.7883 20.1751 48.715C25.1354 54.3312 32.9395 57.7118 42.6619 57.7118C60.2769 57.7118 75.6022 50.9768 84.4971 36.0957H14.4807Z" fill="#969696"/>
<path fill-rule="evenodd" clip-rule="evenodd" d="M18.4304 36.0957C19.4834 40.9328 22.014 44.73 25.6877 47.3159C29.7449 47.2258 33.0554 46.743 35.5644 45.8672C35.7418 45.8116 35.9337 45.8277 36.0995 45.9121C36.2653 45.9965 36.392 46.1425 36.4529 46.3193C36.5137 46.4961 36.5039 46.6898 36.4255 46.8594C36.3471 47.0291 36.2063 47.1614 36.0328 47.2283C35.6989 47.3453 35.3511 47.4542 34.992 47.5577H34.9908C33.0152 48.1261 30.6785 48.5329 27.9448 48.7031C34.9469 52.3207 45.0711 52.2687 56.7114 47.7648C63.7533 45.0393 70.5308 40.9823 76.6111 36.0957H18.4304Z" fill="#C2C2C2"/>
<path fill-rule="evenodd" clip-rule="evenodd" d="M22.4495 20.2822H30.5005V28.3922H22.4495V20.2822ZM23.1202 20.9582H23.7556V27.7166H23.1202V20.9582ZM24.3146 20.9582H24.9755V27.7166H24.315V20.9582H24.3146ZM25.5341 20.9582H26.1951V27.7166H25.5341V20.9582ZM26.7545 20.9582H27.4151V27.7166H26.7545V20.9582ZM27.9745 20.9582H28.635V27.7166H27.9745V20.9582ZM29.194 20.9582H29.8298V27.7166H29.194V20.9582ZM31.7388 10.9248H39.7902V19.0344H31.7384V10.9248H31.7388ZM32.4099 11.6008H33.0449V18.3588H32.4099V11.6008ZM33.6043 11.6008H34.2648V18.3588H33.6047V11.6008H33.6043ZM34.8238 11.6008H35.4844V18.3588H34.8238V11.6008ZM36.0438 11.6008H36.7044V18.3588H36.0438V11.6008ZM37.2638 11.6008H37.9247V18.3588H37.2638V11.6008ZM38.4833 11.6008H39.1195V18.3588H38.4833V11.6008Z" fill="#969696"/>
<path fill-rule="evenodd" clip-rule="evenodd" d="M31.7387 20.2822H39.7902V28.3923H31.7383V20.2822H31.7387ZM32.4098 20.9583H33.0448V27.7166H32.4098V20.9583ZM33.6042 20.9583H34.2648V27.7166H33.6046V20.9583H33.6042ZM34.8238 20.9583H35.4843V27.7166H34.8238V20.9583ZM36.0437 20.9583H36.7043V27.7166H36.0437V20.9583ZM37.2637 20.9583H37.9247V27.7166H37.2637V20.9583ZM38.4832 20.9583H39.1194V27.7166H38.4832V20.9583Z" fill="#969696"/>
<path fill-rule="evenodd" clip-rule="evenodd" d="M41.0283 20.2822H49.0794V28.3923H41.0283V20.2822ZM41.699 20.9583H42.334V27.7166H41.699V20.9583ZM42.8934 20.9583H43.554V27.7166H42.8934V20.9583ZM44.1134 20.9583H44.7739V27.7166H44.1134V20.9583ZM45.3334 20.9583H45.9939V27.7166H45.3334V20.9583ZM46.5529 20.9583H47.2143V27.7166H46.5529V20.9583ZM47.7729 20.9583H48.4083V27.7166H47.7729V20.9583Z" fill="#969696"/>
<path fill-rule="evenodd" clip-rule="evenodd" d="M41.0283 10.9248H49.0794V19.0344H41.0283V10.9248ZM41.699 11.6008H42.334V18.3588H41.699V11.6008ZM42.8934 11.6008H43.554V18.3588H42.8934V11.6008ZM44.1134 11.6008H44.7739V18.3588H44.1134V11.6008ZM45.3334 11.6008H45.9939V18.3588H45.3334V11.6008ZM46.5529 11.6008H47.2143V18.3588H46.5529V11.6008ZM47.7729 11.6008H48.4083V18.3588H47.7729V11.6008ZM50.3176 20.2822H58.3687V28.3922H50.3176V20.2822ZM50.9888 20.9582H51.6237V27.7166H50.9888V20.9582ZM52.1831 20.9582H52.8437V27.7166H52.1831V20.9582ZM53.4027 20.9582H54.0633V27.7166H53.4027V20.9582ZM54.6227 20.9582H55.2836V27.7166H54.6227V20.9582ZM55.8426 20.9582H56.5036V27.7166H55.8426V20.9582ZM57.0626 20.9582H57.698V27.7166H57.0626V20.9582Z" fill="#969696"/>
<path fill-rule="evenodd" clip-rule="evenodd" d="M50.3176 10.9248H58.3687V19.0344H50.3176V10.9248ZM50.9888 11.6008H51.6237V18.3588H50.9888V11.6008ZM52.1831 11.6008H52.8437V18.3588H52.1831V11.6008ZM53.4027 11.6008H54.0632V18.3588H53.4027V11.6008ZM54.6227 11.6008H55.2836V18.3588H54.6227V11.6008ZM55.8426 11.6008H56.5036V18.3588H55.8426V11.6008ZM57.0626 11.6008H57.698V18.3588H57.0626V11.6008Z" fill="#969696"/>
<path fill-rule="evenodd" clip-rule="evenodd" d="M50.3176 1.56738H58.3687V9.67825H50.3176V1.56738ZM50.9888 2.24302H51.6237V9.0018H50.9888V2.24261V2.24302ZM52.1831 2.24302H52.8437V9.0018H52.1831V2.24261V2.24302ZM53.4027 2.24302H54.0632V9.0018H53.4027V2.24261V2.24302ZM54.6227 2.24302H55.2836V9.0018H54.6227V2.24261V2.24302ZM55.8426 2.24302H56.5036V9.0018H55.8426V2.24261V2.24302ZM57.0626 2.24302H57.698V9.0018H57.0626V2.24261V2.24302Z" fill="#969696"/>
<path fill-rule="evenodd" clip-rule="evenodd" d="M59.6069 20.2822H67.658V28.3923H59.6069V20.2822ZM60.2772 20.9583H60.913V27.7166H60.2777V20.9583H60.2772ZM61.4716 20.9583H62.1326V27.7166H61.472V20.9583H61.4716ZM62.692 20.9583H63.353V27.7166H62.692V20.9583ZM63.9116 20.9583H64.5725V27.7166H63.9116V20.9583ZM65.1319 20.9583H65.7925V27.7166H65.1319V20.9583ZM66.3515 20.9583H66.9869V27.7166H66.3515V20.9583Z" fill="#969696"/>
<path fill-rule="evenodd" clip-rule="evenodd" d="M39.286 41.5412C39.5802 41.5373 39.8723 41.5922 40.1452 41.7029C40.4182 41.8136 40.6666 41.9778 40.876 42.186C41.0854 42.3942 41.2517 42.6423 41.3652 42.9157C41.4786 43.1892 41.537 43.4827 41.537 43.7791C41.5369 44.0755 41.4784 44.3689 41.3649 44.6423C41.2513 44.9158 41.0849 45.1637 40.8754 45.3719C40.6659 45.58 40.4175 45.7441 40.1445 45.8547C39.8715 45.9653 39.5794 46.0202 39.2852 46.0161C38.7013 46.008 38.144 45.7687 37.734 45.3499C37.324 44.9311 37.0941 44.3665 37.0942 43.7783C37.0943 43.19 37.3244 42.6255 37.7346 42.2069C38.1447 41.7882 38.7021 41.5491 39.286 41.5412Z" fill="#969696"/>
<path fill-rule="evenodd" clip-rule="evenodd" d="M39.286 42.1757C39.4891 42.1757 39.6829 42.2141 39.8617 42.2841C39.7383 42.3563 39.642 42.4673 39.5875 42.6001C39.5331 42.7329 39.5236 42.8801 39.5605 43.0188C39.5974 43.1576 39.6786 43.2803 39.7917 43.3679C39.9047 43.4555 40.0432 43.5032 40.1858 43.5036C40.4316 43.5036 40.6449 43.3665 40.7554 43.1636C40.8862 43.481 40.9122 43.8325 40.8296 44.166C40.7469 44.4995 40.5599 44.7973 40.2963 45.0156C40.0326 45.2338 39.7063 45.3609 39.3655 45.3779C39.0246 45.395 38.6874 45.3012 38.4036 45.1104C38.1197 44.9196 37.9044 44.6418 37.7892 44.3183C37.6741 43.9947 37.6654 43.6424 37.7643 43.3134C37.8632 42.9844 38.0646 42.6962 38.3386 42.4913C38.6126 42.2864 38.9448 42.1758 39.286 42.1757ZM0 36.9044H103.32C101.071 36.3299 96.2029 35.5532 97.0056 32.583C92.9147 37.3513 83.0497 35.9284 80.5598 33.5774C77.7875 37.6279 61.6472 36.088 60.5215 32.9325C57.0456 37.0415 46.2755 37.0415 42.7997 32.9325C41.6731 36.088 25.5332 37.6279 22.7606 33.577C20.2711 35.9284 10.4065 37.3513 6.31556 32.5834C7.11831 35.5532 2.25022 36.3295 0 36.9044Z" fill="#A4A3A3"/>
<path fill-rule="evenodd" clip-rule="evenodd" d="M45.19 57.664C39.6893 55.0347 36.6705 51.4602 34.9907 47.5586C32.9472 48.1458 30.4914 48.5215 27.6375 48.6827C26.5626 48.7433 25.4316 48.7744 24.2453 48.7744C22.8771 48.7744 21.4353 48.7335 19.9216 48.6529C24.966 53.7314 31.1715 57.6411 42.6619 57.7123C43.5101 57.7123 44.3519 57.6959 45.19 57.664Z" fill="#858585"/>
<path fill-rule="evenodd" clip-rule="evenodd" d="M37.0339 51.1588C36.2729 50.1181 35.5348 48.8103 34.992 47.5576C32.9486 48.1457 30.492 48.5213 27.6377 48.683C29.5983 49.7548 32.4018 50.7479 37.0343 51.1588" fill="#C2C2C2"/>
</g>
<defs>
<clipPath id="clip0_1101_9981">
<rect width="104" height="88" fill="white"/>
</clipPath>
</defs>
</svg>
