<svg width="120" height="120" viewBox="0 0 120 120" fill="none" xmlns="http://www.w3.org/2000/svg">
<path d="M102.644 64.6644C102.644 71.1093 97.428 76.3288 91 76.3288C84.572 76.3288 79.3559 71.1093 79.3559 64.6644C79.3559 58.2195 84.572 53 91 53C97.428 53 102.644 58.2195 102.644 64.6644Z" stroke="#121212" stroke-width="4"/>
<path d="M70 101.927C70 91.292 78.6211 82.6709 89.2557 82.6709H92.7443C103.379 82.6709 112 91.292 112 101.927C112 104.176 110.176 106 107.927 106H74.0731C71.8236 106 70 104.176 70 101.927Z" stroke="#121212" stroke-width="4"/>
<circle cx="29.0342" cy="64.6644" r="11.6644" stroke="#121212" stroke-width="4"/>
<path d="M8 101.927C8 91.292 16.6211 82.6709 27.2557 82.6709H30.8128C41.4474 82.6709 50.0685 91.292 50.0685 101.927C50.0685 104.176 48.2449 106 45.9954 106H12.0731C9.82357 106 8 104.176 8 101.927Z" stroke="#121212" stroke-width="4"/>
<circle cx="60.5" cy="52.5" r="15.5" stroke="#121212" stroke-width="4"/>
<path d="M33 100.222C33 86.2924 44.2924 75 58.2222 75H62.7778C76.7076 75 88 86.2924 88 100.222C88 103.413 85.4132 106 82.2222 106H38.7778C35.5868 106 33 103.413 33 100.222Z" fill="white" stroke="#121212" stroke-width="4"/>
<path d="M60.5 98.9021L59.3521 97.8571C55.275 94.16 52.5833 91.7138 52.5833 88.7292C52.5833 86.2829 54.4992 84.375 56.9375 84.375C58.315 84.375 59.6371 85.0162 60.5 86.0217C61.3629 85.0162 62.685 84.375 64.0625 84.375C66.5008 84.375 68.4167 86.2829 68.4167 88.7292C68.4167 91.7138 65.725 94.16 61.6479 97.8571L60.5 98.9021Z" fill="#F4B400"/>
<path d="M115 48L100 38.5V20C100 17.7909 98.2091 16 96 16H86C83.7909 16 82 17.7909 82 20V27L62.1682 14.3797C60.8473 13.5392 59.1574 13.5465 57.8439 14.3985L4.5 49" stroke="black" stroke-width="4" stroke-linecap="square"/>
</svg>
