<svg width="120" height="120" viewBox="0 0 120 120" fill="none" xmlns="http://www.w3.org/2000/svg">
<g clip-path="url(#clip0_1108_14806)">
<path fill-rule="evenodd" clip-rule="evenodd" d="M14 94H72C73.1046 94 74 93.1046 74 92V28.1248L58.311 12H14C12.8954 12 12 12.8954 12 14V92C12 93.1046 12.8954 94 14 94ZM14 8C10.6863 8 8 10.6863 8 14V92C8 95.3137 10.6863 98 14 98H72C75.3137 98 78 95.3137 78 92V28.1248C78 27.083 77.5935 26.0822 76.8669 25.3354L61.1779 9.21058C60.4248 8.43661 59.3908 8 58.311 8H14Z" fill="#121212"/>
<path fill-rule="evenodd" clip-rule="evenodd" d="M78 28L58 8V24C58 26.2091 59.7909 28 62 28H78ZM68.3431 24L62 17.6569L62 24H68.3431Z" fill="#121212"/>
<path d="M108 83C108 89.7386 105.731 96.2809 101.56 101.573C97.3877 106.865 91.5558 110.598 85.0034 112.171C78.451 113.744 71.5598 113.065 65.4402 110.244C59.3207 107.423 54.3291 102.624 51.2698 96.6197C48.2106 90.6156 47.2619 83.7564 48.5765 77.1473C49.8911 70.5382 53.3925 64.5642 58.5166 60.1878C63.6406 55.8115 70.0889 53.2877 76.8222 53.0231C83.5556 52.7586 90.182 54.7687 95.6336 58.7295L78 83H108Z" fill="white"/>
<path fill-rule="evenodd" clip-rule="evenodd" d="M78 83L95.6336 58.7295C94.5463 57.9396 93.4123 57.2272 92.2401 56.595C87.5346 54.0574 82.2127 52.8113 76.8222 53.0231C70.0889 53.2877 63.6406 55.8115 58.5166 60.1878C53.3925 64.5642 49.8911 70.5382 48.5765 77.1473C47.2619 83.7564 48.2106 90.6156 51.2698 96.6197C54.3291 102.624 59.3207 107.423 65.4402 110.244C71.5598 113.065 78.451 113.744 85.0034 112.171C91.5558 110.598 97.3877 106.865 101.56 101.573C104.899 97.3363 107.019 92.2984 107.732 87C107.91 85.6801 108 84.3439 108 83H78ZM103.691 87H70.1496L89.8645 59.8648C85.9054 57.8345 81.4698 56.8436 76.9793 57.0201C71.1437 57.2493 65.5552 59.4366 61.1144 63.2295C56.6735 67.0223 53.639 72.1998 52.4996 77.9277C51.3603 83.6555 52.1825 89.6002 54.8339 94.8038C57.4852 100.007 61.8112 104.167 67.1149 106.612C72.4185 109.057 78.3909 109.645 84.0696 108.282C89.7483 106.918 94.8027 103.683 98.4183 99.0965C101.2 95.5672 103.006 91.3963 103.691 87Z" fill="#121212"/>
<path d="M101.563 55.6529C105.391 58.4388 108.505 62.0911 110.651 66.3111C112.797 70.5311 113.914 75.1991 113.91 79.9335L83.9102 79.9092L101.563 55.6529Z" fill="white"/>
<path fill-rule="evenodd" clip-rule="evenodd" d="M107.086 68.1242C105.835 65.6643 104.205 63.4271 102.262 61.4911L91.7638 75.9155L109.604 75.93C109.184 73.2195 108.337 70.584 107.086 68.1242ZM113.646 75.9332C113.822 77.2524 113.911 78.5854 113.91 79.9238C113.91 79.927 113.91 79.9302 113.91 79.9335L83.9102 79.9092L101.563 55.6529C102.648 56.4424 103.676 57.3015 104.64 58.2233C107.079 60.5544 109.114 63.2869 110.651 66.3111C112.189 69.3352 113.198 72.5894 113.646 75.9332Z" fill="#121212"/>
<path fill-rule="evenodd" clip-rule="evenodd" d="M58.3711 103.338L90.8711 57.8379L94.1261 60.1628L61.626 105.663L58.3711 103.338Z" fill="#121212"/>
<path d="M22 38H59V44H22V38Z" fill="#F4B400"/>
<path d="M22 48H59V54H22V48Z" fill="#F4B400"/>
<path d="M22 28H44V34H22V28Z" fill="#F4B400"/>
</g>
<defs>
<clipPath id="clip0_1108_14806">
<rect width="120" height="120" fill="white"/>
</clipPath>
</defs>
</svg>
