<svg width="120" height="120" viewBox="0 0 120 120" fill="none" xmlns="http://www.w3.org/2000/svg">
<circle cx="61" cy="60" r="36" fill="white" stroke="#121212" stroke-width="4"/>
<circle cx="61" cy="60" r="20.5" stroke="#F4B400" stroke-width="9"/>
<mask id="path-3-outside-1_1101_9904" maskUnits="userSpaceOnUse" x="105" y="76" width="12" height="31" fill="black">
<rect fill="white" x="105" y="76" width="12" height="31"/>
<path d="M109 80H113V101C113 102.105 112.105 103 111 103C109.895 103 109 102.105 109 101V80Z"/>
</mask>
<path d="M109 80H113V101C113 102.105 112.105 103 111 103C109.895 103 109 102.105 109 101V80Z" fill="white"/>
<path d="M109 80V76H105V80H109ZM113 80H117V76H113V80ZM109 84H113V76H109V84ZM109 80V101H117V80H109ZM113 101V80H105V101H113ZM111 99C112.105 99 113 99.8954 113 101H105C105 104.314 107.686 107 111 107V99ZM109 101C109 99.8954 109.895 99 111 99V107C114.314 107 117 104.314 117 101H109Z" fill="#121212" mask="url(#path-3-outside-1_1101_9904)"/>
<mask id="path-5-outside-2_1101_9904" maskUnits="userSpaceOnUse" x="105" y="18" width="15" height="62" fill="black">
<rect fill="white" x="105" y="18" width="15" height="62"/>
<path d="M109 22H110C113.314 22 116 24.6863 116 28V49V74C116 75.1046 115.105 76 114 76H109V22Z"/>
</mask>
<path d="M109 22H110C113.314 22 116 24.6863 116 28V49V74C116 75.1046 115.105 76 114 76H109V22Z" fill="white"/>
<path d="M109 22V18H105V22H109ZM109 76H105V80H109V76ZM109 26H110V18H109V26ZM114 72H109V80H114V72ZM113 76V22H105V76H113ZM112 28V49H120V28H112ZM112 49V74H120V49H112ZM114 80C117.314 80 120 77.3137 120 74H112C112 72.8954 112.895 72 114 72V80ZM110 26C111.105 26 112 26.8954 112 28H120C120 22.4772 115.523 18 110 18V26Z" fill="#121212" mask="url(#path-5-outside-2_1101_9904)"/>
<mask id="path-7-outside-3_1101_9904" maskUnits="userSpaceOnUse" x="4" y="49" width="12" height="58" fill="black">
<rect fill="white" x="4" y="49" width="12" height="58"/>
<path d="M8 53H12V101C12 102.105 11.1046 103 10 103C8.89543 103 8 102.105 8 101V53Z"/>
</mask>
<path d="M8 53H12V101C12 102.105 11.1046 103 10 103C8.89543 103 8 102.105 8 101V53Z" fill="white"/>
<path d="M8 53V49H4V53H8ZM12 53H16V49H12V53ZM8 57H12V49H8V57ZM8 53V101H16V53H8ZM12 101V53H4V101H12ZM10 99C11.1046 99 12 99.8954 12 101H4C4 104.314 6.68629 107 10 107V99ZM8 101C8 99.8954 8.89543 99 10 99V107C13.3137 107 16 104.314 16 101H8Z" fill="#121212" mask="url(#path-7-outside-3_1101_9904)"/>
<mask id="path-9-outside-4_1101_9904" maskUnits="userSpaceOnUse" x="0" y="29" width="20" height="24" fill="black">
<rect fill="white" y="29" width="20" height="24"/>
<path d="M4 33H16V47C16 48.1046 15.1046 49 14 49H6C4.89543 49 4 48.1046 4 47V33Z"/>
</mask>
<path d="M4 33H16V47C16 48.1046 15.1046 49 14 49H6C4.89543 49 4 48.1046 4 47V33Z" fill="white"/>
<path d="M4 33V29H0V33H4ZM16 33H20V29H16V33ZM4 37H16V29H4V37ZM12 33V47H20V33H12ZM14 45H6V53H14V45ZM8 47V33H0V47H8ZM6 45C7.10457 45 8 45.8954 8 47H0C0 50.3137 2.68629 53 6 53V45ZM12 47C12 45.8954 12.8954 45 14 45V53C17.3137 53 20 50.3137 20 47H12Z" fill="#121212" mask="url(#path-9-outside-4_1101_9904)"/>
<line x1="2" y1="29" x2="2" y2="18" stroke="#121212" stroke-width="4"/>
<line x1="10" y1="29" x2="10" y2="18" stroke="#121212" stroke-width="4"/>
<line x1="18" y1="29" x2="18" y2="18" stroke="#121212" stroke-width="4"/>
</svg>
