<svg width="38" height="42" viewBox="0 0 38 42" fill="none" xmlns="http://www.w3.org/2000/svg">
<path d="M29.3039 29.7664C27.1617 31.6742 24.3334 32.7316 21.2297 32.7316C14.3876 32.7316 9.36298 27.7539 9.36298 20.9196C9.36298 14.0853 14.2277 9.31709 21.2297 9.31709C24.2793 9.31709 27.1618 10.3234 29.358 12.2311L30.8509 13.503L37.4839 6.93422L35.8238 5.4504C31.9207 1.95893 26.7387 0 21.2272 0C8.93014 0 0 8.79081 0 20.8684C0 32.8949 9.1441 42 21.2272 42C26.842 42 32.0781 40.0411 35.932 36.4936L37.5356 35.0097L30.7992 28.4459L29.3039 29.7664Z" fill="#4E4E4E"/>
<path d="M21.1138 14C22.9804 14 24.7705 14.7375 26.0904 16.0503C27.4103 17.363 28.1518 19.1435 28.1518 21C28.1518 22.8565 27.4103 24.637 26.0904 25.9497C24.7705 27.2625 22.9804 28 21.1138 28C19.2473 28 17.4571 27.2625 16.1373 25.9497C14.8174 24.637 14.0759 22.8565 14.0759 21C14.0759 19.1435 14.8174 17.363 16.1373 16.0503C17.4571 14.7375 19.2473 14 21.1138 14Z" fill="#FF3D2E"/>
</svg>
