<svg width="77" height="70" viewBox="0 0 77 70" fill="none" xmlns="http://www.w3.org/2000/svg">
<g clip-path="url(#clip0_1101_9966)">
<path d="M38.5225 70.0123L52.6905 27.0186H24.3542L38.5222 70.0123H38.5225Z" fill="white"/>
<path d="M38.5226 70.0123L24.3543 27.0186H4.49854L38.5226 70.0123Z" fill="#DADADA"/>
<path d="M4.49854 27.0186L0.193153 40.0842C0.00172221 40.6651 0.00169581 41.2908 0.193077 41.8716C0.384459 42.4525 0.757424 42.9587 1.25852 43.3177L38.5226 70.0126L4.49854 27.0186Z" fill="#B0B0B0"/>
<path d="M4.49854 27.0193H24.3543L15.8214 1.12426C15.3823 -0.208233 13.4705 -0.207937 13.0317 1.12426L4.49854 27.0193Z" fill="#C5C5C5"/>
<path d="M38.5225 70.0123L52.6905 27.0186H72.5466L38.5222 70.0123H38.5225Z" fill="#DADADA"/>
<path d="M72.5465 27.0186L76.8519 40.0842C77.0433 40.6651 77.0433 41.2908 76.8519 41.8717C76.6604 42.4526 76.2874 42.9588 75.7863 43.3177L38.5225 70.0126L72.5465 27.0189V27.0186Z" fill="#B0B0B0"/>
<path d="M72.5467 27.0193H52.6907L61.2238 1.12426C61.663 -0.208233 63.5747 -0.207937 64.0136 1.12426L72.5467 27.0193Z" fill="#C5C5C5"/>
</g>
<defs>
<clipPath id="clip0_1101_9966">
<rect width="77" height="70" fill="white"/>
</clipPath>
</defs>
</svg>
