<svg width="106" height="53" viewBox="0 0 106 53" fill="none" xmlns="http://www.w3.org/2000/svg">
<path d="M7.99728 18.9389C7.85188 18.9389 7.70648 18.7935 7.85188 18.6481L8.86971 17.194C9.01512 17.0486 9.16052 16.9032 9.45133 16.9032H27.7723C27.9177 16.9032 28.0631 17.0486 27.9177 17.194L27.0453 18.5027C26.8999 18.6481 26.7545 18.7935 26.4637 18.7935L7.99728 18.9389ZM0.290839 23.5919C0.145434 23.5919 2.88859e-05 23.4464 0.145434 23.301L1.16327 21.847C1.30867 21.7016 1.45408 21.5562 1.74489 21.5562H25.155C25.3004 21.5562 25.4458 21.7016 25.4458 21.847L25.0096 23.301C25.0096 23.4464 24.7188 23.5919 24.5734 23.5919H0.290839ZM12.6502 28.3902C12.5048 28.3902 12.3594 28.2448 12.5048 28.0994L13.2319 26.7908C13.3773 26.6453 13.5227 26.4999 13.8135 26.4999H23.9918C24.1372 26.4999 24.2826 26.6453 24.2826 26.7908L24.1372 27.954C24.1372 28.0994 23.9918 28.2448 23.8464 28.2448L12.6502 28.3902ZM65.8683 17.9211L57.2895 20.1021C56.5624 20.2475 56.417 20.3929 55.8354 19.5205C55.1084 18.6481 54.5268 18.0665 53.3635 17.6303C50.1646 16.0308 46.9657 16.467 44.0576 18.3573C40.5679 20.5384 38.8231 23.8827 38.8231 28.0994C38.8231 32.1707 41.7312 35.515 45.8025 36.0967C49.2922 36.5329 52.2003 35.3696 54.5268 32.7523C54.963 32.1707 55.3992 31.5891 55.9808 30.8621H46.0933C45.0755 30.8621 44.7847 30.1351 45.0755 29.2626C45.8025 27.6632 46.9657 25.0459 47.6928 23.7373C47.8382 23.4464 48.2744 22.8648 49.0014 22.8648H67.6132C67.4678 24.3189 67.4678 25.6275 67.3224 27.0816C66.7408 30.7167 65.4321 34.2064 63.1057 37.1145C59.4705 41.9128 54.6722 44.9663 48.5652 45.8388C43.476 46.5658 38.8231 45.548 34.7517 42.4945C30.9712 39.5864 28.7902 35.8058 28.2085 31.1529C27.4815 25.6275 29.2264 20.5384 32.5707 16.1762C36.2058 11.3779 41.0041 8.32436 46.9657 7.30653C51.7641 6.4341 56.417 7.01572 60.4884 9.77841C63.2511 11.5233 65.1413 13.9951 66.45 17.0486C66.5954 17.6303 66.45 17.7757 65.8683 17.9211Z" fill="white"/>
<path d="M82.7354 46.275C78.0824 46.1296 73.8657 44.8209 70.2306 41.7674C67.1771 39.1501 65.2868 35.8058 64.7052 31.8799C63.8328 26.0637 65.4322 20.9746 68.9219 16.467C72.7024 11.5233 77.21 9.05138 83.317 7.88814C88.5515 7.01571 93.4953 7.45193 97.8574 10.5054C101.929 13.2681 104.401 17.0486 105.128 21.9924C106 28.9718 103.964 34.4972 99.3115 39.2956C95.9672 42.7853 91.7505 44.8209 87.0975 45.8388C85.4981 46.1296 84.044 46.1296 82.7354 46.275ZM94.9494 25.6275C94.9494 24.9005 94.9494 24.4643 94.804 23.8827C93.9315 18.7935 89.2786 15.8854 84.3348 17.0486C79.5365 18.0665 76.483 21.12 75.3197 25.9183C74.4473 29.8442 76.3376 33.9156 79.9727 35.6604C82.7354 36.8237 85.6435 36.6783 88.2607 35.3696C92.4775 33.334 94.6585 29.9897 94.9494 25.6275Z" fill="white"/>
</svg>
