<svg width="340" height="50" viewBox="0 0 340 50" fill="none" xmlns="http://www.w3.org/2000/svg">
<g clip-path="url(#clip0_1223_4717)">
<path d="M20.8172 17.5833C20.8172 17.5833 18.0055 17.3071 18.0055 19.781V30.769H36.5729V34.0667C36.5729 34.0667 36.6284 35.7143 34.885 35.7143H18.0055V50H38.2608C38.2608 50 50.525 48.131 50.6383 35.7143V17.5833H20.8172ZM50.074 0H13.5035C0.279716 3.07619 0 13.7905 0 13.7905V50H14.0678V17.0333C14.0678 14.231 16.8794 13.7381 16.8794 13.7381H50.0765V0H50.074ZM98.354 39.6381C97.3895 40.2738 96.6757 40.7405 96.1718 41.0381C94.3681 42.1405 92.6488 42.9905 91.0549 43.669C88.7472 44.6024 86.6904 45.069 84.8457 45.069C78.5111 45.069 73.2664 43.1595 69.0272 39.2976C64.7881 35.4357 62.695 30.6 62.695 24.7452C62.695 19.1024 64.5831 14.2214 68.4003 10.0619C72.2174 5.90476 76.8328 3.86667 82.2872 3.86667C84.5539 3.86667 86.9845 4.24762 89.502 5.05714C92.7742 6.07381 95.417 7.60238 97.5149 9.59524L93.8641 13.5833C92.3136 12.1 90.3001 10.9952 87.9491 10.3167C86.1888 9.80714 84.2597 9.55476 82.1184 9.55476C78.3013 9.55476 75.0701 11.0786 72.5116 14.0929C69.9532 17.1476 68.6535 20.7548 68.6535 24.9976C68.6535 29.2 70.1196 32.6357 73.0566 35.3952C75.9936 38.1524 79.7264 39.5524 84.2573 39.5524C86.1454 39.5524 88.0769 38.9571 90.0469 37.8143C91.6842 36.5833 92.5234 35.9881 92.5644 35.9452V27.2476H80.3147L82.075 21.8167H98.354V39.6381ZM135.356 29.0286C135.356 33.2286 133.847 36.8786 130.825 39.9333C127.804 42.9881 124.071 44.5595 119.625 44.5595C115.513 44.5595 111.906 43.031 108.8 40.019C105.694 37.0071 104.185 33.3571 104.185 29.0714C104.185 24.8286 105.656 21.1786 108.59 18.0381C111.525 14.8976 115.135 13.3714 119.371 13.3714C124.071 13.3714 127.888 14.8571 130.866 17.869C133.847 20.7976 135.356 24.531 135.356 29.0286ZM129.608 29.1143C129.608 26.2714 128.643 23.8524 126.714 21.9C124.785 19.9048 122.393 18.9286 119.54 18.9286C116.856 18.9286 114.59 19.9476 112.702 21.9857C110.813 24.0214 109.89 26.3548 109.89 28.9857C109.89 31.7452 110.854 34.0786 112.743 36.031C114.631 37.9833 116.982 39 119.832 39C122.477 39 124.741 38.0238 126.673 36.0714C128.643 34.119 129.61 31.7857 129.61 29.1143H129.608ZM171.854 29.0286C171.854 33.2286 170.345 36.8786 167.323 39.9333C164.302 42.9881 160.569 44.5595 156.123 44.5595C152.011 44.5595 148.404 43.031 145.298 40.019C142.195 37.0071 140.683 33.3571 140.683 29.0714C140.683 24.8286 142.154 21.1786 145.088 18.0381C148.025 14.8976 151.633 13.3714 155.869 13.3714C160.569 13.3714 164.386 14.8571 167.364 17.869C170.345 20.7976 171.854 24.531 171.854 29.0286ZM166.106 29.1143C166.106 26.2714 165.141 23.8524 163.212 21.9C161.283 19.9048 158.891 18.9286 156.038 18.9286C153.354 18.9286 151.088 19.9476 149.2 21.9857C147.312 24.0214 146.388 26.3548 146.388 28.9857C146.388 31.7452 147.353 34.0786 149.243 36.031C151.129 37.9833 153.48 39 156.332 39C158.975 39 161.24 38.0238 163.171 36.0714C165.141 34.119 166.108 31.7857 166.108 29.1143H166.106ZM205.628 43.7095L200.342 44.5167V39.4667L199.209 40.7381C198.21 41.6615 197.079 42.4342 195.852 43.031C194.051 43.8513 192.089 44.2715 190.106 44.2619C185.994 44.2619 182.469 42.7762 179.616 39.7619C176.764 36.7476 175.339 33.1857 175.339 29.0286C175.339 24.7429 176.764 21.0524 179.575 17.9952C182.387 14.9381 185.826 13.4119 189.937 13.4119C192.288 13.4119 194.343 13.7929 196.062 14.5571C197.28 15.1095 198.328 15.831 199.209 16.7238C199.503 17.1048 199.797 17.5286 200.091 17.9095V4.67143L205.71 3.86429L205.628 43.7095ZM200.677 29.4095C200.677 26.4405 199.669 23.9357 197.615 21.9C195.56 19.819 193.25 18.8024 190.61 18.8024C187.673 18.8024 185.324 19.7786 183.52 21.731C181.84 23.5952 180.96 25.8881 180.96 28.5619C180.96 31.5738 181.84 34.0762 183.602 36.0286C185.363 37.981 187.588 38.9571 190.316 38.9571C192.999 38.9571 195.35 38.0667 197.448 36.2429C199.587 34.3738 200.68 32.0833 200.68 29.4095H200.677ZM235.287 10.1905H219.556V20.7548H231.762V26.1857H219.556V43.669L213.431 44.5595V4.71429H234.069L235.287 10.1905ZM247.915 7.09048L244.139 11.8L240.532 7.09048L244.349 2.42381L247.915 7.09048ZM246.782 43.7095L241.161 44.4738V14.9833L246.782 14.1357V43.7119V43.7095ZM272.164 13.8381L269.521 19.8619C269.174 19.8096 268.823 19.7818 268.472 19.7786C267.927 19.7786 267.382 19.8214 266.835 19.9048C266.288 19.9881 265.702 20.2024 265.075 20.5C263.9 21.0095 262.892 22.1119 262.012 23.7667C261.038 25.6447 260.534 27.7258 260.541 29.8357V43.669L254.923 44.5595V14.9833L260.124 14.05V20.2024C260.794 19.1405 261.508 18.081 262.179 16.9786C263.143 15.8738 264.276 15.069 265.535 14.6C266.206 14.3476 267.423 14.1333 269.268 13.9643C271.031 13.8381 272.039 13.7524 272.164 13.8381ZM314.03 43.7095L308.409 44.5167V24.2762C308.409 22.4071 307.989 21.05 307.15 20.2024C306.311 19.3524 305.052 18.9286 303.415 18.9286C301.445 18.9286 299.933 19.7357 298.928 21.3476C298.255 22.45 297.879 23.6381 297.879 24.8262V43.6667L292.258 44.6857V24.4024C292.258 22.6214 291.838 21.2619 291.04 20.331C290.201 19.3952 289.111 18.9286 287.683 18.9286H287.138C285.166 18.9286 283.738 19.7357 282.858 21.3905C282.188 22.6214 281.853 24.1905 281.853 26.1V43.6667L276.022 44.6857V14.9833L281.264 14.0929V17.869C281.853 16.9762 282.439 16.2548 282.986 15.7476C284.496 14.3476 286.258 13.6667 288.228 13.6667C290.452 13.6667 292.087 14.0071 293.22 14.7286C294.184 15.3238 295.108 16.5095 296.031 18.2071C297.961 15.1952 300.688 13.6667 304.298 13.6667C307.736 13.6667 310.297 14.7286 311.973 16.8929C313.359 18.6738 314.03 21.3048 314.03 24.7429V43.7095ZM339.711 34.7571C339.711 37.4714 338.746 39.7214 336.817 41.4619C334.888 43.2429 332.452 44.0929 329.515 44.0929C327.292 44.0929 325.32 43.5833 323.516 42.5643C321.712 41.5476 320.372 40.4 319.489 39.0429L323.434 35.5643C323.726 35.9881 323.979 36.3262 324.23 36.581C325.701 38.0667 327.461 38.831 329.515 38.831C330.943 38.831 332.076 38.45 332.872 37.7286C333.711 37.0071 334.09 35.9881 334.09 34.6714C334.09 33.1881 333.125 32.169 331.196 31.6167C327.377 30.4714 325.32 29.8357 325.028 29.7071C323.265 28.8167 322.007 27.8833 321.208 26.8214C320.328 25.5905 319.868 23.9786 319.868 21.9C319.868 19.3524 320.832 17.2333 322.72 15.5357C324.608 13.8381 326.873 13.031 329.472 13.031C331.447 13.031 333.292 13.4548 334.97 14.3476C336.648 15.2381 337.864 16.1714 338.577 17.2762L335.221 20.881C334.717 20.3827 334.17 19.9286 333.586 19.5238C332.243 18.5905 330.943 18.1238 329.728 18.1238C328.551 18.1238 327.586 18.3786 326.832 18.8857C325.949 19.5238 325.488 20.4571 325.488 21.6881C325.488 22.8762 325.908 23.7667 326.791 24.319C327.545 24.7857 329.139 25.2952 331.657 25.8452C334.172 26.4405 336.103 27.4595 337.487 28.9024C339.04 30.4286 339.711 32.3381 339.711 34.7571Z" fill="#3A7AF3"/>
</g>
<defs>
<clipPath id="clip0_1223_4717">
<rect width="340" height="50" fill="white"/>
</clipPath>
</defs>
</svg>
