<svg width="30" height="30" viewBox="0 0 30 30" fill="none" xmlns="http://www.w3.org/2000/svg">
<path d="M28.75 18.4375C28.75 22.75 25.25 26.25 20.9375 26.25H9.0625C4.75 26.25 1.25 22.75 1.25 18.4375C1.25 15.7625 2.6 13.4 4.6375 12C5.725 7.275 9.95 3.75 15 3.75C20.05 3.75 24.275 7.275 25.3625 12C27.4125 13.4 28.75 15.7625 28.75 18.4375ZM20.7875 21.25C22.425 21.25 23.75 19.925 23.75 18.2875C23.75 16.6875 22.5 15.375 20.9 15.3125L20.9375 14.6875C20.9375 11.4125 18.275 8.75 15 8.75C13.225 8.75 11.625 9.525 10.5375 10.7625C12.4125 11.125 14.0375 12.15 15.175 13.575L11.875 16.875C11.35 15.9625 10.3625 15.3125 9.225 15.3125C7.575 15.3125 6.25 16.6375 6.25 18.2875C6.25 19.875 7.5 21.1625 9.0625 21.25H20.7875Z" fill="black"/>
</svg>
