<svg width="120" height="120" viewBox="0 0 120 120" fill="none" xmlns="http://www.w3.org/2000/svg">
<path fill-rule="evenodd" clip-rule="evenodd" d="M21.5 14.0801C22.6046 14.0801 23.5 14.9755 23.5 16.0801V105.08C23.5 106.185 22.6046 107.08 21.5 107.08C20.3954 107.08 19.5 106.185 19.5 105.08V16.0801C19.5 14.9755 20.3954 14.0801 21.5 14.0801Z" fill="#121212"/>
<path fill-rule="evenodd" clip-rule="evenodd" d="M108.5 97.0801C108.5 98.1846 107.605 99.0801 106.5 99.0801L13.5 99.0801C12.3954 99.0801 11.5 98.1846 11.5 97.0801C11.5 95.9755 12.3954 95.0801 13.5 95.0801L106.5 95.0801C107.605 95.0801 108.5 95.9755 108.5 97.0801Z" fill="#121212"/>
<path fill-rule="evenodd" clip-rule="evenodd" d="M20 84.0801C20 82.9755 20.8954 82.0801 22 82.0801H30C31.1046 82.0801 32 82.9755 32 84.0801C32 85.1846 31.1046 86.0801 30 86.0801H22C20.8954 86.0801 20 85.1846 20 84.0801Z" fill="black"/>
<path fill-rule="evenodd" clip-rule="evenodd" d="M20 73.0801C20 71.9755 20.8954 71.0801 22 71.0801H30C31.1046 71.0801 32 71.9755 32 73.0801C32 74.1846 31.1046 75.0801 30 75.0801H22C20.8954 75.0801 20 74.1846 20 73.0801Z" fill="black"/>
<path fill-rule="evenodd" clip-rule="evenodd" d="M20 62.0801C20 60.9755 20.8954 60.0801 22 60.0801H30C31.1046 60.0801 32 60.9755 32 62.0801C32 63.1846 31.1046 64.0801 30 64.0801H22C20.8954 64.0801 20 63.1846 20 62.0801Z" fill="black"/>
<path fill-rule="evenodd" clip-rule="evenodd" d="M20 51.0801C20 49.9755 20.8954 49.0801 22 49.0801H30C31.1046 49.0801 32 49.9755 32 51.0801C32 52.1846 31.1046 53.0801 30 53.0801H22C20.8954 53.0801 20 52.1846 20 51.0801Z" fill="black"/>
<path fill-rule="evenodd" clip-rule="evenodd" d="M20 40.0801C20 38.9755 20.8954 38.0801 22 38.0801H30C31.1046 38.0801 32 38.9755 32 40.0801C32 41.1846 31.1046 42.0801 30 42.0801H22C20.8954 42.0801 20 41.1846 20 40.0801Z" fill="black"/>
<path fill-rule="evenodd" clip-rule="evenodd" d="M20 29.0801C20 27.9755 20.8954 27.0801 22 27.0801H30C31.1046 27.0801 32 27.9755 32 29.0801C32 30.1846 31.1046 31.0801 30 31.0801H22C20.8954 31.0801 20 30.1846 20 29.0801Z" fill="black"/>
<path d="M42 63.0801H58V89.0801H42V63.0801Z" fill="#F4B400"/>
<path d="M62 53.0801H78V89.0801H62V53.0801Z" fill="#F4B400"/>
<path d="M82 43.0801H98V89.0801H82V43.0801Z" fill="#F4B400"/>
<path fill-rule="evenodd" clip-rule="evenodd" d="M94.8594 25.8086L90.923 26.5191L89.502 18.6463L81.6292 20.0673L80.9187 16.1309L92.7279 13.9994L94.8594 25.8086Z" fill="#121212"/>
<path fill-rule="evenodd" clip-rule="evenodd" d="M90.6251 17.4254C91.5385 18.0466 91.7754 19.2905 91.1543 20.2039C77.1873 40.7437 53.6119 50.9451 43.4933 53.5176C42.4228 53.7898 41.3343 53.1426 41.0621 52.0721C40.79 51.0016 41.4372 49.9131 42.5077 49.641C52.0557 47.2135 74.6137 37.4149 87.8466 17.9547C88.4677 17.0413 89.7117 16.8043 90.6251 17.4254Z" fill="#121212"/>
</svg>
