<svg width="120" height="120" viewBox="0 0 120 120" fill="none" xmlns="http://www.w3.org/2000/svg">
<path fill-rule="evenodd" clip-rule="evenodd" d="M68 12H117V106H89.3736L101.594 61.6998C95.7636 59.2463 87.92 54.4656 81.2777 47.2411C73.931 39.2505 68 28.2034 68 14V12ZM72.0431 16C72.5645 28.0396 77.7562 37.5011 84.2223 44.5339C91.0701 51.9819 99.2929 56.6386 104.69 58.6228L106.417 59.2579L94.6264 102H113V16H72.0431Z" fill="#121212"/>
<path fill-rule="evenodd" clip-rule="evenodd" d="M49 16H21V94H49V16ZM17 12V98H53V12H17Z" fill="#121212"/>
<path d="M3 94H77V98C77 102.418 73.4183 106 69 106H11C6.58172 106 3 102.418 3 98V94Z" fill="white"/>
<path fill-rule="evenodd" clip-rule="evenodd" d="M73 98L7 98C7 100.209 8.79086 102 11 102H69C71.2091 102 73 100.209 73 98ZM3 94V98C3 102.418 6.58172 106 11 106H69C73.4183 106 77 102.418 77 98V94H3Z" fill="#121212"/>
<path d="M10 63C10 57.4772 14.4772 53 20 53H60C65.5228 53 70 57.4772 70 63V98H10V63Z" fill="white"/>
<path fill-rule="evenodd" clip-rule="evenodd" d="M60 57H20C16.6863 57 14 59.6863 14 63V94H66V63C66 59.6863 63.3137 57 60 57ZM20 53C14.4772 53 10 57.4772 10 63V98H70V63C70 57.4772 65.5228 53 60 53H20Z" fill="#121212"/>
<path d="M17 61H63V91H17V61Z" fill="#F4B400"/>
<path fill-rule="evenodd" clip-rule="evenodd" d="M115 16H42V12H115V16Z" fill="#121212"/>
<path fill-rule="evenodd" clip-rule="evenodd" d="M29 13C30.1046 13 31 13.8954 31 15V28C31 29.1046 30.1046 30 29 30C27.8954 30 27 29.1046 27 28V15C27 13.8954 27.8954 13 29 13Z" fill="#121212"/>
<path fill-rule="evenodd" clip-rule="evenodd" d="M41.5 13C42.6046 13 43.5 13.8954 43.5 15V28C43.5 29.1046 42.6046 30 41.5 30C40.3954 30 39.5 29.1046 39.5 28V15C39.5 13.8954 40.3954 13 41.5 13Z" fill="#121212"/>
<path fill-rule="evenodd" clip-rule="evenodd" d="M90 13C91.1046 13 92 13.8954 92 15V28C92 29.1046 91.1046 30 90 30C88.8954 30 88 29.1046 88 28V15C88 13.8954 88.8954 13 90 13Z" fill="#121212"/>
<path fill-rule="evenodd" clip-rule="evenodd" d="M103 13C104.105 13 105 13.8954 105 15V28C105 29.1046 104.105 30 103 30C101.895 30 101 29.1046 101 28V15C101 13.8954 101.895 13 103 13Z" fill="#121212"/>
<path fill-rule="evenodd" clip-rule="evenodd" d="M15 104C15 102.895 15.8954 102 17 102H115C116.105 102 117 102.895 117 104C117 105.105 116.105 106 115 106H17C15.8954 106 15 105.105 15 104Z" fill="#121212"/>
<path d="M81 78C81 76.8954 81.8954 76 83 76H102C103.105 76 104 76.8954 104 78V106H81V78Z" fill="white"/>
<path fill-rule="evenodd" clip-rule="evenodd" d="M85 80V102H100V80H85ZM83 76C81.8954 76 81 76.8954 81 78V106H104V78C104 76.8954 103.105 76 102 76H83Z" fill="#121212"/>
<path fill-rule="evenodd" clip-rule="evenodd" d="M45 69H21V65H45V69Z" fill="#121212"/>
<path fill-rule="evenodd" clip-rule="evenodd" d="M45 76H21V72H45V76Z" fill="#121212"/>
<path fill-rule="evenodd" clip-rule="evenodd" d="M107.5 90.5C107.5 87.4624 105.038 85 102 85V81C107.247 81 111.5 85.2533 111.5 90.5C111.5 95.7467 107.247 100 102 100V96C105.038 96 107.5 93.5376 107.5 90.5Z" fill="#121212"/>
</svg>
