<svg width="120" height="120" viewBox="0 0 120 120" fill="none" xmlns="http://www.w3.org/2000/svg">
<path d="M18 77V26H92V30.4508H86.0281L78.8267 33.6553L74.0843 42.2008V50.7462L81.9883 60.8939L92 62.6742V69.7273H78.8267L69.8689 77H18Z" fill="#F4B400"/>
<path d="M35.5508 35.9668L28.0999 43.4177L35.5508 50.8686" stroke="#121212" stroke-width="4"/>
<path d="M58.5312 50.7188L65.9822 43.2678L58.5312 35.8169" stroke="#121212" stroke-width="4"/>
<line x1="39.5101" y1="52.5293" x2="51.101" y2="32.4533" stroke="#121212" stroke-width="4"/>
<line x1="27" y1="58" x2="67" y2="58" stroke="#121212" stroke-width="4"/>
<line x1="27" y1="65" x2="67" y2="65" stroke="#121212" stroke-width="4"/>
<circle cx="90.5" cy="46.5" r="15.5" stroke="#121212" stroke-width="4"/>
<path d="M63 94.2222C63 80.2924 74.2924 69 88.2222 69H92.7778C106.708 69 118 80.2924 118 94.2222C118 97.4132 115.413 100 112.222 100H68.7778C65.5868 100 63 97.4132 63 94.2222Z" stroke="#121212" stroke-width="4"/>
<path fill-rule="evenodd" clip-rule="evenodd" d="M18 22H92C94.2091 22 96 23.7909 96 26V32.8535C97.4483 33.3654 98.7946 34.0935 100 34.9989V26C100 21.5817 96.4183 18 92 18H18C13.5817 18 10 21.5817 10 26V81H0V88C0 92.4183 3.58172 96 8 96H63.9978C63.6174 94.8603 63.3344 93.5123 63.2585 92H8C5.79086 92 4 90.2091 4 88V85H10H64.3841C64.8599 83.7111 65.5036 82.373 66.3505 81H14V26C14 23.7909 15.7909 22 18 22ZM100 59.0011C98.7946 59.9065 97.4483 60.6346 96 61.1465V69.4375L100 69.9375V59.0011Z" fill="#121212"/>
</svg>
