<svg width="120" height="120" viewBox="0 0 120 120" fill="none" xmlns="http://www.w3.org/2000/svg">
<path fill-rule="evenodd" clip-rule="evenodd" d="M18 94H76C77.1046 94 78 93.1046 78 92V28.1248L62.311 12H18C16.8954 12 16 12.8954 16 14V92C16 93.1046 16.8954 94 18 94ZM18 8C14.6863 8 12 10.6863 12 14V92C12 95.3137 14.6863 98 18 98H76C79.3137 98 82 95.3137 82 92V28.1248C82 27.083 81.5935 26.0822 80.8669 25.3354L65.1779 9.21058C64.4248 8.43661 63.3908 8 62.311 8H18Z" fill="#121212"/>
<path fill-rule="evenodd" clip-rule="evenodd" d="M82 28L62 8V24C62 26.2091 63.7909 28 66 28H82ZM72.3431 24L66 17.6569L66 24H72.3431Z" fill="#121212"/>
<path d="M26 56H63V62H26V56Z" fill="#F4B400"/>
<path d="M26 66H63V72H26V66Z" fill="#F4B400"/>
<path d="M36 34H58V40H36V34Z" fill="#F4B400"/>
<path d="M50 26L50 48L44 48L44 26L50 26Z" fill="#F4B400"/>
<path d="M57 53.0003L79.88 46.327C80.6114 46.1137 81.3886 46.1137 82.12 46.327L105 53.0003V74.5029C105 83.7854 101.313 92.6878 94.7487 99.2516L84.5355 109.465C82.5829 111.417 79.4171 111.417 77.4645 109.465L67.2513 99.2516C60.6875 92.6878 57 83.7854 57 74.5029V53.0003Z" fill="white"/>
<path fill-rule="evenodd" clip-rule="evenodd" d="M105 53.0003L82.12 46.327C81.3886 46.1137 80.6114 46.1137 79.88 46.327L57 53.0003V74.5029C57 83.7854 60.6875 92.6878 67.2513 99.2516L77.4645 109.465C79.4171 111.417 82.5829 111.417 84.5355 109.465L94.7487 99.2516C101.313 92.6878 105 83.7854 105 74.5029V53.0003ZM101 74.5029V56.0003L81 50.167L61 56.0003V74.5029C61 82.7246 64.2661 90.6095 70.0797 96.4232L80.2929 106.636C80.6834 107.027 81.3166 107.027 81.7071 106.636L91.9203 96.4232C97.7339 90.6095 101 82.7246 101 74.5029Z" fill="#121212"/>
<path d="M57 53.0003L79.88 46.327C80.6114 46.1137 81.3886 46.1137 82.12 46.327L105 53.0003V74.5029C105 83.7854 101.313 92.6878 94.7487 99.2516L84.5355 109.465C82.5829 111.417 79.4171 111.417 77.4645 109.465L67.2513 99.2516C60.6875 92.6878 57 83.7854 57 74.5029V53.0003Z" fill="white"/>
<path fill-rule="evenodd" clip-rule="evenodd" d="M105 53.0003L82.12 46.327C81.3886 46.1137 80.6114 46.1137 79.88 46.327L57 53.0003V74.5029C57 83.7854 60.6875 92.6878 67.2513 99.2516L77.4645 109.465C79.4171 111.417 82.5829 111.417 84.5355 109.465L94.7487 99.2516C101.313 92.6878 105 83.7854 105 74.5029V53.0003ZM101 74.5029V56.0003L81 50.167L61 56.0003V74.5029C61 82.7246 64.2661 90.6095 70.0797 96.4232L80.2929 106.636C80.6834 107.027 81.3166 107.027 81.7071 106.636L91.9203 96.4232C97.7339 90.6095 101 82.7246 101 74.5029Z" fill="#121212"/>
<path fill-rule="evenodd" clip-rule="evenodd" d="M78.6066 80.7487L69.4142 71.5563L66.5858 74.3848L78.6066 86.4056L96.9914 68.0208L94.163 65.1924L78.6066 80.7487Z" fill="#121212"/>
</svg>
