<svg width="120" height="120" viewBox="0 0 120 120" fill="none" xmlns="http://www.w3.org/2000/svg">
<path fill-rule="evenodd" clip-rule="evenodd" d="M91 38H11V92C11 93.1046 11.8954 94 13 94H91C92.1046 94 93 93.1046 93 92V40C93 38.8954 92.1046 38 91 38ZM7 34V92C7 95.3137 9.68629 98 13 98H91C94.3137 98 97 95.3137 97 92V40C97 36.6863 94.3137 34 91 34H7Z" fill="#121212"/>
<path d="M17 23H57C60.3137 23 63 25.6863 63 29V38H17V23Z" fill="white"/>
<path fill-rule="evenodd" clip-rule="evenodd" d="M57 27H21V34H59V29C59 27.8954 58.1046 27 57 27ZM17 23V38H63V29C63 25.6863 60.3137 23 57 23H17Z" fill="#121212"/>
<path d="M7 23H47C50.3137 23 53 25.6863 53 29V38H7V23Z" fill="white"/>
<path fill-rule="evenodd" clip-rule="evenodd" d="M47 27H11V34H49V29C49 27.8954 48.1046 27 47 27ZM7 23V38H53V29C53 25.6863 50.3137 23 47 23H7Z" fill="#121212"/>
<path d="M19 56H41V62H19V56Z" fill="#F4B400"/>
<path d="M19 46H56V52H19V46Z" fill="#F4B400"/>
<g clip-path="url(#clip0_1108_15801)">
<path d="M117 37H59V95H117V37Z" fill="white" fill-opacity="0.01"/>
<path fill-rule="evenodd" clip-rule="evenodd" d="M78.332 54.708C71.4521 54.708 65.832 60.2824 65.832 67.208C65.832 68.3126 64.9366 69.208 63.832 69.208C62.7275 69.208 61.832 68.3126 61.832 67.208C61.832 58.0633 69.2529 50.708 78.332 50.708H112.165C113.27 50.708 114.165 51.6034 114.165 52.708C114.165 53.8126 113.27 54.708 112.165 54.708H78.332Z" fill="black"/>
<path fill-rule="evenodd" clip-rule="evenodd" d="M103.504 44.0438C104.285 43.2627 105.551 43.2627 106.332 44.0438L113.582 51.2938C114.363 52.0748 114.363 53.3412 113.582 54.1222L106.332 61.3722C105.551 62.1533 104.285 62.1533 103.504 61.3722C102.723 60.5912 102.723 59.3248 103.504 58.5438L109.34 52.708L103.504 46.8722C102.723 46.0912 102.723 44.8248 103.504 44.0438Z" fill="black"/>
<path fill-rule="evenodd" clip-rule="evenodd" d="M112.165 62.792C113.27 62.792 114.165 63.6874 114.165 64.792C114.165 73.9367 106.745 81.292 97.6654 81.292H63.832C62.7275 81.292 61.832 80.3966 61.832 79.292C61.832 78.1874 62.7275 77.292 63.832 77.292H97.6654C104.545 77.292 110.165 71.7176 110.165 64.792C110.165 63.6874 111.061 62.792 112.165 62.792Z" fill="black"/>
<path fill-rule="evenodd" clip-rule="evenodd" d="M72.4962 70.6278C73.2773 71.4088 73.2773 72.6752 72.4962 73.4562L66.6605 79.292L72.4962 85.1278C73.2773 85.9088 73.2773 87.1752 72.4962 87.9562C71.7152 88.7373 70.4489 88.7373 69.6678 87.9562L62.4178 80.7062C61.6368 79.9252 61.6368 78.6588 62.4178 77.8778L69.6678 70.6278C70.4489 69.8467 71.7152 69.8467 72.4962 70.6278Z" fill="black"/>
</g>
<defs>
<clipPath id="clip0_1108_15801">
<rect width="58" height="58" fill="white" transform="translate(59 37)"/>
</clipPath>
</defs>
</svg>
