<svg width="83" height="141" viewBox="0 0 83 141" fill="none" xmlns="http://www.w3.org/2000/svg">
<path d="M28.5703 75.33C28.5703 75.33 25.1809 77.3805 30.929 77.967C37.8708 78.846 41.5409 78.699 49.2041 77.235C49.2041 77.235 51.267 78.555 54.0679 79.5795C36.822 86.904 15.0096 79.14 28.5703 75.33ZM26.3595 65.808C26.3595 65.808 22.6743 68.592 28.4224 69.177C35.9377 69.909 41.8352 70.056 52.0049 68.007C52.0049 68.007 53.333 69.4725 55.5423 70.2045C34.7621 76.3575 11.4738 70.7895 26.3595 65.8095V65.808ZM67.0385 82.509C67.0385 82.509 69.5436 84.5595 64.2376 86.172C54.3622 89.1015 22.8221 89.982 13.9789 86.172C10.8852 84.852 16.7797 82.947 18.6948 82.656C20.6113 82.2165 21.642 82.2165 21.642 82.2165C18.2526 79.872 -0.908308 87.051 11.9144 89.1165C47.1396 94.8315 76.1761 86.6265 67.037 82.524L67.0385 82.509ZM30.191 55.845C30.191 55.845 14.1253 59.655 24.4414 60.972C28.863 61.557 37.5584 61.4115 45.6653 60.825C52.2977 60.24 58.9453 59.067 58.9453 59.067C58.9453 59.067 56.5866 60.093 54.9658 61.1175C38.5921 65.37 7.19853 63.465 16.1897 59.07C23.8559 55.407 30.191 55.845 30.191 55.845ZM58.9302 71.814C75.4396 63.3165 67.7734 55.113 62.4675 56.139C61.1395 56.4315 60.5509 56.724 60.5509 56.724C60.5509 56.724 60.9931 55.845 62.0253 55.554C72.4894 51.891 80.7441 66.5415 58.6359 72.255C58.6359 72.255 58.7838 72.108 58.9302 71.8155V71.814ZM31.8118 94.959C47.7297 95.985 72.0487 94.374 72.6387 86.901C72.6387 86.901 71.4617 89.8305 59.5217 92.028C45.9626 94.518 29.1588 94.2255 19.2848 92.613C19.2848 92.613 21.3478 94.371 31.8133 94.9575L31.8118 94.959Z" fill="#B0B0B0"/>
<path d="M48.895 7.5C48.895 7.5 58.0326 16.7295 40.1996 30.645C25.9025 41.925 36.9551 48.372 40.1996 55.695C31.7985 48.225 25.7576 41.631 29.882 35.478C35.9395 26.4 52.5923 22.005 48.895 7.5ZM44.1791 49.545C48.4529 54.3795 43.002 58.7745 43.002 58.7745C43.002 58.7745 53.9082 53.2095 48.8981 46.3215C44.3285 39.729 40.7912 36.5055 59.9521 25.5165C59.9521 25.5165 29.7371 32.9865 44.1821 49.542L44.1791 49.545Z" fill="white"/>
<path d="M36.5722 126.323V111.968C36.5722 108.305 34.5093 105.815 29.3497 105.815C26.4025 105.815 23.8959 106.547 21.6836 107.426L22.42 110.063C24.0408 109.478 26.1052 108.893 28.316 108.893C31.1169 108.893 32.4434 110.063 32.4434 112.409V114.314H30.969C23.8944 114.314 20.6513 116.951 20.6513 121.214C20.6513 124.73 22.8622 126.779 26.8416 126.779C29.3467 126.779 31.2633 125.609 33.0319 124.142L33.3262 126.339H36.5707L36.5722 126.323ZM32.4449 121.635C30.9705 122.955 29.3512 123.686 27.8754 123.686C25.9588 123.686 24.7817 122.516 24.7817 120.461C24.7817 118.406 25.9588 116.945 30.6777 116.945H32.4449V121.632V121.635ZM50.4257 126.323H45.2676L39.0773 106.253H43.499L47.3321 118.559L48.2164 122.222C50.1329 116.948 51.6058 111.527 52.1959 106.253H56.6175C55.4404 112.845 53.373 120.023 50.4272 126.323H50.4257ZM74.3025 126.323V111.968C74.3025 108.305 72.2396 105.815 67.08 105.815C64.1328 105.815 61.6262 106.547 59.4138 107.426L60.0024 110.063C61.771 109.478 63.8355 108.893 66.0448 108.893C68.8457 108.893 70.1722 110.063 70.1722 112.409V114.314H68.6978C61.6232 114.314 58.3801 116.951 58.3801 121.214C58.3801 124.73 60.443 126.779 64.4225 126.779C67.0755 126.779 68.992 125.609 70.7607 124.142L71.055 126.339H74.2995L74.3025 126.323ZM70.1752 121.635C68.7008 122.955 67.0815 123.686 65.6056 123.686C63.6891 123.686 62.512 122.516 62.512 120.461C62.512 118.406 63.6891 116.945 68.408 116.945H70.1767V121.632L70.1752 121.635ZM16.0863 129.69C14.9092 131.448 13.1391 132.765 10.9283 133.5L9.01172 131.156C10.4861 130.277 11.959 128.958 12.549 127.787C13.1376 126.761 13.2855 125.297 13.2855 121.926V99.0752H17.7071V121.635C17.7071 126.177 17.2649 127.935 16.0863 129.693V129.69Z" fill="#B0B0B0"/>
</svg>
