<svg width="150" height="34" viewBox="0 0 150 34" fill="none" xmlns="http://www.w3.org/2000/svg">
<g clip-path="url(#clip0_1106_16215)">
<path d="M41.5684 1.3877H48.4866V15.3981L61.2448 1.3877H69.6006L56.7975 14.9859L70.1846 33.4377H61.8737L52.1255 19.7937L48.4866 23.6394V33.4374H41.5684V1.3877Z" fill="white"/>
<path d="M66.5078 21.304V21.2129C66.5078 14.1618 72.0785 8.43848 79.5807 8.43848C87.038 8.43848 92.5638 14.0703 92.5638 21.1212V21.2129C92.5638 28.2639 86.9931 33.9867 79.4909 33.9867C72.0336 33.9867 66.5078 28.3552 66.5078 21.304ZM85.8251 21.304V21.2129C85.8251 17.5955 83.2645 14.4365 79.4909 14.4365C75.5825 14.4365 73.2465 17.5038 73.2465 21.1212V21.2129C73.2465 24.8299 75.8071 27.9889 79.5807 27.9889C83.4891 27.9889 85.8251 24.9214 85.8251 21.304Z" fill="white"/>
<path d="M94.4493 26.4778V14.8482H91.5742V8.89643H94.4493V2.62346H101.278V8.89621H106.938V14.8482H101.278V25.3334C101.278 26.9355 101.952 27.7142 103.479 27.7142C104.656 27.72 105.816 27.4205 106.848 26.8438V32.4299C105.411 33.2998 103.749 33.8492 101.458 33.8492C97.2798 33.8492 94.4493 32.1551 94.4493 26.4778ZM108.898 0.0136719H115.727V33.437H108.898V0.0136719ZM118.195 0.0136719H125.382V6.19469H118.195V0.0136719ZM118.375 8.89621H125.203V33.437H118.375L118.375 8.89621ZM127.801 8.89621H134.629V12.3757C136.202 10.3154 138.223 8.43825 141.682 8.43825C146.848 8.43825 149.858 11.918 149.858 17.5498V33.437H143.03V19.7474C143.03 16.4509 141.502 14.7567 138.897 14.7567C136.291 14.7567 134.629 16.4509 134.629 19.7474V33.437H127.8L127.801 8.89621Z" fill="white"/>
<path d="M15.7856 1.37109L0 18.29V33.4149L15.7627 17.3216L31.4407 1.37109H15.7856Z" fill="url(#paint0_linear_1106_16215)"/>
<path d="M0 33.4147L15.7627 17.3213L31.4407 33.4147H0Z" fill="url(#paint1_linear_1106_16215)"/>
<path d="M0 1.37109H15.7856L0 18.29V1.37109Z" fill="url(#paint2_linear_1106_16215)"/>
</g>
<defs>
<linearGradient id="paint0_linear_1106_16215" x1="-5.29333" y1="30.8321" x2="24.5197" y2="1.58004" gradientUnits="userSpaceOnUse">
<stop offset="0.108" stop-color="#838383"/>
<stop offset="0.173" stop-color="#747474"/>
<stop offset="0.492" stop-color="#7B7B7B"/>
<stop offset="0.716" stop-color="#A2A2A2"/>
<stop offset="0.823" stop-color="#AFAFAF"/>
</linearGradient>
<linearGradient id="paint1_linear_1106_16215" x1="10.0342" y1="39.1959" x2="24.5656" y2="24.9378" gradientUnits="userSpaceOnUse">
<stop offset="0.296" stop-color="#949494"/>
<stop offset="0.694" stop-color="#8F8F8F"/>
<stop offset="1" stop-color="#646464"/>
</linearGradient>
<linearGradient id="paint2_linear_1106_16215" x1="5.03793" y1="24.3678" x2="16.7795" y2="18.8658" gradientUnits="userSpaceOnUse">
<stop offset="0.296" stop-color="#949494"/>
<stop offset="0.694" stop-color="#8F8F8F"/>
<stop offset="1" stop-color="#7A7A7A"/>
</linearGradient>
<clipPath id="clip0_1106_16215">
<rect width="150" height="34" fill="white"/>
</clipPath>
</defs>
</svg>
