<svg width="91" height="90" viewBox="0 0 91 90" fill="none" xmlns="http://www.w3.org/2000/svg">
<path d="M44.8775 90C20.6961 90 0.189595 69.576 0.0011383 45.2415C-0.0409154 39.3712 1.08266 33.551 3.30673 28.1182C5.5308 22.6854 8.81113 17.7481 12.9576 13.5925C17.1313 9.31777 22.1127 5.91491 27.6125 3.58152C33.1123 1.24814 39.021 0.0307356 44.9952 1.76392e-05C50.8615 -0.00520744 56.6709 1.15045 62.0885 3.40039C67.5062 5.65034 72.4251 8.9501 76.5618 13.1096C80.7676 17.2094 84.1204 22.101 86.4269 27.5025C88.7335 32.9041 89.9482 38.7087 90.0011 44.5819C90.0547 56.5299 85.3772 68.0134 76.9906 76.5236C68.604 85.0338 57.1901 89.8787 45.2426 90H44.8775ZM45.0188 2.35573C39.3575 2.3889 33.7591 3.54607 28.5485 5.7601C23.338 7.97413 18.619 11.2009 14.6654 15.2533C10.7329 19.1848 7.61997 23.8579 5.50709 29.0016C3.39421 34.1453 2.32343 39.6573 2.35685 45.2179C2.53353 68.2803 21.9682 87.6207 44.8657 87.6207H45.1719C56.5008 87.5181 67.3283 82.9343 75.2873 74.8716C83.2463 66.8088 87.6895 55.9229 87.6454 44.5936C87.5925 39.0295 86.4392 33.5309 84.252 28.4145C82.0647 23.298 78.8867 18.6649 74.901 14.7821C70.9901 10.8366 66.335 7.7066 61.2055 5.57352C56.076 3.44044 50.5741 2.34671 45.0188 2.35573Z" fill="white"/>
<path d="M10.0957 58.1628V31.873H16.4915V34.2288H13.0992V55.8542H16.4915V58.2099L10.0957 58.1628Z" fill="white"/>
<path d="M31.8006 44.7585C31.8006 49.5523 28.8913 52.285 24.9455 52.285C20.9997 52.285 18.373 49.2108 18.373 45.0058C18.373 40.6124 21.1292 37.5146 25.1575 37.5146C29.1858 37.5146 31.8006 40.742 31.8006 44.7585ZM21.1292 44.9705C21.1292 47.8798 22.5898 50.1884 25.0986 50.1884C27.6074 50.1884 29.0444 47.8327 29.0444 44.8645C29.0444 42.1672 27.7134 39.623 25.0986 39.623C22.4838 39.623 21.1057 42.0847 21.1057 45.0294L21.1292 44.9705Z" fill="white"/>
<path d="M34.0176 38.0093C35.2701 37.793 36.5392 37.6866 37.8103 37.6913C39.2382 37.5518 40.6735 37.8694 41.9092 38.5982C42.3725 38.8711 42.7544 39.2629 43.0154 39.733C43.2763 40.2031 43.4068 40.7344 43.3933 41.2719C43.3764 41.9704 43.1396 42.6458 42.7167 43.202C42.2937 43.7581 41.7062 44.1667 41.0376 44.3697C41.8524 44.5355 42.5848 44.9778 43.1107 45.6218C43.6366 46.2658 43.9237 47.0718 43.9233 47.9033C43.9322 48.4665 43.8128 49.0244 43.574 49.5346C43.3352 50.0448 42.9834 50.4939 42.5453 50.8479C41.5323 51.7431 39.848 52.1789 37.2449 52.1789C36.1741 52.1842 35.104 52.1212 34.0411 51.9904L34.0176 38.0093ZM36.6089 43.6512H37.9398C39.742 43.6512 40.7549 42.8032 40.7549 41.59C40.7549 40.3768 39.742 39.6347 38.0812 39.6347C37.5841 39.6177 37.0867 39.6533 36.5971 39.7407L36.6089 43.6512ZM36.6089 50.2236C37.0666 50.2709 37.5268 50.2905 37.987 50.2825C39.6595 50.2825 41.1436 49.6465 41.1436 47.9268C41.1436 46.2072 39.7066 45.5711 37.9045 45.5711H36.6089V50.2236Z" fill="white"/>
<path d="M49.0688 37.8213H51.6718V47.1146C51.6718 51.0604 49.7637 52.3796 46.9604 52.3796C46.2107 52.3734 45.4669 52.2461 44.7578 52.0027L45.0758 49.9061C45.5985 50.0694 46.142 50.1566 46.6895 50.1652C48.1736 50.1652 49.0452 49.4821 49.0452 47.0086L49.0688 37.8213Z" fill="white"/>
<path d="M59.0822 45.5596V47.3617H53.6641V45.5596H59.0822Z" fill="white"/>
<path d="M71.7318 51.6848C70.5607 52.1517 69.3049 52.3684 68.0451 52.3209C63.5104 52.3209 60.7542 49.4822 60.7542 45.1359C60.7006 44.1233 60.862 43.1107 61.2277 42.1649C61.5934 41.2191 62.1553 40.3614 62.8762 39.6482C63.5972 38.935 64.4609 38.3826 65.4107 38.0271C66.3604 37.6717 67.3747 37.5213 68.3867 37.5859C69.597 37.5358 70.8034 37.7529 71.9203 38.2219L71.3431 40.2949C70.4572 39.9179 69.5025 39.7294 68.5398 39.7414C65.6305 39.7414 63.5339 41.567 63.5339 45.0064C63.5339 48.1395 65.3832 50.1654 68.5162 50.1654C69.4883 50.1794 70.4534 49.9992 71.3549 49.6353L71.7318 51.6848Z" fill="white"/>
<path d="M79.9075 31.8018V58.1622H73.5117V55.8065H76.9039V34.1575H73.5117V31.8018H79.9075Z" fill="white"/>
</svg>
