<svg width="120" height="120" viewBox="0 0 120 120" fill="none" xmlns="http://www.w3.org/2000/svg">
<path fill-rule="evenodd" clip-rule="evenodd" d="M17 94H75C76.1046 94 77 93.1046 77 92V28.1248L61.311 12H17C15.8954 12 15 12.8954 15 14V92C15 93.1046 15.8954 94 17 94ZM17 8C13.6863 8 11 10.6863 11 14V92C11 95.3137 13.6863 98 17 98H75C78.3137 98 81 95.3137 81 92V28.1248C81 27.083 80.5935 26.0822 79.8669 25.3354L64.1779 9.21058C63.4248 8.43661 62.3908 8 61.311 8H17Z" fill="black"/>
<path fill-rule="evenodd" clip-rule="evenodd" d="M81 28L61 8V24C61 26.2091 62.7909 28 65 28H81ZM71.3431 24L65 17.6569L65 24H71.3431Z" fill="black"/>
<path d="M25 38H62V44H25V38Z" fill="#F4B400"/>
<path d="M25 48H62V54H25V48Z" fill="#F4B400"/>
<path d="M25 28H47V34H25V28Z" fill="#F4B400"/>
<path fill-rule="evenodd" clip-rule="evenodd" d="M94 80H64V76H94V80Z" fill="black"/>
<path d="M88 52C88 56.9706 83.9706 61 79 61C74.0294 61 70 56.9706 70 52C70 47.0294 74.0294 43 79 43C83.9706 43 88 47.0294 88 52Z" fill="white"/>
<path fill-rule="evenodd" clip-rule="evenodd" d="M79 57C81.7614 57 84 54.7614 84 52C84 49.2386 81.7614 47 79 47C76.2386 47 74 49.2386 74 52C74 54.7614 76.2386 57 79 57ZM79 61C83.9706 61 88 56.9706 88 52C88 47.0294 83.9706 43 79 43C74.0294 43 70 47.0294 70 52C70 56.9706 74.0294 61 79 61Z" fill="#121212"/>
<path d="M88 78C88 82.9706 83.9706 87 79 87C74.0294 87 70 82.9706 70 78C70 73.0294 74.0294 69 79 69C83.9706 69 88 73.0294 88 78Z" fill="white"/>
<path fill-rule="evenodd" clip-rule="evenodd" d="M79 83C81.7614 83 84 80.7614 84 78C84 75.2386 81.7614 73 79 73C76.2386 73 74 75.2386 74 78C74 80.7614 76.2386 83 79 83ZM79 87C83.9706 87 88 82.9706 88 78C88 73.0294 83.9706 69 79 69C74.0294 69 70 73.0294 70 78C70 82.9706 74.0294 87 79 87Z" fill="#121212"/>
<path d="M66 100C66 104.971 61.9706 109 57 109C52.0294 109 48 104.971 48 100C48 95.0294 52.0294 91 57 91C61.9706 91 66 95.0294 66 100Z" fill="white"/>
<path fill-rule="evenodd" clip-rule="evenodd" d="M57 105C59.7614 105 62 102.761 62 100C62 97.2386 59.7614 95 57 95C54.2386 95 52 97.2386 52 100C52 102.761 54.2386 105 57 105ZM57 109C61.9706 109 66 104.971 66 100C66 95.0294 61.9706 91 57 91C52.0294 91 48 95.0294 48 100C48 104.971 52.0294 109 57 109Z" fill="#121212"/>
<path d="M109 100C109 104.971 104.971 109 100 109C95.0294 109 91 104.971 91 100C91 95.0294 95.0294 91 100 91C104.971 91 109 95.0294 109 100Z" fill="white"/>
<path fill-rule="evenodd" clip-rule="evenodd" d="M100 105C102.761 105 105 102.761 105 100C105 97.2386 102.761 95 100 95C97.2386 95 95 97.2386 95 100C95 102.761 97.2386 105 100 105ZM100 109C104.971 109 109 104.971 109 100C109 95.0294 104.971 91 100 91C95.0294 91 91 95.0294 91 100C91 104.971 95.0294 109 100 109Z" fill="#121212"/>
<path fill-rule="evenodd" clip-rule="evenodd" d="M61.6719 93.5049L75.1719 81.5049L77.8293 84.4945L64.3293 96.4945L61.6719 93.5049Z" fill="#121212"/>
<path fill-rule="evenodd" clip-rule="evenodd" d="M81.1719 84.4951L94.6719 96.4951L97.3293 93.5055L83.8293 81.5055L81.1719 84.4951Z" fill="#121212"/>
<path d="M49 70H65V86H49V70Z" fill="white"/>
<path fill-rule="evenodd" clip-rule="evenodd" d="M61 74H53V82H61V74ZM49 70V86H65V70H49Z" fill="#121212"/>
<path d="M92 70H108V86H92V70Z" fill="white"/>
<path fill-rule="evenodd" clip-rule="evenodd" d="M104 74H96V82H104V74ZM92 70V86H108V70H92Z" fill="#121212"/>
</svg>
