<svg width="67" height="67" viewBox="0 0 67 67" fill="none" xmlns="http://www.w3.org/2000/svg">
<g clip-path="url(#clip0_1101_10048)">
<path fill-rule="evenodd" clip-rule="evenodd" d="M67 0H0V67H67V0ZM53.1287 43.0023C59.0326 45.3969 61.026 47.9636 61.5164 51.0206C61.9878 53.6509 61.4018 55.3578 61.3127 55.6126C59.1345 63.0641 46.9892 63.3061 42.1361 58.383C41.9887 58.2164 41.8492 58.0612 41.7166 57.9137C40.9264 57.0348 40.3796 56.4266 39.8561 55.2814L39.8596 55.2794C42.4355 53.7975 42.4366 53.7968 44.9447 52.3454C46.3077 54.4407 47.5687 55.5935 49.836 56.0648C52.9122 56.4405 56.0074 55.3833 55.3132 52.1161C54.8996 50.569 52.8484 49.7005 50.4565 48.6877C48.7228 47.9536 46.81 47.1437 45.2122 45.9447C41.3527 43.3525 40.4483 37.0538 43.62 33.4555C44.6772 32.1244 46.4797 31.1308 48.3711 30.6532C48.6975 30.612 49.0253 30.5692 49.3532 30.5264C49.6845 30.4832 50.0158 30.44 50.3455 30.3984C54.1349 30.322 56.5041 31.3219 58.2428 33.2644C58.7268 33.7547 59.1217 34.2834 59.8605 35.4298C59.4439 35.6953 59.1135 35.9054 58.8261 36.0882C57.7208 36.7913 57.2513 37.09 54.9565 38.5759C54.3387 37.2449 53.3134 36.4105 52.2307 36.0475C50.5493 35.538 48.4285 36.0921 47.989 37.869C47.8362 38.4167 47.868 38.9262 48.11 39.8306C48.6616 41.0884 50.2646 41.7704 51.943 42.4845C52.3383 42.6526 52.7378 42.8226 53.1287 43.0023ZM30.1563 30.7932H36.4232C36.4232 32.7159 36.4268 34.6365 36.4303 36.5556C36.4374 40.3896 36.4445 44.218 36.4232 48.0464C36.4251 48.5662 36.4334 49.0787 36.4415 49.5831C36.4885 52.4963 36.5311 55.141 35.3151 57.3831C34.3279 59.3892 32.4428 60.7075 30.2583 61.3444C26.9019 62.115 23.692 61.6756 21.3037 60.2426C19.7051 59.2619 18.4569 57.7524 17.6097 56.0138C18.4591 55.4952 19.3069 54.9751 20.1546 54.455C21.0042 53.9338 21.8537 53.4126 22.7048 52.893C22.7446 52.9101 22.855 53.1038 23.0046 53.3664C23.023 53.3987 23.042 53.4321 23.0615 53.4662C23.7111 54.5552 24.2716 55.3259 25.3734 55.8672C26.4561 56.2367 28.8317 56.4722 29.7488 54.568C30.1959 53.7958 30.1728 51.6292 30.1452 49.0351C30.1382 48.3774 30.1309 47.6923 30.1309 46.9955C30.1309 44.2888 30.1373 41.5916 30.1436 38.8944C30.15 36.1972 30.1563 33.5 30.1563 30.7932Z" fill="white"/>
</g>
<defs>
<clipPath id="clip0_1101_10048">
<rect width="67" height="67" fill="white"/>
</clipPath>
</defs>
</svg>
