<svg width="140" height="70" viewBox="0 0 140 70" fill="none" xmlns="http://www.w3.org/2000/svg">
<path d="M18.8382 6.0127L20.1099 8.40436C20.3867 8.83578 20.709 9.23629 21.0712 9.59903C22.1364 10.6642 23.1502 11.7807 24.0579 12.9765C26.2139 15.808 27.6687 18.9522 28.7082 22.3565C29.3312 24.4355 29.6696 26.5659 29.6952 28.7219C29.8002 35.1654 27.5906 40.6989 23.1222 45.2979C22.3982 46.0269 21.6163 46.696 20.7842 47.2987C20.3409 47.2987 20.1344 46.9487 19.9524 46.6489C19.6024 46.0655 19.4064 45.4274 19.3026 44.7787C19.1462 43.9994 19.0424 43.22 19.0949 42.4139V42.0499C19.0692 41.9717 18.6796 6.19586 18.8347 6.01386L18.8382 6.0127Z" fill="white"/>
<path d="M18.8382 5.9364C18.7857 5.8314 18.7332 5.91074 18.6819 5.96207C18.7075 6.48124 18.5255 6.94907 18.2385 7.39124C17.927 7.83457 17.5105 8.17057 17.0952 8.53457C14.7829 10.5354 12.9652 12.9516 11.5092 15.6536C9.58654 19.2912 8.57387 23.1879 8.28921 27.2934C8.16087 28.7751 8.75587 33.9971 9.22487 35.5032C10.4965 39.5049 12.7832 42.8556 15.7582 45.7652C16.4862 46.4652 17.2655 47.1162 18.0705 47.7392C18.3039 47.7392 18.3307 47.5316 18.382 47.3752C18.4844 47.0434 18.5624 46.7046 18.6154 46.3614C18.8487 45.0629 18.9794 43.7632 19.1345 42.4647L18.8487 5.9364H18.8382Z" fill="white"/>
<path d="M20.1134 48.8833C20.1659 48.286 20.4634 47.7925 20.7633 47.299C20.4518 47.1707 20.2173 46.9093 20.0353 46.6223C19.8789 46.3622 19.7494 46.039 19.6456 45.7648C19.2816 44.674 19.2023 43.5307 19.0996 42.413V41.7363C18.9713 41.8413 18.9433 42.7233 18.9433 42.854C18.8651 44.0487 18.7099 45.2188 18.4766 46.361C18.3984 46.8277 18.3483 47.2967 18.0613 47.712C18.0613 47.7645 18.0613 47.817 18.0869 47.894C18.5536 49.2707 18.6843 50.6742 18.7636 52.1033V52.6225C18.7636 53.2455 18.7379 53.116 19.2571 53.3225C19.4648 53.4007 19.7004 53.4275 19.9069 53.5827C20.0633 53.5827 20.0889 53.4543 20.0889 53.3493L20.0108 52.4918V50.1002C19.9851 49.6848 20.0633 49.2683 20.1158 48.8787L20.1134 48.8833Z" fill="white"/>
<path d="M39.8426 38.0167V40.491C39.8398 40.589 39.8454 40.6871 39.8592 40.7841C39.8914 41.0772 40.0713 41.2559 40.3358 41.3381C40.5825 41.403 40.8332 41.452 41.0863 41.4846C41.2328 41.5013 41.2817 41.5656 41.2983 41.7229C41.315 42.2768 41.2662 42.3423 40.7289 42.309C39.4756 42.2435 38.2212 42.228 36.9679 42.309H36.8488C36.458 42.3257 36.4259 42.2923 36.4259 41.9015C36.4259 41.836 36.4426 41.755 36.4426 41.6895C36.4426 41.5704 36.5236 41.5108 36.6379 41.5108C36.9 41.4786 37.1431 41.4131 37.3885 41.3643C37.7304 41.2833 37.9246 41.0712 37.9579 40.7293C38.0056 40.3552 38.0056 39.9645 38.0056 39.5892L38.0222 35.2266C38.0276 35.1001 37.9969 34.9747 37.9336 34.865C37.8703 34.7553 37.7771 34.6658 37.6648 34.6072C37.3702 34.4435 37.0587 34.3125 36.7356 34.2164C36.6379 34.1842 36.5403 34.1687 36.4592 34.1187C36.221 34.0043 36.215 33.7935 36.4426 33.6624C36.5236 33.6148 36.6213 33.5814 36.7189 33.5648C37.707 33.4189 38.6777 33.1735 39.6162 32.8321C39.8116 32.7666 39.8604 32.7844 39.8783 32.9786C39.895 33.0978 39.8783 33.2407 39.8616 33.3527C39.8295 33.5648 39.8295 33.7756 39.8295 33.9722C39.8295 34.0532 39.8461 34.1354 39.9271 34.1842C40.0082 34.2331 40.0904 34.1842 40.1654 34.1366C40.5073 33.8745 40.8492 33.6315 41.2233 33.4218C41.7594 33.1287 42.3312 32.8678 42.9507 32.7868C43.7012 32.6891 44.3505 32.8845 44.9211 33.373C45.1571 33.5841 45.3649 33.8248 45.5394 34.0889C45.7026 34.3272 45.7181 34.3331 45.9302 34.1699C46.5496 33.7137 47.2001 33.3074 47.9006 33.0144C48.6333 32.7046 49.3826 32.657 50.1307 32.9167C50.8956 33.1931 51.4173 33.7303 51.7271 34.463C51.9892 35.0491 52.1012 35.6543 52.1012 36.2857V40.6483C52.1012 40.9414 52.2203 41.1248 52.5086 41.2678C52.8183 41.3869 53.1602 41.4465 53.4855 41.512C53.6975 41.5596 53.6975 41.5596 53.6975 41.7741C53.6654 42.3102 53.6165 42.3435 53.0947 42.3102C51.7881 42.2369 50.4784 42.2369 49.1717 42.3102C48.9096 42.3268 48.9096 42.3268 48.8953 42.066V41.9849C48.8787 41.5442 48.8787 41.5442 49.3028 41.4489L49.7257 41.3345C49.869 41.3008 49.9967 41.2198 50.0884 41.1046C50.18 40.9894 50.2302 40.8467 50.2308 40.6995L50.2785 39.4784L50.2463 36.2881C50.2338 36.0032 50.1734 35.7225 50.0676 35.4577C49.6602 34.4642 48.7655 34.1068 47.9018 34.2045C47.2501 34.27 46.6807 34.5297 46.1434 34.905C46.029 34.986 45.948 35.0837 45.9647 35.2469C46.1112 36.2893 46.0124 37.3317 46.0302 38.3729V40.6364C46.0302 41.0438 46.1934 41.2392 46.5842 41.3369L47.3347 41.5001C47.4491 41.5168 47.5134 41.5656 47.5134 41.6955V41.8146C47.4967 42.2709 47.4658 42.2911 47.0083 42.2863C45.7062 42.2208 44.4029 42.2387 43.1175 42.2863C42.6767 42.303 42.641 42.2542 42.6612 41.8098C42.6779 41.5477 42.7089 41.5334 42.9543 41.4846L43.4904 41.3869C43.9669 41.2892 44.142 41.1105 44.1742 40.6054L44.2218 39.5142L44.1897 36.2416C44.1575 35.8342 44.0705 35.4435 43.8478 35.0694C43.5225 34.4666 43.0138 34.158 42.3169 34.1247C41.6164 34.077 40.9981 34.3367 40.4108 34.6608C40.0034 34.899 39.8247 35.1814 39.8569 35.6543V38.031L39.8426 38.0167ZM70.5153 38.1156V40.4112C70.5179 40.5745 70.5286 40.7375 70.5474 40.8997C70.5544 41.0078 70.5962 41.1107 70.6667 41.193C70.7372 41.2752 70.8324 41.3324 70.9382 41.3559C71.2191 41.4378 71.5085 41.487 71.8007 41.5025C71.9639 41.5191 71.9961 41.5835 72.0127 41.7145V41.8289C71.9961 42.3983 71.9317 42.4638 71.3778 42.4317C70.1388 42.3507 68.9034 42.3662 67.6656 42.4317L67.1891 42.4484C67.0914 42.4484 67.07 42.4007 67.0426 42.334C66.995 42.1085 66.995 41.8756 67.0426 41.6502C67.0593 41.5525 67.1236 41.5311 67.2213 41.5037C67.4595 41.4715 67.6621 41.4226 67.8884 41.3845C68.2958 41.2868 68.4424 41.1224 68.4579 40.7007L68.5055 39.3331V35.3279C68.5055 35.0348 68.3912 34.8561 68.1314 34.7251C67.8384 34.5619 67.5286 34.4487 67.2022 34.3343C67.1045 34.3022 67.0068 34.2688 66.9258 34.22C66.7138 34.0734 66.6876 33.8626 66.8937 33.6994C66.9861 33.6234 67.0996 33.5776 67.2189 33.5683C68.2613 33.4051 69.2703 33.1776 70.2472 32.7868C70.3616 32.7392 70.4104 32.7702 70.4593 32.8678C70.5081 32.9655 70.5248 33.0799 70.5069 33.1931L70.4593 33.9579C70.4593 34.0556 70.4116 34.1961 70.4914 34.2343C70.5891 34.2998 70.6546 34.1533 70.7356 34.1151C71.2164 33.7119 71.7474 33.3727 72.3153 33.1061C72.8204 32.8678 73.3399 32.7153 73.9272 32.7487C75.0184 32.8142 75.7999 33.3682 76.3038 34.3284C76.5659 34.8335 76.6779 35.3863 76.7268 35.9569L76.7744 37.1482L76.7911 40.746C76.8078 41.0224 76.9055 41.2023 77.1818 41.2999C77.4684 41.3954 77.7625 41.4664 78.061 41.512C78.3231 41.5442 78.3374 41.593 78.3541 41.8372V41.9182C78.3219 42.4722 78.2886 42.4877 77.7346 42.4543C76.52 42.3892 75.3027 42.3892 74.088 42.4543C73.9248 42.471 73.7628 42.4543 73.6115 42.471C73.5138 42.471 73.4483 42.4543 73.4328 42.3566C73.4006 42.1446 73.3673 41.9337 73.4161 41.705C73.4328 41.6073 73.4816 41.5585 73.5948 41.5418L74.3453 41.4226C74.6074 41.3571 74.7528 41.1844 74.7861 40.9461L74.8183 40.4898L74.8016 37.0875C74.8016 36.6967 74.7849 36.306 74.7039 35.9152C74.5085 35.0813 73.8736 34.4856 73.0122 34.4022C72.2617 34.3212 71.5827 34.5166 70.9608 34.9228C70.6511 35.1182 70.52 35.3946 70.52 35.7365V38.1954C70.52 38.1477 70.52 38.1477 70.5367 38.1477L70.5153 38.1156Z" fill="white"/>
<path d="M118.199 33.5079C118.02 32.3189 117.579 31.261 116.814 30.333C116.148 29.5132 115.285 28.8748 114.307 28.477C113.282 28.054 112.19 27.923 111.083 27.8908C110.627 27.8741 104.408 27.9718 103.952 27.8908C103.837 27.8741 103.756 27.9075 103.69 28.0052C103.609 28.1243 103.526 28.2494 103.478 28.3793C103.282 28.82 103.282 28.7867 103.754 28.851C104.145 28.9165 104.519 28.9487 104.894 29.0631C105.236 29.1774 105.48 29.3728 105.561 29.7469C105.593 29.9256 105.627 35.6558 105.627 38.3267L105.561 40.2328C105.544 40.3793 105.529 40.5259 105.48 40.6557C105.415 40.8511 105.301 41.0131 105.106 41.0965C104.891 41.1977 104.659 41.2582 104.422 41.2752C103.981 41.3229 103.917 41.3407 103.771 41.8292L103.723 42.0079C103.691 42.2199 103.706 42.2521 103.918 42.2521L108.786 42.2997L110.692 42.2676L112.011 42.1044C113.508 41.828 114.844 41.2085 115.983 40.2161C116.633 39.6415 117.164 38.9445 117.546 38.1647C118.002 37.2533 118.197 36.2586 118.246 35.2507C118.327 34.6813 118.294 34.0952 118.199 33.509V33.5079ZM115.837 35.819C115.772 36.8614 115.561 37.8704 115.024 38.7818C114.34 39.9707 113.363 40.8011 112.012 41.0929C111.426 41.2121 110.84 41.2716 110.225 41.1906C109.784 41.143 109.363 41.0929 108.955 40.9464C108.223 40.6843 107.962 40.2316 107.946 39.5168L107.929 29.7004C107.929 29.1143 108.192 28.9856 108.613 28.9678C109.248 28.9201 109.9 28.9356 110.535 28.9999C111.211 29.0653 111.874 29.2257 112.505 29.4765C112.974 29.6719 113.409 29.9414 113.792 30.2746C114.671 31.0252 115.257 31.9663 115.579 33.0742C115.841 33.9701 115.889 34.8814 115.841 35.7928L115.837 35.819ZM131.729 37.4154C131.729 37.3177 131.729 37.2367 131.713 37.139C131.566 36.2431 131.093 35.5593 130.362 35.0387C129.89 34.6968 129.353 34.4692 128.799 34.306C128.701 34.2739 128.62 34.2405 128.522 34.225C128.539 34.144 128.588 34.1273 128.637 34.1107C128.962 33.9475 129.272 33.7688 129.548 33.5245C130.053 33.1016 130.382 32.5798 130.557 31.9449C130.655 31.603 130.655 31.261 130.623 30.9025C130.596 30.483 130.476 30.0749 130.27 29.7084C130.064 29.3419 129.778 29.0265 129.434 28.7855C128.683 28.2315 127.805 28.004 126.894 27.9873C125.136 27.9552 123.362 27.9873 121.605 27.9873C121.099 27.9873 120.595 28.0195 120.074 27.9397C119.976 27.923 119.835 27.892 119.764 28.0052C119.645 28.2172 119.502 28.4281 119.454 28.6723C119.438 28.7867 119.471 28.851 119.601 28.8677L120.724 29.0309C121.165 29.0964 121.475 29.3407 121.506 29.7314C121.538 30.0014 121.554 30.2731 121.553 30.5451L121.521 33.5889L121.504 39.6121C121.504 39.9695 121.457 40.3126 121.39 40.67C121.374 40.7835 121.326 40.8899 121.251 40.9766C121.176 41.0632 121.077 41.1264 120.967 41.1585C120.642 41.2561 120.332 41.3538 119.99 41.3538C119.899 41.3452 119.807 41.3678 119.73 41.418C119.654 41.4682 119.596 41.543 119.567 41.6302C119.502 41.7767 119.448 41.94 119.421 42.0865C119.389 42.2819 119.438 42.3486 119.633 42.3248C119.779 42.3081 125.152 42.4391 126.161 42.3414C126.764 42.2759 127.353 42.1949 127.952 42.0162C128.976 41.691 129.922 41.218 130.67 40.4198C131.29 39.7682 131.647 38.9867 131.679 38.0753C131.727 37.8633 131.727 37.6524 131.727 37.4237L131.729 37.4154ZM123.833 30.744L123.881 29.4419C123.881 29.1977 123.979 29.0845 124.223 29.0345C124.614 28.9535 125.005 28.9868 125.395 29.0023C125.786 29.0345 126.16 29.0833 126.551 29.1977C127.266 29.4097 127.821 29.8172 128.147 30.4998C128.295 30.8102 128.373 31.1494 128.375 31.4933C128.391 31.9496 128.358 32.3892 128.179 32.8276C127.903 33.4304 127.465 33.8212 126.828 33.9355C126.192 34.0499 124.386 34.0011 124.11 34.0011C123.866 34.0011 123.848 33.9689 123.848 33.7247V32.1915C123.809 31.7147 123.804 31.2358 123.831 30.7583L123.833 30.744ZM129.123 39.5025C128.847 40.2352 128.341 40.7415 127.625 41.0155C127.235 41.162 126.844 41.2538 126.434 41.2276C125.929 41.2109 125.425 41.2276 124.921 41.1299C124.237 40.9833 123.928 40.3317 123.879 39.8599C123.798 39.0296 123.847 38.1826 123.831 37.5643V35.4151C123.831 35.1531 123.863 35.0732 124.141 35.0732L125.672 35.0899L126.714 35.2091C127.447 35.3723 128.114 35.6498 128.636 36.2181C129.059 36.6744 129.287 37.2271 129.336 37.8299C129.384 38.3994 129.353 38.9533 129.141 39.4906L129.123 39.5025Z" fill="white"/>
<path d="M87.7571 34.5974L88.18 34.663C88.6363 34.6796 89.1736 34.5164 89.3356 33.8815C89.425 33.5782 89.425 33.2555 89.3356 32.9522C89.2379 32.9522 89.1891 33.0332 89.1402 33.0666C88.896 33.262 88.6196 33.3763 88.3266 33.4085C87.7404 33.474 87.1543 33.4407 86.5849 33.2298L85.7867 32.9534C85.23 32.7711 84.6442 32.6944 84.0593 32.7271C83.2289 32.7926 82.4474 33.069 81.7148 33.4597C80.9333 33.8826 80.3805 34.5176 80.1184 35.3813C79.9719 35.8864 79.9552 36.4058 80.0207 36.9276C80.1839 38.1166 80.8022 38.9469 81.909 39.3865C81.9745 39.4032 82.0233 39.4342 82.0877 39.452C82.2342 39.533 82.2509 39.6152 82.1198 39.7284L81.7124 40.0048L80.7355 40.6076C80.4913 40.7541 80.4591 40.8697 80.5401 41.1282C80.637 41.4323 80.8174 41.7031 81.0608 41.9097C81.2842 42.1014 81.5372 42.2555 81.8101 42.366C81.9888 42.447 81.9888 42.4851 81.8268 42.6281L80.8975 43.2952C80.5878 43.5335 80.2781 43.7717 80.0184 44.0767C79.8377 44.27 79.7076 44.5048 79.6394 44.7604C79.5713 45.016 79.5672 45.2845 79.6276 45.542C79.7487 46.1072 80.0446 46.6198 80.4734 47.0073C80.8968 47.3993 81.4116 47.6791 81.9709 47.821C82.8823 48.0831 83.827 48.0974 84.755 47.9187C86.0893 47.6745 87.2568 47.0848 88.1741 46.0793C88.809 45.4122 89.1831 44.6307 89.2165 43.6967C89.252 43.1565 89.0948 42.6213 88.7729 42.1861C88.4509 41.7509 87.985 41.444 87.4581 41.32L86.5789 41.1568L83.8925 40.9185C83.5994 40.9019 83.3064 40.853 83.0622 40.7065C82.7524 40.5111 82.6714 40.137 82.8668 39.8928C83.0133 39.7141 83.192 39.5997 83.4207 39.5831L83.9413 39.5354C84.9709 39.4307 85.9374 38.9903 86.6921 38.2822C87.095 37.9092 87.3831 37.4289 87.5224 36.8979C87.7178 36.1974 87.7178 35.4683 87.5546 34.7535C87.5069 34.5748 87.5224 34.5581 87.75 34.5903L87.7571 34.5974ZM83.7662 42.7067C83.8639 42.7234 83.9616 42.7067 84.0593 42.7067C84.7431 42.7389 85.4436 42.7877 86.1107 42.9688C86.3285 43.0331 86.5409 43.1148 86.7457 43.213C87.3973 43.5704 87.6416 44.1899 87.5594 44.857C87.4617 45.5897 87.0542 46.1103 86.4193 46.4534C85.9964 46.6916 85.5234 46.7953 85.035 46.8441C84.8563 46.8608 84.6931 46.8441 84.5144 46.8441C83.9449 46.8608 83.391 46.7965 82.8537 46.5677C82.4796 46.4212 82.1699 46.2103 81.8935 45.9161C81.324 45.3466 81.0596 44.3042 81.9102 43.4572C82.4308 42.9807 83.0181 42.6436 83.7662 42.7067ZM85.6223 37.6269C85.2804 38.4894 84.531 38.7503 83.7829 38.636C83.0991 38.5383 82.594 38.1642 82.2699 37.5447C81.847 36.7144 81.7338 35.8531 81.9769 34.956C82.1556 34.2889 82.563 33.7838 83.279 33.6694C84.1903 33.5062 85.0659 33.8326 85.5258 34.744C85.7641 35.1847 85.8677 35.7208 85.8677 36.4857C85.851 36.7954 85.7867 37.2183 85.6235 37.6257L85.6223 37.6269ZM65.1103 36.519C64.9638 35.6398 64.6385 34.8417 64.0357 34.1745C63.1399 33.181 62.001 32.7449 60.7143 32.7414C59.5909 32.7247 58.5342 33.0511 57.5883 33.6372C56.6584 34.1937 55.9768 35.085 55.6834 36.1283C55.4071 37.073 55.4213 38.0344 55.6358 38.9934C56.2052 41.5666 58.1923 42.6721 60.5678 42.5101C61.2683 42.4625 61.9354 42.2337 62.5692 41.924C63.5139 41.4832 64.1977 40.7839 64.6695 39.8559C65.0436 39.0911 65.2056 38.2762 65.1901 37.3482L65.1091 36.5178L65.1103 36.519ZM62.7991 40.1335C62.6827 40.4998 62.462 40.8242 62.1641 41.0671C61.8663 41.31 61.504 41.4608 61.1218 41.5011C60.407 41.5988 59.7375 41.4201 59.1359 40.996C58.7015 40.6765 58.3499 40.2578 58.1101 39.7749C57.443 38.4072 57.3286 36.9753 57.6694 35.51C57.779 35.0565 58.0163 34.6439 58.3532 34.321C58.956 33.7671 59.6553 33.6372 60.438 33.8004C61.1885 33.9637 61.7567 34.3699 62.2249 34.9894C62.6931 35.6089 62.9087 36.3236 63.0386 37.0742C63.1041 37.4482 63.1041 37.839 63.1196 38.0832C63.1196 38.8647 63.0541 39.5128 62.8099 40.1347L62.7991 40.1335ZM100.683 36.6501C100.564 35.7054 100.211 34.8428 99.5428 34.1269C98.6636 33.1667 97.5235 32.7592 96.2547 32.7426C95.1635 32.7259 94.1545 33.0356 93.2264 33.5729C92.184 34.1924 91.468 35.0704 91.1917 36.2593C90.8616 37.5564 91 38.9284 91.5824 40.1335C92.1185 41.2735 93.031 42.0062 94.2367 42.3314C95.5709 42.6888 96.8421 42.5268 98.0786 41.924C99.1532 41.4034 99.918 40.5897 100.358 39.4818C100.62 38.8302 100.715 38.1309 100.732 37.316C100.748 37.1695 100.715 36.9086 100.684 36.6489L100.683 36.6501ZM98.436 39.9226C98.1739 40.8018 97.6224 41.3712 96.6943 41.5023C96.0105 41.6 95.3601 41.4368 94.7727 41.046C94.2676 40.7041 93.9102 40.2478 93.6493 39.7117C93.3563 39.1423 93.1931 38.5395 93.1287 37.9212C93.031 37.1564 93.0311 36.4082 93.2097 35.6422C93.2438 35.4912 93.2929 35.3439 93.3563 35.2026C93.8125 34.0625 94.8216 33.5419 96.0105 33.8028C96.8087 33.9815 97.4103 34.4223 97.8666 35.0894C98.3074 35.7411 98.5182 36.4571 98.6171 37.2338C98.6648 37.5435 98.6826 37.8688 98.6648 38.1452C98.6648 38.7801 98.6171 39.3663 98.4265 39.9357L98.436 39.9226Z" fill="white"/>
</svg>
