<svg width="120" height="120" viewBox="0 0 120 120" fill="none" xmlns="http://www.w3.org/2000/svg">
<path fill-rule="evenodd" clip-rule="evenodd" d="M109 15H25C22.7909 15 21 16.7909 21 19V77C21 79.2091 22.7909 81 25 81H109C111.209 81 113 79.2091 113 77V19C113 16.7909 111.209 15 109 15ZM25 11C20.5817 11 17 14.5817 17 19V77C17 81.4183 20.5817 85 25 85H109C113.418 85 117 81.4183 117 77V19C117 14.5817 113.418 11 109 11H25Z" fill="#121212"/>
<path fill-rule="evenodd" clip-rule="evenodd" d="M115 32H19V28H115V32Z" fill="black"/>
<path fill-rule="evenodd" clip-rule="evenodd" d="M26 21.5C26 20.3954 26.8954 19.5 28 19.5H106C107.105 19.5 108 20.3954 108 21.5C108 22.6046 107.105 23.5 106 23.5H28C26.8954 23.5 26 22.6046 26 21.5Z" fill="#121212"/>
<path d="M2 44C2 39.5817 5.58172 36 10 36H94C98.4183 36 102 39.5817 102 44V102C102 106.418 98.4183 110 94 110H10C5.58172 110 2 106.418 2 102V44Z" fill="white"/>
<path fill-rule="evenodd" clip-rule="evenodd" d="M94 40H10C7.79086 40 6 41.7909 6 44V102C6 104.209 7.79086 106 10 106H94C96.2091 106 98 104.209 98 102V44C98 41.7909 96.2091 40 94 40ZM10 36C5.58172 36 2 39.5817 2 44V102C2 106.418 5.58172 110 10 110H94C98.4183 110 102 106.418 102 102V44C102 39.5817 98.4183 36 94 36H10Z" fill="#121212"/>
<path fill-rule="evenodd" clip-rule="evenodd" d="M100 57H4V53H100V57Z" fill="black"/>
<path fill-rule="evenodd" clip-rule="evenodd" d="M11 46.5C11 45.3954 11.8954 44.5 13 44.5H91C92.1046 44.5 93 45.3954 93 46.5C93 47.6046 92.1046 48.5 91 48.5H13C11.8954 48.5 11 47.6046 11 46.5Z" fill="#121212"/>
<path d="M16 79H68V85H16V79Z" fill="#F4B400"/>
<path d="M16 89H42V95H16V89Z" fill="#F4B400"/>
<path d="M16 69H68V75H16V69Z" fill="#F4B400"/>
</svg>
