<svg width="100" height="100" viewBox="0 0 100 100" fill="none" xmlns="http://www.w3.org/2000/svg">
<path fill-rule="evenodd" clip-rule="evenodd" d="M4.41016 66.5229H7.44249V54.5788L12.1183 64.9951C12.6735 66.2443 13.4148 66.6843 14.896 66.6843C16.3776 66.6843 17.1185 66.2443 17.6736 64.9951L22.3494 54.5788V66.5229H25.3584V54.6016C25.3584 53.4447 24.8951 52.8881 23.9463 52.5872C21.6548 51.8697 20.1036 52.4948 19.4094 54.046L14.8264 64.3004L10.3825 54.046C9.71116 52.4948 8.13715 51.8697 5.84565 52.5872C4.87344 52.8881 4.41068 53.4442 4.41068 54.6016L4.41016 66.5229ZM27.8813 56.8003H30.8903V63.3744C30.8674 63.7443 31.006 64.578 32.6728 64.6013C33.506 64.6236 39.1769 64.6013 39.2231 64.6013V56.7769H42.2554C42.2782 56.7769 42.2554 67.4474 42.2554 67.4941C42.2782 70.1327 38.9917 70.6878 37.4872 70.7345H27.9508V68.6977C27.9508 68.6977 37.4644 68.721 37.4872 68.6977C39.4316 68.5125 39.2003 67.5408 39.2003 67.2165V66.429H32.7885C29.8024 66.3834 27.9041 65.0864 27.8813 63.5819C27.8813 63.4434 27.9508 56.8703 27.8813 56.8003ZM92.9013 49.2311C91.0503 49.1849 89.6376 49.3468 88.4107 49.8791C88.0641 50.0181 87.5313 50.0181 87.4623 50.458C87.6475 50.6422 87.6932 50.9436 87.8322 51.1989C88.1331 51.6622 88.6197 52.2863 89.0591 52.6105C89.5224 52.9814 90.0085 53.3513 90.5175 53.6756C91.4435 54.2307 92.4619 54.5316 93.3179 55.0882C93.8507 55.4115 94.3596 55.8291 94.8691 56.199C95.0999 56.3842 95.2857 56.6623 95.5866 56.7774V56.7318C95.4247 56.5232 95.378 56.2223 95.239 55.9899L94.5448 55.2958C93.874 54.4164 93.017 53.6289 92.1138 52.9814C91.3963 52.472 89.7761 51.7545 89.4752 50.9213C89.4519 50.898 89.4285 50.898 89.4285 50.8746C89.938 50.8046 90.5403 50.6204 91.0031 50.5037C91.7906 50.2962 92.5075 50.3418 93.3174 50.1338C93.6883 50.0176 94.0582 49.9252 94.4291 49.8096V49.601C94.0126 49.1844 93.735 48.606 93.2722 48.2355C92.092 47.2172 90.795 46.2216 89.4757 45.3884C88.7349 44.9023 87.8322 44.6014 87.0457 44.2082C86.7905 44.0925 86.3272 44.023 86.143 43.7916C85.7254 43.2821 85.5179 42.6108 85.1936 42.009C84.5145 40.6888 83.8816 39.3453 83.2959 37.9811C82.9026 37.0784 82.6241 36.1757 82.139 35.342C79.7313 31.407 77.1617 29.0232 73.1577 26.685C72.3017 26.1989 71.2833 25.9908 70.1949 25.7361C69.6164 25.6894 69.038 25.6666 68.459 25.6199C68.1114 25.4809 67.7415 25.0415 67.3939 24.8329C66.0746 23.9997 62.6719 22.171 61.6992 24.5782C61.074 26.0827 62.6252 27.5643 63.1803 28.3285C63.5746 28.8608 64.0597 29.4631 64.3382 30.0644C64.5224 30.4576 64.5458 30.8514 64.7081 31.268C65.1014 32.3097 65.4256 33.4438 65.9117 34.3927C66.1659 34.8788 66.4435 35.3882 66.7677 35.8281C66.9529 36.0829 67.3005 36.1986 67.3462 36.6152C67.022 37.0779 66.9996 37.7726 66.8144 38.351C66.0041 40.9668 66.305 44.1843 67.5086 46.1282C67.8795 46.7067 68.7355 47.9798 69.9396 47.4942C70.9814 47.0543 70.7495 45.7578 71.0504 44.5776C71.1204 44.3228 71.0737 44.1376 71.2122 43.9524V43.9986C71.5131 44.6466 71.8374 45.2717 72.1616 45.8963C72.8558 47.0309 74.106 48.2345 75.1711 49.021C75.7029 49.4376 76.1428 50.1556 76.8603 50.3865V50.3398H76.7913C76.6523 50.1322 76.4437 50.0394 76.2818 49.877C75.8653 49.4604 75.4025 48.951 75.0549 48.4882C74.1066 47.1917 73.25 45.7568 72.463 44.2751C72.0921 43.5576 71.7678 42.7706 71.468 42.0531C71.3513 41.7756 71.3513 41.359 71.097 41.1966C70.7495 41.7289 70.2644 42.1688 69.9853 42.794C69.5687 43.7895 69.4997 45.0159 69.3612 46.2662C69.2678 46.3124 69.2911 46.289 69.2445 46.3357C68.5047 46.1505 68.2494 45.3863 67.9719 44.7384C67.3011 43.0948 67.1615 40.4563 67.7633 38.558C67.9252 38.0719 68.6437 36.5441 68.3428 36.0813C68.2027 35.6414 67.7633 35.3638 67.5091 35.0168C67.1848 34.6002 66.884 34.0445 66.6531 33.5584C66.098 32.262 65.8427 30.827 65.2404 29.5311C64.9395 28.9059 64.4773 28.2808 64.0835 27.7485C63.6436 27.1234 63.1575 26.6839 62.8109 25.9431C62.6952 25.6884 62.5334 25.2718 62.6952 24.9937C62.7642 24.8085 62.8343 24.739 63.0184 24.6695C63.3193 24.4381 64.1764 24.7623 64.4996 24.8775C65.3333 25.2479 66.0508 25.5722 66.7683 26.0583C67.1159 26.2897 67.4634 26.7291 67.88 26.8453H68.3433C69.0841 27.0072 69.9168 26.8915 70.6109 27.1C71.8379 27.4699 72.9486 28.0489 73.9447 28.6974C76.9998 30.6185 79.4771 33.3499 81.1896 36.6136C81.4672 37.1459 81.5828 37.632 81.8147 38.1876C82.3014 39.3222 82.9255 40.4791 83.4116 41.567C83.8749 42.6783 84.361 43.7895 85.0318 44.6917C85.4027 45.1778 86.791 45.4325 87.4161 45.6867C87.8561 45.8719 88.573 46.08 88.9907 46.3352C89.8005 46.798 90.5642 47.3769 91.3283 47.9092C91.6977 48.1665 92.8546 48.745 92.9013 49.2311Z" fill="#121212"/>
<path fill-rule="evenodd" clip-rule="evenodd" d="M69.2921 29.1172C68.9724 29.1173 68.654 29.1563 68.3438 29.2334V29.2796H68.4127C68.598 29.65 68.9222 29.9047 69.1536 30.2284C69.3154 30.5989 69.5012 30.9693 69.663 31.3397L69.732 31.2702C70.0563 31.0621 70.1953 30.6917 70.1953 30.1133C70.0796 29.9742 70.0563 29.8124 69.9411 29.65C69.7787 29.4181 69.5012 29.3024 69.2921 29.1172Z" fill="#121212"/>
<path fill-rule="evenodd" clip-rule="evenodd" d="M44.5938 66.5225H53.2736C54.292 66.5225 55.2871 66.314 56.0741 65.943C57.37 65.3423 58.0185 64.5314 58.0185 63.4668V61.2449C58.0185 60.3889 57.2777 59.5557 55.8666 59.0229C55.1024 58.722 54.1763 58.5829 53.2736 58.5829H49.6167C48.3897 58.5829 47.8113 58.212 47.6723 57.4027C47.6489 57.3104 47.6489 57.2175 47.6489 57.1251V55.7592C47.6489 55.6668 47.6489 55.5973 47.6723 55.505C47.8113 54.8798 48.135 54.6946 49.2001 54.6023C49.2924 54.6023 49.4081 54.5789 49.501 54.5789H58.1347V52.5655H49.64C48.4131 52.5655 47.7879 52.6578 47.2095 52.8197C45.4041 53.3982 44.6171 54.278 44.6171 55.8292V57.5884C44.6171 58.9544 46.1678 60.1113 48.7373 60.3889C49.0382 60.3889 49.3158 60.4122 49.6167 60.4122H52.7419C52.8576 60.4122 52.9727 60.4122 53.0651 60.4355C54.0378 60.5279 54.4311 60.6898 54.732 61.0363C54.8938 61.2215 54.9639 61.3839 54.9639 61.5924V63.3517C54.9639 63.5602 54.8248 63.8383 54.5239 64.0692C54.2687 64.3011 53.8287 64.4401 53.2503 64.4857C53.1346 64.4857 53.0428 64.5091 52.926 64.5091H44.5938V66.5225ZM76.8605 63.003C76.8605 65.0865 78.3883 66.2434 81.5135 66.4753C81.791 66.4986 82.0919 66.522 82.3695 66.522H90.2395V64.5075H82.3228C80.5402 64.5075 79.8694 64.0676 79.8694 63.003V52.5645H76.8599L76.8605 63.003ZM59.9401 63.1187V55.9439C59.9401 54.1151 61.2127 53.0044 63.7589 52.6568C64.0142 52.6101 64.3151 52.6101 64.5693 52.6101H70.3092C70.5867 52.6101 70.842 52.6101 71.1429 52.6568C73.6657 53.0044 74.9617 54.1151 74.9617 55.9439V63.1187C74.9617 64.6009 74.4066 65.3874 73.1563 65.8969L76.1424 68.5821H72.6245L70.2168 66.4291L67.7858 66.5682H64.5687C64.0136 66.5682 63.4347 66.4992 62.7862 66.314C60.8661 65.804 59.9401 64.7856 59.9401 63.1187ZM63.2038 62.9346C63.2038 63.0502 63.2271 63.1421 63.2505 63.2588C63.4357 64.0915 64.2222 64.5547 65.4024 64.5547H68.1577L65.6349 62.2861H69.1528L71.3514 64.2538C71.7457 64.0453 72.0232 63.721 72.1156 63.3045C72.1389 63.1888 72.1389 63.0969 72.1389 63.0036V56.1062C72.1389 56.0362 72.1389 55.9444 72.1156 55.851C71.9304 55.0645 71.1439 54.6251 69.986 54.6251H65.403C64.0603 54.6251 63.2043 55.2035 63.2043 56.1062L63.2038 62.9346ZM91.6289 66.5225H92.0688V64.8556H92.6706V64.508H91.0271V64.8556H91.6289V66.5225ZM95.0083 66.5225H95.4015V64.508H94.7997L94.268 65.8974L93.7362 64.508H93.111V66.5225H93.5276V64.9947L94.1061 66.5225H94.407L94.9854 64.9947H95.0088L95.0083 66.5225Z" fill="#121212"/>
<path fill-rule="evenodd" clip-rule="evenodd" d="M6.23709 47.797L4.54688 39.9731H5.4034L6.37561 45.1117C6.4913 45.644 6.58417 46.1763 6.65368 46.7086L6.95458 45.2503L8.18152 39.9726H9.17656L10.1026 43.931C10.334 44.9032 10.4958 45.8287 10.6115 46.7086C10.6811 46.1996 10.7967 45.6207 10.9358 44.996L11.9308 39.9731H12.8107L11.0286 47.797H10.2183L8.85284 41.848L8.64428 40.922C8.59811 41.2691 8.52859 41.5705 8.45908 41.848L7.0931 47.797H6.23709ZM13.3435 44.001C13.3435 42.6584 13.6444 41.64 14.2228 40.922C14.8018 40.2045 15.5421 39.8574 16.422 39.8574C16.9771 39.8574 17.5099 39.9965 17.9727 40.3202C18.4354 40.6439 18.8058 41.1072 19.0839 41.709C19.3386 42.3336 19.4777 43.0511 19.4777 43.9076C19.4777 45.065 19.2229 45.9911 18.6901 46.7314C18.1117 47.5417 17.348 47.935 16.422 47.935C15.4726 47.935 14.7089 47.5184 14.1305 46.7081C13.5977 45.9454 13.3435 45.0427 13.3435 44.001ZM14.2228 44.001C14.2228 44.9732 14.4309 45.7141 14.848 46.2463C15.2879 46.7786 15.7968 47.0567 16.3986 47.0567C17.0238 47.0567 17.5561 46.7786 17.9727 46.2463C18.3892 45.7141 18.5978 44.927 18.5978 43.8853C18.5978 43.1912 18.5055 42.6122 18.2736 42.0804C18.1117 41.6639 17.857 41.3396 17.5327 41.1082C17.2129 40.8664 16.8225 40.7363 16.4215 40.7378C15.773 40.7378 15.2407 40.992 14.8475 41.5248C14.4309 42.0566 14.2228 42.8898 14.2228 44.001ZM20.5417 47.797V39.9731H23.3888C23.9673 39.9731 24.4072 40.0426 24.6853 40.2045C24.9862 40.3435 25.2176 40.5749 25.3794 40.922C25.5646 41.2691 25.6575 41.6628 25.6575 42.1022C25.6575 42.7045 25.5185 43.1673 25.1947 43.5377C24.8933 43.9081 24.4539 44.1395 23.8521 44.2552C24.1068 44.3942 24.2687 44.5333 24.4077 44.6718C24.6625 44.9727 24.871 45.2969 25.0791 45.6668L26.1898 47.7965H25.1252L24.2687 46.1758C23.9216 45.5506 23.6902 45.1112 23.505 44.9027C23.3432 44.6713 23.1808 44.5089 23.0189 44.4394C22.8571 44.3699 22.6485 44.3237 22.371 44.3237H21.3988V47.796H20.5417V47.797ZM21.3982 43.422H23.2036C23.5969 43.422 23.8978 43.3759 24.1063 43.283C24.3144 43.1907 24.4762 43.0283 24.6153 42.8431C24.7309 42.6345 24.7771 42.3798 24.7771 42.1022C24.7771 41.709 24.6614 41.4081 24.43 41.1767C24.1987 40.9453 23.8744 40.8296 23.4117 40.8296H21.3977V43.422H21.3982ZM26.9768 47.797V39.9731H27.8333V43.862L31.0047 39.9731H32.1616L29.4535 43.1445L32.2773 47.797H31.1432L28.875 43.862L27.8333 45.0889V47.797H26.9768ZM32.671 45.2741L33.4814 45.2046C33.5276 45.6212 33.6204 45.9683 33.7823 46.1996C33.9213 46.4544 34.1527 46.6396 34.4303 46.7781C34.7083 46.94 35.032 47.0095 35.3796 47.0095C35.8886 47.0095 36.259 46.8704 36.5371 46.6396C36.8146 46.3848 36.9536 46.0606 36.9536 45.6674C36.9536 45.436 36.9075 45.2508 36.8146 45.0656C36.7223 44.9037 36.5599 44.7647 36.3513 44.649C36.1433 44.5333 35.7034 44.3714 35.032 44.1862C34.4303 44.001 33.9903 43.8158 33.7356 43.6306C33.4779 43.4655 33.2699 43.2334 33.1338 42.9593C32.9948 42.6812 32.9252 42.3575 32.9252 42.0104C32.9252 41.3619 33.1338 40.853 33.527 40.4592C33.9436 40.0426 34.4993 39.8574 35.1934 39.8574C35.6562 39.8574 36.0727 39.9498 36.4432 40.135C36.7902 40.3202 37.0683 40.5977 37.2763 40.9453C37.4787 41.3305 37.5821 41.76 37.5772 42.1951L36.7669 42.2646C36.7435 41.7557 36.5817 41.3853 36.327 41.1305C36.0489 40.8758 35.7018 40.7601 35.2162 40.7601C34.7296 40.7601 34.3597 40.8758 34.1278 41.0844C34.0022 41.1833 33.9013 41.3101 33.8331 41.4547C33.7648 41.5992 33.7311 41.7577 33.7346 41.9175C33.7346 42.2418 33.8274 42.4732 34.0126 42.6584C34.1973 42.8202 34.6144 43.0054 35.2624 43.1907C35.9104 43.3525 36.3503 43.5149 36.605 43.6306C36.9988 43.8386 37.2992 44.0933 37.4844 44.4176C37.6929 44.7418 37.7853 45.1351 37.7853 45.575C37.788 46.0054 37.6761 46.4287 37.461 46.8014C37.2525 47.1719 36.9749 47.4499 36.6045 47.6346C36.2574 47.8426 35.8175 47.9355 35.308 47.9355C34.521 47.9355 33.8731 47.7041 33.4103 47.218C32.9475 46.7319 32.6939 46.0839 32.671 45.2741ZM42.8092 47.797L41.1195 39.9731H41.9761L42.9483 45.1117C43.064 45.644 43.1563 46.1763 43.2263 46.7086L43.5272 45.2503L44.7537 39.9726H45.7492L46.6747 43.931C46.8923 44.8475 47.0623 45.7746 47.1842 46.7086C47.2537 46.1996 47.3694 45.6207 47.4851 44.996L48.5035 39.9731H49.3828L47.6008 47.797H46.7904L45.4245 41.848L45.2164 40.922C45.1703 41.2691 45.1007 41.5705 45.0312 41.848L43.6658 47.797H42.8092ZM50.3089 47.797V39.9731H51.1654V47.797H50.3089ZM54.2901 47.797V40.8992H52.1838V39.9731H57.2529V40.8992H55.1243V47.797H54.2901ZM58.0871 47.797V39.9731H58.9431V43.1907H62.2758V39.9731H63.1329V47.797H62.2758V44.1167H58.9431V47.797H58.0871Z" fill="#121212"/>
</svg>
