<svg width="100" height="100" viewBox="0 0 100 100" fill="none" xmlns="http://www.w3.org/2000/svg">
<path fill-rule="evenodd" clip-rule="evenodd" d="M4.41187 66.5229H7.4442V54.5788L12.1201 64.9951C12.6752 66.2443 13.4165 66.6843 14.8977 66.6843C16.3793 66.6843 17.1202 66.2443 17.6753 64.9951L22.3511 54.5788V66.5229H25.3601V54.6016C25.3601 53.4447 24.8968 52.8881 23.948 52.5872C21.6565 51.8697 20.1053 52.4948 19.4111 54.046L14.8281 64.3004L10.3842 54.046C9.71287 52.4948 8.13886 51.8697 5.84736 52.5872C4.87515 52.8881 4.41238 53.4442 4.41238 54.6016L4.41187 66.5229ZM27.883 56.8003H30.892V63.3744C30.8691 63.7443 31.0077 64.578 32.6745 64.6013C33.5077 64.6236 39.1786 64.6013 39.2248 64.6013V56.7769H42.2571C42.2799 56.7769 42.2571 67.4474 42.2571 67.4941C42.2799 70.1327 38.9934 70.6878 37.4889 70.7345H27.9525V68.6977C27.9525 68.6977 37.4661 68.721 37.4889 68.6977C39.4333 68.5125 39.202 67.5408 39.202 67.2165V66.429H32.7902C29.8041 66.3834 27.9058 65.0864 27.883 63.5819C27.883 63.4434 27.9525 56.8703 27.883 56.8003ZM92.903 49.2311C91.052 49.1849 89.6393 49.3468 88.4124 49.8791C88.0658 50.0181 87.533 50.0181 87.464 50.458C87.6492 50.6422 87.6949 50.9436 87.8339 51.1989C88.1348 51.6622 88.6214 52.2863 89.0609 52.6105C89.5241 52.9814 90.0102 53.3513 90.5192 53.6756C91.4452 54.2307 92.4636 54.5316 93.3196 55.0882C93.8524 55.4115 94.3613 55.8291 94.8708 56.199C95.1016 56.3842 95.2874 56.6623 95.5883 56.7774V56.7318C95.4264 56.5232 95.3797 56.2223 95.2407 55.9899L94.5465 55.2958C93.8757 54.4164 93.0187 53.6289 92.1155 52.9814C91.398 52.472 89.7778 51.7545 89.4769 50.9213C89.4536 50.898 89.4302 50.898 89.4302 50.8746C89.9397 50.8046 90.542 50.6204 91.0048 50.5037C91.7923 50.2962 92.5093 50.3418 93.3191 50.1338C93.69 50.0176 94.0599 49.9252 94.4308 49.8096V49.601C94.0143 49.1844 93.7367 48.606 93.2739 48.2355C92.0937 47.2172 90.7967 46.2216 89.4774 45.3884C88.7366 44.9023 87.8339 44.6014 87.0474 44.2082C86.7922 44.0925 86.3289 44.023 86.1447 43.7916C85.7271 43.2821 85.5196 42.6108 85.1953 42.009C84.5163 40.6888 83.8833 39.3453 83.2976 37.9811C82.9044 37.0784 82.6258 36.1757 82.1407 35.342C79.733 31.407 77.1634 29.0232 73.1594 26.685C72.3034 26.1989 71.285 25.9908 70.1966 25.7361C69.6181 25.6894 69.0397 25.6666 68.4607 25.6199C68.1131 25.4809 67.7432 25.0415 67.3956 24.8329C66.0763 23.9997 62.6736 22.171 61.7009 24.5782C61.0757 26.0827 62.6269 27.5643 63.182 28.3285C63.5763 28.8608 64.0614 29.4631 64.34 30.0644C64.5241 30.4576 64.5475 30.8514 64.7099 31.268C65.1031 32.3097 65.4273 33.4438 65.9134 34.3927C66.1677 34.8788 66.4452 35.3882 66.7695 35.8281C66.9547 36.0829 67.3023 36.1986 67.3479 36.6152C67.0237 37.0779 67.0014 37.7726 66.8161 38.351C66.0058 40.9668 66.3067 44.1843 67.5103 46.1282C67.8812 46.7067 68.7372 47.9798 69.9413 47.4942C70.9831 47.0543 70.7512 45.7578 71.0521 44.5776C71.1221 44.3228 71.0754 44.1376 71.2139 43.9524V43.9986C71.5148 44.6466 71.8391 45.2717 72.1633 45.8963C72.8575 47.0309 74.1077 48.2345 75.1728 49.021C75.7046 49.4376 76.1445 50.1556 76.862 50.3865V50.3398H76.793C76.654 50.1322 76.4454 50.0394 76.2836 49.877C75.867 49.4604 75.4042 48.951 75.0566 48.4882C74.1083 47.1917 73.2517 45.7568 72.4647 44.2751C72.0938 43.5576 71.7696 42.7706 71.4697 42.0531C71.353 41.7756 71.353 41.359 71.0988 41.1966C70.7512 41.7289 70.2661 42.1688 69.987 42.794C69.5704 43.7895 69.5014 45.0159 69.3629 46.2662C69.2695 46.3124 69.2929 46.289 69.2462 46.3357C68.5064 46.1505 68.2511 45.3863 67.9736 44.7384C67.3028 43.0948 67.1632 40.4563 67.765 38.558C67.9269 38.0719 68.6454 36.5441 68.3445 36.0813C68.2044 35.6414 67.765 35.3638 67.5108 35.0168C67.1866 34.6002 66.8857 34.0445 66.6548 33.5584C66.0997 32.262 65.8445 30.827 65.2421 29.5311C64.9412 28.9059 64.479 28.2808 64.0852 27.7485C63.6453 27.1234 63.1592 26.6839 62.8126 25.9431C62.6969 25.6884 62.5351 25.2718 62.6969 24.9937C62.7659 24.8085 62.836 24.739 63.0202 24.6695C63.3211 24.4381 64.1781 24.7623 64.5013 24.8775C65.335 25.2479 66.0525 25.5722 66.77 26.0583C67.1176 26.2897 67.4651 26.7291 67.8817 26.8453H68.345C69.0859 27.0072 69.9185 26.8915 70.6127 27.1C71.8396 27.4699 72.9503 28.0489 73.9464 28.6974C77.0016 30.6185 79.4788 33.3499 81.1913 36.6136C81.4689 37.1459 81.5845 37.632 81.8165 38.1876C82.3031 39.3222 82.9272 40.4791 83.4133 41.567C83.8766 42.6783 84.3627 43.7895 85.0335 44.6917C85.4044 45.1778 86.7927 45.4325 87.4178 45.6867C87.8578 45.8719 88.5747 46.08 88.9924 46.3352C89.8022 46.798 90.5659 47.3769 91.33 47.9092C91.6994 48.1665 92.8563 48.745 92.903 49.2311Z" fill="white"/>
<path fill-rule="evenodd" clip-rule="evenodd" d="M69.2928 29.1162C68.9732 29.1163 68.6547 29.1553 68.3445 29.2324V29.2786H68.4135C68.5987 29.649 68.9229 29.9037 69.1543 30.2275C69.3162 30.5979 69.5019 30.9683 69.6638 31.3387L69.7328 31.2692C70.057 31.0612 70.196 30.6907 70.196 30.1123C70.0804 29.9733 70.057 29.8114 69.9418 29.649C69.7795 29.4171 69.5019 29.3014 69.2928 29.1162Z" fill="white"/>
<path fill-rule="evenodd" clip-rule="evenodd" d="M44.5952 66.5225H53.2751C54.2935 66.5225 55.2885 66.314 56.0755 65.943C57.3715 65.3423 58.02 64.5314 58.02 63.4668V61.2449C58.02 60.3889 57.2791 59.5557 55.868 59.0229C55.1038 58.722 54.1778 58.5829 53.2751 58.5829H49.6181C48.3912 58.5829 47.8128 58.212 47.6737 57.4027C47.6504 57.3104 47.6504 57.2175 47.6504 57.1251V55.7592C47.6504 55.6668 47.6504 55.5973 47.6737 55.505C47.8128 54.8798 48.1365 54.6946 49.2016 54.6023C49.2939 54.6023 49.4096 54.5789 49.5025 54.5789H58.1362V52.5655H49.6415C48.4145 52.5655 47.7894 52.6578 47.211 52.8197C45.4056 53.3982 44.6186 54.278 44.6186 55.8292V57.5884C44.6186 58.9544 46.1692 60.1113 48.7388 60.3889C49.0397 60.3889 49.3172 60.4122 49.6181 60.4122H52.7433C52.859 60.4122 52.9742 60.4122 53.0665 60.4355C54.0393 60.5279 54.4325 60.6898 54.7334 61.0363C54.8953 61.2215 54.9653 61.3839 54.9653 61.5924V63.3517C54.9653 63.5602 54.8263 63.8383 54.5254 64.0692C54.2701 64.3011 53.8302 64.4401 53.2518 64.4857C53.1361 64.4857 53.0442 64.5091 52.9275 64.5091H44.5952V66.5225ZM76.8619 63.003C76.8619 65.0865 78.3898 66.2434 81.5149 66.4753C81.7925 66.4986 82.0934 66.522 82.371 66.522H90.241V64.5075H82.3243C80.5417 64.5075 79.8709 64.0676 79.8709 63.003V52.5645H76.8614L76.8619 63.003ZM59.9416 63.1187V55.9439C59.9416 54.1151 61.2142 53.0044 63.7604 52.6568C64.0156 52.6101 64.3165 52.6101 64.5707 52.6101H70.3106C70.5882 52.6101 70.8434 52.6101 71.1443 52.6568C73.6672 53.0044 74.9631 54.1151 74.9631 55.9439V63.1187C74.9631 64.6009 74.408 65.3874 73.1578 65.8969L76.1439 68.5821H72.626L70.2183 66.4291L67.7872 66.5682H64.5702C64.0151 66.5682 63.4361 66.4992 62.7876 66.314C60.8676 65.804 59.9416 64.7856 59.9416 63.1187ZM63.2053 62.9346C63.2053 63.0502 63.2286 63.1421 63.252 63.2588C63.4372 64.0915 64.2237 64.5547 65.4039 64.5547H68.1592L65.6363 62.2861H69.1542L71.3529 64.2538C71.7472 64.0453 72.0247 63.721 72.1171 63.3045C72.1404 63.1888 72.1404 63.0969 72.1404 63.0036V56.1062C72.1404 56.0362 72.1404 55.9444 72.1171 55.851C71.9318 55.0645 71.1454 54.6251 69.9874 54.6251H65.4044C64.0618 54.6251 63.2058 55.2035 63.2058 56.1062L63.2053 62.9346ZM91.6303 66.5225H92.0703V64.8556H92.6721V64.508H91.0285V64.8556H91.6303V66.5225ZM95.0097 66.5225H95.403V64.508H94.8012L94.2694 65.8974L93.7377 64.508H93.1125V66.5225H93.5291V64.9947L94.1076 66.5225H94.4085L94.9869 64.9947H95.0102L95.0097 66.5225Z" fill="#CFCFCF"/>
<path fill-rule="evenodd" clip-rule="evenodd" d="M6.24051 47.796L4.55029 39.9721H5.40682L6.37903 45.1108C6.49472 45.643 6.58758 46.1753 6.6571 46.7076L6.958 45.2493L8.18494 39.9716H9.17998L10.106 43.93C10.3374 44.9022 10.4993 45.8277 10.615 46.7076C10.6845 46.1987 10.8002 45.6197 10.9392 44.9951L11.9342 39.9721H12.8141L11.0321 47.796H10.2217L8.85625 41.847L8.6477 40.921C8.60153 41.2681 8.53201 41.5695 8.46249 41.847L7.09652 47.796H6.24051ZM13.3469 44C13.3469 42.6574 13.6478 41.639 14.2263 40.921C14.8052 40.2035 15.5455 39.8564 16.4254 39.8564C16.9805 39.8564 17.5133 39.9955 17.9761 40.3192C18.4388 40.6429 18.8093 41.1062 19.0873 41.708C19.3421 42.3326 19.4811 43.0501 19.4811 43.9066C19.4811 45.0641 19.2264 45.9901 18.6936 46.7304C18.1151 47.5408 17.3515 47.934 16.4254 47.934C15.476 47.934 14.7124 47.5174 14.1339 46.7071C13.6011 45.9445 13.3469 45.0418 13.3469 44ZM14.2263 44C14.2263 44.9722 14.4343 45.7131 14.8514 46.2454C15.2913 46.7776 15.8003 47.0557 16.4021 47.0557C17.0272 47.0557 17.5595 46.7776 17.9761 46.2454C18.3927 45.7131 18.6012 44.9261 18.6012 43.8843C18.6012 43.1902 18.5089 42.6112 18.277 42.0795C18.1151 41.6629 17.8604 41.3386 17.5361 41.1073C17.2163 40.8654 16.8259 40.7353 16.4249 40.7368C15.7764 40.7368 15.2441 40.991 14.8509 41.5238C14.4343 42.0556 14.2263 42.8888 14.2263 44ZM20.5451 47.796V39.9721H23.3922C23.9707 39.9721 24.4106 40.0417 24.6887 40.2035C24.9896 40.3426 25.221 40.5739 25.3828 40.921C25.5681 41.2681 25.6609 41.6618 25.6609 42.1013C25.6609 42.7036 25.5219 43.1663 25.1982 43.5367C24.8967 43.9072 24.4573 44.1385 23.8555 44.2542C24.1103 44.3933 24.2721 44.5323 24.4112 44.6708C24.6659 44.9717 24.8744 45.296 25.0825 45.6659L26.1932 47.7955H25.1286L24.2721 46.1748C23.925 45.5497 23.6937 45.1102 23.5085 44.9017C23.3466 44.6703 23.1842 44.5079 23.0224 44.4384C22.8605 44.3689 22.6519 44.3227 22.3744 44.3227H21.4022V47.795H20.5451V47.796ZM21.4016 43.4211H23.207C23.6003 43.4211 23.9012 43.3749 24.1097 43.282C24.3178 43.1897 24.4796 43.0273 24.6187 42.8421C24.7344 42.6335 24.7805 42.3788 24.7805 42.1013C24.7805 41.708 24.6648 41.4071 24.4335 41.1757C24.2021 40.9444 23.8778 40.8287 23.4151 40.8287H21.4011V43.4211H21.4016ZM26.9802 47.796V39.9721H27.8367V43.861L31.0081 39.9721H32.165L29.4569 43.1435L32.2807 47.796H31.1466L28.8785 43.861L27.8367 45.0879V47.796H26.9802ZM32.6744 45.2731L33.4848 45.2036C33.531 45.6202 33.6238 45.9673 33.7857 46.1987C33.9247 46.4534 34.1561 46.6386 34.4337 46.7771C34.7117 46.939 35.0355 47.0085 35.3831 47.0085C35.892 47.0085 36.2624 46.8695 36.5405 46.6386C36.818 46.3839 36.9571 46.0596 36.9571 45.6664C36.9571 45.435 36.9109 45.2498 36.818 45.0646C36.7257 44.9027 36.5633 44.7637 36.3547 44.648C36.1467 44.5323 35.7068 44.3704 35.0355 44.1852C34.4337 44 33.9937 43.8148 33.739 43.6296C33.4813 43.4645 33.2733 43.2325 33.1372 42.9583C32.9982 42.6802 32.9287 42.3565 32.9287 42.0094C32.9287 41.3609 33.1372 40.852 33.5305 40.4582C33.947 40.0417 34.5027 39.8564 35.1968 39.8564C35.6596 39.8564 36.0762 39.9488 36.4466 40.134C36.7936 40.3192 37.0717 40.5968 37.2798 40.9443C37.4821 41.3296 37.5855 41.759 37.5807 42.1941L36.7703 42.2636C36.747 41.7547 36.5851 41.3843 36.3304 41.1296C36.0523 40.8748 35.7052 40.7591 35.2196 40.7591C34.733 40.7591 34.3631 40.8748 34.1312 41.0834C34.0056 41.1823 33.9047 41.3091 33.8365 41.4537C33.7683 41.5983 33.7345 41.7567 33.738 41.9166C33.738 42.2408 33.8308 42.4722 34.016 42.6574C34.2007 42.8193 34.6178 43.0045 35.2658 43.1897C35.9138 43.3515 36.3537 43.5139 36.6084 43.6296C37.0022 43.8376 37.3026 44.0924 37.4878 44.4166C37.6963 44.7409 37.7887 45.1341 37.7887 45.574C37.7915 46.0044 37.6795 46.4277 37.4644 46.8005C37.2559 47.1709 36.9783 47.4489 36.6079 47.6336C36.2609 47.8417 35.8209 47.9345 35.3115 47.9345C34.5245 47.9345 33.8765 47.7032 33.4137 47.217C32.951 46.7309 32.6973 46.083 32.6744 45.2731ZM42.8127 47.796L41.123 39.9721H41.9795L42.9517 45.1108C43.0674 45.643 43.1597 46.1753 43.2298 46.7076L43.5307 45.2493L44.7571 39.9716H45.7526L46.6782 43.93C46.8957 44.8465 47.0657 45.7736 47.1876 46.7076C47.2571 46.1987 47.3728 45.6197 47.4885 44.9951L48.5069 39.9721H49.3862L47.6042 47.796H46.7939L45.4279 41.847L45.2198 40.921C45.1737 41.2681 45.1042 41.5695 45.0346 41.847L43.6692 47.796H42.8127ZM50.3123 47.796V39.9721H51.1688V47.796H50.3123ZM54.2935 47.796V40.8982H52.1872V39.9721H57.2563V40.8982H55.1277V47.796H54.2935ZM58.0905 47.796V39.9721H58.9465V43.1897H62.2792V39.9721H63.1363V47.796H62.2792V44.1157H58.9465V47.796H58.0905Z" fill="white"/>
</svg>
