<svg width="67" height="67" viewBox="0 0 67 67" fill="none" xmlns="http://www.w3.org/2000/svg">
<g clip-path="url(#clip0_1101_10073)">
<path fill-rule="evenodd" clip-rule="evenodd" d="M0 0H67V67H0V0ZM30.8798 42.5384H27.8004L19.6877 29.7395C19.4824 29.4156 19.3126 29.0796 19.1784 28.7315H19.1073C19.1705 29.104 19.2021 29.9014 19.2021 31.1237V42.5384H16.478V25.125H19.7587L27.5991 37.6204C27.9308 38.1386 28.144 38.4947 28.2387 38.689H28.286C28.2071 38.2276 28.1676 37.4464 28.1676 36.3453V25.125H30.8798V42.5384ZM11.9415 42.8059C11.4678 42.8059 11.0651 42.6481 10.7335 42.3324C10.4019 42.0085 10.2361 41.624 10.2361 41.1788C10.2361 40.7254 10.4019 40.3369 10.7335 40.0131C11.0651 39.6893 11.4678 39.5273 11.9415 39.5273C12.4232 39.5273 12.8298 39.6893 13.1614 40.0131C13.5009 40.3369 13.6707 40.7254 13.6707 41.1788C13.6707 41.624 13.5009 42.0085 13.1614 42.3324C12.8298 42.6481 12.4232 42.8059 11.9415 42.8059ZM34.611 42.5384H44.1449V40.0976H37.4298V34.9489H43.2687V32.5081H37.4298V27.578H43.766V25.125H34.611V42.5384ZM57.6945 27.578H52.815V42.5384H49.9961V27.578H45.1285V25.125H57.6945V27.578Z" fill="white"/>
</g>
<defs>
<clipPath id="clip0_1101_10073">
<rect width="67" height="67" fill="white"/>
</clipPath>
</defs>
</svg>
