<svg width="69" height="69" viewBox="0 0 69 69" fill="none" xmlns="http://www.w3.org/2000/svg">
<g clip-path="url(#clip0_1400_11792)">
<path d="M32.241 0.0537072C32.0928 0.0671824 31.6211 0.114346 31.1967 0.148034C21.4069 1.03066 12.237 6.31296 6.42916 14.4318C3.1951 18.946 1.12665 24.0666 0.345087 29.4904C0.0688444 31.3837 0.0351562 31.9429 0.0351562 34.5099C0.0351562 37.077 0.0688444 37.6362 0.345087 39.5294C2.21815 52.4724 11.4285 63.347 23.92 67.376C26.1569 68.097 28.5151 68.5888 31.1967 68.8853C32.241 68.9998 36.7552 68.9998 37.7995 68.8853C42.4283 68.3732 46.3496 67.2278 50.217 65.2537C50.8099 64.9505 50.9244 64.8697 50.8436 64.8023C50.7897 64.7618 48.2631 61.3728 45.2311 57.2764L39.7198 49.8313L32.8137 39.6103C29.0137 33.9911 25.8874 29.3961 25.8605 29.3961C25.8335 29.3893 25.8066 33.9305 25.7931 39.4755C25.7729 49.1845 25.7661 49.5752 25.6449 49.8043C25.4697 50.1345 25.3349 50.2692 25.052 50.4174C24.8363 50.5252 24.6477 50.5455 23.6303 50.5455H22.4647L22.1548 50.3501C21.9526 50.2221 21.8044 50.0536 21.7034 49.8582L21.5619 49.555L21.5753 36.0461L21.5956 22.5304L21.8044 22.2677C21.9122 22.1262 22.1413 21.9442 22.303 21.8567C22.5792 21.7219 22.687 21.7084 23.8527 21.7084C25.2271 21.7084 25.4562 21.7623 25.8133 22.1531C25.9144 22.2609 29.6537 27.8936 34.1275 34.6784C38.6013 41.4631 44.7191 50.7274 47.7241 55.2753L53.1815 63.5423L53.4578 63.3604C55.9035 61.7703 58.4908 59.5065 60.539 57.1483C64.8983 52.1423 67.7078 46.038 68.6511 39.5294C68.9274 37.6362 68.961 37.077 68.961 34.5099C68.961 31.9429 68.9274 31.3837 68.6511 29.4904C66.7781 16.5474 57.5677 5.67289 45.0762 1.64379C42.873 0.929598 40.5283 0.437752 37.9006 0.141296C37.2538 0.07392 32.8002 -0.000193812 32.241 0.0537072ZM46.3496 20.8999C46.673 21.0616 46.9358 21.3715 47.0301 21.695C47.084 21.8701 47.0975 25.6163 47.084 34.0585L47.0638 46.1727L44.9279 42.8983L42.7854 39.6238V30.8177C42.7854 25.1244 42.8123 21.924 42.8528 21.7691C42.9606 21.3918 43.1964 21.0953 43.5198 20.9201C43.796 20.7786 43.8971 20.7652 44.9549 20.7652C45.9521 20.7652 46.1272 20.7786 46.3496 20.8999Z" fill="#121212"/>
<path d="M52.8479 63.6903C52.612 63.8385 52.5379 63.9396 52.7468 63.8251C52.895 63.7375 53.1376 63.5556 53.0971 63.5488C53.0769 63.5488 52.9624 63.6162 52.8479 63.6903ZM52.383 63.9935C52.2617 64.0878 52.2617 64.0946 52.4099 64.0205C52.4908 63.98 52.5581 63.9329 52.5581 63.9194C52.5581 63.8655 52.5245 63.879 52.383 63.9935ZM52.0461 64.1956C51.9248 64.29 51.9248 64.2967 52.073 64.2226C52.1539 64.1822 52.2213 64.135 52.2213 64.1215C52.2213 64.0676 52.1876 64.0811 52.0461 64.1956ZM51.7092 64.3978C51.5879 64.4921 51.5879 64.4988 51.7361 64.4247C51.817 64.3843 51.8844 64.3371 51.8844 64.3237C51.8844 64.2698 51.8507 64.2832 51.7092 64.3978ZM51.1971 64.6673C50.9411 64.802 50.9546 64.8559 51.2106 64.7279C51.3252 64.6673 51.4127 64.6066 51.4127 64.5932C51.4127 64.546 51.406 64.5527 51.1971 64.6673Z" fill="#121212"/>
</g>
<defs>
<clipPath id="clip0_1400_11792">
<rect width="69" height="69" fill="white"/>
</clipPath>
</defs>
</svg>
