<svg width="69" height="69" viewBox="0 0 69 69" fill="none" xmlns="http://www.w3.org/2000/svg">
<g clip-path="url(#clip0_1101_9863)">
<path d="M32.243 0.0537072C32.0947 0.0671824 31.6231 0.114346 31.1986 0.148034C21.4088 1.03066 12.2389 6.31296 6.43111 14.4318C3.19705 18.946 1.1286 24.0666 0.34704 29.4904C0.0707975 31.3837 0.0371094 31.9429 0.0371094 34.5099C0.0371094 37.077 0.0707975 37.6362 0.34704 39.5294C2.2201 52.4724 11.4304 63.347 23.922 67.376C26.1589 68.097 28.517 68.5888 31.1986 68.8853C32.243 68.9998 36.7572 68.9998 37.8015 68.8853C42.4302 68.3732 46.3515 67.2278 50.2189 65.2537C50.8118 64.9505 50.9264 64.8697 50.8455 64.8023C50.7916 64.7618 48.265 61.3728 45.2331 57.2764L39.7217 49.8313L32.8156 39.6103C29.0156 33.9911 25.8894 29.3961 25.8624 29.3961C25.8355 29.3893 25.8085 33.9305 25.795 39.4755C25.7748 49.1845 25.7681 49.5752 25.6468 49.8043C25.4716 50.1345 25.3369 50.2692 25.0539 50.4174C24.8383 50.5252 24.6496 50.5455 23.6323 50.5455H22.4667L22.1567 50.3501C21.9546 50.2221 21.8064 50.0536 21.7053 49.8582L21.5638 49.555L21.5773 36.0461L21.5975 22.5304L21.8064 22.2677C21.9142 22.1262 22.1433 21.9442 22.305 21.8567C22.5812 21.7219 22.689 21.7084 23.8546 21.7084C25.2291 21.7084 25.4582 21.7623 25.8153 22.1531C25.9163 22.2609 29.6557 27.8936 34.1295 34.6784C38.6033 41.4631 44.721 50.7274 47.726 55.2753L53.1835 63.5423L53.4597 63.3604C55.9055 61.7703 58.4927 59.5065 60.541 57.1483C64.9002 52.1423 67.7098 46.038 68.6531 39.5294C68.9293 37.6362 68.963 37.077 68.963 34.5099C68.963 31.9429 68.9293 31.3837 68.6531 29.4904C66.78 16.5474 57.5697 5.67289 45.0781 1.64379C42.8749 0.929598 40.5302 0.437752 37.9026 0.141296C37.2557 0.07392 32.8022 -0.000193812 32.243 0.0537072ZM46.3515 20.8999C46.6749 21.0616 46.9377 21.3715 47.032 21.695C47.0859 21.8701 47.0994 25.6163 47.0859 34.0585L47.0657 46.1727L44.9299 42.8983L42.7873 39.6238V30.8177C42.7873 25.1244 42.8143 21.924 42.8547 21.7691C42.9625 21.3918 43.1983 21.0953 43.5217 20.9201C43.798 20.7786 43.899 20.7652 44.9568 20.7652C45.954 20.7652 46.1292 20.7786 46.3515 20.8999Z" fill="white"/>
<path d="M52.8466 63.6903C52.6108 63.8385 52.5367 63.9396 52.7456 63.8251C52.8938 63.7375 53.1364 63.5556 53.0959 63.5488C53.0757 63.5488 52.9612 63.6162 52.8466 63.6903ZM52.3817 63.9935C52.2605 64.0878 52.2605 64.0946 52.4087 64.0205C52.4895 63.98 52.5569 63.9329 52.5569 63.9194C52.5569 63.8655 52.5232 63.879 52.3817 63.9935ZM52.0449 64.1956C51.9236 64.29 51.9236 64.2967 52.0718 64.2226C52.1527 64.1822 52.22 64.135 52.22 64.1215C52.22 64.0676 52.1863 64.0811 52.0449 64.1956ZM51.708 64.3978C51.5867 64.4921 51.5867 64.4988 51.7349 64.4247C51.8158 64.3843 51.8832 64.3371 51.8832 64.3237C51.8832 64.2698 51.8495 64.2832 51.708 64.3978ZM51.1959 64.6673C50.9399 64.802 50.9534 64.8559 51.2094 64.7279C51.3239 64.6673 51.4115 64.6066 51.4115 64.5932C51.4115 64.546 51.4048 64.5527 51.1959 64.6673Z" fill="white"/>
</g>
<defs>
<clipPath id="clip0_1101_9863">
<rect width="69" height="69" fill="white"/>
</clipPath>
</defs>
</svg>
