<svg width="30" height="30" viewBox="0 0 30 30" fill="none" xmlns="http://www.w3.org/2000/svg">
<path d="M9.04922 2.5C6.99922 2.5 4.94922 2.5 4.43672 2.55C3.33672 2.6125 2.59922 3.4125 2.54922 4.45C2.49922 5.4625 2.49922 24.4875 2.54922 25.5125C2.61172 26.5375 3.38672 27.325 4.43672 27.3875C5.57422 27.45 9.29922 27.4625 10.3617 27.4625C8.44922 26.1375 8.18672 23.65 8.01172 19.0375C7.91172 16.3 7.99922 6.7 8.01172 6.3L8.06172 3.675L18.1242 13.75V16.875L10.1117 8.8875C10.0992 10.475 10.0742 12.5375 10.0742 14.425C10.0742 16.25 10.0992 17.925 10.1492 18.8125C10.4492 23.8375 10.9242 26.2 13.5367 27.125C14.3742 27.4125 15.0867 27.5 16.3367 27.5C17.3617 27.5 24.5367 27.5 25.5617 27.45C26.6617 27.3875 27.4117 26.5875 27.4617 25.55C27.4992 24.5375 27.4992 5.5625 27.4617 4.525C27.3867 3.5 26.6117 2.725 25.5617 2.6625C24.4242 2.6 20.7117 2.5375 19.6367 2.5375C21.5492 3.8625 21.7992 6.35 21.9867 10.975C22.0867 13.7125 21.9992 23.3 21.9867 23.7125L21.9367 26.325L11.9117 16.25V13.125L19.8867 21.1125C19.8992 19.525 19.9242 17.4625 19.9242 15.575C19.9242 13.75 19.8992 12.075 19.8492 11.2C19.5492 6.1625 19.0742 3.8 16.4617 2.875C15.6617 2.5875 14.9117 2.5 13.6617 2.5H9.04922Z" fill="black"/>
</svg>
