<svg width="65" height="71" viewBox="0 0 65 71" fill="none" xmlns="http://www.w3.org/2000/svg">
<g clip-path="url(#clip0_1101_9867)">
<path d="M29.5746 0.901648C31.3419 -0.101668 33.6438 -0.106199 35.4096 0.901648C44.2931 5.88021 53.1794 10.851 62.0614 15.8325C63.732 16.7659 64.8494 18.6099 64.8324 20.5191V50.472C64.8449 52.4602 63.617 54.3483 61.8545 55.2605C53.0002 60.2116 44.1504 65.1687 35.2977 70.1199C33.4938 71.1428 31.1457 71.064 29.3982 69.9572C26.7437 68.431 24.0846 66.9123 21.4298 65.3875C20.8873 65.0668 20.2758 64.8115 19.8927 64.2898C20.2314 63.8371 20.8368 63.7807 21.3288 63.5831C22.4368 63.2336 23.4545 62.6727 24.4724 62.1283C24.7299 61.9536 25.0441 62.0206 25.2909 62.1769C27.5608 63.4678 29.8107 64.7961 32.0882 66.0746C32.5741 66.3528 33.0661 65.9835 33.4814 65.7539C42.1702 60.8833 50.8696 56.0311 59.5569 51.1591C59.8788 51.0055 60.0567 50.6666 60.0306 50.3169C60.0367 40.4361 60.0321 30.5535 60.0336 20.6726C60.0704 20.2758 59.8389 19.911 59.4772 19.7486C50.6536 14.8202 41.8346 9.88416 33.0125 4.95444C32.8596 4.85022 32.6786 4.7943 32.4931 4.79403C32.3076 4.79376 32.1264 4.84915 31.9732 4.95293C23.1512 9.88416 14.3336 14.8247 5.51158 19.7529C5.15111 19.9156 4.90919 20.2743 4.95209 20.6726C4.95361 30.5535 4.95209 40.4361 4.95209 50.3184C4.93679 50.489 4.97458 50.6602 5.06036 50.8089C5.14614 50.9576 5.27579 51.0766 5.43187 51.15C7.78608 52.4741 10.1433 53.7888 12.4991 55.1084C13.8262 55.8169 15.4557 56.2378 16.9178 55.695C18.2082 55.236 19.1126 53.9301 19.088 52.5713C19.1002 42.7481 19.0819 32.9234 19.0972 23.1017C19.0649 22.6657 19.482 22.3054 19.9095 22.3464C21.0406 22.3389 22.1733 22.3313 23.3045 22.3494C23.7766 22.3389 24.1016 22.8084 24.0432 23.2478C24.0386 33.1331 24.0554 43.0187 24.0356 52.9041C24.0386 55.5387 22.9473 58.4054 20.4903 59.6944C17.4634 61.2496 13.7221 60.9198 10.7318 59.4286C8.14299 58.147 5.67252 56.6346 3.12969 55.2617C1.36264 54.3546 0.140856 52.459 0.153295 50.4722V20.5191C0.134764 18.5703 1.29664 16.6929 3.01927 15.7731C11.8721 10.818 20.7233 5.85906 29.5746 0.901648Z" fill="white"/>
<path d="M37.2977 21.6504C41.1588 21.4039 45.2923 21.5043 48.7667 23.3909C51.4568 24.8366 52.9481 27.8707 52.9956 30.8348C52.9205 31.2346 52.4991 31.4552 52.1142 31.4277C50.994 31.4262 49.8735 31.4428 48.7533 31.4202C48.278 31.4383 48.0019 31.0037 47.9422 30.5871C47.6203 29.1688 46.8405 27.7642 45.4946 27.0801C43.4285 26.0541 41.0329 26.1057 38.78 26.1271C37.1353 26.2138 35.3667 26.355 33.9733 27.3143C32.9036 28.0409 32.5786 29.5077 32.9604 30.689C33.3204 31.5372 34.3076 31.8109 35.1154 32.0632C39.7685 33.2702 44.6993 33.1501 49.2635 34.7385C51.1532 35.3861 53.0017 36.645 53.6485 38.6073C54.4946 41.2373 54.1237 44.3809 52.2371 46.4923C50.7071 48.2298 48.4788 49.1755 46.2564 49.6891C43.2998 50.3429 40.2315 50.3595 37.2289 50.0693C34.4056 49.75 31.4675 49.0143 29.288 47.1064C27.4242 45.5013 26.5139 43.0005 26.6043 40.5867C26.6258 40.1791 27.0351 39.8949 27.4288 39.9283C28.5569 39.9193 29.685 39.9163 30.8131 39.9298C31.2637 39.8979 31.5978 40.2841 31.6209 40.7053C31.829 42.0566 32.341 43.4748 33.5291 44.276C35.8218 45.743 38.6987 45.6426 41.3241 45.6836C43.4991 45.5879 45.9406 45.559 47.7155 44.1332C48.652 43.32 48.9294 41.9594 48.6763 40.7889C48.4022 39.8007 47.3599 39.3402 46.4648 39.0391C41.8714 37.5979 36.8855 38.1209 32.3365 36.4911C30.4897 35.8438 28.7039 34.62 27.9944 32.7382C27.0043 30.0749 27.458 26.7807 29.5423 24.7406C31.5747 22.7113 34.5084 21.9298 37.2977 21.6501V21.6504Z" fill="white"/>
</g>
<defs>
<clipPath id="clip0_1101_9867">
<rect width="65" height="71" fill="white"/>
</clipPath>
</defs>
</svg>
