<svg width="120" height="120" viewBox="0 0 120 120" fill="none" xmlns="http://www.w3.org/2000/svg">
<line x1="4" y1="95" x2="4" y2="103" stroke="#272727" stroke-width="4"/>
<path fill-rule="evenodd" clip-rule="evenodd" d="M36 36L36 103H40L40 36H36ZM62 45C57.5817 45 54 48.5817 54 53V63H52C48.6863 63 46 65.6863 46 69V99C46 101.209 47.7909 103 50 103H57C57.7286 103 58.4116 102.805 59 102.465C59.5883 102.805 60.2714 103 61 103H103C103.729 103 104.412 102.805 105 102.465C105.588 102.805 106.271 103 107 103H114C116.209 103 118 101.209 118 99V69C118 65.6863 115.314 63 112 63H110V53C110 48.5817 106.418 45 102 45H62ZM106 63.8027V53C106 50.7909 104.209 49 102 49H62C59.7909 49 58 50.7909 58 53V63.8027C59.7934 64.8401 61 66.7792 61 69V73.3414C61.6256 73.1203 62.2987 73 63 73H101C101.701 73 102.374 73.1203 103 73.3414V69C103 66.7792 104.207 64.8401 106 63.8027ZM103 79C103 77.8954 102.105 77 101 77H63C61.8954 77 61 77.8954 61 79V89H103V79ZM103 99H61V93H103V99ZM107 99H114V69C114 67.8954 113.105 67 112 67H109C107.895 67 107 67.8954 107 69V79V99ZM55 67H52C50.8954 67 50 67.8954 50 69V99H57V79V69C57 67.8954 56.1046 67 55 67ZM6 82H7H25H26V92H6V82ZM2 78H6.55556L5 64H27L25.4444 78H30V95V96V103H26V96H2V78ZM21.4198 78H10.5802L9.46906 68H22.5309L21.4198 78ZM12 85H20V89H12V85Z" fill="#272727"/>
<path d="M27 17H49L51 36H25L27 17Z" fill="#F4B400"/>
<path fill-rule="evenodd" clip-rule="evenodd" d="M17.6757 61.5841C17.1003 58.3208 19.2793 55.2088 22.5427 54.6334C23.1181 57.8968 20.9391 61.0087 17.6757 61.5841ZM21.8481 50.6942C16.4091 51.6532 12.7774 56.8398 13.7365 62.2787L14.4311 66.218L18.3703 65.5234C23.8092 64.5643 27.4409 59.3778 26.4819 53.9388L25.7873 49.9996L21.8481 50.6942Z" fill="#272727"/>
<path fill-rule="evenodd" clip-rule="evenodd" d="M13.5427 61.5841C14.1181 58.3208 11.9391 55.2088 8.67571 54.6334C8.10029 57.8968 10.2793 61.0087 13.5427 61.5841ZM9.37031 50.6942C14.8092 51.6532 18.4409 56.8398 17.4819 62.2787L16.7873 66.218L12.8481 65.5234C7.40914 64.5643 3.77745 59.3778 4.73648 53.9388L5.43107 49.9996L9.37031 50.6942Z" fill="#272727"/>
<path d="M13.0711 64.9705C9.16583 61.0652 9.16583 54.7336 13.0711 50.8283L15.8995 47.9999L18.7279 50.8283C22.6332 54.7336 22.6332 61.0652 18.7279 64.9705L15.8995 67.7989L13.0711 64.9705Z" fill="white"/>
<path fill-rule="evenodd" clip-rule="evenodd" d="M15.8995 62.1421C13.5563 59.7989 13.5563 55.9999 15.8995 53.6568C18.2426 55.9999 18.2426 59.7989 15.8995 62.1421ZM13.0711 50.8283C9.16583 54.7336 9.16582 61.0652 13.0711 64.9705L15.8995 67.7989L18.7279 64.9705C22.6332 61.0652 22.6332 54.7336 18.7279 50.8283L15.8995 47.9999L13.0711 50.8283Z" fill="#272727"/>
</svg>
