<svg width="120" height="120" viewBox="0 0 120 120" fill="none" xmlns="http://www.w3.org/2000/svg">
<path fill-rule="evenodd" clip-rule="evenodd" d="M8 38C8 32.4772 12.4772 28 18 28H92C97.5229 28 102 32.4772 102 38V82C102 87.5229 97.5229 92 92 92H91V88H92C95.3137 88 98 85.3137 98 82V38C98 34.6863 95.3137 32 92 32H18C14.6863 32 12 34.6863 12 38V82C12 85.3137 14.6863 88 18 88H53V92H18C12.4772 92 8 87.5228 8 82V38Z" fill="#121212"/>
<path fill-rule="evenodd" clip-rule="evenodd" d="M19 26C19 20.4772 23.4772 16 29 16H103C108.523 16 113 20.4772 113 26V70C113 75.5228 108.523 80 103 80H102V76H103C106.314 76 109 73.3137 109 70V26C109 22.6863 106.314 20 103 20H29C25.6863 20 23 22.6863 23 26V31H19V26Z" fill="#121212"/>
<path d="M18 74H42V82H18V74Z" fill="#F4B400"/>
<path d="M84.6808 71.6495V62.6804C84.6808 55.6884 78.9924 50 72.0004 50C65.0083 50 59.32 55.6884 59.32 62.6804V71.6495H50.6602V110H93.3406V71.6495H84.6808ZM63.0313 62.6804C63.0313 57.7348 67.0548 53.7113 72.0004 53.7113C76.946 53.7113 80.9694 57.7348 80.9694 62.6804V71.6495H63.0313V62.6804ZM89.6292 106.289H54.3715V75.3608H89.6292V106.289Z" fill="#121212"/>
<path d="M70.1461 91.8204V98.4473H73.8574V91.8203C75.319 91.124 76.3317 89.6328 76.3317 87.909C76.3317 85.5215 74.3893 83.5791 72.0018 83.5791C69.6143 83.5791 67.6719 85.5215 67.6719 87.909C67.6719 89.6329 68.6846 91.1243 70.1461 91.8204Z" fill="#121212"/>
<path fill-rule="evenodd" clip-rule="evenodd" d="M99 48H11V44H99V48Z" fill="#121212"/>
</svg>
