<svg width="91" height="91" viewBox="0 0 91 91" fill="none" xmlns="http://www.w3.org/2000/svg">
<path fill-rule="evenodd" clip-rule="evenodd" d="M24.1791 62.7327C24.1861 62.7916 24.1921 62.8419 24.1965 62.8861C24.392 70.7852 25.6638 75.3221 27.657 78.1467C29.9434 81.424 32.793 82.2922 35.9966 82.9767C44.2386 84.7377 45.9749 79.4303 46.9413 76.4466C46.9603 76.3933 46.9781 76.3423 46.9954 76.2926C47.0337 76.1829 47.0698 76.0794 47.1118 75.9698C47.5277 74.833 47.7968 73.4021 47.9804 71.788C48.1518 70.2475 48.2368 68.658 48.2986 67.0556C48.3125 66.7879 48.3223 66.4546 48.3329 66.0938C48.3407 65.8292 48.3489 65.5498 48.3595 65.2706C48.3713 64.8061 48.3472 64.3656 48.3104 63.9625C49.2239 64.3683 50.1855 64.6559 51.1718 64.8184C53.6909 65.2461 55.9537 64.8429 57.311 64.5002C58.4478 64.2193 59.8905 63.5588 60.7833 62.7147C60.9301 62.5802 61.0765 62.4215 61.1992 62.2747C61.9569 62.8983 62.7397 63.3383 63.5347 63.6197C66.4933 64.6838 69.0984 63.5711 71.3602 61.052C72.9993 59.2424 74.4666 56.5769 75.763 53.5073C79.5049 44.63 81.9749 31.8271 82.1335 28.6721C83.454 2.28314 59.7187 8.59275 53.2505 10.7941C52.115 10.118 50.8987 9.58803 49.6304 9.21687C47.8695 8.69142 45.9136 8.40958 43.749 8.4464C42.6485 8.45867 41.5599 8.53232 40.4594 8.64232C39.6975 8.72475 38.9388 8.83482 38.1848 8.97232C35.5434 8.21413 29.3561 6.85684 23.1442 8.3364C18.8887 9.35141 14.5355 11.6014 11.0136 16.0892C8.69041 19.0606 8.71449 25.8225 10.8668 33.5999C12.4195 39.2249 15.0364 45.5714 18.5951 51.4773C17.8 51.2819 16.5405 51.0132 14.5473 50.5973C12.9945 50.2791 11.7836 50.3891 10.9031 50.8173C9.37496 51.551 8.71449 52.7614 8.82449 54.3392C8.87359 55.1465 9.20358 55.9415 9.74178 56.6992C10.6345 57.9097 12.5786 59.4383 14.89 60.5142C16.015 61.0279 17.47 61.4315 18.9742 61.6884C20.4905 61.9447 22.0683 62.0547 23.4256 61.9938H23.5601L24.086 61.9447C24.0983 62.067 24.1106 62.1893 24.1351 62.3238C24.1509 62.4958 24.1666 62.6278 24.1791 62.7327ZM24.3433 52.1737C25.7252 52.5655 27.7061 53.2869 27.4984 57.2974C27.5961 58.4842 27.9629 61.822 28.3784 65.0747C28.7211 67.7402 29.0879 70.4302 29.3447 71.9712C29.7116 74.0744 30.2861 75.5907 31.3257 76.6549C32.353 77.7312 33.918 78.4399 36.2294 78.9412C38.8703 79.504 40.5335 78.9535 41.6094 78.0367C42.7222 77.0949 43.3094 75.7376 43.6763 74.8207C44.0185 73.9403 44.2754 71.5925 44.4222 68.4498C44.5685 65.2947 44.5931 61.4183 44.5076 57.4933C44.5067 57.4302 44.5057 57.3675 44.5046 57.3051C44.4916 56.5342 44.4796 55.8188 44.7399 55.0719C45.0581 54.2037 45.6204 53.421 46.3172 52.9196C46.9654 52.455 47.8945 52.1373 48.6895 52.2105C48.8378 52.2236 48.9849 52.2481 49.1295 52.2837C48.994 51.7464 48.7995 51.161 48.5781 50.5393C48.3005 49.7583 48.2339 49.5248 48.1508 49.2974C48.0523 49.0278 47.9305 48.7668 47.4063 47.6127C46.0849 44.6659 44.3976 40.8995 46.2804 32.1562C46.8186 29.7107 48.1881 28.4266 49.9122 27.8884C51.0132 27.5466 52.2359 27.5221 53.4464 27.7052C54.6082 27.8889 55.77 28.2439 56.7964 28.6593C57.4404 28.9275 58.0621 29.2463 58.6555 29.613C58.2523 24.5016 56.0264 12.3469 43.8108 12.5546C33.6857 12.7137 27.9997 19.3533 25.3819 24.1097C24.7215 25.2956 24.2692 26.3597 23.9878 27.1666L23.9851 27.1735C23.9619 27.2326 23.9387 27.2916 23.9269 27.3502C29.9065 26.7266 32.3034 28.8057 32.8048 31.948C33.5139 36.3626 29.9188 42.8067 28.097 46.0718C28.0547 46.1479 28.0134 46.2222 27.9732 46.2947C27.6061 46.9551 27.3279 47.4557 27.2288 47.6982C26.5079 49.4464 25.6147 50.5718 24.9056 51.44C24.8603 51.4981 24.8159 51.5547 24.7728 51.6097C24.6072 51.8208 24.4598 52.0088 24.3433 52.1737ZM50.475 56.2342C51.7714 57.8851 52.1755 58.386 56.1982 59.2179C56.9191 59.3642 57.4092 59.5233 57.7023 59.6701C57.3355 59.927 56.7728 60.1592 56.2842 60.282C55.2927 60.5265 53.6423 60.832 51.8941 60.5265C50.17 60.2329 48.3231 59.3529 46.819 57.2615C46.5126 56.8338 46.5745 56.2469 46.7331 55.7697C46.9045 55.3051 47.1977 54.8892 47.5399 54.6446C47.7972 54.461 48.2131 54.3019 48.5063 54.3264C48.6872 54.3379 48.8572 54.4166 48.9831 54.5469C49.5126 55.0801 50.0107 55.6434 50.475 56.2342ZM58.2896 50.67C57.9977 50.9858 57.6873 51.2839 57.3601 51.5628C59.3216 53.6512 61.2177 55.8001 63.0456 58.0065C63.7188 58.8138 64.3542 59.3028 64.9415 59.511C66.0174 59.9024 67.1302 59.3151 68.2184 58.1047C69.5265 56.6496 70.7625 54.3873 71.8743 51.7459C75.4207 43.3449 77.7562 31.3003 77.903 28.3534C78.9062 8.15228 60.5264 12.6401 54.841 14.511C61.1378 20.6988 60.8574 31.7653 60.8446 31.8507C60.8555 32.0793 60.8393 32.3614 60.8189 32.7191C60.8153 32.7818 60.8115 32.8469 60.8078 32.9144C60.6978 34.6385 60.5024 37.9526 61.016 41.6331C61.146 42.5282 61.1665 43.4358 61.0769 44.3359C60.8446 46.7936 59.8174 48.9946 58.2896 50.67ZM23.536 23.0956C25.517 19.4756 29.1366 14.866 34.8962 12.3223C32.1325 11.7596 27.6815 11.2705 23.2183 12.5551C20.0751 13.4724 16.9205 15.2697 14.3405 18.5592C12.8486 20.4788 13.13 25.8107 14.9396 32.3526C16.5046 38.0385 19.2437 44.5318 22.9978 50.4382C23.081 50.3432 23.1646 50.236 23.2477 50.1294L23.2547 50.1205C23.291 50.0837 23.3278 50.0346 23.3647 49.9855C21.1883 46.415 21.6037 42.9668 21.9951 39.7263C22.1542 38.4545 22.301 37.2317 22.2642 36.0699C22.2173 34.9019 22.0705 33.9011 21.9295 32.9399C21.9228 32.8948 21.9162 32.8498 21.9097 32.8048C21.7015 31.5085 21.5178 30.2734 21.5669 28.7693C21.5669 28.7512 21.564 28.733 21.561 28.7147C21.5581 28.6963 21.5551 28.6778 21.5551 28.6593C21.4937 28.3048 21.6283 27.4975 21.9951 26.4707C22.4115 25.3038 22.927 24.1746 23.536 23.0956ZM58.7077 32.4627C58.7184 32.2546 58.7292 32.0464 58.7292 31.8385C58.7174 31.7894 57.5437 31.2516 56.0014 30.6152C55.1086 30.2607 54.1182 29.943 53.14 29.7962C52.2104 29.6611 51.3059 29.6611 50.5359 29.9062C49.5209 30.2239 48.689 31.0312 48.359 32.5962C46.6108 40.6795 48.1386 44.0786 49.3372 46.7445C49.9477 48.0875 50.1303 48.605 50.3605 49.2573C50.4169 49.4172 50.4762 49.5852 50.5453 49.7754C50.8007 50.4769 51.024 51.1473 51.1836 51.7946L51.2065 51.7937C51.5176 51.7817 51.8394 51.7693 52.15 51.7214C53.9114 51.4764 55.5132 50.5718 56.7237 49.2391C58.0112 47.8312 58.8016 46.04 58.9737 44.14C59.0474 43.4309 59.0341 42.6849 58.9246 41.9268C58.3741 38.0017 58.5828 34.5653 58.6923 32.7921C58.6964 32.6823 58.7021 32.5725 58.7077 32.4627ZM49.9122 31.3125C50.6152 30.9344 51.6765 30.7909 52.4564 30.958C53.0007 31.094 53.233 31.3597 53.2504 31.6775C53.2679 31.9952 53.0687 32.3644 52.7495 32.7066C52.4196 33.0489 51.9545 33.3548 51.4291 33.428H51.4163C50.8786 33.5017 50.3768 33.318 50.01 33.0735C49.6191 32.8044 49.3618 32.4376 49.3259 32.1807C49.2891 31.8507 49.5091 31.5448 49.9122 31.3125ZM30.7266 32.2789C30.3966 30.2121 28.5257 28.8911 23.6833 29.4907C23.6951 30.5543 23.842 31.5085 24.0015 32.4985C24.0069 32.5348 24.0124 32.5713 24.0178 32.6077C24.1717 33.6389 24.3332 34.7209 24.3806 36.008C24.4163 37.2671 24.2645 38.5616 24.1086 39.891L24.0993 39.9704C23.7815 42.5872 23.4515 45.3509 24.7229 48.0409C24.9183 47.6986 25.102 47.3073 25.2852 46.8913C25.4443 46.5127 25.787 45.8768 26.2516 45.0572C27.9629 41.9881 31.3139 35.9717 30.7266 32.2789ZM23.2743 54.0647C23.2081 54.0455 23.1442 54.0269 23.0838 54.0083C20.5923 55.8894 16.4249 55.1131 13.6695 54.5999L13.6437 54.5951C14.3037 55.231 15.3796 55.9524 16.6637 56.5519C17.9114 57.126 19.8678 57.5178 21.7019 57.6274C22.7538 57.6769 23.7442 57.6524 24.4901 57.4933C24.967 57.4074 25.2847 57.3096 25.3829 57.2119C25.5046 54.7045 24.3541 54.3781 23.6199 54.1698L23.6097 54.1669C23.4961 54.1291 23.3823 54.096 23.2743 54.0647ZM26.1038 31.8753C25.7983 31.5571 25.6147 31.178 25.6515 30.958C25.6888 30.7012 25.9329 30.518 26.311 30.4321C26.641 30.3462 27.0815 30.3339 27.546 30.3953C28.0111 30.4684 28.4265 30.603 28.7202 30.7621C29.0723 30.9637 29.2144 31.1903 29.2107 31.4159C29.205 31.7459 28.8863 32.074 28.4515 32.3153C28.0824 32.514 27.7127 32.5853 27.3586 32.5457C26.9035 32.4947 26.4739 32.26 26.1038 31.8753ZM14.1328 52.541C19.6724 53.6905 21.3233 52.9692 21.8124 52.5041C17.6423 46.17 14.6096 39.0776 12.91 32.9134C10.9291 25.7479 10.77 19.7069 12.6777 17.2614C15.576 13.5687 19.1101 11.5509 22.6315 10.5359C27.9629 8.99546 33.2212 9.75317 36.0948 10.4259C36.1472 10.4376 36.1968 10.4485 36.2439 10.4589C36.3951 10.4923 36.5211 10.5201 36.633 10.5482C36.6944 10.5727 37.7826 10.8787 38.553 11.0864C40.1549 10.6945 41.9035 10.4623 43.7745 10.4382C47.6381 10.3773 50.6223 11.3555 52.9337 12.9328C56.8219 11.49 81.2662 3.40721 80.0194 28.4507C79.8599 31.4957 77.4635 43.9318 73.8194 52.565C72.6089 55.426 71.2634 57.8842 69.7966 59.5228C68.1093 61.3815 66.262 62.2251 64.2447 61.5038C63.2915 61.1615 62.3369 60.4765 61.4206 59.3637C58.8396 56.2578 56.4801 53.7023 55.5996 52.7728C54.617 53.3018 53.5488 53.6536 52.4441 53.8119C52.0996 53.8595 51.7527 53.8882 51.405 53.8978C51.405 53.9469 51.405 53.9955 51.3932 54.0446C51.6513 54.33 51.9 54.6236 52.1391 54.9251C53.0682 56.1115 53.3614 56.4783 56.6146 57.1505C58.0814 57.4565 58.9619 57.8596 59.4387 58.3124C59.9401 58.7769 60.0987 59.3024 60.026 59.841C59.9524 60.3056 59.7078 60.7083 59.341 61.051C58.7174 61.6378 57.6532 62.1151 56.7969 62.3351C55.6232 62.6288 53.6664 62.9833 51.5273 62.617C49.9127 62.3351 48.2136 61.6506 46.6727 60.2565C46.6968 63.2406 46.6477 66.1143 46.5381 68.5475C46.3795 71.8862 46.0854 74.4908 45.6331 75.603C45.1804 76.728 44.4713 78.4035 42.9795 79.6631C41.4635 80.9354 39.213 81.7422 35.7894 81.0086C33.0503 80.4213 31.1553 79.5285 29.7975 78.1226C28.4397 76.7167 27.7066 74.8576 27.2661 72.3267C27.0097 70.8348 26.6306 68.0957 26.2879 65.332C26.007 63.1306 25.7497 60.9542 25.5788 59.4015C25.3706 59.4624 25.1383 59.5233 24.9061 59.5724C23.9647 59.7556 22.8029 59.8047 21.5924 59.7438C19.5256 59.6215 17.2633 59.1565 15.7837 58.472C13.7905 57.5424 12.1646 56.2951 11.455 55.3169C11.1491 54.8882 10.9659 54.4728 10.9414 54.0691C10.8923 53.4092 11.1736 52.9078 11.8096 52.6023C12.2987 52.3701 13.0568 52.321 14.1328 52.541Z" fill="white"/>
</svg>
