<svg width="120" height="120" viewBox="0 0 120 120" fill="none" xmlns="http://www.w3.org/2000/svg">
<path d="M60 63H60.8284L61.4142 62.4142L72.2426 51.5858C72.6177 51.2107 73.1264 51 73.6569 51H98C99.1046 51 100 51.8954 100 53V105C100 106.105 99.1046 107 98 107H20V65C20 63.8954 20.8954 63 22 63H60Z" stroke="#121212" stroke-width="4"/>
<path d="M49 107H17C11.4772 107 7 102.523 7 97V46C7 43.7909 8.79086 42 11 42H28.5" stroke="#121212" stroke-width="4"/>
<path d="M37 39H74V45H37V39Z" fill="#F4B400"/>
<path d="M37 29H59V35H37V29Z" fill="#F4B400"/>
<path fill-rule="evenodd" clip-rule="evenodd" d="M29.0955 16.996C29.0977 15.893 29.9925 15 31.0955 15H71.1054V27C71.1054 30.3137 73.7917 33 77.1054 33L86.9999 33V51H90.9999V30.5V29.716L90.4671 29.1409L74.2562 11.6409L73.6625 11H72.789H31.0955C27.7865 11 25.1022 13.6789 25.0955 16.9879L24.9999 64.4094L28.9999 64.4175L29.0955 16.996ZM84.8842 29L75.1054 18.4437V27C75.1054 28.1046 76.0008 29 77.1054 29L84.8842 29Z" fill="#121212"/>
<path d="M114 97L64.3714 97L43.5714 89L64.3714 81L114 81C115.105 81 116 81.8954 116 83L116 95C116 96.1046 115.105 97 114 97Z" fill="white" stroke="#121212" stroke-width="4"/>
<line x1="65.4515" y1="97" x2="65.4515" y2="81" stroke="#121212" stroke-width="4"/>
<line x1="104" y1="97" x2="104" y2="81" stroke="#121212" stroke-width="4"/>
<line x1="96" y1="97" x2="96" y2="81" stroke="#121212" stroke-width="4"/>
<rect x="94.4515" y="83.0488" width="12" height="27" transform="rotate(90 94.4515 83.0488)" fill="white"/>
</svg>
