<svg width="120" height="120" viewBox="0 0 120 120" fill="none" xmlns="http://www.w3.org/2000/svg">
<g clip-path="url(#clip0_1108_11753)">
<path d="M12 59.5V43.5V42.5H18.5L22.5 40L24.5 34.5L20.5 30H12V12H60.5V30H67L71 33V39L65.5 42.5H59.5V59.5H41.5V54L40.5 49.5L35.5 48L32 49.5L30 54V59.5H12Z" fill="#F4B400"/>
<path d="M107.907 10H12.0931C10.937 10 10 10.937 10 12.0931V30.0581C10 31.2142 10.937 32.1512 12.0931 32.1512H18.0817C20.2296 32.1512 21.9771 33.8987 21.9771 36.0464C21.9771 38.1942 20.2296 39.9417 18.0817 39.9417H12.0931C10.937 39.9417 10 40.8787 10 42.0348V77.965C10 79.1211 10.937 80.0581 12.0931 80.0581H18.0817C20.2296 80.0581 21.9771 81.8056 21.9771 83.9533C21.9771 86.1011 20.2296 87.8486 18.0817 87.8486H12.0931C10.937 87.8486 10 88.7856 10 89.9417V107.907C10 109.063 10.937 110 12.0931 110H60C61.1561 110 62.0931 109.063 62.0931 107.907V89.9417C62.0931 88.7856 61.1561 87.8486 60 87.8486H54.0114C51.8637 87.8486 50.1162 86.1011 50.1162 83.9531C50.1162 81.8054 51.8635 80.0581 54.0114 80.0581H60C61.1561 80.0581 62.0931 79.1211 62.0931 77.965V62.0931H75.8721V65.9886C75.8721 70.4445 79.4974 74.0698 83.9538 74.0698C88.4102 74.0698 92.0355 70.4445 92.0355 65.9886V62.0931H107.907C109.063 62.0931 110 61.1561 110 60V12.0931C110 10.937 109.063 10 107.907 10ZM57.9069 75.8719H54.0114C49.5555 75.8719 45.93 79.4972 45.93 83.9533C45.93 88.4095 49.5552 92.0348 54.0114 92.0348H57.9069V105.814H14.1862V92.0348H18.0817C22.5379 92.0348 26.1633 88.4093 26.1633 83.9531C26.1633 79.4971 22.5381 75.8719 18.0817 75.8719H14.1862V62.0931H30.0581C31.2142 62.0931 32.1512 61.1561 32.1512 60V54.0114C32.1512 51.8637 33.8989 50.1164 36.0469 50.1164C38.1944 50.1164 39.9419 51.8637 39.9419 54.0114V60C39.9419 61.1561 40.8789 62.0931 42.035 62.0931H57.9071V75.8719H57.9069ZM60 39.9417C58.8439 39.9417 57.9069 40.8787 57.9069 42.0348V57.9069H44.1279V54.0114C44.1279 49.5555 40.5026 45.9302 36.0462 45.9302C31.5898 45.9302 27.9645 49.5555 27.9645 54.0114V57.9069H14.1862V44.1279H18.0817C22.5379 44.1279 26.1633 40.5024 26.1633 36.0462C26.1633 31.5902 22.5381 27.965 18.0817 27.965H14.1862V14.1862H57.9069V30.0581C57.9069 31.2142 58.8439 32.1512 60 32.1512H65.9886C68.1361 32.1512 69.8836 33.8987 69.8836 36.0464C69.8836 38.1942 68.1363 39.9417 65.9886 39.9417H60ZM105.814 57.9069H89.9421C88.786 57.9069 87.849 58.8439 87.849 60V65.9886C87.849 68.1363 86.1015 69.8836 83.9536 69.8836C81.8058 69.8836 80.0583 68.1363 80.0583 65.9886V60C80.0583 58.8439 79.1213 57.9069 77.9652 57.9069H62.0931V44.1279H65.9886C70.4445 44.1279 74.0698 40.5024 74.0698 36.0462C74.0698 31.5902 70.4445 27.965 65.9886 27.965H62.0931V14.1862H105.814V57.9069Z" fill="#121212"/>
</g>
<defs>
<clipPath id="clip0_1108_11753">
<rect width="100" height="100" fill="white" transform="translate(10 10)"/>
</clipPath>
</defs>
</svg>
