<svg width="69" height="69" viewBox="0 0 69 69" fill="none" xmlns="http://www.w3.org/2000/svg">
<g clip-path="url(#clip0_1101_9872)">
<path d="M34.2046 0.0195312C16.732 0.0195312 17.8229 7.62712 17.8229 7.62712L17.8424 15.5088H34.5161V17.8751H11.2198C11.2198 17.8751 0.0390625 16.602 0.0390625 34.3025C0.0390625 52.0036 9.79787 51.3758 9.79787 51.3758H15.6219V43.1618C15.6219 43.1618 15.3079 33.3638 25.2249 33.3638H41.7623C41.7623 33.3638 51.0536 33.5146 51.0536 24.3481V9.19193C51.0536 9.19193 52.4647 0.0195312 34.2046 0.0195312ZM25.0107 5.31981C25.4047 5.31946 25.7949 5.39711 26.159 5.54834C26.5231 5.69956 26.8539 5.92138 27.1325 6.20111C27.4111 6.48084 27.632 6.81298 27.7827 7.17853C27.9333 7.54408 28.0106 7.93586 28.0103 8.33146C28.0106 8.72706 27.9333 9.11884 27.7827 9.48439C27.632 9.84994 27.4111 10.1821 27.1325 10.4618C26.8539 10.7415 26.5231 10.9634 26.159 11.1146C25.7949 11.2658 25.4047 11.3435 25.0107 11.3431C24.6167 11.3435 24.2264 11.2658 23.8624 11.1146C23.4983 10.9634 23.1674 10.7415 22.8888 10.4618C22.6102 10.1821 22.3893 9.84994 22.2387 9.48439C22.0881 9.11884 22.0107 8.72706 22.0111 8.33146C22.0107 7.93586 22.0881 7.54408 22.2387 7.17853C22.3893 6.81298 22.6102 6.48084 22.8888 6.20111C23.1674 5.92138 23.4983 5.69956 23.8624 5.54834C24.2264 5.39711 24.6167 5.31946 25.0107 5.31981Z" fill="#BDBDBD"/>
<path d="M34.7008 68.7633C52.1734 68.7633 51.0824 61.1558 51.0824 61.1558L51.063 53.2743H34.389V50.908H57.6853C57.6853 50.908 68.8661 52.1812 68.8661 34.4801C68.8661 16.7793 59.1073 17.4071 59.1073 17.4071H53.2832V25.6208C53.2832 25.6208 53.5972 35.4188 43.6802 35.4188H27.1428C27.1428 35.4188 17.8516 35.268 17.8516 44.4348V59.5912C17.8516 59.5912 16.4407 68.7633 34.7005 68.7633H34.7008ZM43.8947 63.4636C43.5007 63.464 43.1105 63.3863 42.7464 63.2351C42.3823 63.0839 42.0515 62.862 41.7729 62.5823C41.4943 62.3026 41.2734 61.9704 41.1227 61.6049C40.9721 61.2393 40.8948 60.8475 40.8951 60.452C40.8947 60.0563 40.9721 59.6645 41.1227 59.2989C41.2733 58.9334 41.4942 58.6012 41.7728 58.3214C42.0514 58.0417 42.3822 57.8198 42.7463 57.6686C43.1105 57.5173 43.5007 57.4397 43.8947 57.44C44.2887 57.4397 44.679 57.5173 45.043 57.6686C45.4071 57.8198 45.7379 58.0416 46.0166 58.3213C46.2952 58.6011 46.5161 58.9332 46.6667 59.2988C46.8173 59.6643 46.8947 60.0561 46.8943 60.4517C46.8947 60.8473 46.8173 61.2391 46.6667 61.6046C46.5161 61.9702 46.2952 62.3023 46.0166 62.582C45.7379 62.8618 45.4071 63.0836 45.043 63.2348C44.679 63.386 44.2887 63.4637 43.8947 63.4633V63.4636Z" fill="white"/>
</g>
<defs>
<clipPath id="clip0_1101_9872">
<rect width="69" height="69" fill="white"/>
</clipPath>
</defs>
</svg>
