<svg width="69" height="79" viewBox="0 0 69 79" fill="none" xmlns="http://www.w3.org/2000/svg">
<path d="M69 39.5068C69 34.914 63.2758 30.5614 54.4996 27.8622C56.5249 18.8744 55.6247 11.7238 51.6586 9.43442C50.7444 8.89741 49.6755 8.64304 48.5082 8.64304V11.7944C49.1551 11.7944 49.6755 11.9216 50.1115 12.1618C52.0243 13.2641 52.8541 17.4613 52.2071 22.8596C52.0524 24.188 51.7992 25.587 51.4898 27.0143C48.7332 26.336 45.7234 25.8131 42.5589 25.474C40.6602 22.8596 38.6912 20.4854 36.7081 18.4081C41.2931 14.1262 45.5968 11.7803 48.5222 11.7803V8.62891C44.6545 8.62891 39.5913 11.3987 34.4719 16.2035C29.3524 11.427 24.2892 8.68543 20.4215 8.68543V11.8368C23.3329 11.8368 27.6506 14.1686 32.2356 18.4222C30.2666 20.4996 28.2976 22.8596 26.427 25.474C23.2485 25.8131 20.2387 26.336 17.4821 27.0285C17.1586 25.6153 16.9195 24.2445 16.7507 22.9302C16.0897 17.5319 16.9054 13.3348 18.8041 12.2184C19.2261 11.964 19.7746 11.8509 20.4215 11.8509V8.69957C19.2401 8.69957 18.1712 8.95394 17.243 9.49094C13.2909 11.7803 12.4048 18.9168 14.4442 27.8764C5.69609 30.5897 0 34.9281 0 39.5068C0 44.0996 5.72421 48.4522 14.5004 51.1514C12.4751 60.1392 13.3753 67.2898 17.3414 69.5792C18.2556 70.1162 19.3245 70.3706 20.5059 70.3706C24.3736 70.3706 29.4368 67.6007 34.5563 62.7959C39.6757 67.5725 44.7389 70.314 48.6066 70.314C49.788 70.314 50.8569 70.0597 51.7852 69.5226C55.7373 67.2333 56.6233 60.0968 54.584 51.1372C63.3039 48.4381 69 44.0855 69 39.5068ZM50.6881 30.0809C50.1678 31.9039 49.5208 33.7834 48.7894 35.663C48.2128 34.5324 47.608 33.4019 46.947 32.2713C46.3 31.1408 45.6109 30.0385 44.9217 28.9645C46.9189 29.2613 48.8457 29.6287 50.6881 30.0809ZM44.2466 45.1312C43.1496 47.039 42.0245 48.8479 40.8571 50.5296C38.7615 50.7133 36.6378 50.8122 34.5 50.8122C32.3763 50.8122 30.2526 50.7133 28.171 50.5437C27.0037 48.862 25.8645 47.0673 24.7674 45.1736C23.6985 43.3224 22.7281 41.4428 21.842 39.5492C22.714 37.6555 23.6985 35.7619 24.7534 33.9106C25.8504 32.0028 26.9755 30.194 28.1429 28.5123C30.2385 28.3286 32.3622 28.2297 34.5 28.2297C36.6237 28.2297 38.7475 28.3286 40.829 28.4982C41.9963 30.1798 43.1356 31.9746 44.2326 33.8682C45.3015 35.7195 46.2719 37.599 47.158 39.4927C46.2719 41.3863 45.3015 43.28 44.2466 45.1312ZM48.7894 43.2941C49.5489 45.1878 50.1959 47.0814 50.7303 48.9185C48.8879 49.3708 46.947 49.7523 44.9358 50.0491C45.625 48.9609 46.3141 47.8445 46.9611 46.6999C47.608 45.5693 48.2128 44.4246 48.7894 43.2941ZM34.5281 58.3727C33.2201 57.016 31.9121 55.5039 30.6182 53.8505C31.884 53.9071 33.1779 53.9495 34.4859 53.9495C35.808 53.9495 37.116 53.9212 38.3958 53.8505C37.13 55.5039 35.8221 57.016 34.5281 58.3727ZM24.0642 50.0491C22.0671 49.7523 20.1402 49.3849 18.2978 48.9327C18.8182 47.1097 19.4651 45.2302 20.1965 43.3506C20.7731 44.4812 21.3779 45.6117 22.0389 46.7423C22.7 47.8728 23.3751 48.9751 24.0642 50.0491ZM34.4578 20.6409C35.7658 21.9975 37.0738 23.5096 38.3677 25.1631C37.1019 25.1065 35.808 25.0641 34.5 25.0641C33.1779 25.0641 31.87 25.0924 30.5901 25.1631C31.8559 23.5096 33.1639 21.9975 34.4578 20.6409ZM24.0501 28.9645C23.361 30.0526 22.6718 31.1691 22.0249 32.3137C21.3779 33.4443 20.7731 34.5748 20.1965 35.7054C19.437 33.8117 18.7901 31.918 18.2556 30.0809C20.098 29.6428 22.0389 29.2613 24.0501 28.9645ZM11.3219 46.6575C6.34305 44.5236 3.1223 41.7255 3.1223 39.5068C3.1223 37.2881 6.34305 34.4759 11.3219 32.3561C12.5314 31.8332 13.8534 31.3669 15.2177 30.9288C16.0194 33.6986 17.0742 36.5815 18.3822 39.5351C17.0883 42.4745 16.0475 45.3432 15.2599 48.0989C13.8675 47.6608 12.5455 47.1803 11.3219 46.6575ZM18.8885 66.8517C16.9757 65.7495 16.1459 61.5523 16.7929 56.154C16.9476 54.8256 17.2008 53.4266 17.5102 51.9993C20.2668 52.6776 23.2766 53.2005 26.4411 53.5396C28.3398 56.154 30.3088 58.5281 32.2919 60.6055C27.7069 64.8874 23.4032 67.2333 20.4778 67.2333C19.8449 67.2192 19.3104 67.092 18.8885 66.8517ZM52.2493 56.0833C52.9103 61.4817 52.0946 65.6788 50.1959 66.7952C49.7739 67.0496 49.2254 67.1626 48.5785 67.1626C45.6671 67.1626 41.3494 64.8309 36.7644 60.5772C38.7334 58.4999 40.7024 56.1399 42.573 53.5255C45.7515 53.1863 48.7613 52.6635 51.5179 51.971C51.8414 53.3983 52.0946 54.7691 52.2493 56.0833ZM57.6641 46.6575C56.4545 47.1803 55.1325 47.6467 53.7682 48.0848C52.9666 45.3149 51.9117 42.4321 50.6038 39.4785C51.8977 36.5391 52.9384 33.6704 53.7261 30.9147C55.1184 31.3528 56.4405 31.8332 57.6782 32.3561C62.657 34.49 65.8777 37.2881 65.8777 39.5068C65.8636 41.7255 62.6429 44.5377 57.6641 46.6575Z" fill="#121212"/>
<path d="M34.486 45.9653C38.0358 45.9653 40.9135 43.0738 40.9135 39.507C40.9135 35.9403 38.0358 33.0488 34.486 33.0488C30.9363 33.0488 28.0586 35.9403 28.0586 39.507C28.0586 43.0738 30.9363 45.9653 34.486 45.9653Z" fill="#121212"/>
</svg>
