<svg width="89" height="68" viewBox="0 0 89 68" fill="none" xmlns="http://www.w3.org/2000/svg">
<g clip-path="url(#clip0_1101_10059)">
<path fill-rule="evenodd" clip-rule="evenodd" d="M3.50679 45.6816C3.47534 45.694 3.44477 45.7061 3.41507 45.7178C-1.21685 47.5441 -1.11814 49.1061 3.59721 51.3759C6.03234 52.5473 14.1913 55.954 22.0825 59.2489C29.4717 62.3342 36.6262 65.3214 38.6269 66.2838C42.7638 68.2753 45.6731 68.3022 50.9098 65.5523C53.5941 64.1433 61.3649 60.7808 68.9421 57.5021C76.1482 54.3839 83.1793 51.3415 85.4939 50.1271C90.2423 47.6351 90.0647 46.2284 85.4362 44.5201C85.4313 44.5183 85.4264 44.5165 85.4215 44.5146C83.0339 45.7546 76.0743 48.7662 68.9433 51.8519C61.3658 55.1309 53.5948 58.4936 50.9105 59.9033C45.6734 62.6518 42.7641 62.6252 38.6268 60.6337C36.6276 59.6719 29.482 56.6884 22.0984 53.6055C14.2019 50.3084 6.03311 46.8977 3.59612 45.7248C3.56616 45.7103 3.53638 45.696 3.50679 45.6816Z" fill="white"/>
<path fill-rule="evenodd" clip-rule="evenodd" d="M4.13296 30.7805C3.85588 30.8898 3.61545 30.9846 3.41507 31.0636C-1.21685 32.8906 -1.11814 34.453 3.59721 36.722C6.03303 37.894 14.1959 41.3022 22.0892 44.5979C29.476 47.6822 36.6268 50.6678 38.6269 51.6299C42.7638 53.6214 45.6731 53.6484 50.9098 50.8995C53.5945 49.4898 61.367 46.1265 68.9453 42.8472C76.1503 39.7295 83.1797 36.6878 85.4939 35.4732C90.2423 32.9812 90.0647 31.5742 85.4362 29.8662C85.2547 29.7992 85.0426 29.7198 84.8025 29.6289C81.9803 31.0131 75.5402 33.7999 68.9522 36.6508C61.3719 39.931 53.5958 43.296 50.9105 44.7062C45.6734 47.4551 42.7641 47.4282 38.6268 45.4367C36.6258 44.474 29.4691 41.4859 22.0784 38.4C14.6935 35.3167 7.07508 32.1358 4.13296 30.7805Z" fill="white"/>
<path fill-rule="evenodd" clip-rule="evenodd" d="M68.9334 27.6545L68.9332 27.6546C61.3587 30.9323 53.593 34.2927 50.9098 35.7011C45.6731 38.45 42.7638 38.423 38.6268 36.4326C36.6247 35.4688 29.4607 32.4776 22.0654 29.3897L22.0651 29.3896C14.1793 26.097 6.03066 22.6946 3.5975 21.5236C-1.11819 19.2549 -1.21656 17.6922 3.41502 15.8655L4.67292 15.3694C11.5578 12.6532 34.4622 3.61738 39.583 1.76719C45.0846 -0.220456 46.9932 -0.291856 51.6752 1.43539C54.0243 2.30197 61.3498 5.20048 68.6512 8.08947C75.9028 10.9588 83.1307 13.8187 85.4361 14.6692C90.0646 16.3758 90.2422 17.7832 85.4938 20.2752C83.1783 21.4904 76.1425 24.535 68.9334 27.6545ZM55.3645 11.4646L47.7141 12.2644L46.0016 16.414L43.2355 11.7835L34.4016 10.9841L40.9932 8.59044L39.0155 4.91614L45.1868 7.34654L51.0047 5.42854L49.4322 9.22779L55.3645 11.4646ZM45.5448 31.5959L31.2671 25.633L51.726 22.4707L45.5448 31.5959ZM25.7499 13.7711C31.7892 13.7711 36.6849 15.6821 36.6849 18.039C36.6849 20.3966 31.7892 22.3073 25.7499 22.3073C19.7106 22.3073 14.8148 20.3963 14.8148 18.039C14.8148 15.6821 19.7106 13.7711 25.7499 13.7711ZM76.5144 17.4171L64.4059 12.599L64.4163 22.2306L76.5144 17.4171Z" fill="white"/>
<path d="M51.0099 17.9354L64.4058 12.5996L64.4163 22.2313L63.1027 22.7486L51.0099 17.9354Z" fill="#A4A4A4"/>
</g>
<defs>
<clipPath id="clip0_1101_10059">
<rect width="89" height="68" fill="white"/>
</clipPath>
</defs>
</svg>
