<svg width="78" height="74" viewBox="0 0 78 74" fill="none" xmlns="http://www.w3.org/2000/svg">
<g clip-path="url(#clip0_1400_11786)">
<path d="M54.0458 51.4763C56.9241 51.1797 59.1078 48.71 59.0085 45.746C58.9095 42.7822 56.4278 40.4111 53.4501 40.4111H53.2518C50.1744 40.51 47.7924 43.0785 47.8917 46.1411C47.991 47.6231 48.5864 48.9074 49.4797 49.7965C46.105 56.416 40.9436 61.2568 33.2015 65.3074C27.9408 68.0737 22.4817 69.0617 17.0226 68.3703C12.5559 67.7774 9.08182 65.8017 6.89782 62.5411C3.72175 57.7003 3.42407 52.464 6.10411 47.228C7.99012 43.4737 10.9675 40.7074 12.8535 39.3242C12.4565 38.0399 11.8609 35.8665 11.5632 34.286C-2.82933 44.6594 -1.34032 58.6883 3.02707 65.3074C6.30246 70.2474 12.9529 73.31 20.298 73.31C22.283 73.31 24.2681 73.1123 26.2534 72.6186C38.9586 70.1486 48.5867 62.64 54.0458 51.4763ZM71.5153 39.2257C63.9716 30.4328 52.8547 25.5919 40.1496 25.5919H38.5616C37.6682 23.8137 35.7822 22.6279 33.6978 22.6279H33.4992C30.4224 22.7268 28.0404 25.2954 28.1394 28.3582C28.2387 31.3219 30.7201 33.6931 33.6978 33.6931H33.8962C36.0799 33.5942 37.9659 32.2111 38.7599 30.3339H40.5466C48.0903 30.3339 55.2368 32.5074 61.6889 36.7557C66.6516 40.016 70.225 44.2643 72.21 49.4014C73.8974 53.5508 73.798 57.6014 72.0114 61.0594C69.2323 66.2954 64.5672 69.1606 58.4132 69.1606C54.4428 69.1606 50.6711 67.9748 48.6857 67.0857C47.594 68.0737 45.6087 69.6543 44.219 70.6426C48.4874 72.6183 52.8547 73.7051 57.0235 73.7051C66.5523 73.7051 73.5997 68.4688 76.2797 63.2328C79.1581 57.5025 78.9595 47.6231 71.5153 39.2257ZM21.092 53.1554C21.1913 56.1194 23.6727 58.4902 26.6504 58.4902H26.8491C29.9261 58.3917 32.3081 55.8228 32.2088 52.7602C32.1098 49.7962 29.6281 47.4254 26.6504 47.4254H26.4521C26.2534 47.4254 25.9554 47.4254 25.7574 47.5239C21.6877 40.8059 20.0003 33.4954 20.596 25.5916C20.9927 19.6639 22.978 14.5265 26.4521 10.2782C29.3304 6.62275 34.8888 4.84446 38.6609 4.7459C49.182 4.54818 53.6485 17.589 53.9464 22.8253C55.2368 23.1216 57.4205 23.8134 58.9095 24.3074C57.7182 8.30278 47.7924 0.00390625 38.2639 0.00390625C29.3304 0.00390625 21.092 6.42563 17.8163 15.9099C13.2506 28.5557 16.2283 40.7074 21.7867 50.2905C21.2906 50.982 20.9927 52.0688 21.092 53.1557V53.1554Z" fill="#121212"/>
</g>
<defs>
<clipPath id="clip0_1400_11786">
<rect width="78" height="74" fill="white"/>
</clipPath>
</defs>
</svg>
