<svg width="120" height="120" viewBox="0 0 120 120" fill="none" xmlns="http://www.w3.org/2000/svg">
<path d="M33 70H43V87H33V70Z" fill="#F4B400"/>
<path d="M62.6609 15.1485C56.0543 8.59797 47.3062 5 38.0019 5C37.9177 5 37.8326 5.00025 37.7485 5.00099C18.6907 5.13453 3.10274 20.7253 3.00051 39.7553C2.9618 46.9879 5.11711 53.9388 9.23369 59.8565C13.687 66.2587 16.0411 73.7576 16.0411 81.5422V98.2574C16.0411 107.489 23.5631 115 32.8091 115H43.1911C52.4372 115 59.9592 107.489 59.9592 98.2574V81.3056C59.9592 73.7125 62.3316 66.2688 66.8197 59.7795C70.8631 53.9338 73 47.0761 73 39.947C73 30.5659 69.3281 21.759 62.6609 15.1485ZM55.8855 101.25H20.1142C19.8869 100.289 19.7629 99.2876 19.7629 98.2576V97.5342H56.2369V98.2576C56.2369 99.2876 56.1131 100.289 55.8855 101.25ZM43.1909 111.284H32.8089C28.0715 111.284 23.9164 108.749 21.6308 104.966H54.3689C52.0834 108.749 47.9286 111.284 43.1909 111.284ZM56.2369 93.8175H19.7629V90.1014H56.2369V93.8175ZM32.9754 70.034H43.0241V86.3852H32.9754V70.034ZM63.7569 57.6676C58.8374 64.7808 56.2369 72.9546 56.2369 81.3056V86.385H46.7462V66.3174H43.9549V49.4353L49.5511 43.8478L46.9191 41.22L40.2331 47.8959V66.3176H35.7669V47.8959L29.0809 41.22L26.4489 43.8478L32.0451 49.4353V66.3174H29.2536V86.385H19.7631V81.5422C19.7631 72.996 17.1793 64.7642 12.291 57.7365C8.61335 52.45 6.68782 46.2389 6.7228 39.7751C6.81387 22.7694 20.7437 8.83681 37.7746 8.71714C46.1799 8.66363 54.0811 11.8788 60.0386 17.7857C65.9968 23.6932 69.278 31.5636 69.278 39.947C69.278 46.3182 67.369 52.4458 63.7569 57.6676Z" fill="#121212"/>
<path fill-rule="evenodd" clip-rule="evenodd" d="M80.5497 11C78.9703 11 77.6614 12.2245 77.5564 13.8004L77.1061 20.5543C73.6163 21.7833 70.4489 23.6964 67.7652 26.1327L61.5175 23.0604C60.1002 22.3634 58.3853 22.8847 57.5956 24.2525L52.4023 33.2476C51.6126 34.6154 52.0186 36.3612 53.3308 37.2401L59.2521 41.2062C58.9181 42.9193 58.7431 44.6892 58.7431 46.5C58.7431 48.3108 58.9181 50.0808 59.2521 51.7938L53.3308 55.7599C52.0186 56.6388 51.6126 58.3847 52.4023 59.7525L57.5956 68.7476C58.3853 70.1154 60.1002 70.6367 61.5175 69.9397L67.7652 66.8674C70.449 69.3036 73.6163 71.2167 77.1061 72.4457L77.5564 79.1996C77.6614 80.7755 78.9703 82 80.5497 82H90.9364C92.5158 82 93.8247 80.7755 93.9298 79.1996L94.3575 72.7832C98.0965 71.6302 101.495 69.7013 104.365 67.1845L109.968 69.9397C111.385 70.6367 113.1 70.1154 113.89 68.7476L119.083 59.7525C119.873 58.3847 119.467 56.6389 118.155 55.7599L113.112 52.3826C113.525 50.4873 113.743 48.5191 113.743 46.5C113.743 44.481 113.525 42.5127 113.112 40.6175L118.155 37.2401C119.467 36.3612 119.873 34.6154 119.083 33.2476L113.89 24.2525C113.1 22.8847 111.385 22.3634 109.968 23.0604L104.365 25.8155C101.495 23.2987 98.0965 21.3698 94.3575 20.2168L93.9298 13.8004C93.8247 12.2245 92.5158 11 90.9364 11H80.5497ZM86.5 58C92.8513 58 98 52.8513 98 46.5C98 40.1487 92.8513 35 86.5 35C80.1487 35 75 40.1487 75 46.5C75 52.8513 80.1487 58 86.5 58Z" fill="white"/>
<path fill-rule="evenodd" clip-rule="evenodd" d="M80.9219 23.4514L78.4347 24.3272C75.4568 25.3759 72.75 27.0099 70.4537 29.0944L68.4403 30.9221L60.5919 27.0627L56.3341 34.4374L63.687 39.3623L63.1782 41.9718C62.8931 43.4339 62.7431 44.9475 62.7431 46.5C62.7431 48.0525 62.8931 49.5661 63.1782 51.0283L63.687 53.6377L56.3341 58.5627L60.5919 65.9374L68.4403 62.0779L70.4538 63.9057C72.75 65.9901 75.4569 67.6241 78.4347 68.6728L80.9219 69.5486L81.4853 78H90.0009L90.5494 69.7717L93.1788 68.9608C96.3687 67.9772 99.2726 66.3302 101.728 64.177L103.735 62.4172L110.894 65.9374L115.152 58.5627L108.625 54.1909L109.204 51.5309C109.557 49.9136 109.743 48.2309 109.743 46.5C109.743 44.7691 109.557 43.0864 109.204 41.4692L108.625 38.8091L115.152 34.4374L110.894 27.0627L103.735 30.5829L101.728 28.8231C99.2726 26.6698 96.3687 25.0228 93.1788 24.0392L90.5494 23.2283L90.0009 15H81.4853L80.9219 23.4514ZM115.929 59.0833C115.928 59.083 115.928 59.0828 115.928 59.0825L115.929 59.0833ZM59.7524 66.3502C59.753 66.3499 59.7536 66.3496 59.7541 66.3494L59.7524 66.3502ZM109.968 69.9397C111.385 70.6367 113.1 70.1154 113.89 68.7476L119.083 59.7525C119.873 58.3847 119.467 56.6389 118.155 55.7599L113.112 52.3826C113.525 50.4873 113.743 48.5191 113.743 46.5C113.743 44.481 113.525 42.5127 113.112 40.6175L118.155 37.2401C119.467 36.3612 119.873 34.6154 119.083 33.2476L113.89 24.2525C113.1 22.8847 111.385 22.3634 109.968 23.0604L104.365 25.8155C101.495 23.2987 98.0965 21.3698 94.3575 20.2168L93.9298 13.8004C93.8247 12.2245 92.5158 11 90.9364 11H80.5497C78.9703 11 77.6614 12.2245 77.5564 13.8004L77.1061 20.5543C73.6163 21.7833 70.4489 23.6964 67.7652 26.1327L61.5175 23.0604C60.1002 22.3634 58.3853 22.8847 57.5956 24.2525L52.4023 33.2476C51.6126 34.6154 52.0186 36.3612 53.3308 37.2401L59.2521 41.2062C58.9181 42.9193 58.7431 44.6892 58.7431 46.5C58.7431 48.3108 58.9181 50.0808 59.2521 51.7938L53.3308 55.7599C52.0186 56.6388 51.6126 58.3847 52.4023 59.7525L57.5956 68.7476C58.3853 70.1154 60.1002 70.6367 61.5175 69.9397L67.7652 66.8674C70.449 69.3036 73.6163 71.2167 77.1061 72.4457L77.5564 79.1996C77.6614 80.7755 78.9703 82 80.5497 82H90.9364C92.5158 82 93.8247 80.7755 93.9298 79.1996L94.3575 72.7832C98.0965 71.6302 101.495 69.7013 104.365 67.1845L109.968 69.9397ZM102 46.5C102 55.0604 95.0604 62 86.5 62C77.9396 62 71 55.0604 71 46.5C71 37.9396 77.9396 31 86.5 31C95.0604 31 102 37.9396 102 46.5ZM98 46.5C98 52.8513 92.8513 58 86.5 58C80.1487 58 75 52.8513 75 46.5C75 40.1487 80.1487 35 86.5 35C92.8513 35 98 40.1487 98 46.5Z" fill="#121212"/>
</svg>
