<svg width="120" height="120" viewBox="0 0 120 120" fill="none" xmlns="http://www.w3.org/2000/svg">
<path d="M89.25 31.9284L88.9248 31.0826L88.0789 30.7574C85.0502 29.5926 81.8707 29.002 78.6294 29.002C71.7376 29.002 65.2779 31.6662 60.44 36.5041L54.3341 42.6098L38.9583 44.5317L27.6289 55.8612L37.2388 59.7052L35.1005 61.8436L38.2038 64.947L33.3989 71.6738L48.334 86.6088L55.0608 81.8038L58.1642 84.9072L60.3025 82.7687L64.1464 92.3786L75.4758 81.0492L77.3976 65.6736L83.5034 59.5676C90.6882 52.3827 92.944 41.5336 89.25 31.9284ZM34.8841 54.3722L40.8523 48.4039L49.6384 47.3057L40.3754 56.5687L34.8841 54.3722ZM48.7745 81.2836L38.724 71.233L41.1264 67.8697L52.138 78.8811L48.7745 81.2836ZM71.6035 79.1553L65.6353 85.1235L63.4387 79.6322L72.7017 70.3692L71.6035 79.1553ZM80.6207 56.6846L58.164 79.1412L50.9565 71.9337L66.8128 56.0777L63.9299 53.1947L48.0736 69.051L40.8663 61.8436L63.3229 39.387C67.3906 35.3193 72.8266 33.079 78.6294 33.079C81.0633 33.079 83.4562 33.4732 85.7555 34.2519C88.4225 42.1352 86.4544 50.8508 80.6207 56.6846Z" fill="#121212"/>
<path d="M35.1409 81.9968L32.2033 84.9344C31.4222 85.7155 31.4222 86.9818 32.2033 87.7628L32.2579 87.8175C33.039 88.5985 34.3053 88.5985 35.0863 87.8175L38.024 84.8799C38.805 84.0988 38.805 82.8325 38.024 82.0515L37.9693 81.9968C37.1883 81.2158 35.9219 81.2158 35.1409 81.9968Z" fill="#121212"/>
<path d="M37.9452 93.5292L37.9999 93.5838C38.7809 94.3649 40.0472 94.3649 40.8283 93.5838L43.7659 90.6462C44.5469 89.8652 44.5469 88.5988 43.7659 87.8178L43.7112 87.7631C42.9302 86.9821 41.6639 86.9821 40.8828 87.7631L37.9452 90.7008C37.1642 91.4818 37.1642 92.7481 37.9452 93.5292Z" fill="#121212"/>
<path d="M29.3557 76.2302L26.4181 79.1678C25.6371 79.9489 25.6371 81.2152 26.4181 81.9962L26.4728 82.0509C27.2538 82.8319 28.5201 82.8319 29.3012 82.0509L32.2388 79.1133C33.0198 78.3322 33.0198 77.0659 32.2388 76.2849L32.1841 76.2302C31.4031 75.4492 30.1368 75.4492 29.3557 76.2302Z" fill="#121212"/>
<path d="M79.0003 50.9999C76.2387 53.7615 71.7613 53.7615 68.9997 50.9999C66.2381 48.2383 66.2381 43.7609 68.9997 40.9993C71.7613 38.2377 76.2387 38.2377 79.0003 40.9993C81.7619 43.7609 81.7619 48.2383 79.0003 50.9999Z" fill="#F4B400"/>
<path fill-rule="evenodd" clip-rule="evenodd" d="M37.7851 5.78859L34.1094 4.21094L29.3764 15.2381L40.4036 19.9711L41.9813 16.2954L37.3335 14.3005C44.1598 10.9078 51.8547 8.99976 60 8.99976C88.1665 8.99976 111 31.8332 111 59.9998C111 88.1663 88.1665 111 60 111C31.8335 111 9 88.1663 9 59.9998H5C5 90.3754 29.6243 115 60 115C90.3757 115 115 90.3754 115 59.9998C115 29.6241 90.3757 4.99976 60 4.99976C51.28 4.99976 43.0297 7.03042 35.7005 10.6456L37.7851 5.78859Z" fill="#121212"/>
</svg>
