<svg width="120" height="120" viewBox="0 0 120 120" fill="none" xmlns="http://www.w3.org/2000/svg">
<path fill-rule="evenodd" clip-rule="evenodd" d="M89.0283 13.9141L101.351 59.9024L97.4872 60.9377L86.1999 18.813L62.0176 25.2927L60.9823 21.429L89.0283 13.9141Z" fill="#121212"/>
<path fill-rule="evenodd" clip-rule="evenodd" d="M84.0542 35.9197L90.697 60.7111L94.5607 59.6758L86.9256 31.181L84.9937 31.6986C80.726 32.8421 76.3393 30.3095 75.1958 26.0418L74.6781 24.1099L62.1211 27.4745L63.1564 31.3383L72.01 28.9659C74.1248 33.6015 78.9822 36.4059 84.0542 35.9197Z" fill="#121212"/>
<path fill-rule="evenodd" clip-rule="evenodd" d="M55.4352 10.2676L79.2405 51.4996L75.7764 53.4996L53.9711 15.7317L16.732 37.2317L24.9696 51.4996L21.5055 53.4996L11.2679 35.7676L55.4352 10.2676Z" fill="#121212"/>
<path fill-rule="evenodd" clip-rule="evenodd" d="M34.8107 33.8771L44.4807 28.2942L42.4807 24.8301L29.4903 32.3301L30.4903 34.0621C32.6994 37.8885 31.3884 42.7812 27.5621 44.9903L25.83 45.9903L29.5883 52.4999L33.0524 50.4999L31.2112 47.3107C35.1414 44.0681 36.5931 38.6504 34.8107 33.8771Z" fill="#121212"/>
<path fill-rule="evenodd" clip-rule="evenodd" d="M56.3259 32.8107L69.1589 55.0381L72.623 53.0381L57.873 27.4903L56.1409 28.4903C52.3146 30.6995 47.4219 29.3885 45.2127 25.5621L44.2127 23.8301L32.9544 30.3301L34.9544 33.7942L42.8923 29.2112C46.1349 33.1415 51.5526 34.5932 56.3259 32.8107Z" fill="#121212"/>
<path d="M14 49C14 46.7909 15.7909 45 18 45H102C104.209 45 106 46.7909 106 49V109C106 111.209 104.209 113 102 113H18C15.7909 113 14 111.209 14 109V49Z" fill="white"/>
<path fill-rule="evenodd" clip-rule="evenodd" d="M102 49H18L18 109H102V49ZM18 45C15.7909 45 14 46.7909 14 49V109C14 111.209 15.7909 113 18 113H102C104.209 113 106 111.209 106 109V49C106 46.7909 104.209 45 102 45H18Z" fill="#121212"/>
<path d="M83 78C83 71.9249 87.9249 67 94 67H109C111.209 67 113 68.7909 113 71V87C113 89.2091 111.209 91 109 91H94C87.9249 91 83 86.0751 83 80V78Z" fill="white"/>
<path fill-rule="evenodd" clip-rule="evenodd" d="M109 71H94C90.134 71 87 74.134 87 78V80C87 83.866 90.134 87 94 87H109V71ZM94 67C87.9249 67 83 71.9249 83 78V80C83 86.0751 87.9249 91 94 91H109C111.209 91 113 89.2091 113 87V71C113 68.7909 111.209 67 109 67H94Z" fill="#121212"/>
<path d="M101 79C101 81.7614 98.7614 84 96 84C93.2386 84 91 81.7614 91 79C91 76.2386 93.2386 74 96 74C98.7614 74 101 76.2386 101 79Z" fill="#F4B400"/>
</svg>
