<svg width="120" height="120" viewBox="0 0 120 120" fill="none" xmlns="http://www.w3.org/2000/svg">
<path fill-rule="evenodd" clip-rule="evenodd" d="M71 18H49L49 40H71V18ZM49 14C46.7909 14 45 15.7909 45 18V40C45 42.2091 46.7909 44 49 44H71C73.2091 44 75 42.2091 75 40V18C75 15.7909 73.2091 14 71 14H49Z" fill="#121212"/>
<path d="M45 78C45 75.7909 46.7909 74 49 74H71C73.2091 74 75 75.7909 75 78V100C75 102.209 73.2091 104 71 104H49C46.7909 104 45 102.209 45 100V78Z" fill="#F4B400"/>
<path fill-rule="evenodd" clip-rule="evenodd" d="M31 78H9L9 100H31V78ZM9 74C6.79086 74 5 75.7909 5 78V100C5 102.209 6.79086 104 9 104H31C33.2091 104 35 102.209 35 100V78C35 75.7909 33.2091 74 31 74H9Z" fill="#121212"/>
<path fill-rule="evenodd" clip-rule="evenodd" d="M111 78H89L89 100H111V78ZM89 74C86.7909 74 85 75.7909 85 78V100C85 102.209 86.7909 104 89 104H111C113.209 104 115 102.209 115 100V78C115 75.7909 113.209 74 111 74H89Z" fill="#121212"/>
<path fill-rule="evenodd" clip-rule="evenodd" d="M18 62C18 59.7909 19.7909 58 22 58H98C100.209 58 102 59.7909 102 62V74H98V62H22V74H18V62Z" fill="black"/>
<path fill-rule="evenodd" clip-rule="evenodd" d="M62 44V58H58V44H62Z" fill="black"/>
</svg>
