<svg width="120" height="120" viewBox="0 0 120 120" fill="none" xmlns="http://www.w3.org/2000/svg">
<path fill-rule="evenodd" clip-rule="evenodd" d="M104.699 27.178L105.132 27.0817C107.63 26.5266 110 28.4275 110 30.9865V92.7913C110 94.6661 108.698 96.2894 106.868 96.6961L66.6983 105.623C66.1828 105.865 65.6072 106 65 106L55 106C54.3928 106 53.8171 105.865 53.3016 105.623L13.1323 96.6961C11.3021 96.2894 10 94.6661 10 92.7913V30.9865C10 28.4275 12.3697 26.5266 14.8677 27.0817L16.2161 27.3814L18.8878 20.9695L25.2113 23.2618L27.4194 17.0791L60 35.6966L92.5806 17.0791L94.9033 23.5827L102.112 20.9695L104.699 27.178ZM103.609 31.5179L106 31.0396L106 92.7913L69 101.014V39.2087L103.609 31.5179ZM91.1427 24.9459L90.4195 22.921L79.4728 29.1763L91.1427 24.9459ZM38.7922 28.1848L29.5805 22.921L28.9719 24.625L38.7922 28.1848ZM21.1123 26.0306L20.2845 28.0173L34.3572 30.8319L21.1123 26.0306ZM14 92.7913L51 101.014V39.2087L14 30.9865L14 92.7913ZM55 52V90H65V52H55ZM55 48H65V40H55V48ZM55 102V94H65V102H55ZM100.715 28.0173L99.8877 26.0306L86.6428 30.8319L100.715 28.0173Z" fill="#121212"/>
<path d="M75 49L100 44V64L75 69V49Z" fill="#F4B400"/>
<path d="M75 73L100 68V74L75 79V73Z" fill="#F4B400"/>
</svg>
