<svg width="120" height="120" viewBox="0 0 120 120" fill="none" xmlns="http://www.w3.org/2000/svg">
<path fill-rule="evenodd" clip-rule="evenodd" d="M23 100H81C82.1046 100 83 99.1046 83 98V34.1248L67.311 18H23C21.8954 18 21 18.8954 21 20V98C21 99.1046 21.8954 100 23 100ZM23 14C19.6863 14 17 16.6863 17 20V98C17 101.314 19.6863 104 23 104H81C84.3137 104 87 101.314 87 98V34.1248C87 33.083 86.5935 32.0822 85.8669 31.3354L70.1779 15.2106C69.4248 14.4366 68.3908 14 67.311 14H23Z" fill="#121212"/>
<path fill-rule="evenodd" clip-rule="evenodd" d="M87 34L67 14V30C67 32.2091 68.7909 34 71 34H87ZM77.3431 30L71 23.6569L71 30H77.3431Z" fill="#121212"/>
<path d="M103 100.215C103 107.119 94.0457 112.715 83 112.715C71.9543 112.715 63 107.119 63 100.215C63 76.7151 63 87.7153 83 87.7153C103 87.7153 103 78.2151 103 100.215Z" fill="white"/>
<path fill-rule="evenodd" clip-rule="evenodd" d="M95.0221 105.662C97.9675 103.821 99 101.79 99 100.215C99 94.8193 98.9902 91.6983 98.7631 89.8173C98.2407 89.909 97.7177 90.0167 97.0861 90.1467C96.5856 90.2497 96.0168 90.3668 95.326 90.5011C92.3578 91.0783 88.3383 91.7153 83 91.7153C77.6084 91.7153 73.54 90.9701 70.5183 90.2567C69.7739 90.0809 69.0967 89.9079 68.5025 89.755C68.4434 89.7398 68.3855 89.7249 68.3286 89.7103C67.9073 89.6018 67.5436 89.5082 67.2119 89.4269C67.0086 91.4218 67 94.6973 67 100.215C67 101.79 68.0325 103.821 70.9779 105.662C73.8669 107.468 78.1069 108.715 83 108.715C87.8931 108.715 92.1331 107.468 95.0221 105.662ZM83 112.715C94.0457 112.715 103 107.119 103 100.215C103 90.6694 103 87.0541 101.366 86.02C99.2346 84.6708 94.322 87.7153 83 87.7153C71.6442 87.7153 66.7361 84.169 64.6148 85.4051C63 86.3461 63 90.0582 63 100.215C63 107.119 71.9543 112.715 83 112.715Z" fill="#121212"/>
<path d="M103 90.644C103 97.5476 94.0457 103.144 83 103.144C71.9543 103.144 63 97.5476 63 90.644C63 67.1438 63 78.144 83 78.144C103 78.144 103 68.6438 103 90.644Z" fill="white"/>
<path fill-rule="evenodd" clip-rule="evenodd" d="M95.0221 96.0909C97.9675 94.25 99 92.219 99 90.644C99 85.248 98.9902 82.127 98.7631 80.246C98.2407 80.3377 97.7177 80.4454 97.0861 80.5754C96.5856 80.6784 96.0168 80.7955 95.326 80.9298C92.3578 81.507 88.3383 82.144 83 82.144C77.6084 82.144 73.54 81.3989 70.5183 80.6854C69.7739 80.5096 69.0967 80.3366 68.5025 80.1837C68.4434 80.1686 68.3855 80.1536 68.3286 80.139C67.9073 80.0305 67.5436 79.9369 67.2119 79.8556C67.0086 81.8505 67 85.126 67 90.644C67 92.219 68.0325 94.25 70.9779 96.0909C73.8669 97.8965 78.1069 99.144 83 99.144C87.8931 99.144 92.1331 97.8965 95.0221 96.0909ZM83 103.144C94.0457 103.144 103 97.5476 103 90.644C103 81.0981 103 77.4828 101.366 76.4487C99.2346 75.0995 94.322 78.144 83 78.144C71.6442 78.144 66.7361 74.5977 64.6148 75.8338C63 76.7748 63 80.487 63 90.644C63 97.5476 71.9543 103.144 83 103.144Z" fill="#121212"/>
<path d="M103 81.0718C103 87.9753 94.0457 93.5718 83 93.5718C71.9543 93.5718 63 87.9753 63 81.0718C63 57.5715 63 68.5718 83 68.5718C103 68.5718 103 59.0716 103 81.0718Z" fill="white"/>
<path fill-rule="evenodd" clip-rule="evenodd" d="M95.0221 86.5186C97.9675 84.6777 99 82.6467 99 81.0718C99 75.6758 98.9902 72.5548 98.7631 70.6737C98.2407 70.7655 97.7177 70.8731 97.0861 71.0031C96.5856 71.1062 96.0168 71.2232 95.326 71.3576C92.3578 71.9347 88.3383 72.5718 83 72.5718C77.6084 72.5718 73.54 71.8266 70.5183 71.1131C69.7739 70.9373 69.0967 70.7643 68.5025 70.6115C68.4434 70.5963 68.3855 70.5814 68.3286 70.5667C67.9073 70.4583 67.5436 70.3647 67.2119 70.2834C67.0086 72.2783 67 75.5538 67 81.0718C67 82.6467 68.0325 84.6777 70.9779 86.5186C73.8669 88.3242 78.1069 89.5718 83 89.5718C87.8931 89.5718 92.1331 88.3242 95.0221 86.5186ZM83 93.5718C94.0457 93.5718 103 87.9753 103 81.0718C103 71.5259 103 67.9105 101.366 66.8764C99.2346 65.5272 94.322 68.5718 83 68.5718C71.6442 68.5718 66.7361 65.0255 64.6148 66.2616C63 67.2025 63 70.9147 63 81.0718C63 87.9753 71.9543 93.5718 83 93.5718Z" fill="#121212"/>
<path d="M103 71.5C103 78.4036 94.0457 84 83 84C71.9543 84 63 78.4036 63 71.5C63 64.5964 71.9543 59 83 59C94.0457 59 103 64.5964 103 71.5Z" fill="white"/>
<path fill-rule="evenodd" clip-rule="evenodd" d="M95.0221 76.9468C97.9675 75.106 99 73.075 99 71.5C99 69.925 97.9675 67.894 95.0221 66.0532C92.1331 64.2475 87.8931 63 83 63C78.1069 63 73.8669 64.2475 70.9779 66.0532C68.0325 67.894 67 69.925 67 71.5C67 73.075 68.0325 75.106 70.9779 76.9468C73.8669 78.7525 78.1069 80 83 80C87.8931 80 92.1331 78.7525 95.0221 76.9468ZM83 84C94.0457 84 103 78.4036 103 71.5C103 64.5964 94.0457 59 83 59C71.9543 59 63 64.5964 63 71.5C63 78.4036 71.9543 84 83 84Z" fill="#121212"/>
<path fill-rule="evenodd" clip-rule="evenodd" d="M70.8031 37.6201L80.9015 42.7144L79.0999 46.2857L71.3575 42.3799L50.3725 60.0236L40.2494 52.8742L25.0053 61.7294L22.9961 58.2706L40.46 48.1259L50.1599 54.9764L70.8031 37.6201Z" fill="#121212"/>
<path d="M28 76H54V82H28V76Z" fill="#F4B400"/>
<path d="M28 86H48V92H28V86Z" fill="#F4B400"/>
</svg>
