<svg width="120" height="120" viewBox="0 0 120 120" fill="none" xmlns="http://www.w3.org/2000/svg">
<path fill-rule="evenodd" clip-rule="evenodd" d="M97 17H15L15 90H97V17ZM15 13C12.7909 13 11 14.7909 11 17V90C11 92.2091 12.7909 94 15 94H97C99.2091 94 101 92.2091 101 90V17C101 14.7909 99.2091 13 97 13H15Z" fill="#121212"/>
<path fill-rule="evenodd" clip-rule="evenodd" d="M99 37L13 37L13 33L99 33L99 37Z" fill="#121212"/>
<path d="M20 43H48V51H20V43Z" fill="#F4B400"/>
<path d="M20 54H42V62H20V54Z" fill="#F4B400"/>
<path d="M20 65H42V73H20V65Z" fill="#F4B400"/>
<path d="M20 76H42V84H20V76Z" fill="#F4B400"/>
<path fill-rule="evenodd" clip-rule="evenodd" d="M74.5497 40C72.9703 40 71.6614 41.2245 71.5564 42.8004L71.1061 49.5543C67.6163 50.7833 64.4489 52.6964 61.7652 55.1327L55.5175 52.0604C54.1002 51.3634 52.3853 51.8847 51.5956 53.2525L46.4023 62.2476C45.6126 63.6154 46.0186 65.3612 47.3308 66.2401L53.2521 70.2062C52.9181 71.9193 52.7431 73.6892 52.7431 75.5C52.7431 77.3108 52.9181 79.0808 53.2521 80.7938L47.3308 84.7599C46.0186 85.6388 45.6126 87.3847 46.4023 88.7525L51.5956 97.7476C52.3853 99.1154 54.1002 99.6367 55.5175 98.9397L61.7652 95.8674C64.449 98.3036 67.6163 100.217 71.1061 101.446L71.5564 108.2C71.6614 109.775 72.9703 111 74.5497 111H84.9364C86.5158 111 87.8247 109.775 87.9298 108.2L88.3575 101.783C92.0965 100.63 95.4951 98.7013 98.3654 96.1845L103.968 98.9397C105.385 99.6367 107.1 99.1154 107.89 97.7476L113.083 88.7525C113.873 87.3847 113.467 85.6389 112.155 84.7599L107.112 81.3826C107.525 79.4873 107.743 77.5191 107.743 75.5C107.743 73.481 107.525 71.5127 107.112 69.6175L112.155 66.2401C113.467 65.3612 113.873 63.6154 113.083 62.2476L107.89 53.2525C107.1 51.8847 105.385 51.3634 103.968 52.0604L98.3655 54.8155C95.4952 52.2987 92.0965 50.3698 88.3575 49.2168L87.9298 42.8004C87.8247 41.2245 86.5158 40 84.9364 40H74.5497ZM80.5 87C86.8513 87 92 81.8513 92 75.5C92 69.1487 86.8513 64 80.5 64C74.1487 64 69 69.1487 69 75.5C69 81.8513 74.1487 87 80.5 87Z" fill="white"/>
<path fill-rule="evenodd" clip-rule="evenodd" d="M74.9219 52.4514L72.4347 53.3272C69.4568 54.3759 66.75 56.0099 64.4537 58.0944L62.4403 59.9221L54.5919 56.0627L50.3341 63.4374L57.687 68.3623L57.1782 70.9718C56.8931 72.4339 56.7431 73.9475 56.7431 75.5C56.7431 77.0525 56.8931 78.5661 57.1782 80.0283L57.687 82.6377L50.3341 87.5627L54.5919 94.9374L62.4403 91.0779L64.4538 92.9057C66.75 94.9901 69.4569 96.6241 72.4347 97.6728L74.9219 98.5486L75.4853 107H84.0009L84.5494 98.7717L87.1788 97.9608C90.3687 96.9772 93.2726 95.3302 95.7283 93.177L97.7353 91.4172L104.894 94.9374L109.152 87.5627L102.625 83.1909L103.204 80.5309C103.557 78.9136 103.743 77.2309 103.743 75.5C103.743 73.7691 103.557 72.0864 103.204 70.4692L102.625 67.8091L109.152 63.4374L104.894 56.0627L97.7353 59.5829L95.7283 57.8231C93.2726 55.6698 90.3687 54.0228 87.1788 53.0392L84.5494 52.2283L84.0009 44H75.4853L74.9219 52.4514ZM109.929 88.0833C109.928 88.083 109.928 88.0828 109.928 88.0825L109.929 88.0833ZM53.7524 95.3502C53.753 95.3499 53.7536 95.3496 53.7541 95.3494L53.7524 95.3502ZM103.968 98.9397C105.385 99.6367 107.1 99.1154 107.89 97.7476L113.083 88.7525C113.873 87.3847 113.467 85.6389 112.155 84.7599L107.112 81.3826C107.525 79.4873 107.743 77.5191 107.743 75.5C107.743 73.481 107.525 71.5127 107.112 69.6175L112.155 66.2401C113.467 65.3612 113.873 63.6154 113.083 62.2476L107.89 53.2525C107.1 51.8847 105.385 51.3634 103.968 52.0604L98.3655 54.8155C95.4952 52.2987 92.0965 50.3698 88.3575 49.2168L87.9298 42.8004C87.8247 41.2245 86.5158 40 84.9364 40H74.5497C72.9703 40 71.6614 41.2245 71.5564 42.8004L71.1061 49.5543C67.6163 50.7833 64.4489 52.6964 61.7652 55.1327L55.5175 52.0604C54.1002 51.3634 52.3853 51.8847 51.5956 53.2525L46.4023 62.2476C45.6126 63.6154 46.0186 65.3612 47.3308 66.2401L53.2521 70.2062C52.9181 71.9193 52.7431 73.6892 52.7431 75.5C52.7431 77.3108 52.9181 79.0808 53.2521 80.7938L47.3308 84.7599C46.0186 85.6388 45.6126 87.3847 46.4023 88.7525L51.5956 97.7476C52.3853 99.1154 54.1002 99.6367 55.5175 98.9397L61.7652 95.8674C64.449 98.3036 67.6163 100.217 71.1061 101.446L71.5564 108.2C71.6614 109.775 72.9703 111 74.5497 111H84.9364C86.5158 111 87.8247 109.775 87.9298 108.2L88.3575 101.783C92.0965 100.63 95.4951 98.7013 98.3654 96.1845L103.968 98.9397ZM96 75.5C96 84.0604 89.0604 91 80.5 91C71.9396 91 65 84.0604 65 75.5C65 66.9396 71.9396 60 80.5 60C89.0604 60 96 66.9396 96 75.5ZM92 75.5C92 81.8513 86.8513 87 80.5 87C74.1487 87 69 81.8513 69 75.5C69 69.1487 74.1487 64 80.5 64C86.8513 64 92 69.1487 92 75.5Z" fill="#121212"/>
</svg>
