<svg width="141" height="45" viewBox="0 0 141 45" fill="none" xmlns="http://www.w3.org/2000/svg">
<g clip-path="url(#clip0_1101_10017)">
<path fill-rule="evenodd" clip-rule="evenodd" d="M43.9342 11.3381C43.9454 11.7756 43.9519 12.2133 43.9536 12.6509H43.9527C43.9553 13.1714 43.9553 13.6911 43.9553 14.2108V30.503C43.9553 30.5896 43.9554 30.6762 43.9554 30.7627C43.9555 31.1965 43.9556 31.6297 43.9527 32.0629C43.9501 32.5008 43.9448 32.9387 43.9333 33.3757C43.9078 34.3297 43.8514 35.2916 43.6815 36.2342C43.5089 37.1909 43.2279 38.0816 42.7841 38.9521C41.9072 40.6728 40.5065 42.0716 38.7835 42.9476C37.926 43.3793 37.0089 43.681 36.0623 43.8427C35.1183 44.0124 34.154 44.0678 33.1986 44.0942C32.76 44.1056 32.3223 44.1109 31.8838 44.1135C31.4502 44.1164 31.0159 44.1163 30.5826 44.1162C30.4959 44.1162 30.4091 44.1161 30.3225 44.1161H14.0063C13.9193 44.1161 13.8323 44.1162 13.7453 44.1162C13.3112 44.1163 12.8778 44.1164 12.445 44.1135C12.0064 44.1109 11.5679 44.1056 11.1293 44.0942C10.1747 44.0687 9.21046 44.0124 8.26644 43.8427C7.30744 43.6703 6.41626 43.3899 5.54532 42.9476C3.82181 42.0719 2.42082 40.673 1.54378 38.9521C1.11112 38.0951 0.808973 37.1785 0.647312 36.2325C0.477352 35.2908 0.421873 34.3288 0.395455 33.3748C0.384007 32.9378 0.378723 32.4999 0.3752 32.062C0.372559 31.5424 0.372559 31.0227 0.372559 30.5022V14.2108C0.372559 13.6911 0.372559 13.1714 0.3752 12.6509C0.377842 12.2139 0.383126 11.7769 0.395455 11.3373C0.420993 10.385 0.477352 9.42305 0.647312 8.47957C0.819033 7.52203 1.09995 6.63219 1.54378 5.7617C1.97984 4.90704 2.54806 4.12633 3.22753 3.4483C4.07944 2.59853 5.09053 1.9245 6.20315 1.46463C6.86723 1.19349 7.55872 0.994792 8.26556 0.871993C8.97446 0.744497 9.69392 0.681188 10.4116 0.646896C10.6512 0.635466 10.8907 0.626673 11.1293 0.620518C11.5679 0.609087 12.0064 0.603811 12.445 0.600294C12.9654 0.597656 13.485 0.597656 14.0063 0.597656H30.3225C30.8438 0.597656 31.3642 0.597656 31.8847 0.600294C32.3232 0.602932 32.7609 0.608208 33.2003 0.620518C34.1549 0.646017 35.1183 0.702291 36.0641 0.871993C37.0107 1.03366 37.9278 1.33535 38.7852 1.76711C40.5079 2.64341 41.9081 4.04217 42.785 5.76258C43.2179 6.61891 43.5203 7.53496 43.6823 8.48045C43.8523 9.42305 43.9078 10.385 43.9342 11.3381ZM34.9052 27.4572L34.9078 27.4599L34.9087 27.4607C38.6531 32.0612 37.6342 36.9931 37.1543 36.0619C35.1975 32.2599 31.5509 33.2306 29.7042 34.1873C29.5519 34.2778 29.3951 34.3649 29.2375 34.4484C29.2276 34.455 29.2168 34.4613 29.2061 34.4675C29.1968 34.4729 29.1876 34.4783 29.1794 34.4836L29.182 34.4792C25.3399 36.5174 20.1812 36.6686 14.9926 34.4423C10.7702 32.6165 7.19905 29.5592 4.74744 25.6714C5.93981 26.5518 7.21646 27.3122 8.55876 27.9417C14.0415 30.5048 19.548 30.3202 23.4448 27.9391C17.8986 23.6798 13.2683 18.1333 9.71854 13.6384C9.03606 12.8321 8.41434 11.995 7.89213 11.1245C12.1429 15.0092 18.8585 19.8883 21.2679 21.238C16.1532 15.8427 11.6471 9.19885 11.8584 9.41163C19.9126 17.516 27.345 22.0971 27.345 22.0971C27.5677 22.2175 27.7856 22.3462 27.9985 22.4831C28.1508 22.0927 28.2882 21.6909 28.4027 21.2714C29.6892 16.5778 28.2424 11.2107 24.9682 6.77905C32.4385 11.2581 36.854 19.7661 35.0452 26.9622C35.0119 27.0918 34.9749 27.2184 34.9379 27.345C34.9269 27.3824 34.916 27.4197 34.9052 27.4572Z" fill="#B0B0B0"/>
<path d="M60.4969 28.8395C60.8377 31.8581 63.7218 33.8374 67.7268 33.8374C71.532 33.8374 74.276 31.859 74.276 29.1191C74.276 26.76 72.6134 25.3197 68.788 24.3604L65.0832 23.4196C59.7563 22.1006 57.3531 19.7002 57.3531 15.7417C57.3531 10.8625 61.6189 7.4834 67.6872 7.4834C73.5742 7.4834 77.7597 10.8827 77.9006 15.7821H73.9951C73.6948 12.782 71.2511 10.9425 67.5868 10.9425C63.9613 10.9425 61.4383 12.8022 61.4383 15.521C61.4383 17.64 63.0005 18.9009 66.8453 19.8804L69.9301 20.6806C75.8981 22.1402 78.3409 24.4598 78.3409 28.639C78.3409 33.9587 74.1148 37.2973 67.386 37.2973C61.138 37.2973 56.8723 33.978 56.5518 28.8386H60.4969V28.8395ZM103.147 36.8173H99.2222L94.6359 20.8609H94.5567L89.9898 36.8173H86.0657L80.2581 15.921H84.0623L88.1079 32.6978H88.188L92.7541 15.921H96.4394L101.045 32.6978H101.125L105.171 15.921H108.935L103.147 36.8173ZM111.469 10.3024C111.469 9.04325 112.512 8.02328 113.773 8.02328C115.055 8.02328 116.096 9.04325 116.096 10.3024C116.096 11.5624 115.055 12.6017 113.773 12.6017C113.163 12.5983 112.579 12.3549 112.148 11.9244C111.717 11.494 111.473 10.9111 111.47 10.3024H111.469ZM111.871 15.921H115.695V36.8173H111.871V15.921ZM140.674 19.0012V15.921H136.629V10.9223H132.823V15.921H125.512V14.0816C125.532 12.2219 126.252 11.4419 127.975 11.4419C128.535 11.4419 129.096 11.5026 129.557 11.5826V8.58163C128.888 8.47717 128.212 8.42367 127.535 8.4216C123.449 8.4216 121.726 10.1221 121.726 14.0209V15.9201H118.803V19.0003H121.726V36.8164H125.532V19.0012H132.824V31.3375C132.824 35.377 134.365 36.936 138.371 36.936C139.232 36.936 140.213 36.8762 140.655 36.7768V33.6571C140.176 33.7162 139.694 33.7496 139.212 33.7573C137.43 33.7573 136.629 32.9176 136.629 31.0377V19.0012H140.674Z" fill="white"/>
</g>
<defs>
<clipPath id="clip0_1101_10017">
<rect width="141" height="45" fill="white"/>
</clipPath>
</defs>
</svg>
