<svg width="120" height="120" viewBox="0 0 120 120" fill="none" xmlns="http://www.w3.org/2000/svg">
<path fill-rule="evenodd" clip-rule="evenodd" d="M34.6346 40.9995H85.3349L59.9158 11.1758L34.6346 40.9995ZM26.0001 44.9995L26 44.9996H94L93.9999 44.9995H113V50.9995H110H98H22H10H7V44.9995H26.0001ZM90.5907 40.9995L71.8398 18.9995H85.8566C88.2463 18.9995 90.5108 20.0678 92.0305 21.9119L107.76 40.9995H90.5907ZM68.4305 14.9995H85.8566C89.4411 14.9995 92.8378 16.6019 95.1174 19.3681L112.943 40.9995H117V54.9995H110V114H98H74H46H22H10V54.9995H3V40.9995H7.056L24.8816 19.3681C27.1611 16.6019 30.5579 14.9995 34.1423 14.9995H51.4307L56.8645 8.58929C58.4593 6.70793 61.3602 6.70403 62.96 8.5811L68.4305 14.9995ZM48.0399 18.9995H34.1423C31.7527 18.9995 29.4882 20.0678 27.9685 21.9119L12.2392 40.9995H29.3908L48.0399 18.9995ZM94 54.9995H26V60.9995H28H40H80H92H94V54.9995ZM88 64.9995H84V102H88V64.9995ZM92 102V64.9995H98V54.9995H106V110H98V102H92ZM92 106H80H78V110H94V106H92ZM80 102V64.9995H40L40 102H46V110H74V102H80ZM22 64.9995H28L28 102H22L22 110H14V54.9995H22V64.9995ZM26 110H42V106H40H28H26V110ZM32 102H36V64.9995H32L32 102Z" fill="#121212"/>
<path d="M60 69C65.5228 69 70 73.4772 70 79L70 110L50 110L50 79C50 73.4772 54.4772 69 60 69Z" fill="#F4B400"/>
<path d="M60 24C65.5228 24 70 28.4772 70 34L70 38L50 38L50 34C50 28.4772 54.4772 24 60 24Z" fill="#F4B400"/>
</svg>
