<svg width="67" height="67" viewBox="0 0 67 67" fill="none" xmlns="http://www.w3.org/2000/svg">
<g clip-path="url(#clip0_1101_10043)">
<path fill-rule="evenodd" clip-rule="evenodd" d="M0 0V33.5V67H67V0H0ZM14.6897 36.3475V33.6173L14.74 33.634V30.887L26.465 30.8368C32.9137 30.8368 38.2235 30.8535 38.2235 30.9038C38.2905 30.9373 38.2905 32.16 38.2905 33.6675V36.3475H29.5805V61.1375H23.3997V36.3475H14.6897ZM58.022 33.2153C56.8495 31.9925 55.543 31.222 53.8345 30.82L53.868 30.7865C52.7122 30.485 49.9485 30.3845 48.776 30.619C45.158 31.289 42.6287 33.634 41.9085 36.984C41.674 37.9388 41.7577 40.3173 42.009 41.2888C42.344 42.411 43.0642 43.7678 43.8515 44.6388C45.225 46.0793 46.699 47.0173 50.1662 48.4913C53.1812 49.8313 54.2532 50.4343 54.7892 51.1713C55.1745 51.7575 55.2917 52.1093 55.2917 52.8798C55.2917 53.7173 55.0237 54.3203 54.404 54.8898C52.9635 56.1963 50.049 56.347 47.8715 55.2248C47.1512 54.8228 45.9117 53.6503 45.359 52.7793L44.9235 52.193L43.0307 53.2985L40.5182 54.7558L39.8817 55.1578C39.8147 55.275 41.004 57.0673 41.6237 57.7373C43.1982 59.4625 45.761 60.8025 48.441 61.305C49.6972 61.5228 52.3772 61.5563 53.5497 61.3553C57.285 60.7355 59.898 58.8428 60.97 56.0455C61.9247 53.4828 61.6065 50.0658 60.1827 47.8883C58.9265 45.9453 56.8495 44.5885 52.059 42.5283C49.4627 41.3893 48.6252 40.8365 48.173 39.9153C47.972 39.4798 47.8715 39.1783 47.8715 38.6423C47.8715 36.8835 49.2115 35.8283 51.2215 35.9623C52.6117 36.0628 53.4995 36.5988 54.3705 37.8383C54.6385 38.2738 54.9065 38.5585 54.9735 38.5083C56.7322 37.4195 59.63 35.4598 59.63 35.3593C59.563 35.0578 58.6417 33.8853 58.022 33.2153Z" fill="white"/>
</g>
<defs>
<clipPath id="clip0_1101_10043">
<rect width="67" height="67" fill="white"/>
</clipPath>
</defs>
</svg>
