<svg width="169" height="50" viewBox="0 0 169 50" fill="none" xmlns="http://www.w3.org/2000/svg">
<g clip-path="url(#clip0_1223_4736)">
<path d="M46.2498 31.5781C43.5035 31.5781 40.9301 30.4268 38.5921 28.5526L39.1614 25.9069L39.1862 25.8088C39.6931 22.9918 41.3014 18.2634 46.2498 18.2634C49.9609 18.2634 52.9795 21.2523 52.9795 24.9268C52.967 28.5892 49.9487 31.5781 46.2498 31.5781ZM46.2498 11.5144C39.9281 11.5144 35.0296 15.581 33.0381 22.269C29.9947 17.749 27.6936 12.3229 26.3454 7.75391H19.5414V25.282C19.5414 28.7363 16.6961 31.5533 13.2075 31.5533C9.71889 31.5533 6.87388 28.7363 6.87388 25.282V7.75391H0.0692915V25.282C0.0445379 32.4601 5.94545 38.3516 13.1946 38.3516C20.4441 38.3516 26.345 32.4601 26.345 25.282V22.3425C27.6685 25.0739 29.289 27.8297 31.2561 30.2797L27.087 49.6817H34.052L37.0702 35.6079C39.7175 37.286 42.7609 38.3396 46.2495 38.3396C53.7089 38.3396 59.7831 32.2886 59.7831 24.9023C59.7831 17.5284 53.7089 11.5144 46.2495 11.5144H46.2498Z" fill="#6FDA44"/>
<path d="M80.5536 12.2733L84.9452 29.8014L89.7824 12.2733H95.547L88.1123 37.6041H82.3474L77.7828 19.9655L73.2302 37.5916H67.4656L60.0303 12.2612H65.7952L70.632 29.7894L75.0237 12.2612H80.5533V12.2737L80.5536 12.2733ZM109.34 11.5139C101.856 11.5139 95.7945 17.5279 95.7945 24.9263C95.7945 32.3371 101.868 38.339 109.34 38.339C116.825 38.339 122.899 32.3371 122.899 24.9263C122.899 17.5158 116.825 11.5139 109.34 11.5139ZM109.34 32.8269C104.936 32.8269 101.374 29.2992 101.374 24.9387C101.374 20.5779 104.949 17.0505 109.34 17.0505C113.744 17.0505 117.307 20.5779 117.307 24.9387C117.307 29.2871 113.744 32.8269 109.34 32.8269ZM139.364 17.9446C135.492 17.9446 132.362 21.0557 132.362 24.8773V37.5916H126.56V12.2733H132.362V16.1684C132.362 16.1684 134.836 12.2609 139.921 12.2609H141.702V17.9446H139.364ZM158.836 23.9465C162.955 21.6436 165.751 17.2707 165.751 12.2609H159.949C159.949 16.4867 156.485 19.9165 152.217 19.9165H151.438V0.0488281H145.636V37.5913H151.438V25.6612H152.131C152.7 25.6612 153.442 26.0289 153.776 26.4818L162.015 37.5916H168.967L158.836 23.9465Z" fill="black"/>
</g>
<defs>
<clipPath id="clip0_1223_4736">
<rect width="169" height="50" fill="white"/>
</clipPath>
</defs>
</svg>
