<svg width="82" height="63" viewBox="0 0 82 63" fill="none" xmlns="http://www.w3.org/2000/svg">
<g clip-path="url(#clip0_1400_11789)">
<path d="M61.6409 47.2138H71.8205V22.3087L60.3517 10.6228L53.1536 17.9573L61.6409 26.6055V47.2134V47.2138ZM71.8474 52.4134H36.3401L27.8525 43.7655L31.4518 40.0983L38.4618 47.2412H52.8849L38.6768 32.7363L42.3027 29.0417L56.5108 43.5194V28.8223L49.5277 21.7068L53.0998 18.0667L35.4538 0.00390625H0L10.1526 10.349V10.3764H31.21L38.6499 17.9573L27.7721 29.0413L20.3322 21.4604V15.5764H10.1526V25.7573L27.7721 43.7107L20.6006 51.0178L32.0694 62.704H82L71.8474 52.4134Z" fill="#121212"/>
</g>
<defs>
<clipPath id="clip0_1400_11789">
<rect width="82" height="63" fill="white"/>
</clipPath>
</defs>
</svg>
