<svg width="217" height="217" viewBox="0 0 217 217" fill="none" xmlns="http://www.w3.org/2000/svg">
<g clip-path="url(#clip0_323_6052)">
<path d="M142.689 91.6822C142.688 90.3503 142.408 89.1733 141.841 88.1635C141.284 87.1699 140.45 86.3374 139.33 85.6792C130.093 80.2691 120.847 74.8755 111.613 69.4599C109.124 68 106.71 68.0535 104.239 69.5343C100.563 71.7365 82.1551 82.4489 76.6699 85.6762C74.4109 87.0048 73.3117 89.0377 73.3111 91.6797C73.3076 102.56 73.3111 113.44 73.3076 124.32C73.3076 125.623 73.5767 126.777 74.1188 127.772C74.6761 128.795 75.5221 129.65 76.6669 130.324C82.1524 133.551 100.562 144.262 104.238 146.465C106.71 147.947 109.124 148 111.614 146.54C120.849 141.124 130.095 135.73 139.333 130.32C140.478 129.647 141.324 128.791 141.882 127.769C142.423 126.774 142.692 125.62 142.692 124.317C142.692 124.317 142.692 102.563 142.689 91.6822Z" fill="#777777"/>
<path d="M108.106 107.894L74.1187 127.772C74.676 128.795 75.5219 129.65 76.6667 130.324C82.1522 133.551 100.562 144.262 104.238 146.465C106.71 147.947 109.124 148 111.614 146.54C120.848 141.124 130.095 135.73 139.333 130.32C140.478 129.647 141.324 128.791 141.881 127.769L108.106 107.894Z" fill="#121212"/>
<path d="M142.689 91.6822C142.688 90.3503 142.408 89.1733 141.841 88.1635L108.106 107.894L141.881 127.769C142.423 126.774 142.692 125.62 142.692 124.317C142.692 124.317 142.692 102.563 142.689 91.6822Z" fill="#3D3D3D"/>
<path d="M128.117 100.463V104.179H131.775V100.463H133.604V104.179H137.262V106.036H133.604V109.752H137.262V111.609H133.604V115.325H131.775V111.609H128.117V115.325H126.288V111.609H122.63V109.752H126.288V106.036H122.63V104.179H126.288V100.463H128.117ZM131.775 106.036H128.117V109.752H131.775V106.036Z" fill="white"/>
<path d="M108.181 81.8029C117.722 81.8029 126.051 87.066 130.513 94.8893L130.47 94.814L119.244 101.379C117.033 97.5758 112.978 95.0087 108.327 94.9558L108.181 94.955C101.088 94.955 95.3383 100.796 95.3383 108C95.3359 110.27 95.92 112.502 97.032 114.472C99.2456 118.397 103.407 121.045 108.181 121.045C112.984 121.045 117.169 118.364 119.371 114.396L119.318 114.491L130.526 121.087C126.114 128.844 117.898 134.091 108.468 134.196L108.181 134.197C98.6098 134.197 90.2565 128.901 85.8059 121.037C83.6332 117.197 82.3901 112.746 82.3901 108C82.3901 93.5318 93.9366 81.8026 108.181 81.8026L108.181 81.8029Z" fill="white"/>
</g>
<defs>
<clipPath id="clip0_323_6052">
<rect width="70" height="80" fill="white" transform="translate(73 68)"/>
</clipPath>
</defs>
</svg>
