<svg width="217" height="217" viewBox="0 0 217 217" fill="none" xmlns="http://www.w3.org/2000/svg">
<g clip-path="url(#clip0_1228_9953)">
<path fill-rule="evenodd" clip-rule="evenodd" d="M72.6882 135.207V128.511C72.6882 127.631 73.2342 126.925 74.1385 126.925H74.3888C75.2927 126.925 75.8363 127.632 75.8363 128.511V142.608C75.8363 146.045 74.1503 148.781 71.2123 150.523C69.8665 151.326 68.3302 151.748 66.7659 151.745H66.1415C62.7282 151.745 60.0165 150.045 58.2838 147.088C57.4853 145.732 57.0664 144.184 57.0716 142.608V141.98C57.0716 138.541 58.7583 135.807 61.6939 134.062C63.0395 133.257 64.5766 132.835 66.1415 132.84H66.7659C69.0759 132.84 71.0356 133.742 72.6882 135.207V135.207ZM60.2192 142.293C60.2192 144.776 61.414 146.643 63.574 147.834C64.4475 148.315 65.3956 148.574 66.3922 148.574C68.8118 148.574 70.6066 147.424 71.8445 145.359C72.4201 144.398 72.6882 143.346 72.6882 142.229C72.6882 140.076 71.6767 138.396 69.9546 137.149C68.9105 136.393 67.7352 136.013 66.4535 136.013C63.8161 136.013 61.9181 137.355 60.779 139.74C60.3947 140.546 60.2192 141.401 60.2192 142.293V142.293ZM86.7571 132.84H87.1934C90.8407 132.84 93.6146 134.622 95.3724 137.829C96.0752 139.112 96.4514 140.513 96.4514 141.98V142.608C96.4514 146.045 94.7687 148.784 91.8263 150.523C90.4641 151.328 88.9594 151.745 87.3807 151.745H86.7571C83.3438 151.745 80.6312 150.045 78.8994 147.088C78.1005 145.732 77.6812 144.184 77.6859 142.608V141.98C77.6859 138.541 79.3796 135.816 82.3078 134.062C83.6692 133.248 85.1751 132.84 86.7571 132.84ZM80.834 142.293C80.834 144.703 82.008 146.477 84.0291 147.724C84.9781 148.309 86.0234 148.574 87.132 148.574C89.4964 148.574 91.2441 147.366 92.4604 145.356C93.0406 144.398 93.303 143.345 93.303 142.229C93.303 139.988 92.2313 138.275 90.3991 137.035C89.3953 136.354 88.2777 136.013 87.0687 136.013C84.4313 136.013 82.5333 137.355 81.3946 139.74C81.0095 140.546 80.834 141.401 80.834 142.293V142.293ZM109.538 136.266C109.063 136.042 108.173 135.968 107.659 135.948C105.029 135.848 103.127 137.34 102.01 139.677C101.625 140.484 101.449 141.337 101.449 142.229C101.449 144.945 102.864 146.847 105.271 148.006C106.15 148.429 107.285 148.509 108.246 148.509C109.091 148.509 110.285 147.988 111.035 147.629L111.165 147.567H111.748L111.812 147.58C112.528 147.73 113.068 148.187 113.068 148.963V149.277C113.068 151.208 109.565 151.65 108.229 151.744C103.512 152.072 99.9846 149.463 98.6399 144.931C98.4063 144.144 98.3011 143.363 98.3011 142.543V141.915C98.3011 138.477 99.9951 135.753 102.923 134.001C104.284 133.187 105.79 132.777 107.371 132.777H107.995C109.673 132.777 111.219 133.257 112.604 134.211L112.718 134.29L112.79 134.409C112.939 134.659 113.068 134.948 113.068 135.245V135.559C113.068 136.368 112.467 136.804 111.741 136.945L111.681 136.955H111.495C111.025 136.955 109.957 136.465 109.538 136.266V136.266ZM119.749 138.414C120.971 137.18 122.198 135.949 123.439 134.736C123.785 134.398 125.094 132.966 125.61 132.966H126.174L126.238 132.979C126.956 133.129 127.494 133.587 127.494 134.365V134.678C127.494 135.209 126.878 135.825 126.537 136.188C125.814 136.96 125.053 137.707 124.313 138.463L120.51 142.352C122.147 144.006 123.783 145.66 125.407 147.326C125.858 147.786 126.305 148.249 126.748 148.716C126.905 148.882 127.135 149.088 127.267 149.318C127.408 149.533 127.494 149.775 127.494 150.034V150.362L127.476 150.438C127.299 151.161 126.843 151.745 126.048 151.745H125.797C125.276 151.745 124.688 151.151 124.331 150.812C123.596 150.114 122.886 149.38 122.165 148.666L119.749 146.277V150.096C119.749 150.976 119.202 151.683 118.299 151.683H118.051C117.147 151.683 116.601 150.976 116.601 150.096V128.573C116.601 127.693 117.147 126.989 118.051 126.989H118.299C119.202 126.989 119.749 127.693 119.749 128.573V138.414V138.414ZM158.983 132.966H159.296C160.24 132.966 160.87 133.606 160.87 134.552C160.87 135.865 159.624 136.201 158.546 136.201C157.133 136.201 155.783 137.063 154.808 138.03C153.593 139.237 153.061 140.783 153.061 142.482V150.158C153.061 151.038 152.516 151.745 151.611 151.745H151.362C150.457 151.745 149.912 151.039 149.912 150.158V142.041C149.912 138.924 151.419 136.379 153.93 134.595C155.43 133.529 157.147 132.966 158.983 132.966V132.966ZM136.609 148.179C137.755 148.582 139.061 148.524 140.236 148.318C140.837 148.061 142.375 147.385 142.94 147.484L143.028 147.499L143.11 147.539C143.455 147.708 143.784 147.947 143.961 148.301C144.373 149.13 144.175 149.964 143.366 150.435L143.096 150.592C140.11 152.328 136.934 152.087 133.958 150.466C132.535 149.691 131.446 148.54 130.643 147.138L130.455 146.81C128.538 143.466 128.797 139.948 130.959 136.768C131.705 135.669 132.68 134.82 133.821 134.156L134.252 133.905C137.064 132.27 140.078 132.382 142.966 133.817C144.519 134.589 145.777 135.739 146.644 137.252L146.8 137.524C147.43 138.624 146.614 139.581 145.772 140.236C144.795 140.995 143.808 141.91 142.871 142.724C140.782 144.541 138.697 146.361 136.609 148.179V148.179ZM133.906 146.266C136.242 144.249 138.578 142.229 140.908 140.203C141.704 139.512 142.577 138.794 143.367 138.067C142.733 137.262 141.675 136.682 140.775 136.336C138.959 135.64 137.169 135.874 135.504 136.842C133.324 138.11 132.396 140.128 132.477 142.641C132.51 143.63 132.774 144.584 133.295 145.425C133.479 145.722 133.684 146.001 133.906 146.266ZM116.917 82.7229H126.206V92.2886H130.903C133.072 92.2886 135.303 91.8994 137.357 91.1984C138.367 90.8534 139.499 90.3738 140.495 89.7702C139.184 88.0457 138.514 85.8682 138.318 83.7218C138.049 80.802 138.634 77.0019 140.596 74.7168L141.572 73.5792L142.736 74.5216C145.665 76.8923 148.129 80.2053 148.564 83.9821C152.091 82.9369 156.233 83.1841 159.342 84.9917L160.617 85.7332L159.946 87.0533C157.317 92.2227 151.819 93.8244 146.444 93.5408C138.402 113.719 120.892 123.272 99.6616 123.272C88.6929 123.272 78.63 119.142 72.8995 109.339L72.8056 109.18L71.9708 107.468C70.0338 103.154 69.3903 98.4266 69.8266 93.7033L69.9578 92.2886H77.9016V82.7229H87.1906V73.3655H105.77V64.0082H116.917V82.7229Z" fill="#121212"/>
<path fill-rule="evenodd" clip-rule="evenodd" d="M147.013 86.2619C147.636 81.3855 144.013 77.5556 141.767 75.737C139.178 78.7522 138.775 86.6543 142.837 89.9813C140.57 92.0095 135.794 93.8477 130.903 93.8477H71.3691C70.8938 98.9905 71.79 103.726 73.8371 107.78L74.5143 109.028C74.9431 109.761 75.4117 110.469 75.9179 111.149C78.3655 111.308 80.6223 111.362 82.6868 111.316C86.744 111.226 90.0554 110.743 92.5644 109.868C92.7418 109.812 92.9336 109.828 93.0994 109.913C93.2652 109.997 93.392 110.143 93.4528 110.32C93.5137 110.497 93.5039 110.69 93.4255 110.86C93.3471 111.03 93.2063 111.162 93.0328 111.229C92.6988 111.346 92.3511 111.455 91.992 111.558H91.9908C90.0152 112.127 87.8966 112.509 85.1633 112.679C85.3258 112.682 84.9935 112.703 84.9935 112.703C84.9005 112.709 84.7835 112.723 84.69 112.728C83.6143 112.789 82.4532 112.801 81.2662 112.801C79.9678 112.801 78.6893 112.777 77.2597 112.703L77.2232 112.728C82.1835 118.344 89.9396 121.712 99.662 121.712C120.238 121.712 137.69 112.524 145.419 91.8973C150.901 92.4641 156.171 91.0556 158.568 86.3421C154.75 84.1229 149.84 84.8304 147.013 86.2619Z" fill="#969696"/>
<path fill-rule="evenodd" clip-rule="evenodd" d="M147.013 86.2619C147.636 81.3855 144.013 77.5556 141.767 75.737C139.177 78.7522 138.775 86.6543 142.837 89.9813C140.57 92.0095 135.794 93.8477 130.903 93.8477H74.8945C74.6516 101.724 77.553 107.702 82.6864 111.316H82.6876C86.7448 111.226 90.0553 110.743 92.5643 109.868C92.7417 109.812 92.9336 109.828 93.0994 109.913C93.2652 109.997 93.3919 110.143 93.4528 110.32C93.5136 110.497 93.5038 110.69 93.4254 110.86C93.347 111.03 93.2062 111.162 93.0328 111.229C92.6988 111.346 92.3511 111.455 91.9919 111.558H91.9907C90.0151 112.127 87.7145 112.558 84.9813 112.728C84.9805 112.728 84.9151 112.664 84.9143 112.664C91.9168 116.283 102.07 116.27 113.711 111.765C126.764 106.714 138.911 97.0904 147.385 86.0835C147.258 86.1416 147.133 86.2009 147.013 86.2619" fill="#C2C2C2"/>
<path fill-rule="evenodd" clip-rule="evenodd" d="M71.4807 100.096C71.8504 102.851 72.6507 105.43 73.837 107.78L74.5142 109.028C74.9429 109.761 75.4115 110.469 75.9178 111.149C78.3658 111.308 80.6226 111.362 82.6875 111.316C86.7447 111.226 90.0553 110.743 92.5643 109.868C92.7417 109.812 92.9335 109.828 93.0993 109.913C93.2651 109.997 93.3919 110.143 93.4527 110.32C93.5136 110.497 93.5037 110.69 93.4254 110.86C93.347 111.03 93.2061 111.162 93.0327 111.229C92.6987 111.346 92.351 111.455 91.9919 111.558H91.9906C90.0151 112.127 87.7266 112.533 84.9934 112.704C84.8996 112.709 84.7358 112.711 84.6412 112.716C83.5662 112.776 82.417 112.814 81.2295 112.814C79.9315 112.814 78.6039 112.789 77.1751 112.716C82.1354 118.332 89.9395 121.712 99.6619 121.712C117.277 121.712 132.602 114.977 141.497 100.096H71.4807Z" fill="#969696"/>
<path fill-rule="evenodd" clip-rule="evenodd" d="M75.4304 100.096C76.4834 104.933 79.014 108.73 82.6877 111.316C86.7449 111.226 90.0554 110.743 92.5644 109.868C92.7418 109.812 92.9337 109.828 93.0995 109.913C93.2653 109.997 93.392 110.143 93.4529 110.32C93.5137 110.497 93.5039 110.69 93.4255 110.86C93.3471 111.03 93.2063 111.162 93.0328 111.229C92.6989 111.346 92.3511 111.455 91.992 111.558H91.9908C90.0152 112.127 87.6785 112.533 84.9448 112.704C91.9469 116.321 102.071 116.269 113.711 111.765C120.753 109.04 127.531 104.983 133.611 100.096H75.4304Z" fill="#C2C2C2"/>
<path fill-rule="evenodd" clip-rule="evenodd" d="M79.4495 84.2825H87.5005V92.3925H79.4495V84.2825ZM80.1202 84.9585H80.7556V91.7169H80.1202V84.9585ZM81.3146 84.9585H81.9755V91.7169H81.315V84.9585H81.3146ZM82.5341 84.9585H83.1951V91.7169H82.5341V84.9585ZM83.7545 84.9585H84.4151V91.7169H83.7545V84.9585ZM84.9745 84.9585H85.635V91.7169H84.9745V84.9585ZM86.194 84.9585H86.8298V91.7169H86.194V84.9585ZM88.7388 74.9251H96.7902V83.0347H88.7384V74.9251H88.7388ZM89.4099 75.6012H90.0449V82.3591H89.4099V75.6012ZM90.6043 75.6012H91.2648V82.3591H90.6047V75.6012H90.6043ZM91.8238 75.6012H92.4844V82.3591H91.8238V75.6012ZM93.0438 75.6012H93.7044V82.3591H93.0438V75.6012ZM94.2638 75.6012H94.9247V82.3591H94.2638V75.6012ZM95.4833 75.6012H96.1195V82.3591H95.4833V75.6012Z" fill="#969696"/>
<path fill-rule="evenodd" clip-rule="evenodd" d="M88.7387 84.2825H96.7902V92.3925H88.7383V84.2825H88.7387ZM89.4098 84.9585H90.0448V91.7169H89.4098V84.9585ZM90.6042 84.9585H91.2648V91.7169H90.6046V84.9585H90.6042ZM91.8238 84.9585H92.4843V91.7169H91.8238V84.9585ZM93.0437 84.9585H93.7043V91.7169H93.0437V84.9585ZM94.2637 84.9585H94.9247V91.7169H94.2637V84.9585ZM95.4832 84.9585H96.1194V91.7169H95.4832V84.9585Z" fill="#969696"/>
<path fill-rule="evenodd" clip-rule="evenodd" d="M98.0283 84.2825H106.079V92.3925H98.0283V84.2825ZM98.699 84.9585H99.334V91.7169H98.699V84.9585ZM99.8934 84.9585H100.554V91.7169H99.8934V84.9585ZM101.113 84.9585H101.774V91.7169H101.113V84.9585ZM102.333 84.9585H102.994V91.7169H102.333V84.9585ZM103.553 84.9585H104.214V91.7169H103.553V84.9585ZM104.773 84.9585H105.408V91.7169H104.773V84.9585V84.9585Z" fill="#969696"/>
<path fill-rule="evenodd" clip-rule="evenodd" d="M98.0283 74.9251H106.079V83.0347H98.0283V74.9251ZM98.699 75.6012H99.334V82.3591H98.699V75.6012ZM99.8934 75.6012H100.554V82.3591H99.8934V75.6012ZM101.113 75.6012H101.774V82.3591H101.113V75.6012ZM102.333 75.6012H102.994V82.3591H102.333V75.6012ZM103.553 75.6012H104.214V82.3591H103.553V75.6012ZM104.773 75.6012H105.408V82.3591H104.773V75.6012V75.6012ZM107.318 84.2825H115.369V92.3925H107.318V84.2825ZM107.989 84.9585H108.624V91.7169H107.989V84.9585ZM109.183 84.9585H109.844V91.7169H109.183V84.9585ZM110.403 84.9585H111.063V91.7169H110.403V84.9585ZM111.623 84.9585H112.284V91.7169H111.623V84.9585ZM112.843 84.9585H113.504V91.7169H112.843V84.9585ZM114.063 84.9585H114.698V91.7169H114.063V84.9585Z" fill="#969696"/>
<path fill-rule="evenodd" clip-rule="evenodd" d="M107.318 74.9251H115.369V83.0347H107.318V74.9251ZM107.989 75.6012H108.624V82.3591H107.989V75.6012ZM109.183 75.6012H109.844V82.3591H109.183V75.6012ZM110.403 75.6012H111.063V82.3591H110.403V75.6012ZM111.623 75.6012H112.284V82.3591H111.623V75.6012ZM112.843 75.6012H113.504V82.3591H112.843V75.6012ZM114.063 75.6012H114.698V82.3591H114.063V75.6012Z" fill="#969696"/>
<path fill-rule="evenodd" clip-rule="evenodd" d="M107.318 65.5673H115.369V73.6782H107.318V65.5673ZM107.989 66.243H108.624V73.0017H107.989V66.2425V66.243ZM109.183 66.243H109.844V73.0017H109.183V66.2425V66.243ZM110.403 66.243H111.063V73.0017H110.403V66.2425V66.243ZM111.623 66.243H112.284V73.0017H111.623V66.2425V66.243ZM112.843 66.243H113.504V73.0017H112.843V66.2425V66.243ZM114.063 66.243H114.698V73.0017H114.063V66.2425V66.243Z" fill="#969696"/>
<path fill-rule="evenodd" clip-rule="evenodd" d="M116.607 84.2825H124.658V92.3925H116.607V84.2825ZM117.277 84.9585H117.913V91.7169H117.278V84.9585H117.277ZM118.472 84.9585H119.133V91.7169H118.472V84.9585H118.472ZM119.692 84.9585H120.353V91.7169H119.692V84.9585ZM120.912 84.9585H121.573V91.7169H120.912V84.9585ZM122.132 84.9585H122.792V91.7169H122.132V84.9585ZM123.351 84.9585H123.987V91.7169H123.351V84.9585Z" fill="#969696"/>
<path fill-rule="evenodd" clip-rule="evenodd" d="M96.286 105.541C96.5802 105.537 96.8723 105.592 97.1452 105.703C97.4182 105.814 97.6666 105.978 97.876 106.186C98.0854 106.394 98.2517 106.642 98.3652 106.916C98.4786 107.189 98.537 107.483 98.537 107.779C98.5369 108.076 98.4784 108.369 98.3649 108.642C98.2513 108.916 98.0849 109.164 97.8754 109.372C97.6659 109.58 97.4175 109.744 97.1445 109.855C96.8715 109.965 96.5794 110.02 96.2852 110.016C95.7013 110.008 95.144 109.769 94.734 109.35C94.324 108.931 94.0941 108.367 94.0942 107.778C94.0943 107.19 94.3244 106.626 94.7346 106.207C95.1447 105.788 95.7021 105.549 96.286 105.541Z" fill="#969696"/>
<path fill-rule="evenodd" clip-rule="evenodd" d="M96.286 106.176C96.4891 106.176 96.6829 106.215 96.8617 106.284C96.7383 106.357 96.642 106.468 96.5875 106.6C96.5331 106.733 96.5236 106.88 96.5605 107.019C96.5974 107.158 96.6786 107.281 96.7917 107.368C96.9047 107.456 97.0432 107.504 97.1858 107.504C97.4316 107.504 97.6449 107.367 97.7554 107.164C97.8862 107.481 97.9122 107.833 97.8296 108.166C97.7469 108.5 97.5599 108.798 97.2963 109.016C97.0326 109.234 96.7063 109.361 96.3655 109.378C96.0246 109.395 95.6874 109.302 95.4036 109.111C95.1197 108.92 94.9044 108.642 94.7892 108.319C94.6741 107.995 94.6654 107.643 94.7643 107.314C94.8632 106.985 95.0646 106.697 95.3386 106.492C95.6126 106.287 95.9448 106.176 96.286 106.176ZM57 100.905H160.32C158.071 100.33 153.203 99.5535 154.006 96.5834C149.915 101.352 140.05 99.9288 137.56 97.5778C134.788 101.628 118.647 100.088 117.522 96.9329C114.046 101.042 103.276 101.042 99.7997 96.9329C98.6731 100.088 82.5332 101.628 79.7606 97.5774C77.2711 99.9288 67.4065 101.352 63.3156 96.5838C64.1183 99.5535 59.2502 100.33 57 100.905Z" fill="#A4A3A3"/>
<path fill-rule="evenodd" clip-rule="evenodd" d="M102.19 121.664C96.6893 119.035 93.6705 115.46 91.9907 111.559C89.9472 112.146 87.4914 112.522 84.6375 112.683C83.5626 112.743 82.4316 112.774 81.2453 112.774C79.8771 112.774 78.4353 112.733 76.9216 112.653C81.966 117.731 88.1715 121.641 99.6619 121.712C100.51 121.712 101.352 121.696 102.19 121.664" fill="#858585"/>
<path fill-rule="evenodd" clip-rule="evenodd" d="M94.0339 115.159C93.2729 114.118 92.5348 112.81 91.992 111.558C89.9486 112.146 87.492 112.522 84.6377 112.683C86.5983 113.755 89.4018 114.748 94.0343 115.159" fill="#C2C2C2"/>
</g>
<defs>
<clipPath id="clip0_1228_9953">
<rect width="104" height="88" fill="white" transform="translate(57 64)"/>
</clipPath>
</defs>
</svg>
