<svg width="217" height="217" viewBox="0 0 217 217" fill="none" xmlns="http://www.w3.org/2000/svg">
<path d="M81.6666 123.671V92.944H83.3437V97.7773C83.5417 97.563 83.7246 97.3354 83.8911 97.096C85.2918 94.208 88.2461 92.3853 91.4715 92.4213C95.2952 92.308 98.4025 93.7147 100.229 97.096C101.391 99.1966 102.03 101.543 102.093 103.939C102.157 106.336 101.643 108.712 100.593 110.871C98.8923 114.66 94.6902 116.544 90.1916 115.852C88.7915 115.734 87.4436 115.269 86.2709 114.5C85.0981 113.731 84.1379 112.682 83.4778 111.449V123.669L81.6666 123.671ZM83.3437 103.813L83.7193 107.421C84.3821 111.528 86.8253 113.955 90.6611 114.411C92.4625 114.705 94.3108 114.369 95.891 113.461C97.4712 112.553 98.6855 111.128 99.327 109.429C100.819 105.896 100.709 101.896 99.0318 98.4453C98.3472 96.9228 97.1825 95.663 95.7138 94.8565C94.245 94.0499 92.552 93.7404 90.8906 93.9747C89.3311 94.0874 87.8456 94.68 86.6405 95.6702C85.4355 96.6604 84.5706 97.999 84.1661 99.5C83.809 100.92 83.5344 102.36 83.3437 103.812V103.813ZM136.337 107.989C136.082 110.153 135.046 112.151 133.421 113.612C131.795 115.073 129.691 115.897 127.499 115.932C120.466 116.284 117.166 111.643 116.641 106.287C116.276 103.378 116.751 100.426 118.011 97.776C118.888 95.9578 120.324 94.4643 122.112 93.5116C123.9 92.5589 125.946 92.1967 127.955 92.4773C129.865 92.6387 131.676 93.3928 133.13 94.633C134.585 95.8732 135.611 97.5367 136.062 99.388C136.419 101.074 136.682 102.779 136.849 104.495H118.379C118.036 109.351 120.662 113.255 124.384 114.196C129.019 115.329 132.981 113.333 134.42 108.953C134.739 107.829 135.321 107.671 136.349 107.989H136.337ZM118.365 102.94H134.886C134.783 97.7667 131.542 94.0067 127.145 93.964C122.181 93.884 118.581 97.4933 118.365 102.94ZM139.751 108.103H141.371C141.43 109.288 141.818 110.435 142.49 111.416C143.163 112.397 144.095 113.174 145.184 113.663C146.551 114.274 148.039 114.571 149.537 114.532C151.036 114.493 152.506 114.118 153.839 113.436C154.565 113.111 155.174 112.572 155.582 111.892C155.991 111.212 156.179 110.424 156.122 109.635C156.164 108.873 155.955 108.119 155.526 107.486C155.098 106.853 154.473 106.376 153.748 106.128C151.966 105.469 150.071 105.107 148.256 104.528C146.367 103.994 144.52 103.322 142.73 102.52C139.805 101.101 139.624 95.576 142.935 93.8267C144.631 92.8759 146.539 92.3621 148.485 92.3323C150.432 92.3025 152.355 92.7576 154.079 93.656C156.218 94.8293 157.4 97.1987 157.048 99.6027H155.66C155.66 99.536 155.533 99.4773 155.533 99.4093C155.362 95.0093 151.64 93.6333 147.644 94.02C146.437 94.1533 145.292 94.516 144.219 95.052C143.574 95.3448 143.036 95.8297 142.68 96.4395C142.325 97.0494 142.169 97.754 142.233 98.456C142.235 99.1585 142.455 99.8433 142.864 100.416C143.273 100.989 143.85 101.422 144.517 101.656C146.261 102.292 148.113 102.7 149.917 103.199L154.278 104.332C155.269 104.655 156.138 105.27 156.77 106.095C157.402 106.919 157.767 107.915 157.817 108.951C158.166 111.277 156.972 113.564 154.86 114.624C151.047 116.768 144.767 116.201 141.969 113.491C140.538 112.06 139.739 110.117 139.755 108.101L139.751 108.103ZM178.365 99.604H176.846C176.846 99.4 176.765 99.204 176.742 99.048C176.718 97.9166 176.303 96.8279 175.567 95.9644C174.831 95.101 173.819 94.5152 172.7 94.3053C170.589 93.7037 168.338 93.8115 166.295 94.612C165.487 94.8417 164.776 95.3251 164.268 95.9899C163.759 96.6546 163.481 97.4651 163.475 98.3C163.446 99.1198 163.703 99.9244 164.202 100.578C164.701 101.231 165.412 101.693 166.214 101.885L173.156 103.656C173.907 103.835 174.646 104.058 175.37 104.325C177.584 105.125 179.086 107.168 179.153 109.503C179.187 110.645 178.871 111.771 178.249 112.733C177.626 113.694 176.725 114.446 175.665 114.889C174.054 115.617 172.308 116.001 170.538 116.019C168.769 116.037 167.015 115.687 165.389 114.992C164.052 114.419 162.924 113.453 162.157 112.224C161.389 110.994 161.019 109.561 161.096 108.116H162.58C163.138 110.789 164.985 113.016 167.52 114.069C170.054 115.123 172.948 114.864 175.253 113.381C175.945 113.024 176.519 112.477 176.907 111.805C177.296 111.134 177.483 110.366 177.446 109.592C177.48 108.83 177.263 108.077 176.828 107.449C176.394 106.82 175.764 106.349 175.036 106.108C173.254 105.449 171.36 105.099 169.544 104.508C167.645 103.982 165.787 103.318 163.985 102.523C161.13 101.127 160.901 95.6467 164.156 93.8987C165.873 92.908 167.818 92.3757 169.803 92.3538C171.788 92.3318 173.744 92.8209 175.483 93.7733C176.477 94.363 177.277 95.2272 177.786 96.2608C178.295 97.2944 178.49 98.4527 178.348 99.5947L178.365 99.604ZM78.9068 115.377C78.309 115.602 77.6491 115.601 77.0516 115.376C76.4542 115.15 75.9606 114.715 75.664 114.152L69.7607 106.039L68.9047 104.905L62.0541 114.164C61.7749 114.702 61.308 115.121 60.7406 115.343C60.1732 115.564 59.5442 115.573 58.971 115.367L67.7965 103.6L59.5855 92.968C60.8037 92.5307 62.1615 93.0053 62.839 94.1013L68.957 102.315L75.1112 94.1333C75.3925 93.6041 75.8597 93.1961 76.424 92.9869C76.9882 92.7777 77.6102 92.7819 78.1716 92.9987L74.9851 97.2L70.669 102.783C70.5492 102.889 70.4533 103.019 70.3877 103.165C70.3221 103.311 70.2882 103.468 70.2882 103.628C70.2882 103.788 70.3221 103.945 70.3877 104.091C70.4533 104.237 70.5492 104.367 70.669 104.473L78.8894 115.377H78.9068ZM116.38 92.8547V94.4547C115.225 94.3794 114.067 94.5456 112.981 94.9425C111.895 95.3395 110.904 95.9583 110.074 96.7592C109.243 97.56 108.59 98.525 108.158 99.5919C107.726 100.659 107.524 101.804 107.565 102.953C107.565 106.69 107.565 110.427 107.565 114.164V115.435H105.932V92.9547H107.542V97.5613C109.517 94.2013 112.565 92.9547 116.39 92.864L116.38 92.8547ZM37.8384 103.453L38.5575 99.924C40.5324 92.9453 48.5824 90.0413 54.1208 94.364C57.3637 96.8947 58.1727 100.48 58.0144 104.52H39.7449C39.4497 111.736 44.6889 116.093 51.3906 113.869C53.5989 113.069 55.2613 111.245 55.8087 108.979C56.1629 107.845 56.7478 107.651 57.8185 107.979C57.6399 109.36 57.1485 110.683 56.3812 111.849C55.6138 113.015 54.5905 113.992 53.3883 114.708C51.402 115.788 49.1232 116.215 46.8775 115.93C44.6319 115.645 42.5345 114.661 40.8853 113.12C39.2538 111.297 38.2691 108.993 38.0772 106.56C38.0772 106.16 37.943 105.787 37.8491 105.427C37.8402 104.754 37.8357 104.096 37.8357 103.453H37.8384ZM39.7677 102.965H56.289C56.1857 97.7347 52.8637 94.024 48.4335 93.9893C43.5016 93.9227 39.973 97.552 39.7556 102.943L39.7677 102.965Z" fill="#121212"/>
</svg>
