<svg width="217" height="217" viewBox="0 0 217 217" fill="none" xmlns="http://www.w3.org/2000/svg">
<g clip-path="url(#clip0_1228_9917)">
<path d="M108.523 143.013L122.691 100.019H94.3545L108.522 143.013H108.523Z" fill="#DADADA"/>
<path d="M108.523 143.012L94.3543 100.019H74.4985L108.523 143.012Z" fill="#C2C2C2"/>
<path d="M74.4983 100.019L70.1929 113.084C70.0015 113.665 70.0015 114.291 70.1928 114.872C70.3842 115.453 70.7572 115.959 71.2583 116.318L108.522 143.013L74.4983 100.019Z" fill="#868686"/>
<path d="M74.4985 100.019H94.3543L85.8214 74.124C85.3823 72.7915 83.4705 72.7918 83.0317 74.124L74.4985 100.019Z" fill="#A6A6A6"/>
<path d="M108.523 143.012L122.691 100.019H142.547L108.522 143.012H108.523Z" fill="#C2C2C2"/>
<path d="M142.547 100.019L146.852 113.084C147.043 113.665 147.043 114.291 146.852 114.872C146.66 115.453 146.287 115.959 145.786 116.318L108.522 143.013L142.547 100.019V100.019Z" fill="#868686"/>
<path d="M142.547 100.019H122.69L131.224 74.124C131.663 72.7915 133.575 72.7918 134.013 74.124L142.547 100.019Z" fill="#A6A6A6"/>
</g>
<defs>
<clipPath id="clip0_1228_9917">
<rect width="77" height="70" fill="white" transform="translate(70 73)"/>
</clipPath>
</defs>
</svg>
