<svg width="217" height="217" viewBox="0 0 217 217" fill="none" xmlns="http://www.w3.org/2000/svg">
<path d="M63.9973 100.939C63.8519 100.939 63.7065 100.794 63.8519 100.648L64.8697 99.1941C65.0151 99.0487 65.1605 98.9033 65.4513 98.9033H83.7723C83.9177 98.9033 84.0631 99.0487 83.9177 99.1941L83.0453 100.503C82.8999 100.648 82.7545 100.794 82.4637 100.794L63.9973 100.939ZM56.2908 105.592C56.1454 105.592 56 105.447 56.1454 105.301L57.1633 103.847C57.3087 103.702 57.4541 103.556 57.7449 103.556H81.155C81.3004 103.556 81.4458 103.702 81.4458 103.847L81.0096 105.301C81.0096 105.447 80.7188 105.592 80.5734 105.592H56.2908ZM68.6502 110.39C68.5048 110.39 68.3594 110.245 68.5048 110.099L69.2319 108.791C69.3773 108.645 69.5227 108.5 69.8135 108.5H79.9918C80.1372 108.5 80.2826 108.645 80.2826 108.791L80.1372 109.954C80.1372 110.099 79.9918 110.245 79.8464 110.245L68.6502 110.39ZM121.868 99.9211L113.289 102.102C112.562 102.248 112.417 102.393 111.835 101.521C111.108 100.648 110.527 100.067 109.364 99.6303C106.165 98.0309 102.966 98.4671 100.058 100.357C96.5679 102.538 94.8231 105.883 94.8231 110.099C94.8231 114.171 97.7312 117.515 101.802 118.097C105.292 118.533 108.2 117.37 110.527 114.752C110.963 114.171 111.399 113.589 111.981 112.862H102.093C101.075 112.862 100.785 112.135 101.075 111.263C101.802 109.663 102.966 107.046 103.693 105.737C103.838 105.447 104.274 104.865 105.001 104.865H123.613C123.468 106.319 123.468 107.628 123.322 109.082C122.741 112.717 121.432 116.206 119.106 119.115C115.471 123.913 110.672 126.966 104.565 127.839C99.476 128.566 94.8231 127.548 90.7517 124.495C86.9712 121.586 84.7902 117.806 84.2085 113.153C83.4815 107.628 85.2264 102.538 88.5707 98.1763C92.2058 93.3779 97.0041 90.3244 102.966 89.3066C107.764 88.4342 112.417 89.0158 116.488 91.7785C119.251 93.5233 121.141 95.9952 122.45 99.0487C122.595 99.6303 122.45 99.7757 121.868 99.9211V99.9211Z" fill="#121212"/>
<path d="M138.735 128.275C134.082 128.13 129.866 126.821 126.231 123.767C123.177 121.15 121.287 117.806 120.705 113.88C119.833 108.064 121.432 102.975 124.922 98.4671C128.702 93.5233 133.21 91.0514 139.317 89.8882C144.552 89.0158 149.495 89.452 153.857 92.5055C157.929 95.2682 160.401 99.0487 161.128 103.992C162 110.972 159.964 116.497 155.311 121.296C151.967 124.785 147.75 126.821 143.098 127.839C141.498 128.13 140.044 128.13 138.735 128.275V128.275ZM150.949 107.628C150.949 106.901 150.949 106.464 150.804 105.883C149.932 100.794 145.279 97.8855 140.335 99.0487C135.536 100.067 132.483 103.12 131.32 107.918C130.447 111.844 132.338 115.916 135.973 117.66C138.735 118.824 141.643 118.678 144.261 117.37C148.477 115.334 150.659 111.99 150.949 107.628Z" fill="#121212"/>
</svg>
