<svg width="217" height="217" viewBox="0 0 217 217" fill="none" xmlns="http://www.w3.org/2000/svg">
<g clip-path="url(#clip0_1228_9885)">
<path fill-rule="evenodd" clip-rule="evenodd" d="M142 75H75V142H142V75ZM128.129 118.002C134.033 120.397 136.026 122.964 136.516 126.021C136.988 128.651 136.402 130.358 136.313 130.613C134.134 138.064 121.989 138.306 117.136 133.383C116.989 133.216 116.849 133.061 116.717 132.914C115.926 132.035 115.38 131.427 114.856 130.281L114.86 130.279C117.435 128.797 117.437 128.797 119.945 127.345C121.308 129.441 122.569 130.593 124.836 131.065C127.912 131.44 131.007 130.383 130.313 127.116C129.9 125.569 127.848 124.7 125.456 123.688C123.723 122.954 121.81 122.144 120.212 120.945C116.353 118.353 115.448 112.054 118.62 108.455C119.677 107.124 121.48 106.131 123.371 105.653C123.697 105.612 124.025 105.569 124.353 105.526C124.684 105.483 125.016 105.44 125.345 105.398C129.135 105.322 131.504 106.322 133.243 108.264C133.727 108.755 134.122 109.283 134.861 110.43C134.444 110.695 134.113 110.905 133.826 111.088C132.721 111.791 132.251 112.09 129.957 113.576C129.339 112.245 128.313 111.411 127.231 111.048C125.549 110.538 123.428 111.092 122.989 112.869C122.836 113.417 122.868 113.926 123.11 114.831C123.662 116.088 125.265 116.77 126.943 117.484C127.338 117.653 127.738 117.823 128.129 118.002ZM105.156 105.793H111.423C111.423 107.716 111.427 109.636 111.43 111.556C111.437 115.39 111.444 119.218 111.423 123.046C111.425 123.566 111.433 124.079 111.442 124.583C111.488 127.496 111.531 130.141 110.315 132.383C109.328 134.389 107.443 135.708 105.258 136.344C101.902 137.115 98.692 136.676 96.3037 135.243C94.7051 134.262 93.4569 132.752 92.6097 131.014C93.4591 130.495 94.3069 129.975 95.1546 129.455C96.0042 128.934 96.8537 128.413 97.7048 127.893C97.7446 127.91 97.855 128.104 98.0046 128.366C98.023 128.399 98.042 128.432 98.0615 128.466C98.7111 129.555 99.2716 130.326 100.373 130.867C101.456 131.237 103.832 131.472 104.749 129.568C105.196 128.796 105.173 126.629 105.145 124.035C105.138 123.377 105.131 122.692 105.131 121.996C105.131 119.289 105.137 116.592 105.144 113.894C105.15 111.197 105.156 108.5 105.156 105.793Z" fill="#121212"/>
</g>
<defs>
<clipPath id="clip0_1228_9885">
<rect width="67" height="67" fill="white" transform="translate(75 75)"/>
</clipPath>
</defs>
</svg>
