<svg width="217" height="217" viewBox="0 0 217 217" fill="none" xmlns="http://www.w3.org/2000/svg">
<path d="M57.8382 79.013L59.1099 81.4047C59.3867 81.8361 59.709 82.2366 60.0712 82.5993C61.1364 83.6645 62.1502 84.781 63.0579 85.9768C65.2139 88.8083 66.6687 91.9525 67.7082 95.3568C68.3312 97.4358 68.6696 99.5662 68.6952 101.722C68.8002 108.166 66.5906 113.699 62.1222 118.298C61.3982 119.027 60.6163 119.696 59.7842 120.299C59.3409 120.299 59.1344 119.949 58.9524 119.649C58.6024 119.066 58.4064 118.428 58.3026 117.779C58.1462 117 58.0424 116.22 58.0949 115.414V115.05C58.0692 114.972 57.6796 79.1962 57.8347 79.0142L57.8382 79.013Z" fill="#121212"/>
<path d="M57.8382 78.936C57.7857 78.831 57.7332 78.9103 57.6819 78.9616C57.7075 79.4808 57.5255 79.9486 57.2385 80.3908C56.927 80.8341 56.5105 81.1701 56.0952 81.5341C53.7829 83.535 51.9652 85.9511 50.5092 88.6531C48.5865 92.2908 47.5739 96.1875 47.2892 100.293C47.1609 101.775 47.7559 106.997 48.2249 108.503C49.4965 112.504 51.7832 115.855 54.7582 118.765C55.4862 119.465 56.2655 120.116 57.0705 120.739C57.3039 120.739 57.3307 120.531 57.382 120.375C57.4844 120.043 57.5624 119.704 57.6154 119.361C57.8487 118.062 57.9794 116.763 58.1345 115.464L57.8487 78.936H57.8382Z" fill="#121212"/>
<path d="M59.1134 121.883C59.1659 121.286 59.4634 120.792 59.7633 120.299C59.4518 120.171 59.2173 119.909 59.0353 119.622C58.8789 119.362 58.7494 119.039 58.6456 118.765C58.2816 117.674 58.2023 116.531 58.0996 115.413V114.736C57.9713 114.841 57.9433 115.723 57.9433 115.854C57.8651 117.049 57.7099 118.219 57.4766 119.361C57.3984 119.828 57.3483 120.297 57.0613 120.712C57.0613 120.764 57.0613 120.817 57.0869 120.894C57.5536 122.271 57.6843 123.674 57.7636 125.103V125.622C57.7636 126.245 57.7379 126.116 58.2571 126.322C58.4648 126.401 58.7004 126.427 58.9069 126.583C59.0633 126.583 59.0889 126.454 59.0889 126.349L59.0108 125.492V123.1C58.9851 122.685 59.0633 122.268 59.1158 121.879L59.1134 121.883Z" fill="#121212"/>
<path d="M78.8426 111.017V113.492C78.8398 113.59 78.8454 113.688 78.8592 113.785C78.8914 114.078 79.0713 114.257 79.3358 114.339C79.5825 114.404 79.8332 114.453 80.0863 114.485C80.2328 114.502 80.2817 114.566 80.2983 114.724C80.315 115.278 80.2662 115.343 79.7289 115.31C78.4756 115.244 77.2212 115.229 75.9679 115.31H75.8488C75.458 115.326 75.4259 115.293 75.4259 114.902C75.4259 114.837 75.4426 114.756 75.4426 114.69C75.4426 114.571 75.5236 114.512 75.6379 114.512C75.9 114.479 76.1431 114.414 76.3885 114.365C76.7304 114.284 76.9246 114.072 76.9579 113.73C77.0056 113.356 77.0056 112.965 77.0056 112.59L77.0222 108.227C77.0276 108.101 76.9969 107.975 76.9336 107.866C76.8703 107.756 76.7771 107.667 76.6648 107.608C76.3702 107.444 76.0587 107.313 75.7356 107.217C75.6379 107.185 75.5403 107.169 75.4592 107.119C75.221 107.005 75.215 106.794 75.4426 106.663C75.5236 106.616 75.6213 106.582 75.7189 106.565C76.707 106.42 77.6777 106.174 78.6162 105.833C78.8116 105.767 78.8604 105.785 78.8783 105.979C78.895 106.098 78.8783 106.241 78.8616 106.353C78.8295 106.565 78.8295 106.776 78.8295 106.973C78.8295 107.054 78.8461 107.136 78.9271 107.185C79.0082 107.234 79.0904 107.185 79.1654 107.137C79.5073 106.875 79.8492 106.632 80.2233 106.423C80.7594 106.129 81.3312 105.869 81.9507 105.788C82.7012 105.69 83.3505 105.885 83.9211 106.374C84.1571 106.585 84.3649 106.825 84.5394 107.09C84.7026 107.328 84.7181 107.334 84.9302 107.171C85.5496 106.714 86.2001 106.308 86.9006 106.015C87.6333 105.705 88.3826 105.658 89.1307 105.917C89.8956 106.194 90.4173 106.731 90.7271 107.464C90.9892 108.05 91.1012 108.655 91.1012 109.286V113.649C91.1012 113.942 91.2203 114.126 91.5086 114.269C91.8183 114.388 92.1602 114.447 92.4855 114.513C92.6975 114.56 92.6975 114.56 92.6975 114.775C92.6654 115.311 92.6165 115.344 92.0947 115.311C90.7881 115.238 89.4784 115.238 88.1717 115.311C87.9096 115.328 87.9096 115.328 87.8953 115.067V114.986C87.8787 114.545 87.8787 114.545 88.3028 114.45L88.7257 114.335C88.869 114.302 88.9967 114.221 89.0884 114.105C89.18 113.99 89.2302 113.847 89.2308 113.7L89.2785 112.479L89.2463 109.289C89.2338 109.004 89.1734 108.723 89.0676 108.458C88.6602 107.465 87.7655 107.108 86.9018 107.205C86.2501 107.271 85.6807 107.53 85.1434 107.906C85.029 107.987 84.948 108.084 84.9647 108.248C85.1112 109.29 85.0124 110.332 85.0302 111.374V113.637C85.0302 114.045 85.1934 114.24 85.5842 114.338L86.3347 114.501C86.4491 114.517 86.5134 114.566 86.5134 114.696V114.815C86.4967 115.272 86.4658 115.292 86.0083 115.287C84.7062 115.222 83.4029 115.239 82.1175 115.287C81.6767 115.304 81.641 115.255 81.6612 114.811C81.6779 114.548 81.7089 114.534 81.9543 114.485L82.4904 114.388C82.9669 114.29 83.142 114.111 83.1742 113.606L83.2218 112.515L83.1897 109.242C83.1575 108.835 83.0705 108.444 82.8478 108.07C82.5225 107.467 82.0138 107.159 81.3169 107.125C80.6164 107.078 79.9981 107.337 79.4108 107.661C79.0034 107.9 78.8247 108.182 78.8569 108.655V111.032L78.8426 111.017ZM109.515 111.116V113.412C109.518 113.575 109.529 113.738 109.547 113.9C109.554 114.008 109.596 114.111 109.667 114.194C109.737 114.276 109.832 114.333 109.938 114.357C110.219 114.439 110.508 114.488 110.801 114.503C110.964 114.52 110.996 114.584 111.013 114.715V114.83C110.996 115.399 110.932 115.465 110.378 115.432C109.139 115.351 107.903 115.367 106.666 115.432L106.189 115.449C106.091 115.449 106.07 115.401 106.043 115.335C105.995 115.109 105.995 114.876 106.043 114.651C106.059 114.553 106.124 114.532 106.221 114.504C106.46 114.472 106.662 114.423 106.888 114.385C107.296 114.288 107.442 114.123 107.458 113.701L107.506 112.334V108.329C107.506 108.036 107.391 107.857 107.131 107.726C106.838 107.563 106.529 107.449 106.202 107.335C106.105 107.303 106.007 107.27 105.926 107.221C105.714 107.074 105.688 106.863 105.894 106.7C105.986 106.624 106.1 106.578 106.219 106.569C107.261 106.406 108.27 106.178 109.247 105.788C109.362 105.74 109.41 105.771 109.459 105.869C109.508 105.966 109.525 106.081 109.507 106.194L109.459 106.959C109.459 107.056 109.412 107.197 109.491 107.235C109.589 107.301 109.655 107.154 109.736 107.116C110.216 106.713 110.747 106.373 111.315 106.107C111.82 105.869 112.34 105.716 112.927 105.749C114.018 105.815 114.8 106.369 115.304 107.329C115.566 107.834 115.678 108.387 115.727 108.958L115.774 110.149L115.791 113.747C115.808 114.023 115.905 114.203 116.182 114.301C116.468 114.396 116.762 114.467 117.061 114.513C117.323 114.545 117.337 114.594 117.354 114.838V114.919C117.322 115.473 117.289 115.488 116.735 115.455C115.52 115.39 114.303 115.39 113.088 115.455C112.925 115.472 112.763 115.455 112.611 115.472C112.514 115.472 112.448 115.455 112.433 115.357C112.401 115.145 112.367 114.934 112.416 114.706C112.433 114.608 112.482 114.559 112.595 114.543L113.345 114.423C113.607 114.358 113.753 114.185 113.786 113.947L113.818 113.491L113.802 110.088C113.802 109.697 113.785 109.307 113.704 108.916C113.509 108.082 112.874 107.486 112.012 107.403C111.262 107.322 110.583 107.517 109.961 107.924C109.651 108.119 109.52 108.395 109.52 108.737V111.196C109.52 111.148 109.52 111.148 109.537 111.148L109.515 111.116Z" fill="#121212"/>
<path d="M157.199 106.508C157.02 105.319 156.579 104.261 155.814 103.333C155.148 102.514 154.285 101.875 153.307 101.477C152.282 101.054 151.19 100.923 150.083 100.891C149.627 100.875 143.408 100.972 142.952 100.891C142.837 100.875 142.756 100.908 142.69 101.006C142.609 101.125 142.526 101.25 142.478 101.38C142.282 101.82 142.282 101.787 142.754 101.851C143.145 101.917 143.519 101.949 143.894 102.064C144.236 102.178 144.48 102.373 144.561 102.747C144.593 102.926 144.627 108.656 144.627 111.327L144.561 113.233C144.544 113.38 144.529 113.526 144.48 113.656C144.415 113.852 144.301 114.014 144.106 114.097C143.891 114.198 143.659 114.259 143.422 114.276C142.981 114.323 142.917 114.341 142.771 114.83L142.723 115.008C142.691 115.22 142.706 115.253 142.918 115.253L147.786 115.3L149.692 115.268L151.011 115.105C152.508 114.828 153.844 114.209 154.983 113.217C155.633 112.642 156.164 111.945 156.546 111.165C157.002 110.254 157.197 109.259 157.246 108.251C157.327 107.682 157.294 107.096 157.199 106.509V106.508ZM154.837 108.819C154.772 109.862 154.561 110.871 154.024 111.782C153.34 112.971 152.363 113.801 151.012 114.093C150.426 114.212 149.84 114.272 149.225 114.191C148.784 114.143 148.363 114.093 147.955 113.947C147.223 113.685 146.962 113.232 146.946 112.517L146.929 102.701C146.929 102.115 147.192 101.986 147.613 101.968C148.248 101.921 148.9 101.936 149.535 102C150.211 102.066 150.874 102.226 151.505 102.477C151.974 102.672 152.409 102.942 152.792 103.275C153.671 104.026 154.257 104.967 154.579 106.075C154.841 106.971 154.889 107.882 154.841 108.793L154.837 108.819ZM170.729 110.416C170.729 110.318 170.729 110.237 170.713 110.139C170.566 109.244 170.093 108.56 169.362 108.039C168.89 107.697 168.353 107.47 167.799 107.306C167.701 107.274 167.62 107.241 167.522 107.225C167.539 107.144 167.588 107.128 167.637 107.111C167.962 106.948 168.272 106.769 168.548 106.525C169.053 106.102 169.382 105.58 169.557 104.945C169.655 104.603 169.655 104.261 169.623 103.903C169.596 103.483 169.476 103.075 169.27 102.709C169.064 102.342 168.778 102.027 168.434 101.786C167.683 101.232 166.805 101.004 165.894 100.988C164.136 100.956 162.362 100.988 160.605 100.988C160.099 100.988 159.595 101.02 159.074 100.94C158.976 100.923 158.835 100.892 158.764 101.006C158.645 101.218 158.502 101.429 158.454 101.673C158.438 101.787 158.471 101.851 158.601 101.868L159.724 102.031C160.165 102.097 160.475 102.341 160.506 102.732C160.538 103.002 160.554 103.274 160.553 103.545L160.521 106.589L160.504 112.613C160.504 112.97 160.457 113.313 160.39 113.67C160.374 113.784 160.326 113.89 160.251 113.977C160.176 114.064 160.077 114.127 159.967 114.159C159.642 114.257 159.332 114.354 158.99 114.354C158.899 114.346 158.807 114.368 158.73 114.418C158.654 114.469 158.596 114.543 158.567 114.631C158.502 114.777 158.448 114.94 158.421 115.087C158.389 115.282 158.438 115.349 158.633 115.325C158.779 115.308 164.152 115.44 165.161 115.342C165.764 115.276 166.353 115.195 166.952 115.017C167.976 114.691 168.922 114.218 169.67 113.42C170.29 112.769 170.647 111.987 170.679 111.076C170.727 110.864 170.727 110.653 170.727 110.424L170.729 110.416ZM162.833 103.744L162.881 102.442C162.881 102.198 162.979 102.085 163.223 102.035C163.614 101.954 164.005 101.987 164.395 102.003C164.786 102.035 165.16 102.084 165.551 102.198C166.266 102.41 166.821 102.818 167.147 103.5C167.295 103.811 167.373 104.15 167.375 104.494C167.391 104.95 167.358 105.39 167.179 105.828C166.903 106.431 166.465 106.822 165.828 106.936C165.192 107.05 163.386 107.001 163.11 107.001C162.866 107.001 162.848 106.969 162.848 106.725V105.192C162.809 104.715 162.804 104.236 162.831 103.759L162.833 103.744ZM168.123 112.503C167.847 113.236 167.341 113.742 166.625 114.016C166.235 114.162 165.844 114.254 165.434 114.228C164.929 114.211 164.425 114.228 163.921 114.13C163.237 113.984 162.928 113.332 162.879 112.86C162.798 112.03 162.847 111.183 162.831 110.565V108.416C162.831 108.153 162.863 108.074 163.141 108.074L164.672 108.09L165.714 108.209C166.447 108.373 167.114 108.65 167.636 109.219C168.059 109.675 168.287 110.228 168.336 110.83C168.384 111.4 168.353 111.954 168.141 112.491L168.123 112.503Z" fill="#121212"/>
<path d="M126.757 107.598L127.18 107.664C127.636 107.681 128.174 107.517 128.336 106.882C128.425 106.579 128.425 106.256 128.336 105.953C128.238 105.953 128.189 106.034 128.14 106.068C127.896 106.263 127.62 106.377 127.327 106.409C126.74 106.475 126.154 106.442 125.585 106.231L124.787 105.954C124.23 105.772 123.644 105.695 123.059 105.728C122.229 105.794 121.447 106.07 120.715 106.461C119.933 106.884 119.381 107.519 119.118 108.382C118.972 108.887 118.955 109.407 119.021 109.929C119.184 111.117 119.802 111.948 120.909 112.387C120.974 112.404 121.023 112.435 121.088 112.453C121.234 112.534 121.251 112.616 121.12 112.729L120.712 113.006L119.736 113.609C119.491 113.755 119.459 113.871 119.54 114.129C119.637 114.433 119.817 114.704 120.061 114.911C120.284 115.102 120.537 115.256 120.81 115.367C120.989 115.448 120.989 115.486 120.827 115.629L119.898 116.296C119.588 116.534 119.278 116.773 119.018 117.078C118.838 117.271 118.708 117.506 118.639 117.761C118.571 118.017 118.567 118.285 118.628 118.543C118.749 119.108 119.045 119.621 119.473 120.008C119.897 120.4 120.412 120.68 120.971 120.822C121.882 121.084 122.827 121.098 123.755 120.92C125.089 120.675 126.257 120.086 127.174 119.08C127.809 118.413 128.183 117.632 128.216 116.698C128.252 116.157 128.095 115.622 127.773 115.187C127.451 114.752 126.985 114.445 126.458 114.321L125.579 114.158L122.893 113.919C122.599 113.903 122.306 113.854 122.062 113.707C121.752 113.512 121.671 113.138 121.867 112.894C122.013 112.715 122.192 112.601 122.421 112.584L122.941 112.536C123.971 112.432 124.937 111.991 125.692 111.283C126.095 110.91 126.383 110.43 126.522 109.899C126.718 109.198 126.718 108.469 126.555 107.754C126.507 107.576 126.522 107.559 126.75 107.591L126.757 107.598ZM122.766 115.708C122.864 115.724 122.962 115.708 123.059 115.708C123.743 115.74 124.444 115.789 125.111 115.97C125.329 116.034 125.541 116.116 125.746 116.214C126.397 116.571 126.642 117.191 126.559 117.858C126.462 118.591 126.054 119.111 125.419 119.454C124.996 119.693 124.523 119.796 124.035 119.845C123.856 119.862 123.693 119.845 123.514 119.845C122.945 119.862 122.391 119.797 121.854 119.569C121.48 119.422 121.17 119.211 120.893 118.917C120.324 118.348 120.06 117.305 120.91 116.458C121.431 115.982 122.018 115.644 122.766 115.708ZM124.622 110.628C124.28 111.49 123.531 111.751 122.783 111.637C122.099 111.539 121.594 111.165 121.27 110.546C120.847 109.715 120.734 108.854 120.977 107.957C121.156 107.29 121.563 106.785 122.279 106.67C123.19 106.507 124.066 106.834 124.526 107.745C124.764 108.186 124.868 108.722 124.868 109.487C124.851 109.796 124.787 110.219 124.623 110.627L124.622 110.628ZM104.11 109.52C103.964 108.641 103.639 107.843 103.036 107.175C102.14 106.182 101.001 105.746 99.7143 105.742C98.5909 105.726 97.5342 106.052 96.5883 106.638C95.6584 107.195 94.9768 108.086 94.6834 109.129C94.4071 110.074 94.4213 111.035 94.6358 111.994C95.2052 114.568 97.1923 115.673 99.5678 115.511C100.268 115.463 100.935 115.235 101.569 114.925C102.514 114.484 103.198 113.785 103.67 112.857C104.044 112.092 104.206 111.277 104.19 110.349L104.109 109.519L104.11 109.52ZM101.799 113.134C101.683 113.501 101.462 113.825 101.164 114.068C100.866 114.311 100.504 114.462 100.122 114.502C99.407 114.6 98.7375 114.421 98.1359 113.997C97.7015 113.677 97.3499 113.259 97.1101 112.776C96.443 111.408 96.3286 109.976 96.6694 108.511C96.779 108.057 97.0163 107.645 97.3532 107.322C97.956 106.768 98.6553 106.638 99.438 106.801C100.188 106.965 100.757 107.371 101.225 107.99C101.693 108.61 101.909 109.325 102.039 110.075C102.104 110.449 102.104 110.84 102.12 111.084C102.12 111.866 102.054 112.514 101.81 113.136L101.799 113.134ZM139.683 109.651C139.564 108.706 139.211 107.844 138.543 107.128C137.664 106.168 136.523 105.76 135.255 105.743C134.163 105.727 133.154 106.037 132.226 106.574C131.184 107.193 130.468 108.071 130.192 109.26C129.862 110.557 130 111.929 130.582 113.134C131.119 114.274 132.031 115.007 133.237 115.332C134.571 115.69 135.842 115.528 137.079 114.925C138.153 114.404 138.918 113.591 139.358 112.483C139.62 111.831 139.715 111.132 139.732 110.317C139.748 110.17 139.715 109.909 139.684 109.65L139.683 109.651ZM137.436 112.924C137.174 113.803 136.622 114.372 135.694 114.503C135.011 114.601 134.36 114.438 133.773 114.047C133.268 113.705 132.91 113.249 132.649 112.713C132.356 112.143 132.193 111.54 132.129 110.922C132.031 110.157 132.031 109.409 132.21 108.643C132.244 108.492 132.293 108.345 132.356 108.204C132.813 107.063 133.822 106.543 135.011 106.804C135.809 106.982 136.41 107.423 136.867 108.09C137.307 108.742 137.518 109.458 137.617 110.235C137.665 110.544 137.683 110.87 137.665 111.146C137.665 111.781 137.617 112.367 137.426 112.937L137.436 112.924Z" fill="#121212"/>
</svg>
