<svg width="217" height="217" viewBox="0 0 217 217" fill="none" xmlns="http://www.w3.org/2000/svg">
<g clip-path="url(#clip0_1228_9876)">
<path fill-rule="evenodd" clip-rule="evenodd" d="M75 75H142V142H75V75ZM105.88 117.538H102.8L94.6877 104.739C94.4824 104.416 94.3126 104.08 94.1784 103.732H94.1073C94.1705 104.104 94.2021 104.901 94.2021 106.124V117.538H91.478V100.125H94.7587L102.599 112.62C102.931 113.139 103.144 113.495 103.239 113.689H103.286C103.207 113.228 103.168 112.446 103.168 111.345V100.125H105.88V117.538ZM86.9415 117.806C86.4678 117.806 86.0651 117.648 85.7335 117.332C85.4019 117.008 85.2361 116.624 85.2361 116.178C85.2361 115.725 85.4019 115.337 85.7335 115.013C86.0651 114.689 86.4678 114.527 86.9415 114.527C87.4232 114.527 87.8298 114.689 88.1614 115.013C88.5009 115.337 88.6707 115.725 88.6707 116.178C88.6707 116.624 88.5009 117.008 88.1614 117.332C87.8298 117.648 87.4232 117.806 86.9415 117.806ZM109.611 117.538H119.145V115.098H112.43V109.949H118.269V107.508H112.43V102.578H118.766V100.125H109.611V117.538ZM132.695 102.578H127.815V117.538H124.996V102.578H120.128V100.125H132.695V102.578Z" fill="#121212"/>
</g>
<defs>
<clipPath id="clip0_1228_9876">
<rect width="67" height="67" fill="white" transform="translate(75 75)"/>
</clipPath>
</defs>
</svg>
