<svg width="217" height="217" viewBox="0 0 217 217" fill="none" xmlns="http://www.w3.org/2000/svg">
<g clip-path="url(#clip0_1228_9908)">
<path d="M105.575 73.9013C107.342 72.898 109.644 72.8935 111.41 73.9013C120.293 78.8799 129.18 83.8507 138.062 88.8322C139.732 89.7656 140.85 91.6095 140.833 93.5187V123.472C140.845 125.46 139.617 127.348 137.855 128.26C129 133.211 120.151 138.168 111.298 143.12C109.494 144.142 107.146 144.064 105.398 142.957C102.744 141.431 100.085 139.912 97.43 138.387C96.8876 138.066 96.276 137.811 95.893 137.289C96.2316 136.837 96.837 136.78 97.329 136.583C98.4371 136.233 99.4548 135.672 100.473 135.128C100.73 134.953 101.044 135.02 101.291 135.177C103.561 136.467 105.811 137.796 108.088 139.074C108.574 139.353 109.066 138.983 109.482 138.754C118.17 133.883 126.87 129.031 135.557 124.159C135.879 124.005 136.057 123.666 136.031 123.317C136.037 113.436 136.032 103.553 136.034 93.6723C136.071 93.2755 135.839 92.9107 135.477 92.7483C126.654 87.8199 117.835 82.8839 109.013 77.9541C108.86 77.8499 108.679 77.794 108.493 77.7937C108.308 77.7935 108.127 77.8488 107.973 77.9526C99.1514 82.8839 90.3339 87.8244 81.5118 92.7526C81.1514 92.9152 80.9094 93.274 80.9523 93.6723C80.9539 103.553 80.9523 113.436 80.9523 123.318C80.937 123.489 80.9748 123.66 81.0606 123.809C81.1464 123.957 81.276 124.076 81.4321 124.15C83.7863 125.474 86.1436 126.789 88.4993 128.108C89.8264 128.817 91.4559 129.238 92.9181 128.695C94.2084 128.236 95.1129 126.93 95.0883 125.571C95.1004 115.748 95.0822 105.923 95.0974 96.1014C95.0652 95.6654 95.4822 95.3051 95.9097 95.3461C97.0409 95.3386 98.1736 95.331 99.3047 95.3491C99.7769 95.3386 100.102 95.8081 100.043 96.2475C100.039 106.133 100.056 116.018 100.036 125.904C100.039 128.538 98.9476 131.405 96.4905 132.694C93.4636 134.249 89.7224 133.92 86.732 132.428C84.1432 131.147 81.6728 129.634 79.1299 128.261C77.3629 127.354 76.1411 125.459 76.1535 123.472V93.5187C76.135 91.57 77.2969 89.6925 79.0195 88.7728C87.8723 83.8177 96.7236 78.8588 105.575 73.9013Z" fill="#121212"/>
<path d="M113.298 94.6499C117.159 94.4035 121.293 94.5039 124.767 96.3904C127.457 97.8361 128.949 100.87 128.996 103.834C128.921 104.234 128.5 104.455 128.115 104.427C126.994 104.426 125.874 104.442 124.754 104.42C124.279 104.438 124.002 104.003 123.943 103.587C123.621 102.168 122.841 100.764 121.495 100.08C119.429 99.0537 117.033 99.1053 114.78 99.1267C113.136 99.2133 111.367 99.3546 109.974 100.314C108.904 101.04 108.579 102.507 108.961 103.689C109.321 104.537 110.308 104.81 111.116 105.063C115.769 106.27 120.7 106.15 125.264 107.738C127.154 108.386 129.002 109.645 129.649 111.607C130.495 114.237 130.124 117.381 128.238 119.492C126.708 121.229 124.479 122.175 122.257 122.689C119.3 123.343 116.232 123.359 113.229 123.069C110.406 122.75 107.468 122.014 105.288 120.106C103.425 118.501 102.514 116 102.605 113.586C102.626 113.179 103.036 112.894 103.429 112.928C104.557 112.919 105.685 112.916 106.814 112.929C107.264 112.897 107.598 113.284 107.621 113.705C107.83 115.056 108.342 116.474 109.53 117.276C111.822 118.743 114.699 118.642 117.325 118.683C119.5 118.588 121.941 118.559 123.716 117.133C124.652 116.32 124.93 114.959 124.677 113.788C124.403 112.8 123.36 112.34 122.465 112.039C117.872 110.597 112.886 111.12 108.337 109.491C106.49 108.843 104.704 107.62 103.995 105.738C103.005 103.075 103.458 99.7803 105.543 97.7402C107.575 95.7109 110.509 94.9294 113.298 94.6497V94.6499Z" fill="#121212"/>
</g>
<defs>
<clipPath id="clip0_1228_9908">
<rect width="65" height="71" fill="white" transform="translate(76 73)"/>
</clipPath>
</defs>
</svg>
