<svg width="217" height="217" viewBox="0 0 217 217" fill="none" xmlns="http://www.w3.org/2000/svg">
<path fill-rule="evenodd" clip-rule="evenodd" d="M87.1791 125.733C87.1861 125.792 87.1921 125.842 87.1965 125.886C87.392 133.786 88.6638 138.323 90.657 141.147C92.9434 144.424 95.793 145.293 98.9966 145.977C107.239 147.738 108.975 142.431 109.941 139.447C109.96 139.394 109.978 139.343 109.995 139.293C110.034 139.183 110.07 139.08 110.112 138.97C110.528 137.833 110.797 136.403 110.98 134.788C111.152 133.248 111.237 131.658 111.299 130.056C111.313 129.788 111.322 129.455 111.333 129.094C111.341 128.83 111.349 128.55 111.36 128.271C111.371 127.807 111.347 127.366 111.31 126.963C112.224 127.369 113.185 127.656 114.172 127.819C116.691 128.247 118.954 127.843 120.311 127.501C121.448 127.22 122.891 126.559 123.783 125.715C123.93 125.581 124.076 125.422 124.199 125.275C124.957 125.899 125.74 126.339 126.535 126.62C129.493 127.684 132.098 126.572 134.36 124.052C135.999 122.243 137.467 119.577 138.763 116.508C142.505 107.63 144.975 94.8275 145.134 91.6725C146.454 65.2836 122.719 71.5932 116.25 73.7946C115.115 73.1184 113.899 72.5885 112.63 72.2173C110.869 71.6918 108.914 71.41 106.749 71.4468C105.649 71.4591 104.56 71.5327 103.459 71.6427C102.697 71.7252 101.939 71.8352 101.185 71.9727C98.5434 71.2146 92.3561 69.8573 86.1442 71.3368C81.8887 72.3518 77.5355 74.6019 74.0136 79.0896C71.6904 82.061 71.7145 88.8229 73.8668 96.6003C75.4195 102.225 78.0364 108.572 81.5951 114.478C80.8 114.282 79.5405 114.014 77.5473 113.598C75.9945 113.28 74.7836 113.39 73.9031 113.818C72.375 114.551 71.7145 115.762 71.8245 117.34C71.8736 118.147 72.2036 118.942 72.7418 119.7C73.6345 120.91 75.5786 122.439 77.89 123.515C79.015 124.028 80.47 124.432 81.9742 124.689C83.4905 124.945 85.0683 125.055 86.4256 124.994H86.5601L87.086 124.945C87.0983 125.067 87.1106 125.19 87.1351 125.324C87.1509 125.496 87.1666 125.628 87.1791 125.733ZM87.3433 115.174C88.7252 115.566 90.7061 116.287 90.4984 120.298C90.5961 121.485 90.9629 124.822 91.3784 128.075C91.7211 130.741 92.0879 133.431 92.3447 134.972C92.7116 137.075 93.2861 138.591 94.3257 139.655C95.353 140.732 96.918 141.44 99.2294 141.942C101.87 142.504 103.534 141.954 104.609 141.037C105.722 140.095 106.309 138.738 106.676 137.821C107.019 136.941 107.275 134.593 107.422 131.45C107.569 128.295 107.593 124.419 107.508 120.494C107.507 120.431 107.506 120.368 107.505 120.306C107.492 119.535 107.48 118.819 107.74 118.072C108.058 117.204 108.62 116.421 109.317 115.92C109.965 115.455 110.894 115.138 111.689 115.211C111.838 115.224 111.985 115.249 112.129 115.284C111.994 114.747 111.799 114.161 111.578 113.54C111.3 112.759 111.234 112.525 111.151 112.298C111.052 112.028 110.93 111.767 110.406 110.613C109.085 107.666 107.398 103.9 109.28 95.1566C109.819 92.7111 111.188 91.427 112.912 90.8888C114.013 90.547 115.236 90.5225 116.446 90.7057C117.608 90.8893 118.77 91.2443 119.796 91.6598C120.44 91.9279 121.062 92.2468 121.656 92.6134C121.252 87.502 119.026 75.3473 106.811 75.555C96.6857 75.7141 90.9997 82.3537 88.3819 87.1101C87.7215 88.2961 87.2692 89.3602 86.9878 90.167L86.9851 90.1739C86.9619 90.233 86.9387 90.292 86.9269 90.3506C92.9065 89.727 95.3034 91.8061 95.8048 94.9484C96.5139 99.363 92.9188 105.807 91.097 109.072C91.0547 109.148 91.0134 109.223 90.9732 109.295C90.6061 109.956 90.3279 110.456 90.2288 110.699C89.5079 112.447 88.6147 113.572 87.9056 114.44C87.8603 114.499 87.8159 114.555 87.7728 114.61C87.6072 114.821 87.4598 115.009 87.3433 115.174ZM113.475 119.235C114.771 120.886 115.175 121.386 119.198 122.218C119.919 122.365 120.409 122.524 120.702 122.671C120.336 122.927 119.773 123.16 119.284 123.282C118.293 123.527 116.642 123.832 114.894 123.527C113.17 123.233 111.323 122.353 109.819 120.262C109.513 119.834 109.574 119.247 109.733 118.77C109.904 118.306 110.198 117.89 110.54 117.645C110.797 117.461 111.213 117.302 111.506 117.327C111.687 117.338 111.857 117.417 111.983 117.547C112.513 118.081 113.011 118.644 113.475 119.235ZM121.29 113.67C120.998 113.986 120.687 114.284 120.36 114.563C122.322 116.652 124.218 118.801 126.046 121.007C126.719 121.814 127.354 122.303 127.942 122.511C129.017 122.903 130.13 122.316 131.218 121.105C132.527 119.65 133.763 117.388 134.874 114.746C138.421 106.345 140.756 94.3007 140.903 91.3538C141.906 71.1527 123.526 75.6405 117.841 77.5114C124.138 83.6992 123.857 94.7657 123.845 94.8512C123.855 95.0797 123.839 95.3619 123.819 95.7195C123.815 95.7822 123.812 95.8473 123.808 95.9148C123.698 97.6389 123.502 100.953 124.016 104.634C124.146 105.529 124.166 106.436 124.077 107.336C123.845 109.794 122.817 111.995 121.29 113.67ZM86.536 86.0961C88.517 82.476 92.1366 77.8664 97.8962 75.3228C95.1325 74.76 90.6815 74.2709 86.2183 75.5555C83.0751 76.4728 79.9205 78.2701 77.3405 81.5597C75.8486 83.4792 76.13 88.8111 77.9396 95.353C79.5046 101.039 82.2437 107.532 85.9978 113.439C86.081 113.344 86.1646 113.236 86.2477 113.13L86.2547 113.121C86.291 113.084 86.3278 113.035 86.3647 112.986C84.1883 109.415 84.6037 105.967 84.9951 102.727C85.1542 101.455 85.301 100.232 85.2642 99.0703C85.2173 97.9024 85.0705 96.9016 84.9295 95.9403C84.9228 95.8952 84.9162 95.8502 84.9097 95.8053C84.7015 94.5089 84.5178 93.2739 84.5669 91.7698C84.5669 91.7516 84.564 91.7334 84.561 91.7151C84.5581 91.6967 84.5551 91.6782 84.5551 91.6598C84.4937 91.3052 84.6283 90.4979 84.9951 89.4711C85.4115 88.3042 85.927 87.1751 86.536 86.0961ZM121.708 95.4631C121.718 95.255 121.729 95.0468 121.729 94.8389C121.717 94.7898 120.544 94.2521 119.001 93.6157C118.109 93.2611 117.118 92.9434 116.14 92.7966C115.21 92.6616 114.306 92.6616 113.536 92.9066C112.521 93.2243 111.689 94.0316 111.359 95.5966C109.611 103.68 111.139 107.079 112.337 109.745C112.948 111.088 113.13 111.605 113.36 112.258C113.417 112.418 113.476 112.586 113.545 112.776C113.801 113.477 114.024 114.148 114.184 114.795L114.207 114.794C114.518 114.782 114.839 114.77 115.15 114.722C116.911 114.477 118.513 113.572 119.724 112.24C121.011 110.832 121.802 109.04 121.974 107.14C122.047 106.431 122.034 105.685 121.925 104.927C121.374 101.002 121.583 97.5657 121.692 95.7925C121.696 95.6828 121.702 95.5729 121.708 95.4631ZM112.912 94.313C113.615 93.9348 114.676 93.7913 115.456 93.9584C116.001 94.0944 116.233 94.3602 116.25 94.6779C116.268 94.9956 116.069 95.3648 115.75 95.7071C115.42 96.0493 114.955 96.3553 114.429 96.4284H114.416C113.879 96.5021 113.377 96.3184 113.01 96.0739C112.619 95.8048 112.362 95.438 112.326 95.1812C112.289 94.8512 112.509 94.5452 112.912 94.313ZM93.7266 95.2794C93.3966 93.2125 91.5257 91.8916 86.6833 92.4911C86.6951 93.5548 86.842 94.5089 87.0015 95.4989C87.0069 95.5353 87.0124 95.5717 87.0178 95.6082C87.1717 96.6393 87.3332 97.7213 87.3806 99.0085C87.4163 100.268 87.2645 101.562 87.1086 102.891L87.0993 102.971C86.7815 105.588 86.4515 108.351 87.7229 111.041C87.9183 110.699 88.102 110.308 88.2852 109.892C88.4443 109.513 88.787 108.877 89.2516 108.058C90.9629 104.989 94.3139 98.9721 93.7266 95.2794ZM86.2743 117.065C86.2081 117.046 86.1442 117.027 86.0838 117.009C83.5923 118.89 79.4249 118.114 76.6695 117.6L76.6437 117.595C77.3037 118.231 78.3796 118.953 79.6637 119.552C80.9114 120.126 82.8678 120.518 84.7019 120.628C85.7538 120.677 86.7442 120.653 87.4901 120.494C87.967 120.408 88.2847 120.31 88.3829 120.212C88.5046 117.705 87.3541 117.378 86.6199 117.17L86.6097 117.167C86.4961 117.13 86.3823 117.096 86.2743 117.065ZM89.1038 94.8757C88.7983 94.5575 88.6147 94.1784 88.6515 93.9584C88.6888 93.7016 88.9329 93.5184 89.311 93.4325C89.641 93.3466 90.0815 93.3343 90.546 93.3957C91.0111 93.4689 91.4265 93.6034 91.7202 93.7625C92.0723 93.9641 92.2144 94.1907 92.2107 94.4164C92.205 94.7464 91.8863 95.0745 91.4515 95.3157C91.0824 95.5145 90.7127 95.5857 90.3586 95.5461C89.9035 95.4951 89.4739 95.2605 89.1038 94.8757ZM77.1328 115.541C82.6724 116.691 84.3233 115.97 84.8124 115.505C80.6423 109.17 77.6096 102.078 75.91 95.9139C73.9291 88.7483 73.77 82.7073 75.6777 80.2619C78.576 76.5691 82.1101 74.5514 85.6315 73.5363C90.9629 71.9959 96.2212 72.7536 99.0948 73.4263C99.1472 73.438 99.1968 73.449 99.2439 73.4594C99.3951 73.4927 99.5211 73.5205 99.633 73.5486C99.6944 73.5732 100.783 73.8791 101.553 74.0868C103.155 73.695 104.904 73.4627 106.774 73.4386C110.638 73.3777 113.622 74.3559 115.934 75.9332C119.822 74.4905 144.266 66.4076 143.019 91.4511C142.86 94.4961 140.463 106.932 136.819 115.565C135.609 118.426 134.263 120.885 132.797 122.523C131.109 124.382 129.262 125.226 127.245 124.504C126.292 124.162 125.337 123.477 124.421 122.364C121.84 119.258 119.48 116.703 118.6 115.773C117.617 116.302 116.549 116.654 115.444 116.812C115.1 116.86 114.753 116.889 114.405 116.898C114.405 116.947 114.405 116.996 114.393 117.045C114.651 117.33 114.9 117.624 115.139 117.925C116.068 119.112 116.361 119.479 119.615 120.151C121.081 120.457 121.962 120.86 122.439 121.313C122.94 121.777 123.099 122.303 123.026 122.841C122.952 123.306 122.708 123.709 122.341 124.051C121.717 124.638 120.653 125.116 119.797 125.336C118.623 125.629 116.666 125.984 114.527 125.617C112.913 125.336 111.214 124.651 109.673 123.257C109.697 126.241 109.648 129.115 109.538 131.548C109.38 134.887 109.085 137.491 108.633 138.603C108.18 139.728 107.471 141.404 105.979 142.663C104.464 143.936 102.213 144.743 98.7894 144.009C96.0503 143.422 94.1553 142.529 92.7975 141.123C91.4397 139.717 90.7066 137.858 90.2661 135.327C90.0097 133.835 89.6306 131.096 89.2879 128.332C89.007 126.131 88.7497 123.955 88.5788 122.402C88.3706 122.463 88.1383 122.524 87.9061 122.573C86.9647 122.756 85.8029 122.805 84.5924 122.744C82.5256 122.622 80.2633 122.157 78.7837 121.472C76.7905 120.543 75.1646 119.296 74.455 118.317C74.1491 117.889 73.9659 117.473 73.9414 117.07C73.8923 116.41 74.1736 115.908 74.8096 115.603C75.2987 115.37 76.0568 115.321 77.1328 115.541Z" fill="#121212"/>
</svg>
