<svg width="217" height="217" viewBox="0 0 217 217" fill="none" xmlns="http://www.w3.org/2000/svg">
<g clip-path="url(#clip0_1228_9913)">
<path d="M108.205 74.0195C90.732 74.0195 91.8229 81.6271 91.8229 81.6271L91.8424 89.5088H108.516V91.875H85.2198C85.2198 91.875 74.0391 90.6019 74.0391 108.302C74.0391 126.004 83.7979 125.376 83.7979 125.376H89.6219V117.162C89.6219 117.162 89.3079 107.364 99.2249 107.364H115.762C115.762 107.364 125.054 107.515 125.054 98.3481V83.1919C125.054 83.1919 126.465 74.0195 108.205 74.0195ZM99.0107 79.3198C99.4047 79.3194 99.7949 79.3971 100.159 79.5483C100.523 79.6995 100.854 79.9213 101.132 80.201C101.411 80.4808 101.632 80.8129 101.783 81.1785C101.933 81.544 102.011 81.9358 102.01 82.3314C102.011 82.727 101.933 83.1188 101.783 83.4843C101.632 83.8499 101.411 84.182 101.132 84.4617C100.854 84.7415 100.523 84.9633 100.159 85.1145C99.7949 85.2657 99.4047 85.3434 99.0107 85.343C98.6167 85.3434 98.2264 85.2657 97.8624 85.1145C97.4983 84.9633 97.1674 84.7415 96.8888 84.4617C96.6102 84.182 96.3893 83.8499 96.2387 83.4843C96.0881 83.1188 96.0107 82.727 96.0111 82.3314C96.0107 81.9358 96.0881 81.544 96.2387 81.1785C96.3893 80.8129 96.6102 80.4808 96.8888 80.201C97.1674 79.9213 97.4983 79.6995 97.8624 79.5483C98.2264 79.3971 98.6167 79.3194 99.0107 79.3198V79.3198Z" fill="#777777"/>
<path d="M108.701 142.764C126.173 142.764 125.082 135.156 125.082 135.156L125.063 127.275H108.389V124.908H131.685C131.685 124.908 142.866 126.181 142.866 108.48C142.866 90.7795 133.107 91.4072 133.107 91.4072H127.283V99.6209C127.283 99.6209 127.597 109.419 117.68 109.419H101.143C101.143 109.419 91.8514 109.268 91.8514 118.435V133.591C91.8514 133.591 90.4406 142.764 108.7 142.764H108.701ZM117.895 137.464C117.501 137.464 117.11 137.386 116.746 137.235C116.382 137.084 116.051 136.862 115.773 136.582C115.494 136.303 115.273 135.971 115.123 135.605C114.972 135.24 114.895 134.848 114.895 134.452C114.895 134.057 114.972 133.665 115.123 133.299C115.273 132.934 115.494 132.601 115.773 132.322C116.051 132.042 116.382 131.82 116.746 131.669C117.11 131.518 117.501 131.44 117.895 131.44C118.289 131.44 118.679 131.518 119.043 131.669C119.407 131.82 119.738 132.042 120.016 132.322C120.295 132.601 120.516 132.933 120.667 133.299C120.817 133.664 120.895 134.056 120.894 134.452C120.895 134.847 120.817 135.239 120.667 135.605C120.516 135.97 120.295 136.302 120.016 136.582C119.738 136.862 119.407 137.084 119.043 137.235C118.679 137.386 118.289 137.464 117.895 137.464V137.464Z" fill="#3D3D3D"/>
</g>
<defs>
<clipPath id="clip0_1228_9913">
<rect width="69" height="69" fill="white" transform="translate(74 74)"/>
</clipPath>
</defs>
</svg>
