<svg width="217" height="217" viewBox="0 0 217 217" fill="none" xmlns="http://www.w3.org/2000/svg">
<path fill-rule="evenodd" clip-rule="evenodd" d="M132.935 101.654L132.934 101.655C125.359 104.932 117.593 108.293 114.91 109.701C109.673 112.45 106.764 112.423 102.627 110.433C100.625 109.469 93.462 106.478 86.0673 103.391L86.0653 103.39C78.1795 100.097 70.0308 96.6949 67.5976 95.5239C62.8819 93.2552 62.7836 91.6925 67.4151 89.8658L68.673 89.3697C75.5579 86.6536 98.4623 77.6177 103.583 75.7675C109.085 73.7798 110.993 73.7084 115.675 75.4357C118.024 76.3023 125.35 79.2008 132.651 82.0898C139.903 84.959 147.131 87.819 149.436 88.6695C154.065 90.3761 154.242 91.7835 149.494 94.2755C147.179 95.4906 140.143 98.535 132.935 101.654ZM119.365 85.4649L111.714 86.2647L110.002 90.4143L107.236 85.7838L98.4017 84.9844L104.993 82.5907L103.016 78.9164L109.187 81.3468L115.005 79.4288L113.432 83.2281L119.365 85.4649ZM109.545 105.596L95.2672 99.6333L115.726 96.471L109.545 105.596ZM89.75 87.7714C95.7893 87.7714 100.685 89.6824 100.685 92.0393C100.685 94.3969 95.7893 96.3076 89.75 96.3076C83.7107 96.3076 78.8149 94.3966 78.8149 92.0393C78.8149 89.6824 83.7107 87.7714 89.75 87.7714ZM140.514 91.4174L128.406 86.5993L115.01 91.9351L127.103 96.7483L128.416 96.2309L140.514 91.4174Z" fill="#121212"/>
<path d="M68.1328 104.78L67.4149 105.063C62.783 106.89 62.8817 108.453 67.5971 110.722C70.0329 111.894 78.1957 115.302 86.089 118.598L86.09 118.598C93.4762 121.682 100.627 124.668 102.627 125.63C106.764 127.621 109.673 127.648 114.91 124.899C117.594 123.489 125.367 120.126 132.945 116.847C140.15 113.729 147.18 110.687 149.494 109.473C154.242 106.981 154.065 105.574 149.436 103.866C149.255 103.799 149.043 103.719 148.802 103.629C145.98 105.013 139.54 107.799 132.953 110.65L132.951 110.651C125.371 113.931 117.596 117.296 114.91 118.706C109.673 121.455 106.764 121.428 102.627 119.436C100.626 118.474 93.4698 115.486 86.0795 112.4L86.0783 112.4C78.6936 109.316 71.0749 106.135 68.1328 104.78Z" fill="#121212"/>
<path d="M67.5067 119.682L67.4149 119.718C62.783 121.544 62.8817 123.106 67.5971 125.376C70.0321 126.547 78.1902 129.954 86.081 133.248L86.0824 133.249C93.4716 136.334 100.626 139.321 102.627 140.284C106.764 142.275 109.673 142.302 114.91 139.552C117.594 138.143 125.365 134.781 132.942 131.502C140.148 128.384 147.179 125.341 149.494 124.127C154.242 121.635 154.065 120.228 149.436 118.52L149.421 118.515C147.034 119.755 140.074 122.766 132.943 125.852L132.942 125.852C125.365 129.131 117.595 132.494 114.91 133.903C109.673 136.652 106.764 136.625 102.627 134.634C100.627 133.672 93.4819 130.688 86.0983 127.605L86.0965 127.605C78.2005 124.308 70.0328 120.898 67.596 119.725L67.5067 119.682Z" fill="#121212"/>
</svg>
