<svg width="217" height="217" viewBox="0 0 217 217" fill="none" xmlns="http://www.w3.org/2000/svg">
<g clip-path="url(#clip0_1228_9890)">
<path fill-rule="evenodd" clip-rule="evenodd" d="M81.9342 97.3383C81.9454 97.7758 81.9519 98.2134 81.9536 98.651H81.9527C81.9553 99.1716 81.9553 99.6912 81.9553 100.211V116.503C81.9553 116.59 81.9554 116.676 81.9554 116.763C81.9555 117.197 81.9556 117.63 81.9527 118.063C81.9501 118.501 81.9448 118.939 81.9333 119.376C81.9078 120.33 81.8514 121.292 81.6815 122.234C81.5089 123.191 81.2279 124.082 80.7841 124.952C79.9072 126.673 78.5065 128.072 76.7835 128.948C75.926 129.379 75.0089 129.681 74.0623 129.843C73.1183 130.013 72.154 130.068 71.1986 130.094C70.76 130.106 70.3223 130.111 69.8838 130.114C69.4502 130.117 69.0159 130.116 68.5826 130.116C68.4959 130.116 68.4091 130.116 68.3225 130.116H52.0063C51.9193 130.116 51.8323 130.116 51.7453 130.116C51.3112 130.116 50.8778 130.117 50.445 130.114C50.0064 130.111 49.5679 130.106 49.1293 130.094C48.1747 130.069 47.2105 130.013 46.2664 129.843C45.3074 129.67 44.4163 129.39 43.5453 128.948C41.8218 128.072 40.4208 126.673 39.5438 124.952C39.1111 124.095 38.809 123.179 38.6473 122.233C38.4774 121.291 38.4219 120.329 38.3955 119.375C38.384 118.938 38.3787 118.5 38.3752 118.062C38.3726 117.542 38.3726 117.023 38.3726 116.502V100.211C38.3726 99.6912 38.3726 99.1716 38.3752 98.651C38.3778 98.214 38.3831 97.777 38.3955 97.3374C38.421 96.3851 38.4774 95.4232 38.6473 94.4797C38.819 93.5222 39.1 92.6323 39.5438 91.7618C39.9798 90.9072 40.5481 90.1265 41.2275 89.4484C42.0794 88.5987 43.0905 87.9246 44.2031 87.4648C44.8672 87.1936 45.5587 86.9949 46.2656 86.8721C46.9745 86.7446 47.6939 86.6813 48.4116 86.647C48.6512 86.6356 48.8907 86.6268 49.1293 86.6206C49.5679 86.6092 50.0064 86.6039 50.445 86.6004C50.9654 86.5978 51.485 86.5978 52.0063 86.5978H68.3225C68.8438 86.5978 69.3642 86.5978 69.8847 86.6004C70.3232 86.6031 70.7609 86.6083 71.2003 86.6206C72.1549 86.6461 73.1183 86.7024 74.0641 86.8721C75.0107 87.0338 75.9278 87.3355 76.7852 87.7672C78.5079 88.6435 79.9081 90.0423 80.785 91.7627C81.2179 92.619 81.5203 93.5351 81.6823 94.4806C81.8523 95.4232 81.9078 96.3851 81.9342 97.3383ZM72.9052 113.457L72.9078 113.46L72.9087 113.461C76.6531 118.061 75.6342 122.993 75.1543 122.062C73.1975 118.26 69.5509 119.231 67.7042 120.187C67.5519 120.278 67.3951 120.365 67.2375 120.449C67.2276 120.455 67.2168 120.461 67.2061 120.468C67.1968 120.473 67.1876 120.478 67.1794 120.484L67.182 120.479C63.3399 122.518 58.1812 122.669 52.9926 120.442C48.7702 118.617 45.199 115.559 42.7474 111.672C43.9398 112.552 45.2165 113.312 46.5588 113.942C52.0415 116.505 57.548 116.32 61.4448 113.939C55.8986 109.68 51.2683 104.133 47.7185 99.6385C47.0361 98.8322 46.4143 97.9951 45.8921 97.1246C50.1429 101.009 56.8585 105.888 59.2679 107.238C54.1532 101.843 49.6471 95.199 49.8584 95.4118C57.9126 103.516 65.345 108.097 65.345 108.097C65.5677 108.218 65.7856 108.346 65.9985 108.483C66.1508 108.093 66.2882 107.691 66.4027 107.272C67.6892 102.578 66.2424 97.2108 62.9682 92.7792C70.4385 97.2583 74.854 105.766 73.0452 112.962C73.0119 113.092 72.9749 113.218 72.9379 113.345C72.9269 113.382 72.916 113.42 72.9052 113.457Z" fill="#777777"/>
<path d="M98.4969 114.84C98.8377 117.858 101.722 119.837 105.727 119.837C109.532 119.837 112.276 117.859 112.276 115.119C112.276 112.76 110.613 111.32 106.788 110.36L103.083 109.42C97.7563 108.101 95.3531 105.7 95.3531 101.742C95.3531 96.8626 99.6189 93.4835 105.687 93.4835C111.574 93.4835 115.76 96.8828 115.901 101.782H111.995C111.695 98.782 109.251 96.9426 105.587 96.9426C101.961 96.9426 99.4383 98.8023 99.4383 101.521C99.4383 103.64 101.001 104.901 104.845 105.881L107.93 106.681C113.898 108.14 116.341 110.46 116.341 114.639C116.341 119.959 112.115 123.297 105.386 123.297C99.138 123.297 94.8723 119.978 94.5518 114.839H98.4969V114.84ZM141.147 122.817H137.222L132.636 106.861H132.557L127.99 122.817H124.066L118.258 101.921H122.062L126.108 118.698H126.188L130.754 101.921H134.439L139.045 118.698H139.125L143.171 101.921H146.935L141.147 122.817ZM149.469 96.3024C149.469 95.0433 150.512 94.0233 151.773 94.0233C153.055 94.0233 154.096 95.0433 154.096 96.3024C154.096 97.5625 153.055 98.6018 151.773 98.6018C151.163 98.5983 150.579 98.355 150.148 97.9245C149.717 97.494 149.473 96.9112 149.47 96.3024H149.469ZM149.871 101.921H153.695V122.817H149.871V101.921ZM178.674 105.001V101.921H174.629V96.9223H170.823V101.921H163.512V100.082C163.532 98.2219 164.252 97.442 165.975 97.442C166.535 97.442 167.096 97.5027 167.557 97.5827V94.5817C166.888 94.4772 166.212 94.4237 165.535 94.4217C161.449 94.4217 159.726 96.1222 159.726 100.021V101.92H156.803V105H159.726V122.816H163.532V105.001H170.824V117.338C170.824 121.377 172.365 122.936 176.371 122.936C177.232 122.936 178.213 122.876 178.655 122.777V119.657C178.176 119.716 177.694 119.75 177.212 119.757C175.43 119.757 174.629 118.918 174.629 117.038V105.001H178.674Z" fill="#121212"/>
</g>
<defs>
<clipPath id="clip0_1228_9890">
<rect width="141" height="45" fill="white" transform="translate(38 86)"/>
</clipPath>
</defs>
</svg>
