<svg width="217" height="217" viewBox="0 0 217 217" fill="none" xmlns="http://www.w3.org/2000/svg">
<g clip-path="url(#clip0_1228_9896)">
<path fill-rule="evenodd" clip-rule="evenodd" d="M75 75V108.5V142H142V75H75ZM89.6897 111.348V108.617L89.74 108.634V105.887L101.465 105.837C107.914 105.837 113.223 105.854 113.223 105.904C113.29 105.937 113.29 107.16 113.29 108.668V111.348H104.58V136.138H98.3997V111.348H89.6897ZM133.022 108.215C131.849 106.993 130.543 106.222 128.834 105.82L128.868 105.787C127.712 105.485 124.948 105.385 123.776 105.619C120.158 106.289 117.629 108.634 116.908 111.984C116.674 112.939 116.758 115.317 117.009 116.289C117.344 117.411 118.064 118.768 118.851 119.639C120.225 121.079 121.699 122.017 125.166 123.491C128.181 124.831 129.253 125.434 129.789 126.171C130.174 126.758 130.292 127.109 130.292 127.88C130.292 128.717 130.024 129.32 129.404 129.89C127.963 131.196 125.049 131.347 122.871 130.225C122.151 129.823 120.912 128.65 120.359 127.779L119.923 127.193L118.031 128.299L115.518 129.756L114.882 130.158C114.815 130.275 116.004 132.067 116.624 132.737C118.198 134.463 120.761 135.803 123.441 136.305C124.697 136.523 127.377 136.556 128.55 136.355C132.285 135.736 134.898 133.843 135.97 131.046C136.925 128.483 136.606 125.066 135.183 122.888C133.926 120.945 131.849 119.589 127.059 117.528C124.463 116.389 123.625 115.837 123.173 114.915C122.972 114.48 122.871 114.178 122.871 113.642C122.871 111.884 124.211 110.828 126.221 110.962C127.612 111.063 128.499 111.599 129.37 112.838C129.638 113.274 129.906 113.559 129.973 113.508C131.732 112.42 134.63 110.46 134.63 110.359C134.563 110.058 133.642 108.885 133.022 108.215Z" fill="#121212"/>
</g>
<defs>
<clipPath id="clip0_1228_9896">
<rect width="67" height="67" fill="white" transform="translate(75 75)"/>
</clipPath>
</defs>
</svg>
