<svg width="26" height="26" viewBox="0 0 26 26" fill="none" xmlns="http://www.w3.org/2000/svg">
<g clip-path="url(#clip0_1102_11013)">
<path d="M10.5899 12.1531C10.5899 12.1531 12.9553 11.9757 12.9553 9.17208C12.9553 6.3683 11.0201 5 8.56876 5H0.502319V20.6679H8.56876C8.56876 20.6679 13.493 20.8251 13.493 16.0435C13.493 16.0435 13.7077 12.1531 10.5899 12.1531ZM7.98814 7.7848H8.56876C8.56876 7.7848 9.66523 7.7848 9.66523 9.41497C9.66523 11.045 9.02039 11.2813 8.28897 11.2813H4.0565V7.7848H7.98814ZM8.34082 17.8832H4.0565V13.6962H8.56876C8.56876 13.6962 10.203 13.6745 10.203 15.8479C10.203 17.6805 8.98238 17.8694 8.34082 17.8832ZM20.0604 8.98638C14.099 8.98638 14.1043 15.0065 14.1043 15.0065C14.1043 15.0065 13.6953 20.9957 20.0604 20.9957C20.0604 20.9957 25.3646 21.3019 25.3646 16.8293H22.6367C22.6367 16.8293 22.7277 18.5136 20.1514 18.5136C20.1514 18.5136 17.4231 18.6984 17.4231 15.7878H25.4556C25.4556 15.7877 26.3345 8.98638 20.0604 8.98638ZM17.3931 13.6962C17.3931 13.6962 17.7262 11.2812 20.121 11.2812C22.5153 11.2812 22.4853 13.6962 22.4853 13.6962H17.3931ZM23.1208 7.85243H16.7253V5.92304H23.1208V7.85243Z" fill="#121212"/>
</g>
<defs>
<clipPath id="clip0_1102_11013">
<rect width="25" height="16" fill="white" transform="translate(0.5 5)"/>
</clipPath>
</defs>
</svg>
