<svg width="20" height="20" viewBox="0 0 20 20" fill="none" xmlns="http://www.w3.org/2000/svg">
<path d="M13.9999 0C17.3136 0 19.9999 2.68629 19.9999 6C19.9999 7.5373 19.4178 8.98434 18.396 10.0835L18.2061 10.2784L9.47901 19.0053L9.42588 19.0548L9.37016 19.0997C8.70094 19.6759 7.84594 20 6.9429 20C4.88779 20 3.22179 18.334 3.22179 16.2789C3.22179 15.3775 3.54481 14.5248 4.11735 13.8574L4.26564 13.6945L4.28072 13.6826L11.5717 6.37879C11.9619 5.98793 12.5951 5.98737 12.986 6.37755C13.3768 6.76774 13.3774 7.4009 12.9872 7.79177L5.69618 15.0956L5.68524 15.1039C5.38894 15.4208 5.22179 15.8354 5.22179 16.2789C5.22179 17.2294 5.99236 18 6.9429 18C7.32185 18 7.67979 17.8781 7.97412 17.6571L8.09624 17.5564L8.09702 17.558L16.7994 8.85707L16.958 8.69267C17.6231 7.96299 17.9999 7.0125 17.9999 6C17.9999 3.79086 16.2091 2 13.9999 2C12.9383 2 11.9453 2.4146 11.2048 3.13858L11.0501 3.29842L11.0316 3.31139L1.70629 12.6403C1.31585 13.0309 0.682687 13.031 0.292075 12.6406C-0.0985368 12.2501 -0.0986784 11.617 0.291758 11.2264L9.60072 1.91324L9.64733 1.87021C10.7712 0.68577 12.3316 0 13.9999 0Z" fill="#272727"/>
</svg>
