<svg width="21" height="21" viewBox="0 0 21 21" fill="none" xmlns="http://www.w3.org/2000/svg">
<path d="M0.43031 0.689146L0.55076 0.550547C0.760291 0.340967 1.03807 0.213541 1.3336 0.191437C1.62913 0.169333 1.92278 0.254019 2.16116 0.430097L2.29976 0.550547L10.5003 8.7494L18.7008 0.548897C18.9105 0.339564 19.1884 0.212443 19.4839 0.190642C19.7794 0.168841 20.073 0.253808 20.3112 0.430097L20.4498 0.550547C20.6593 0.760077 20.7868 1.03786 20.8089 1.33339C20.831 1.62892 20.7463 1.92257 20.5702 2.16095L20.4498 2.29955L12.2509 10.5L20.4514 18.7005C20.6607 18.9103 20.7879 19.1882 20.8097 19.4837C20.8315 19.7792 20.7465 20.0728 20.5702 20.3109L20.4498 20.4496C20.2402 20.6591 19.9624 20.7866 19.6669 20.8087C19.3714 20.8308 19.0777 20.7461 18.8394 20.57L18.7008 20.4496L10.5003 12.2507L2.29976 20.4512C2.09002 20.6605 1.81213 20.7877 1.51661 20.8095C1.22108 20.8313 0.927545 20.7463 0.68936 20.57L0.55076 20.4496C0.341181 20.24 0.213755 19.9622 0.19165 19.6667C0.169546 19.3712 0.254232 19.0775 0.43031 18.8391L0.55076 18.7005L8.74961 10.5L0.54911 2.29955C0.339778 2.08981 0.212656 1.81192 0.190855 1.51639C0.169054 1.22087 0.254021 0.927332 0.43031 0.689146L0.55076 0.550547L0.43031 0.689146Z" fill="white"/>
</svg>
