<svg width="26" height="26" viewBox="0 0 26 26" fill="none" xmlns="http://www.w3.org/2000/svg">
<path d="M6.85246 13.8476H9.70248V25.5806C9.70248 25.8123 9.89018 26 10.1218 26H14.9541C15.1858 26 15.3735 25.8123 15.3735 25.5806V13.9029H18.6498C18.8629 13.9029 19.0421 13.743 19.0664 13.5314L19.564 9.21188C19.5777 9.09304 19.54 8.97403 19.4605 8.88487C19.3809 8.79563 19.267 8.74456 19.1475 8.74456H15.3737V6.03686C15.3737 5.22063 15.8132 4.80673 16.68 4.80673C16.8036 4.80673 19.1475 4.80673 19.1475 4.80673C19.3792 4.80673 19.5669 4.61894 19.5669 4.38737V0.422458C19.5669 0.190806 19.3792 0.00310323 19.1475 0.00310323H15.747C15.723 0.00192903 15.6697 0 15.5912 0C15.0012 0 12.9503 0.115826 11.3302 1.60621C9.53524 3.2578 9.78476 5.23531 9.84439 5.57817V8.74447H6.85246C6.62081 8.74447 6.43311 8.93217 6.43311 9.16383V13.4282C6.43311 13.6598 6.62081 13.8476 6.85246 13.8476Z" fill="#121212"/>
</svg>
