<svg width="26" height="26" viewBox="0 0 26 26" fill="none" xmlns="http://www.w3.org/2000/svg">
<path d="M8.45008 2.16602H17.5501C21.0168 2.16602 23.8334 4.98268 23.8334 8.44935V17.5494C23.8334 19.2158 23.1714 20.814 21.9931 21.9923C20.8147 23.1707 19.2165 23.8327 17.5501 23.8327H8.45008C4.98341 23.8327 2.16675 21.016 2.16675 17.5494V8.44935C2.16675 6.78291 2.82874 5.18472 4.00709 4.00636C5.18545 2.82801 6.78364 2.16602 8.45008 2.16602ZM8.23341 4.33268C7.19907 4.33268 6.20709 4.74357 5.4757 5.47497C4.74431 6.20636 4.33341 7.19834 4.33341 8.23268V17.766C4.33341 19.9218 6.07758 21.666 8.23341 21.666H17.7667C18.8011 21.666 19.7931 21.2551 20.5245 20.5237C21.2559 19.7923 21.6667 18.8004 21.6667 17.766V8.23268C21.6667 6.07685 19.9226 4.33268 17.7667 4.33268H8.23341ZM18.6876 5.95768C19.0467 5.95768 19.3912 6.10035 19.6451 6.35431C19.8991 6.60826 20.0417 6.9527 20.0417 7.31185C20.0417 7.671 19.8991 8.01543 19.6451 8.26939C19.3912 8.52334 19.0467 8.66602 18.6876 8.66602C18.3284 8.66602 17.984 8.52334 17.73 8.26939C17.4761 8.01543 17.3334 7.671 17.3334 7.31185C17.3334 6.9527 17.4761 6.60826 17.73 6.35431C17.984 6.10035 18.3284 5.95768 18.6876 5.95768ZM13.0001 7.58268C14.4367 7.58268 15.8144 8.15337 16.8302 9.16919C17.8461 10.185 18.4167 11.5628 18.4167 12.9993C18.4167 14.4359 17.8461 15.8137 16.8302 16.8295C15.8144 17.8453 14.4367 18.416 13.0001 18.416C11.5635 18.416 10.1857 17.8453 9.16992 16.8295C8.1541 15.8137 7.58342 14.4359 7.58342 12.9993C7.58342 11.5628 8.1541 10.185 9.16992 9.16919C10.1857 8.15337 11.5635 7.58268 13.0001 7.58268ZM13.0001 9.74935C12.1381 9.74935 11.3115 10.0918 10.702 10.7013C10.0925 11.3107 9.75008 12.1374 9.75008 12.9993C9.75008 13.8613 10.0925 14.688 10.702 15.2974C11.3115 15.9069 12.1381 16.2493 13.0001 16.2493C13.862 16.2493 14.6887 15.9069 15.2982 15.2974C15.9077 14.688 16.2501 13.8613 16.2501 12.9993C16.2501 12.1374 15.9077 11.3107 15.2982 10.7013C14.6887 10.0918 13.862 9.74935 13.0001 9.74935Z" fill="#121212"/>
</svg>
