<svg width="26" height="26" viewBox="0 0 26 26" fill="none" xmlns="http://www.w3.org/2000/svg">
<g clip-path="url(#clip0_1102_11007)">
<path fill-rule="evenodd" clip-rule="evenodd" d="M22.3767 14.9982C23.2392 15.8402 24.1494 16.6324 24.923 17.5594C25.2647 17.9713 25.5882 18.3964 25.8357 18.8744C26.1863 19.554 25.8687 20.3018 25.2594 20.3424L21.4716 20.3407C20.4947 20.4217 19.7154 20.0284 19.0601 19.3605C18.5356 18.8263 18.05 18.2578 17.5457 17.7056C17.339 17.4799 17.1226 17.2676 16.8641 17.0997C16.3471 16.7641 15.8982 16.8668 15.6027 17.4061C15.3018 17.9547 15.2335 18.562 15.204 19.1733C15.1634 20.0653 14.8938 20.2997 13.9979 20.3406C12.0831 20.4309 10.266 20.1412 8.57789 19.1753C7.08962 18.3238 5.93552 17.1217 4.93101 15.7608C2.9752 13.1108 1.47744 10.1989 0.131309 7.20543C-0.171694 6.531 0.0498986 6.16897 0.794037 6.15615C2.02971 6.13215 3.26522 6.13386 4.50234 6.15445C5.00456 6.16179 5.33703 6.44985 5.53095 6.9243C6.19949 8.56813 7.01752 10.1321 8.04433 11.5818C8.31777 11.9677 8.5966 12.3537 8.99366 12.6253C9.43291 12.9261 9.76735 12.8264 9.974 12.3371C10.1051 12.0268 10.1625 11.6926 10.1921 11.3603C10.29 10.2171 10.3029 9.07582 10.1312 7.93659C10.0258 7.22559 9.62529 6.76532 8.91583 6.63078C8.5538 6.56218 8.60771 6.42746 8.783 6.22082C9.08745 5.86443 9.3738 5.64258 9.94461 5.64258H14.2254C14.8993 5.77559 15.0489 6.07833 15.1412 6.75644L15.1449 11.5115C15.1375 11.774 15.276 12.553 15.7488 12.7267C16.1273 12.8504 16.3767 12.5477 16.6038 12.3077C17.6287 11.2199 18.3602 9.93434 19.0137 8.60316C19.3037 8.01782 19.5531 7.40994 19.7947 6.80257C19.9738 6.35186 20.2547 6.1301 20.7624 6.13992L24.8824 6.1436C25.0046 6.1436 25.1282 6.14539 25.2465 6.16564C25.9407 6.28395 26.131 6.5826 25.9166 7.26053C25.5787 8.32416 24.9214 9.21053 24.2786 10.101C23.5915 11.0517 22.8567 11.9698 22.1754 12.9262C21.5494 13.7995 21.5991 14.2397 22.3767 14.9982Z" fill="#121212"/>
</g>
<defs>
<clipPath id="clip0_1102_11007">
<rect width="26" height="26" fill="white"/>
</clipPath>
</defs>
</svg>
