<svg width="26" height="26" viewBox="0 0 26 26" fill="none" xmlns="http://www.w3.org/2000/svg">
<path d="M24.9866 5.4223C24.0481 4.30665 22.3153 3.85156 19.0061 3.85156H6.99366C3.60872 3.85156 1.84659 4.336 0.911594 5.52378C0 6.68187 0 8.38823 0 10.7499V15.2511C0 19.8264 1.0816 22.1494 6.99366 22.1494H19.0062C21.8759 22.1494 23.4661 21.7478 24.4949 20.7632C25.5499 19.7536 26 18.1051 26 15.2511V10.7499C26 8.25932 25.9295 6.5429 24.9866 5.4223ZM16.6921 13.6219L11.2373 16.4728C11.1153 16.5365 10.982 16.5682 10.8488 16.5682C10.698 16.5682 10.5475 16.5276 10.4143 16.4469C10.1633 16.2948 10.0101 16.0228 10.0101 15.7295V10.046C10.0101 9.75314 10.1629 9.4814 10.4133 9.32926C10.6639 9.17712 10.9754 9.16672 11.2354 9.30175L16.6902 12.1342C16.9677 12.2783 17.142 12.5648 17.1424 12.8774C17.1427 13.1903 16.9692 13.4772 16.6921 13.6219Z" fill="#121212"/>
</svg>
