<svg xmlns="http://www.w3.org/2000/svg" viewBox="0 0 234.85 47.26"><defs><style>.cls-1{fill:#113820;}.cls-2{fill:#9bbf2e;}</style></defs><title>PS_main</title><g id="Слой_2" data-name="Слой 2"><g id="Слой_1-2" data-name="Слой 1"><path class="cls-1" d="M54.86,11.22H49.09A1.61,1.61,0,0,0,47.32,13v18.8a1.65,1.65,0,1,0,3.29,0V25.05h4.55a6.78,6.78,0,0,0,6.75-7A6.86,6.86,0,0,0,54.86,11.22Zm3.69,6.88a3.6,3.6,0,0,1-3.4,3.64H50.61V14.51h4.47A3.42,3.42,0,0,1,58.55,18.1Z"/><path class="cls-1" d="M77.68,30.13H69.21V12.85a1.65,1.65,0,1,0-3.29,0V31.19c0,1.41.73,2.22,2,2.22h9.76a1.64,1.64,0,1,0,0-3.28Z"/><path class="cls-1" d="M118.52,28.29a1.55,1.55,0,0,0-1.14.49,7.3,7.3,0,0,1-4.81,1.77c-4.51,0-6.87-4.16-6.87-8.28,0-3.88,2.14-8,6.84-8a7.62,7.62,0,0,1,4.87,1.66,2,2,0,0,0,1.31.52,1.65,1.65,0,0,0,1.63-1.74,1.88,1.88,0,0,0-.74-1.46,10.62,10.62,0,0,0-7-2.49c-6.84,0-10.43,5.92-10.43,11.76C102.19,28,105.4,34,112.45,34a11.15,11.15,0,0,0,7.07-2.51,1.93,1.93,0,0,0,.63-1.5A1.55,1.55,0,0,0,118.52,28.29Z"/><path class="cls-1" d="M136.74,30.13h-9.13V23.56h7.54a1.5,1.5,0,0,0,1.66-1.6,1.54,1.54,0,0,0-1.66-1.68h-7.54V14.53h8.9a1.51,1.51,0,0,0,1.66-1.63,1.52,1.52,0,0,0-1.66-1.65H126.1a1.68,1.68,0,0,0-1.77,1.88v18.4c0,1.22.28,1.88,1.77,1.88h10.64c1.14,0,1.82-.61,1.82-1.63C138.56,31.29,138.39,30.13,136.74,30.13Z"/><path class="cls-1" d="M152.68,21.53c-.46-.22-.92-.43-1.35-.66l-.86-.45c-1.92-1-3.74-2-3.74-3.18a3.06,3.06,0,0,1,3.05-2.93h0a7,7,0,0,1,4.3,1.5l.15.1a2.4,2.4,0,0,0,1.27.51,1.68,1.68,0,0,0,1.62-1.72,2.4,2.4,0,0,0-1-1.78,10.25,10.25,0,0,0-5.87-2c-4.17,0-7.09,2.66-7.09,6.46,0,3.29,3.31,5,6.32,6.52.47.24,1,.45,1.44.67,2,.89,3.21,1.52,3.29,3.28.1,2.25-4.26,4.1-8.27,1.65a2.63,2.63,0,0,0-1.34-.44A1.45,1.45,0,0,0,143,30.6a2,2,0,0,0,1.06,1.76,9.7,9.7,0,0,0,5.28,1.51c5.42,0,8.4-2.2,8.4-6.19C157.75,23.9,155.06,22.64,152.68,21.53Z"/><path class="cls-1" d="M176.76,11.34H162.7A1.54,1.54,0,0,0,161,13a1.54,1.54,0,0,0,1.74,1.62h5.36V31.74a1.6,1.6,0,0,0,1.68,1.79,1.58,1.58,0,0,0,1.63-1.79V14.62h5.39A1.52,1.52,0,0,0,178.44,13,1.54,1.54,0,0,0,176.76,11.34Z"/><path class="cls-1" d="M196.11,31.14,189.49,13a2.3,2.3,0,0,0-4.43,0l-6.4,18.13a2.32,2.32,0,0,0-.15.75,1.48,1.48,0,0,0,1.52,1.6,1.93,1.93,0,0,0,1.85-1.48l1.62-4.58h7.56l2,5a1.6,1.6,0,0,0,1.59,1.07A1.5,1.5,0,0,0,196.26,32,2.3,2.3,0,0,0,196.11,31.14ZM190,24.19h-5.44l2.76-7.53Z"/><path class="cls-1" d="M210.53,24.4a6.82,6.82,0,0,0-3-13.06h-5.31c-1.54,0-2.22.78-2.22,2.53V31.64c0,1.71,1.16,1.89,1.66,1.89,1,0,1.62-.7,1.62-1.88V25.12h3.78l4.37,7.54a1.57,1.57,0,0,0,1.5.9A1.45,1.45,0,0,0,214.46,32a2.8,2.8,0,0,0-.34-1.29Zm.7-6.2a3.51,3.51,0,0,1-3.47,3.64h-4.47V14.62h4.47A3.48,3.48,0,0,1,211.23,18.2Z"/><path class="cls-1" d="M233.17,11.34H219.11A1.54,1.54,0,0,0,217.37,13a1.54,1.54,0,0,0,1.74,1.62h5.36V31.74a1.6,1.6,0,0,0,1.68,1.79,1.58,1.58,0,0,0,1.63-1.79V14.62h5.39A1.52,1.52,0,0,0,234.85,13,1.54,1.54,0,0,0,233.17,11.34Z"/><path class="cls-1" d="M99.82,31.07,93.2,13a2.3,2.3,0,0,0-4.43,0L82.37,31.1a2.39,2.39,0,0,0-.14.76,1.47,1.47,0,0,0,1.51,1.6A1.93,1.93,0,0,0,85.59,32l1.62-4.58h7.56l2,5a1.59,1.59,0,0,0,1.59,1.07A1.5,1.5,0,0,0,100,31.89,2.14,2.14,0,0,0,99.82,31.07Zm-6.13-6.95H88.25L91,16.59Z"/><g id="surface1"><path class="cls-2" d="M32.57,5.72A18.9,18.9,0,0,0,19.16,0H19A19.14,19.14,0,0,0,0,18.87V45.29a2,2,0,0,0,2,2,1.94,1.94,0,0,0,1.38-.57l9.69-9.5a38.23,38.23,0,0,0,5.83.88h.17a19.35,19.35,0,0,0,19-18.91A18.85,18.85,0,0,0,32.57,5.72ZM19.05,35.15h-.14a36.77,36.77,0,0,1-5.75-.93,2,2,0,0,0-1.78.51L2.92,43V18.91A16.2,16.2,0,0,1,19,2.92h.1A16,16,0,0,1,30.49,7.77a15.92,15.92,0,0,1,4.66,11.37A16.38,16.38,0,0,1,19.05,35.15Z"/><path class="cls-2" d="M23.09,11.62A1.46,1.46,0,0,0,22,11.5a1.48,1.48,0,0,0-.88.71A1.46,1.46,0,0,0,21,13.33a1.48,1.48,0,0,0,.71.88,5.56,5.56,0,1,1-5.61.19,1.47,1.47,0,1,0-1.58-2.49,8.49,8.49,0,1,0,8.6-.29Z"/><path class="cls-2" d="M18.85,9.57a1.47,1.47,0,0,0-1.47,1.48v6.24a1.48,1.48,0,0,0,2.95,0V11.05A1.48,1.48,0,0,0,18.85,9.57Z"/></g></g></g></svg>