<svg width="61" height="55" viewBox="0 0 61 55" fill="none" xmlns="http://www.w3.org/2000/svg">
<g clip-path="url(#clip0_1118_992)">
<path d="M15.1822 0.464844H20.8983L33.6629 36.6276H26.0043L23.6545 29.1627H9.98609L7.74922 36.6276H0.090332L11.7258 2.88356C12.313 1.27865 13.4878 0.464844 15.1822 0.464844ZM16.8089 7.72065L11.9062 23.0695H21.7117L16.8089 7.72065Z" fill="black"/>
<path d="M35.425 36.6278C35.425 33.2791 36.2156 30.2789 37.7745 27.6974C39.1979 25.3257 41.3442 23.1162 44.2136 21.0697C44.4167 20.9301 44.7105 20.7209 45.1399 20.4882C45.5467 20.2325 46.0208 19.9536 46.5634 19.6044C48.7999 18.1395 50.5396 16.7672 51.7822 15.5115C53.025 14.2324 53.6122 12.9071 53.6122 11.5114C53.6122 9.81376 53.1376 8.53457 52.1887 7.6277C51.2402 6.6512 49.9522 6.16278 48.303 6.16278C46.473 6.16278 45.0494 6.74391 44.0327 7.95347C43.0842 9.23263 42.6096 10.8602 42.6096 12.9071V13.2324H38.9267C37.5036 13.2324 36.6679 12.8371 36.4191 12.0232C36.1705 11.2091 36.1254 10.3256 36.2836 9.34876C36.7579 7.04657 37.7522 5.04628 39.2656 3.34867C41.5025 1.09303 44.6882 0 48.7547 0C52.5505 0 55.555 1.02302 57.7467 3.06947C59.9382 5.2555 60.9999 8.04653 60.9999 11.4883C60.9999 14.0928 60.4351 16.2092 59.2605 17.9068C58.0176 19.7906 55.781 21.8835 52.5276 24.0931C51.353 24.9303 49.9294 25.9068 48.1899 27.0233C46.4502 28.1394 45.4787 29.2325 45.2979 30.2789H60.9776V36.6979H35.425V36.6278Z" fill="#F4B400"/>
<path d="M0 49.8144H3.00485C3.11769 50.6979 3.45657 51.3029 3.97628 51.6516C4.54122 52.0702 5.33183 52.2561 6.32604 52.2561C7.20705 52.2561 7.86239 52.093 8.31411 51.7677C8.76584 51.4421 9.01429 50.9771 9.01429 50.3723C9.01429 49.442 7.72676 48.6748 5.19618 48.0934L5.10578 48.0698L4.76689 47.9771C3.32095 47.6515 2.34951 47.3256 1.87501 46.9769C1.31047 46.6516 0.903579 46.186 0.677912 45.5816C0.38409 45.0467 0.248499 44.3724 0.248499 43.5818C0.248499 42.1397 0.723124 41.0003 1.69455 40.2094C2.66599 39.4188 4.06671 39.0234 5.91914 39.0234C7.65878 39.0234 8.99188 39.4422 9.94093 40.2559C10.9123 41.1629 11.4093 42.3258 11.4772 43.8144H9.76005C9.10472 43.8144 8.653 43.4885 8.35934 42.8841C8.22368 42.5816 8.02045 42.3489 7.77199 42.1397C7.25225 41.7445 6.55172 41.5817 5.67069 41.5817C4.81209 41.5817 4.20234 41.7445 3.84066 42.0701C3.41138 42.3954 3.20812 42.8604 3.20812 43.4421C3.20812 44.2327 4.04393 44.8143 5.67069 45.2098C6.1452 45.3492 6.50687 45.4655 6.73254 45.4883C7.25225 45.6514 7.68156 45.8142 8.06565 45.9072C8.44974 46.0004 8.76584 46.07 8.99188 46.1632C9.39838 46.3257 9.78246 46.5119 10.1894 46.6981C10.7543 47.0468 11.1832 47.5118 11.5221 48.0698C11.8385 48.6748 11.9965 49.3724 11.9965 50.0701C11.9965 51.6516 11.4772 52.8839 10.4602 53.7678C9.44358 54.5818 7.99764 55.0003 6.1 55.0003C4.17955 55.0003 2.73361 54.5818 1.73976 53.721C0.655118 52.7448 0.0903807 51.5119 0 49.8144Z" fill="black"/>
<path d="M12.5391 54.512V41.0005C12.5391 40.5585 12.6743 40.1865 12.9908 39.8842C13.3069 39.5586 13.6457 39.4189 14.0751 39.4189H23.2027V42.0237H15.521V45.2795H21.2372V46.2796C21.2372 46.7213 21.1015 47.0936 20.7854 47.3959C20.469 47.7217 20.1301 47.8609 19.7008 47.8609H15.521V51.7213H23.2027V54.5354L12.5391 54.512Z" fill="black"/>
<path d="M28.7829 54.512L23.7222 39.4189H27.0887L30.2067 50.6983L33.0532 40.5585C33.2112 39.7913 33.6857 39.4189 34.4992 39.4189H36.668L31.6749 54.512H28.7829Z" fill="black"/>
<path d="M37.3232 54.512V41.0005C37.3232 40.5585 37.4589 40.1865 37.7749 39.8842C38.0915 39.5586 38.4304 39.4189 38.8596 39.4189H47.9869V42.0237H40.3056V45.2795H46.0212V46.2796C46.0212 46.7213 45.8858 47.0936 45.5696 47.3959C45.2532 47.6981 44.9144 47.8609 44.4849 47.8609H40.3056V51.7213H47.9869V54.5354L37.3232 54.512Z" fill="black"/>
<path d="M48.8457 54.5117V41.0001C48.8457 40.5582 48.9812 40.1861 49.2974 39.8839C49.6137 39.5583 49.9526 39.4186 50.382 39.3721H52.0084L57.9729 49.7677V39.3955H60.9777V54.5582H57.86L51.8503 44.1629V54.5582L48.8457 54.5117Z" fill="black"/>
</g>
<defs>
<clipPath id="clip0_1118_992">
<rect width="61" height="55" fill="white"/>
</clipPath>
</defs>
</svg>
