<svg xmlns="http://www.w3.org/2000/svg" xmlns:xlink="http://www.w3.org/1999/xlink" width="0" height="0" style="position:absolute">
	
		<symbol id="arr-back" viewBox="0 0 32 8">
			<path d="M.628 3.647a.5.5 0 0 0 .037.706L4.01 7.531a.5.5 0 0 0 .707 0 .5.5 0 0 0-.037-.706L1.707 4 4.39 1.175A.5.5 0 0 0 4.353.47a.5.5 0 0 0-.707 0L.628 3.647zM30.974 3.5h-30l.052.998h30l-.052-.998z"></path>
		</symbol>
	
		<symbol id="behance-svg" viewBox="0 0 26 26">
			<path d="M10.59 12.153s2.365-.177 2.365-2.98C12.955 6.367 11.02 5 8.57 5H.502v15.668H8.57s4.924.157 4.924-4.624c0 0 .215-3.89-2.903-3.89zM7.988 7.785h.58s1.097 0 1.097 1.63-.645 1.866-1.376 1.866H4.057V7.785h3.931zm.353 10.098H4.057v-4.187h4.512s1.634-.021 1.634 2.152c0 1.832-1.22 2.021-1.862 2.035zm11.72-8.897c-5.962 0-5.957 6.02-5.957 6.02s-.409 5.99 5.956 5.99c0 0 5.305.306 5.305-4.167h-2.728s.09 1.685-2.486 1.685c0 0-2.728.184-2.728-2.726h8.033s.878-6.802-5.396-6.802zm-2.668 4.71s.333-2.415 2.728-2.415c2.394 0 2.364 2.415 2.364 2.415h-5.092zm5.728-5.844h-6.396V5.923h6.396v1.93z"></path>
		</symbol>
	
		<symbol id="clip" viewBox="0 0 20 20">
			<path d="M14 0a6 6 0 0 1 4.396 10.084l-.19.194-8.727 8.727-.053.05-.056.045a3.721 3.721 0 0 1-5.253-5.242l.149-.164.015-.011 7.29-7.304a1 1 0 0 1 1.416 1.413l-7.29 7.304-.012.008a1.721 1.721 0 0 0 2.289 2.553l.122-.1.001.001 8.702-8.7.159-.165a4 4 0 0 0-5.753-5.554l-.155.16-.018.012-9.326 9.33a1 1 0 0 1-1.414-1.415L9.6 1.913l.046-.043A5.985 5.985 0 0 1 14 0z"></path>
		</symbol>
	
		<symbol id="close" viewBox="0 0 21 21">
			<path d="M.43.69L.55.55A1.237 1.237 0 0 1 2.162.43L2.3.55l8.2 8.2L18.7.548A1.237 1.237 0 0 1 20.312.43l.139.12a1.238 1.238 0 0 1 .12 1.611l-.12.139-8.2 8.2 8.201 8.2a1.238 1.238 0 0 1 .12 1.61l-.121.14a1.238 1.238 0 0 1-1.61.12l-.14-.12-8.2-8.2-8.2 8.201a1.238 1.238 0 0 1-1.61.119l-.14-.12a1.238 1.238 0 0 1-.12-1.61l.12-.14 8.2-8.2-8.2-8.2A1.238 1.238 0 0 1 .43.69L.55.55.43.69z"></path>
		</symbol>
	
		<symbol id="facebook-svg" viewBox="0 0 26 26">
			<path d="M6.852 13.848h2.85V25.58c0 .231.188.419.42.419h4.832a.42.42 0 0 0 .42-.42V13.904h3.276a.42.42 0 0 0 .416-.372l.498-4.32a.42.42 0 0 0-.416-.466h-3.774V6.037c0-.816.44-1.23 1.306-1.23h2.468a.42.42 0 0 0 .419-.42V.422a.42.42 0 0 0-.42-.419h-3.4A3.337 3.337 0 0 0 15.591 0c-.59 0-2.64.116-4.26 1.606-1.796 1.652-1.546 3.63-1.487 3.972v3.166H6.852a.42.42 0 0 0-.419.42v4.264c0 .232.188.42.42.42z"></path>
		</symbol>
	
		<symbol id="fullscreen" viewBox="0 0 340 340">
			<path d="M138.125 31.875v-21.25h-127.5v127.5h21.25V46.901l106.706 106.705 15.025-15.025L46.901 31.875h91.224zM308.125 201.875v91.224L198.763 183.737l-15.025 15.025 109.361 109.363h-91.224v21.25h127.5v-127.5h-21.25z"></path>
		</symbol>
	
		<symbol id="fullscreen-exit" viewBox="0 0 340 340">
			<path d="M26.106 132.356v21.25h127.5v-127.5h-21.25v91.225L25.65 10.625 10.625 25.65l106.706 106.706H26.106zM204.987 311.237v-91.224L314.35 329.375l15.025-15.025-109.362-109.363h91.224v-21.25h-127.5v127.5h21.25z"></path>
		</symbol>
	
		<symbol id="instagram-svg" viewBox="0 0 26 26">
			<path d="M8.45 2.166h9.1a6.288 6.288 0 0 1 6.283 6.283v9.1a6.283 6.283 0 0 1-6.283 6.284h-9.1a6.288 6.288 0 0 1-6.283-6.284v-9.1A6.283 6.283 0 0 1 8.45 2.166zm-.217 2.167a3.9 3.9 0 0 0-3.9 3.9v9.533c0 2.156 1.745 3.9 3.9 3.9h9.534a3.9 3.9 0 0 0 3.9-3.9V8.233c0-2.156-1.744-3.9-3.9-3.9H8.233zm10.455 1.625a1.354 1.354 0 1 1 0 2.708 1.354 1.354 0 0 1 0-2.708zM13 7.583a5.416 5.416 0 1 1 0 10.833 5.416 5.416 0 0 1 0-10.833zm0 2.166a3.25 3.25 0 1 0 0 6.5 3.25 3.25 0 0 0 0-6.5z"></path>
		</symbol>
	
		<symbol id="link-svg" viewBox="0 0 20 10">
			<path d="M1.9 5c0-1.71 1.39-3.1 3.1-3.1h4V0H5a5 5 0 1 0 0 10h4V8.1H5C3.29 8.1 1.9 6.71 1.9 5zM6 6h8V4H6v2zm9-6h-4v1.9h4c1.71 0 3.1 1.39 3.1 3.1 0 1.71-1.39 3.1-3.1 3.1h-4V10h4a5 5 0 1 0 0-10z"></path>
		</symbol>
	
		<symbol id="menu" viewBox="0 0 10 7">
			<path d="M1.175 0L5 3.825 8.825 0 10 1.183l-5 5-5-5L1.175 0z"></path>
		</symbol>
	
		<symbol id="play" viewBox="0 0 17 20">
			<path d="M17 10L.5 19.526V.474L17 10z"></path>
		</symbol>
	
		<symbol id="plus" viewBox="0 0 12 12">
			<path d="M0 5h12v2H0z"></path><path d="M7 0v12H5V0z"></path>
		</symbol>
	
		<symbol id="review-separate" viewBox="0 0 66 67">
			<path d="M44 7.19h13L42 33.197l15 26.006H44L29 33.196 44 7.19z"></path><path d="M24 7.19h13L22 33.197l15 26.006H24L9 33.196 24 7.19z"></path>
		</symbol>
	
		<symbol id="vk-svg" viewBox="0 0 26 26">
			<path fill-rule="evenodd" clip-rule="evenodd" d="M22.377 14.998c.862.842 1.772 1.634 2.546 2.561.342.412.665.837.913 1.315.35.68.033 1.428-.577 1.468l-3.787-.001c-.977.08-1.757-.313-2.412-.98-.524-.535-1.01-1.103-1.514-1.655a3.586 3.586 0 0 0-.682-.606c-.517-.336-.966-.233-1.261.306-.301.549-.37 1.156-.399 1.767-.04.892-.31 1.127-1.206 1.168-1.915.09-3.732-.2-5.42-1.166-1.488-.851-2.642-2.053-3.647-3.414-1.956-2.65-3.454-5.562-4.8-8.556C-.172 6.531.05 6.17.794 6.156c1.236-.024 2.471-.022 3.708-.002.503.008.835.296 1.029.77.668 1.644 1.487 3.208 2.513 4.658.274.386.553.772.95 1.043.439.301.773.201.98-.288.131-.31.188-.644.218-.977.098-1.143.11-2.284-.06-3.423-.106-.711-.507-1.172-1.216-1.306-.362-.069-.308-.204-.133-.41.304-.357.59-.578 1.162-.578h4.28c.674.133.824.435.916 1.113l.004 4.755c-.008.263.131 1.042.604 1.216.378.123.628-.18.855-.42 1.025-1.087 1.756-2.373 2.41-3.704.29-.585.54-1.193.78-1.8.18-.451.46-.673.968-.663l4.12.004c.123 0 .246.001.364.022.695.118.885.417.67 1.095-.337 1.063-.995 1.95-1.637 2.84-.688.95-1.422 1.869-2.104 2.825-.626.873-.576 1.314.202 2.072z"></path>
		</symbol>
	
		<symbol id="youtube-svg" viewBox="0 0 26 26">
			<path d="M24.987 5.422c-.939-1.115-2.672-1.57-5.98-1.57H6.993c-3.385 0-5.147.484-6.082 1.672C0 6.682 0 8.388 0 10.75v4.501c0 4.575 1.082 6.898 6.994 6.898h12.012c2.87 0 4.46-.401 5.489-1.386C25.55 19.753 26 18.105 26 15.251V10.75c0-2.49-.07-4.207-1.013-5.328zm-8.295 8.2l-5.455 2.85a.839.839 0 0 1-1.227-.743v-5.683a.839.839 0 0 1 1.225-.744l5.455 2.832a.839.839 0 0 1 .002 1.488z"></path>
		</symbol>
	
</svg>
